<?xml version="1.0" encoding="UTF-8" standalone="no"?>
<!-- Created with Inkscape (http://www.inkscape.org/) -->

<svg
   sodipodi:docname="pattern.svg"
   xml:space="preserve"
   id="svg5"
   version="1.1"
   viewBox="0 0 210 296.99999"
   height="1122.5197"
   width="793.70081"
   inkscape:version="1.2.2 (b0a8486541, 2022-12-01)"
   xmlns:inkscape="http://www.inkscape.org/namespaces/inkscape"
   xmlns:sodipodi="http://sodipodi.sourceforge.net/DTD/sodipodi-0.dtd"
   xmlns:xlink="http://www.w3.org/1999/xlink"
   xmlns="http://www.w3.org/2000/svg"
   xmlns:svg="http://www.w3.org/2000/svg"><sodipodi:namedview
     id="namedview7"
     pagecolor="#ffffff"
     bordercolor="#666666"
     borderopacity="1.0"
     inkscape:showpageshadow="false"
     inkscape:pageopacity="0.0"
     inkscape:pagecheckerboard="0"
     inkscape:deskcolor="#d1d1d1"
     inkscape:document-units="mm"
     showgrid="true"
     showborder="false"
     inkscape:zoom="2.2455458"
     inkscape:cx="182.80634"
     inkscape:cy="408.8093"
     inkscape:window-width="1884"
     inkscape:window-height="999"
     inkscape:window-x="0"
     inkscape:window-y="0"
     inkscape:window-maximized="0"
     inkscape:current-layer="layer1"><inkscape:grid
       type="xygrid"
       id="grid3613"
       units="px"
       spacingx="26.458333"
       spacingy="26.458333"
       originx="0"
       originy="0"
       enabled="false" /></sodipodi:namedview><defs
     id="defs2"><inkscape:path-effect
       effect="offset"
       id="path-effect55323"
       is_visible="true"
       lpeversion="1.2"
       linejoin_type="round"
       unit="mm"
       offset="0.7"
       miter_limit="4"
       attempt_force_join="false"
       update_on_knot_move="true" /><inkscape:path-effect
       effect="offset"
       id="path-effect55316"
       is_visible="true"
       lpeversion="1.2"
       linejoin_type="miter"
       unit="mm"
       offset="0.53331326"
       miter_limit="4"
       attempt_force_join="false"
       update_on_knot_move="true" /><linearGradient
       id="linearGradient43860"
       inkscape:swatch="solid"><stop
         style="stop-color:#a40000;stop-opacity:1;"
         offset="0"
         id="stop43858" /></linearGradient><pattern
       inkscape:collect="always"
       xlink:href="#pattern29833"
       id="pattern31992"
       patternTransform="matrix(0.12970046,-0.00917964,-0.00930812,-0.13151574,265.53602,315.57952)" /><inkscape:path-effect
       effect="knot"
       id="path-effect2522"
       is_visible="true"
       lpeversion="1"
       switcher_size="15"
       interruption_width="3"
       prop_to_stroke_width="true"
       add_stroke_width="inkscape_1.0_and_up"
       both="false"
       inverse_width="false"
       add_other_stroke_width="inkscape_1.0_and_up"
       crossing_points_vector="22.588635 | 133.16848 | 0 | 3 | 0 | 0 | 0 | 0 | 1 | 61.507606 | 87.389831 | 0 | 1 | 1 | 1 | 1.248084 | 0.89755273 | 1 | 73.923643 | 92.615037 | 0 | 2 | 2 | 1 | 1.496168 | 0.79510545 | 1 | 37.719825 | 133.16848 | 1 | 4 | 0 | 0 | 0 | 0 | 1 | 76.638797 | 87.389831 | 1 | 2 | 2 | 2 | 1.248084 | 0.89755273 | 1 | 52.851016 | 133.16848 | 2 | 5 | 0 | 0 | 1.7306588e-15 | 3.9412917e-15 | 1 | 49.091569 | 184.17233 | 3 | 6 | 0 | 1 | 1 | 1 | 1 | 49.091569 | 184.17233 | 3 | 6 | 1 | 2 | 1 | 1 | 1 | 61.507606 | 178.94713 | 3 | 4 | 3 | 1 | 1.248084 | 0.89755273 | 1 | 73.923643 | 173.72192 | 3 | 5 | 4 | 1 | 1.496168 | 0.79510545 | 1 | 49.091569 | 184.17233 | 3 | 6 | 0 | 0 | 1 | 1 | 1 | 49.091569 | 184.17233 | 3 | 6 | 2 | 3 | 1 | 1 | 1 | 64.222759 | 184.17233 | 4 | 7 | 0 | 2 | 1 | 1 | 1 | 64.222759 | 184.17233 | 4 | 7 | 2 | 3 | 1 | 1 | 1 | 76.638797 | 178.94713 | 4 | 5 | 5 | 2 | 1.248084 | 0.89755273 | 1 | 64.222759 | 184.17233 | 4 | 7 | 3 | 1 | 1 | 1 | 1 | 64.222759 | 184.17233 | 4 | 7 | 4 | 4 | 1 | 1 | 1 | 79.35395 | 184.17233 | 5 | 8 | 3 | 3 | 1 | 1 | 1 | 79.35395 | 184.17233 | 5 | 8 | 0 | 4 | 1 | 1 | 1 | 79.35395 | 184.17233 | 5 | 8 | 4 | 2 | 1 | 1 | 1 | 79.35395 | 184.17233 | 5 | 8 | 5 | 5 | 1 | 1 | 1 | 61.507606 | 189.39754 | 6 | 7 | 4 | 0 | 1.248084 | 0.89755273 | 1 | 73.923643 | 194.62275 | 6 | 8 | 5 | 0 | 1.496168 | 0.79510545 | 1 | 76.638797 | 189.39754 | 7 | 8 | 5 | 1 | 1.248084 | 0.89755273 | 1" /><inkscape:path-effect
       effect="tiling"
       id="path-effect2520"
       is_visible="true"
       lpeversion="1"
       unit="px"
       seed="1;1"
       lpesatellites=""
       num_rows="3"
       num_cols="3"
       gapx="-218.81479"
       gapy="0"
       offset="0"
       offset_type="false"
       scale="0"
       rotate="0"
       mirrorrowsx="false"
       mirrorrowsy="true"
       mirrorcolsx="false"
       mirrorcolsy="false"
       mirrortrans="false"
       shrink_interp="false"
       split_items="false"
       link_styles="false"
       interpolate_scalex="false"
       interpolate_scaley="true"
       interpolate_rotatex="false"
       interpolate_rotatey="true"
       random_scale="false"
       random_rotate="false"
       random_gap_y="false"
       random_gap_x="false"
       transformorigin="" /><inkscape:path-effect
       effect="knot"
       id="path-effect2516"
       is_visible="true"
       lpeversion="1"
       switcher_size="3"
       interruption_width="3"
       prop_to_stroke_width="true"
       add_stroke_width="inkscape_1.0_and_up"
       both="false"
       inverse_width="false"
       add_other_stroke_width="inkscape_1.0_and_up"
       crossing_points_vector="45.598026 | 87.269639 | 0 | 0 | 1 | 4 | 0.39802277 | 2.1855207 | 1 | 41.326527 | 84.796312 | 0 | 0 | 0 | 7 | 0.34535018 | 3.6729407 | 1 | 70.628137 | 105.93074 | 0 | 4 | 2 | 3 | 0.73322955 | 1.4391264 | 1 | 54.59393 | 111.35553 | 0 | 4 | 3 | 2 | 1.4391264 | 0.73322955 | 1 | 46.834501 | 82.940036 | 0 | 0 | 5 | 6 | 2.2861669 | 3.5996846 | 1 | 94.677098 | 87.269639 | 1 | 1 | 1 | 4 | 0.39802277 | 2.1855207 | 1 | 90.405598 | 84.796312 | 1 | 1 | 0 | 7 | 0.34535018 | 3.6729407 | 1 | 119.70721 | 105.93074 | 1 | 5 | 2 | 3 | 0.73322955 | 1.4391264 | 1 | 103.673 | 111.35553 | 1 | 5 | 3 | 2 | 1.4391264 | 0.73322955 | 1 | 95.913573 | 82.940036 | 1 | 1 | 5 | 6 | 2.2861669 | 3.5996846 | 1 | 143.75617 | 87.269639 | 2 | 2 | 1 | 4 | 0.39802277 | 2.1855207 | 1 | 139.48467 | 84.796312 | 2 | 2 | 0 | 7 | 0.34535018 | 3.6729407 | 1 | 168.78628 | 105.93074 | 2 | 6 | 2 | 3 | 0.73322955 | 1.4391264 | 1 | 152.75207 | 111.35553 | 2 | 6 | 3 | 2 | 1.4391264 | 0.73322955 | 1 | 144.99264 | 82.940036 | 2 | 2 | 5 | 6 | 2.2861669 | 3.5996846 | 1 | 192.83524 | 87.269639 | 3 | 3 | 1 | 4 | 0.39802277 | 2.1855207 | 1 | 188.56374 | 84.796312 | 3 | 3 | 0 | 7 | 0.34535018 | 3.6729407 | 1 | 217.86535 | 105.93074 | 3 | 7 | 2 | 3 | 0.73322955 | 1.4391264 | 1 | 201.83114 | 111.35553 | 3 | 7 | 3 | 2 | 1.4391264 | 0.73322955 | 1 | 194.07172 | 82.940036 | 3 | 3 | 5 | 6 | 2.2861669 | 3.5996846 | 1 | 79.624041 | 130.01663 | 4 | 4 | 1 | 4 | 0.39802277 | 2.1855207 | 1 | 83.895541 | 132.48996 | 4 | 4 | 0 | 9 | 0.34535018 | 3.6729407 | 1 | 78.387566 | 134.34624 | 4 | 4 | 5 | 8 | 2.2861669 | 3.5996846 | 1 | 65.412604 | 149.59706 | 4 | 8 | 6 | 7 | 2.77607 | 3.3363633 | 1 | 59.809464 | 143.83246 | 4 | 8 | 7 | 6 | 3.3363633 | 2.77607 | 1 | 128.70311 | 130.01663 | 5 | 5 | 1 | 4 | 0.39802277 | 2.1855207 | 1 | 132.97461 | 132.48996 | 5 | 5 | 0 | 9 | 0.34535018 | 3.6729407 | 1 | 127.46664 | 134.34624 | 5 | 5 | 5 | 8 | 2.2861669 | 3.5996846 | 1 | 114.49168 | 149.59706 | 5 | 9 | 6 | 7 | 2.77607 | 3.3363633 | 1 | 108.88854 | 143.83246 | 5 | 9 | 7 | 6 | 3.3363633 | 2.77607 | 1 | 177.78218 | 130.01663 | 6 | 6 | 1 | 4 | 0.39802277 | 2.1855207 | 1 | 182.05368 | 132.48996 | 6 | 6 | 0 | 9 | 0.34535018 | 3.6729407 | 1 | 176.54571 | 134.34624 | 6 | 6 | 5 | 8 | 2.2861669 | 3.5996846 | 1 | 163.57075 | 149.59706 | 6 | 10 | 6 | 7 | 2.77607 | 3.3363633 | 1 | 157.96761 | 143.83246 | 6 | 10 | 7 | 6 | 3.3363633 | 2.77607 | 1 | 226.86126 | 130.01663 | 7 | 7 | 1 | 4 | 0.39802277 | 2.1855207 | 1 | 231.13276 | 132.48996 | 7 | 7 | 0 | 9 | 0.34535018 | 3.6729407 | 1 | 225.62478 | 134.34624 | 7 | 7 | 5 | 8 | 2.2861669 | 3.5996846 | 1 | 212.64982 | 149.59706 | 7 | 11 | 6 | 7 | 2.77607 | 3.3363633 | 1 | 207.04668 | 143.83246 | 7 | 11 | 7 | 6 | 3.3363633 | 2.77607 | 1 | 45.598026 | 163.41289 | 8 | 8 | 1 | 4 | 0.39802277 | 2.1855207 | 1 | 41.326527 | 160.93957 | 8 | 8 | 0 | 9 | 0.34535018 | 3.6729407 | 1 | 70.628137 | 182.074 | 8 | 12 | 2 | 3 | 0.73322955 | 1.4391264 | 1 | 54.59393 | 187.49878 | 8 | 12 | 3 | 2 | 1.4391264 | 0.73322955 | 1 | 46.834501 | 159.08329 | 8 | 8 | 5 | 8 | 2.2861669 | 3.5996846 | 1 | 94.677098 | 163.41289 | 9 | 9 | 1 | 4 | 0.39802277 | 2.1855207 | 1 | 90.405598 | 160.93957 | 9 | 9 | 0 | 9 | 0.34535018 | 3.6729407 | 1 | 119.70721 | 182.074 | 9 | 13 | 2 | 3 | 0.73322955 | 1.4391264 | 1 | 103.673 | 187.49878 | 9 | 13 | 3 | 2 | 1.4391264 | 0.73322955 | 1 | 95.913573 | 159.08329 | 9 | 9 | 5 | 8 | 2.2861669 | 3.5996846 | 1 | 143.75617 | 163.41289 | 10 | 10 | 1 | 4 | 0.39802277 | 2.1855207 | 1 | 139.48467 | 160.93957 | 10 | 10 | 0 | 9 | 0.34535018 | 3.6729407 | 1 | 168.78628 | 182.074 | 10 | 14 | 2 | 3 | 0.73322955 | 1.4391264 | 1 | 152.75207 | 187.49878 | 10 | 14 | 3 | 2 | 1.4391264 | 0.73322955 | 1 | 144.99264 | 159.08329 | 10 | 10 | 5 | 8 | 2.2861669 | 3.5996846 | 1 | 192.83524 | 163.41289 | 11 | 11 | 1 | 4 | 0.39802277 | 2.1855207 | 1 | 188.56374 | 160.93957 | 11 | 11 | 0 | 9 | 0.34535018 | 3.6729407 | 1 | 217.86535 | 182.074 | 11 | 15 | 2 | 3 | 0.73322955 | 1.4391264 | 1 | 201.83114 | 187.49878 | 11 | 15 | 3 | 2 | 1.4391264 | 0.73322955 | 1 | 194.07172 | 159.08329 | 11 | 11 | 5 | 8 | 2.2861669 | 3.5996846 | 1 | 79.624041 | 206.15989 | 12 | 12 | 1 | 4 | 0.39802277 | 2.1855207 | 1 | 83.895541 | 208.63321 | 12 | 12 | 0 | 7 | 0.34535018 | 3.6729407 | 1 | 78.387566 | 210.48949 | 12 | 12 | 5 | 6 | 2.2861669 | 3.5996846 | 1 | 128.70311 | 206.15989 | 13 | 13 | 1 | 4 | 0.39802277 | 2.1855207 | 1 | 132.97461 | 208.63321 | 13 | 13 | 0 | 7 | 0.34535018 | 3.6729407 | 1 | 127.46664 | 210.48949 | 13 | 13 | 5 | 6 | 2.2861669 | 3.5996846 | 1 | 177.78218 | 206.15989 | 14 | 14 | 1 | 4 | 0.39802277 | 2.1855207 | 1 | 182.05368 | 208.63321 | 14 | 14 | 0 | 7 | 0.34535018 | 3.6729407 | 1 | 176.54571 | 210.48949 | 14 | 14 | 5 | 6 | 2.2861669 | 3.5996846 | 1 | 226.86126 | 206.15989 | 15 | 15 | 1 | 4 | 0.39802277 | 2.1855207 | 1 | 231.13276 | 208.63321 | 15 | 15 | 0 | 7 | 0.34535018 | 3.6729407 | 1 | 225.62478 | 210.48949 | 15 | 15 | 5 | 6 | 2.2861669 | 3.5996846 | 1" /><inkscape:path-effect
       effect="tiling"
       id="path-effect2514"
       is_visible="true"
       lpeversion="1"
       unit="px"
       seed="1;1"
       lpesatellites=""
       num_rows="4"
       num_cols="4"
       gapx="0"
       gapy="-37.102744"
       offset="50"
       offset_type="false"
       scale="0"
       rotate="0"
       mirrorrowsx="true"
       mirrorrowsy="true"
       mirrorcolsx="false"
       mirrorcolsy="false"
       mirrortrans="false"
       shrink_interp="false"
       split_items="false"
       link_styles="false"
       interpolate_scalex="false"
       interpolate_scaley="true"
       interpolate_rotatex="false"
       interpolate_rotatey="true"
       random_scale="false"
       random_rotate="false"
       random_gap_y="false"
       random_gap_x="false"
       transformorigin="" /><inkscape:path-effect
       effect="tiling"
       id="path-effect355"
       is_visible="true"
       lpeversion="1"
       unit="px"
       seed="1;1"
       lpesatellites=""
       num_rows="3"
       num_cols="3"
       gapx="0"
       gapy="-123.29428"
       offset="0"
       offset_type="false"
       scale="0"
       rotate="0"
       mirrorrowsx="true"
       mirrorrowsy="false"
       mirrorcolsx="false"
       mirrorcolsy="false"
       mirrortrans="false"
       shrink_interp="false"
       split_items="false"
       link_styles="false"
       interpolate_scalex="false"
       interpolate_scaley="true"
       interpolate_rotatex="false"
       interpolate_rotatey="true"
       random_scale="false"
       random_rotate="false"
       random_gap_y="false"
       random_gap_x="false"
       transformorigin="" /><pattern
       patternUnits="userSpaceOnUse"
       width="999.99999"
       height="999.99803"
       patternTransform="translate(0,200)"
       id="pattern29833"><path
         id="path27626"
         style="color:#000000;fill:#000000;stroke-width:3.77953;stroke-linecap:square;stroke-linejoin:round;-inkscape-stroke:none"
         d="M 575.00001,0 V 0.00195024 C 575.00001,41.71852 541.71817,75.00093 500.00194,75.00195 V 125 C 568.74009,124.9989 625.00195,68.740452 625.00195,0.00195024 L 625.00392,0 Z M 675,0 V 0.00195024 C 675,96.9467 596.94629,174.99695 500.00194,174.99804 v 50.0039 C 623.96821,225.00092 725.00001,123.96859 725.00001,0.00195024 V 0 Z M 775.00392,0 V 0.00195024 C 775.00392,152.17476 652.17449,274.99885 500.00194,274.99999 v 49.99804 c 44.30914,-1.9e-4 86.56619,-8.92909 125.08985,-25.0625 -10.62769,19.84309 -19.73034,40.61964 -27.14063,62.17969 -31.21508,8.40087 -64.04943,12.88657 -97.95115,12.88672 v -0.002 h -0.002 c -207.40124,0 -374.99894,-167.59714 -375,-374.99805976 H 75 C 75.000113,28.470043 77.835092,56.283213 83.193358,83.195312 56.284811,77.828349 28.46978,74.998046 0.00195312,74.998046 H 0 v 50.003904 h 0.00195312 c 33.90376488,0 66.74020588,4.48702 97.95703288,12.88867 7.409604,21.55784 16.508484,42.33261 27.134764,62.17384 C 86.570011,183.93019 44.311502,175 0.00195312,175 H 0 v 49.99805 H 0.00195312 C 152.1748,224.99805 274.99894,347.82744 275,499.99999 h -0.002 c 0.001,123.96646 101.03322,224.99807 225,224.99807 H 500 v -49.99805 h -0.002 c -96.94477,0 -174.99504,-78.05552 -174.9961,-175.00002 h -0.004 c -2.3e-4,-44.30911 -8.92911,-86.56808 -25.0625,-125.09178 19.84307,10.62769 40.61958,19.73034 62.17969,27.14063 8.40086,31.21508 12.88656,64.04943 12.88671,97.95115 H 375 c 10e-4,68.73826 56.25951,125.00197 124.99805,125.00197 h 0.002 v -50.0039 h -0.002 c -41.71661,0 -74.99894,-33.2818 -75,-74.99807 h 0.002 c -1.1e-4,-28.46737 -2.82935,-56.27974 -8.19534,-83.18748 26.91202,5.35827 54.72526,8.19141 83.19338,8.19141 h 0.002 v -0.004 c 28.46737,-1.2e-4 56.27974,-2.82932 83.18748,-8.1953 -5.35827,26.91197 -8.19141,54.72521 -8.19141,83.19337 v 0.002 h 0.004 c 0,41.71657 -33.28184,74.99898 -74.99807,75 v 49.99804 c 68.73815,-10e-4 125.00001,-56.25951 125.00001,-124.99804 l 0.002,-0.002 h -0.004 c 0,-207.40124 167.59714,-374.99895 374.99807,-375.00001 L 999.99999,75 c -28.46808,1.13e-4 -56.28125,2.835088 -83.19334,8.193358 5.36697,-26.908547 8.19727,-54.723579 8.19727,-83.19140776 V 0 h -50.00391 v 0.00195024 c 0,33.90376476 -4.48898,66.74020876 -12.89064,97.95703176 -21.55782,7.409638 -42.3326,16.508518 -62.17384,27.134768 C 816.06981,86.570045 825,44.311502 825,0.00195024 V 0 Z M 175.00195,0.00195024 C 175.00301,179.1966 320.80309,325.00196 499.99805,325.00196 h 0.002 v -49.99804 h -0.002 C 347.82503,275.00392 225.00106,152.17465 225,0.00195024 Z m 99.9961,0 c 0.001,123.96645976 101.03322,224.99805976 225,224.99805976 h 0.002 v -49.99806 h -0.002 c -96.94477,0 -174.99504,-78.055515 -174.9961,-174.99999976 z m 100.00195,0 C 375.00106,68.740188 431.25951,125.00391 499.99805,125.00391 h 0.002 V 75 h -0.002 c -41.71661,0 -74.99894,-33.281783 -75,-74.99804976 z M 999.99999,175.00195 c -179.19462,0.001 -325.00196,145.80115 -325.00196,324.99611 v 0.002 H 675 c 0,96.94476 -78.05371,174.99499 -174.99806,174.99609 v 50.00391 c 123.96627,-10e-4 224.99807,-101.03335 224.99807,-225 v -0.002 h -0.004 c 0,-152.17297 122.83121,-274.99691 275.00391,-274.99805 z m 0,99.99611 c -123.96643,10e-4 -225,101.03323 -225,225 v 0.002 h 0.004 c 0,152.17281 -122.82943,274.99691 -275.00198,274.99804 v 49.99805 c 44.30914,-1.9e-4 86.56619,-8.9291 125.08985,-25.0625 -10.62769,19.84309 -19.73034,40.61964 -27.14063,62.17969 -31.21508,8.40087 -64.04943,12.88656 -97.95115,12.88672 v -0.002 h -0.002 c -207.40124,0 -374.99894,-167.59714 -375,-374.99807 H 125 C 124.99894,431.26187 68.740456,374.99805 0.00195312,374.99805 H 0 v 50.0039 h 0.00195312 c 41.71656988,0 74.99894288,33.2818 75.00000088,74.99804 H 75 c 1.13e-4,28.46812 2.835092,56.28128 8.193358,83.19337 C 56.284811,577.82639 28.46978,574.99609 0.00195312,574.99609 H 0 V 625 h 0.00195312 c 33.90376488,0 66.74020588,4.48702 97.95703288,12.88868 7.409604,21.55782 16.508484,42.3326 27.134764,62.17383 C 86.570011,683.92824 44.311502,674.99805 0.00195312,674.99805 H 0 v 49.99804 H 0.00195312 C 152.1748,724.99609 274.99894,847.82549 275,999.99803 h 49.99805 c -2.3e-4,-44.30914 -8.92911,-86.56807 -25.0625,-125.09178 19.84307,10.6277 40.61958,19.73035 62.17969,27.14064 8.40086,31.21508 12.88656,64.04942 12.88671,97.95114 h 49.99806 c -1.1e-4,-28.46736 -2.82935,-56.27973 -8.19534,-83.18747 26.91202,5.35827 54.72526,8.1914 83.19338,8.1914 h 0.002 v -0.004 c 28.46737,-1.1e-4 56.27974,-2.82931 83.18748,-8.1953 -5.35827,26.91198 -8.19141,54.72522 -8.19141,83.19338 v 0.002 h 50.00391 v -0.002 c 0,-207.40124 167.59714,-374.99895 374.99807,-375 l 0.002,-49.99805 c -28.46808,1.1e-4 -56.28125,2.83506 -83.19334,8.19333 5.36697,-26.90853 8.19727,-54.72355 8.19727,-83.1914 v -0.002 h -0.004 c 0,-41.71661 33.28373,-74.99894 74.99997,-75 v -49.99805 c -68.7382,0.001 -125.00388,56.25952 -125.00388,124.99805 v 0.002 h 0.004 c 0,33.90376 -4.48898,66.74022 -12.89064,97.95704 -21.55782,7.40965 -42.3326,16.50852 -62.17384,27.13477 C 816.06981,586.5681 825,544.30954 825,499.99999 v -0.002 h -0.002 c 0,-96.94485 78.05556,-174.99504 175.00003,-174.9961 z M 0,275.00195 V 325 H 0.00195312 C 96.946662,325 174.99699,403.05567 174.99805,499.99999 h 0.004 c 0.001,179.19465 145.80114,325.00002 324.9961,325.00002 h 0.002 v -49.99805 h -0.002 C 347.82503,775.00196 225.00106,652.17269 225,499.99999 h 0.002 C 225.0009,376.03375 123.96859,275.00195 0.00195312,275.00195 Z m 999.99999,399.99806 c -179.19462,10e-4 -325.00196,145.80114 -325.00196,324.9961 v 0.002 h 49.99805 v -0.002 c 0,-152.17297 122.83121,-274.99692 275.00391,-274.99805 z m 0,99.9961 c -123.96643,10e-4 -225,101.03323 -225,225 v 0.002 h 49.99804 v -0.002 c 0,-96.94485 78.05556,-174.99504 175.00003,-174.9961 z M 0,775 v 49.99805 h 0.00195312 c 96.94470888,0 174.99503688,78.05567 174.99609688,174.99998 h 50.0039 C 225.0009,876.0318 123.96859,775 0.00195312,775 Z m 0,99.99609 V 925 H 0.00195312 C 41.718523,925 75.000896,958.2818 75.001954,999.99803 H 125 C 124.99894,931.25992 68.740456,874.99609 0.00195312,874.99609 Z m 999.99999,0.002 c -68.73823,10e-4 -125.00391,56.25951 -125.00391,124.99805 v 0.002 h 50.00391 v -0.002 c 0,-41.71662 33.28373,-74.99895 75,-75 z" /></pattern></defs><g
     inkscape:label="Layer 1"
     inkscape:groupmode="layer"
     id="layer1"><path
       id="rect31990"
       style="fill:url(#pattern31992);fill-opacity:1;stroke:#000000;stroke-width:7;stroke-linecap:square;stroke-linejoin:round;stroke-dasharray:none"
       d="m -395.42173,-29.859685 c -43.15617,0 -77.89963,34.7434695 -77.89963,77.899638 V 252.57476 c 0,43.15617 34.74346,77.89964 77.89963,77.89964 h 172.16469 c 43.15617,0 77.89912,-34.74347 77.89912,-77.89964 V 48.039953 c 0,-43.1561685 -34.74295,-77.899638 -77.89912,-77.899638 z M -407.6858,93.790269 h 143.30809 c 5.13285,0 9.26506,4.13222 9.26506,9.265071 v 75.25743 c 0,5.13285 -4.13221,9.26506 -9.26506,9.26506 H -407.6858 c -5.13285,0 -9.26507,-4.13221 -9.26507,-9.26506 v -75.25743 c 0,-5.132851 4.13222,-9.265071 9.26507,-9.265071 z"
       sodipodi:nodetypes="ssssssssssssssssss" /><g
       style="fill:#000000;fill-opacity:1;stroke:#000000;stroke-linecap:round;stroke-linejoin:round;stroke-opacity:1"
       id="g43456"
       transform="translate(26.433333,24.433333)" /><path
       id="path65668"
       style="color:#000000;fill:#000000;stroke-width:3.77953;stroke-linecap:square;stroke-linejoin:round;-inkscape-stroke:none"
       d="m 19.301154,208.93928 c -1.104568,0 -1.999878,0.89583 -1.999878,2.0004 v 0.26406 c 0.557049,-0.89025 1.303368,-1.66507 2.2071,-2.26446 z m 2.565218,0 c -0.135424,0.039 -0.27119,0.0751 -0.40566,0.12351 v 5.2e-4 c -2.202405,0.79293 -3.709416,2.65988 -4.159436,4.79815 v 2.66754 c 0.06118,0.29007 0.135546,0.57945 0.238745,0.8661 0.359001,0.99714 0.238772,2.0445 -0.238745,2.89853 v 1.59732 c 1.285343,-1.19321 1.811425,-3.08524 1.181323,-4.83537 h -5.17e-4 c -1.032728,-2.86843 0.449213,-6.01747 3.317627,-7.05021 2.868444,-1.03273 6.017468,0.44921 7.050216,3.31762 0.841318,2.33676 3.431359,3.55535 5.768123,2.71405 2.336751,-0.84132 3.555851,-3.43138 2.714563,-5.76812 h -5.16e-4 c -0.158264,-0.43959 -0.250862,-0.88552 -0.295073,-1.32964 h -1.003039 c 0.04591,0.55776 0.157635,1.11804 0.35605,1.66915 0.657918,1.8274 -0.284108,3.8281 -2.111499,4.48603 v 5.2e-4 c -1.827406,0.65792 -3.828093,-0.28411 -4.486031,-2.1115 -0.30072,-0.83522 -0.755818,-1.57078 -1.321366,-2.18746 0.446158,0.0657 0.899291,0.096 1.355989,0.0894 0.3702,0.53139 0.677875,1.12002 0.907955,1.75906 0.4665,1.29571 1.908748,1.97442 3.204456,1.50792 1.295711,-0.46651 1.974418,-1.90925 1.507918,-3.20497 -0.238927,-0.66363 -0.37129,-1.33825 -0.420129,-2.00815 h -1.687753 c -0.347061,0.19189 -0.711201,0.362 -1.096574,0.50075 -2.123117,0.76438 -4.357319,0.51074 -6.184118,-0.50075 z m 16.177824,0 c 0.03961,0.33157 0.112704,0.66352 0.230477,0.99064 h 5.16e-4 c 1.032718,2.86845 -0.449211,6.01696 -3.317627,7.0497 -2.868459,1.03272 -6.017467,-0.44867 -7.050215,-3.31711 -0.841318,-2.33675 -3.431358,-3.55587 -5.768124,-2.71456 -2.336754,0.84129 -3.555851,3.43135 -2.714563,5.76812 h 5.17e-4 c 0.877102,2.43621 -0.06435,5.06992 -2.123901,6.4425 v 1.16272 c 0.488208,-0.26026 0.937762,-0.5711 1.333252,-0.93379 -0.0657,0.44616 -0.096,0.89929 -0.0894,1.35599 -0.385116,0.26828 -0.801208,0.5023 -1.243852,0.69918 v 1.08262 c 0.470919,-0.1813 0.918249,-0.39829 1.336869,-0.65061 0.0816,0.54366 0.216594,1.08705 0.409794,1.62368 0.28312,0.78635 -0.118009,1.63975 -0.904337,1.92288 -0.282153,0.10158 -0.572353,0.11203 -0.842326,0.0512 v 1.01389 c 0.386588,0.0531 0.790608,0.0182 1.181323,-0.12248 1.295698,-0.46651 1.974408,-1.90874 1.507918,-3.20445 -1.407536,-3.9095 0.614273,-8.20635 4.523755,-9.61388 0.63908,-0.23009 1.288801,-0.3682 1.934249,-0.42168 0.28596,0.35607 0.598318,0.68564 0.933276,0.98753 -0.835668,-0.0427 -1.692771,0.076 -2.528011,0.37672 -3.377802,1.21613 -5.136807,4.954 -3.920691,8.33179 0.65792,1.82741 -0.283596,3.82862 -2.110982,4.48655 l 0.339514,0.94258 c 2.336746,-0.84132 3.555345,-3.43138 2.714047,-5.76812 v -5.2e-4 c -1.032728,-2.86845 0.449211,-6.01695 3.317627,-7.0497 2.868444,-1.03272 6.01696,0.44868 7.049698,3.31711 l 0.942579,-0.339 c -0.30072,-0.8352 -0.755837,-1.5713 -1.321367,-2.18798 0.44614,0.0657 0.899807,0.096 1.356507,0.0894 0.370198,0.5314 0.677358,1.12003 0.907438,1.75907 l 0.942578,-0.33951 c -0.1932,-0.53661 -0.435571,-1.04126 -0.719336,-1.51206 0.543653,-0.0816 1.087572,-0.21711 1.62419,-0.41031 0.53661,-0.19319 1.041283,-0.43558 1.512053,-0.71933 0.0816,0.54365 0.217112,1.08756 0.41031,1.62419 0.28312,0.78635 -0.117989,1.63923 -0.904337,1.92236 l 0.338997,0.94258 c 1.295678,-0.46651 1.974407,-1.90874 1.507919,-3.20446 -1.407538,-3.90948 0.614272,-8.20633 4.523754,-9.61388 l 5.17e-4,5.2e-4 c 0.63907,-0.23009 1.288284,-0.3682 1.933732,-0.42168 0.28598,0.35608 0.598317,0.68564 0.933277,0.98753 -0.835668,-0.0427 -1.692773,0.076 -2.528011,0.37672 v -5.1e-4 c -3.377784,1.21612 -5.136809,4.95398 -3.920691,8.33179 0.657918,1.8274 -0.283595,3.82861 -2.110983,4.48655 -1.827406,0.65791 -3.828609,-0.2836 -4.486547,-2.11099 l -0.942579,0.33952 c 0.84133,2.33675 3.431368,3.55534 5.768124,2.71404 2.336724,-0.8413 3.555861,-3.43135 2.714563,-5.76812 -1.032728,-2.86845 0.449193,-6.01749 3.317627,-7.05021 2.868434,-1.03273 6.016961,0.44921 7.049699,3.31762 0.841318,2.33676 3.431377,3.55585 5.768123,2.71457 l -0.338997,-0.94258 c -1.827408,0.65792 -3.82861,-0.28361 -4.486548,-2.11098 -0.30072,-0.83523 -0.755817,-1.57133 -1.321367,-2.18798 0.44616,0.0657 0.899807,0.096 1.356507,0.0894 0.370198,0.53137 0.677358,1.12002 0.907438,1.75906 0.466518,1.29571 1.908749,1.97442 3.204455,1.50792 1.295694,-0.46651 1.974407,-1.90874 1.507919,-3.20446 -0.560755,-1.5575 -0.569368,-3.17397 -0.13901,-4.64726 h -1.751831 c -0.549819,0.53948 -1.218404,0.97562 -1.992126,1.25419 -2.06053,0.74185 -4.261534,0.18099 -5.723165,-1.25419 h -1.335319 c 1.674666,2.2098 4.654595,3.18429 7.397481,2.19677 h 5.17e-4 c 0.835218,-0.30071 1.570785,-0.75581 2.187463,-1.32137 -0.0657,0.44617 -0.096,0.8993 -0.0894,1.35599 -0.53139,0.3702 -1.120026,0.67788 -1.759066,0.90796 -3.416907,1.23017 -7.129268,-0.1596 -8.950358,-3.13935 h -1.146183 c 0.0825,0.15873 0.168027,0.31542 0.259416,0.46716 -0.54364,0.0815 -1.087054,0.21711 -1.623674,0.41031 v -5.2e-4 c -0.536618,0.1932 -1.041651,0.43569 -1.512569,0.71934 -0.08011,-0.53441 -0.213019,-1.06857 -0.401009,-1.59629 h -1.039213 c 0.02288,0.10438 0.05022,0.20852 0.08733,0.31161 0.23009,0.63908 0.3682,1.2888 0.42168,1.93425 -0.35608,0.28597 -0.685647,0.59832 -0.987537,0.93328 0.0427,-0.83567 -0.07609,-1.6928 -0.376721,-2.52801 -0.07757,-0.21547 -0.131094,-0.43331 -0.165365,-0.65113 z m 18.477942,8.7943 0.339514,0.94258 c 2.33673,-0.84132 3.555331,-3.43136 2.714051,-5.76813 v -5.1e-4 c -0.484003,-1.34431 -0.409937,-2.74752 0.09456,-3.96824 h -1.066599 c -0.463167,1.35169 -0.491045,2.86203 0.02946,4.30775 0.657923,1.8274 -0.2836,3.82861 -2.110982,4.48655 z m -19.189527,5.84357 -0.339514,-0.94258 c -0.786358,0.28311 -1.639233,-0.118 -1.922363,-0.90434 l -0.942578,0.339 c 0.466518,1.29571 1.908749,1.97441 3.204455,1.50792 z m -18.510498,7.72924 c -0.504527,0.18165 -1.021741,0.23734 -1.520837,0.19017 v 1.00252 c 0.613317,0.0467 1.24513,-0.0288 1.859835,-0.25011 z m 30.924728,-22.36711 c 1.100049,0.61307 2.447399,0.77022 3.721219,0.31161 0.236469,-0.0851 0.458159,-0.19273 0.670761,-0.31161 z m 11.034472,0 c -0.57157,1.0829 -0.70906,2.39041 -0.26304,3.62924 1.03272,2.86845 -0.44918,6.01695 -3.317624,7.0497 v 5.1e-4 c -2.86844,1.03273 -6.017467,-0.44921 -7.050215,-3.31762 h 5.16e-4 c -0.841308,-2.33675 -3.431377,-3.55587 -5.768123,-2.71457 h -5.17e-4 c -2.336734,0.84132 -3.555354,3.43136 -2.714046,5.76813 1.032728,2.86842 -0.449193,6.01747 -3.317627,7.05021 -2.868454,1.03273 -6.017488,-0.44921 -7.050216,-3.31762 h 5.17e-4 c -0.841318,-2.33675 -3.431884,-3.55535 -5.76864,-2.71405 -2.336756,0.84132 -3.555354,3.43138 -2.714046,5.76812 1.032708,2.86845 -0.449193,6.01696 -3.317627,7.0497 v 5.2e-4 c -0.728081,0.26213 -1.474314,0.36125 -2.199349,0.31781 v 0.99994 c 0.83907,0.0442 1.700072,-0.0737 2.538863,-0.37569 0.835218,-0.30071 1.571302,-0.75581 2.18798,-1.32137 -0.0657,0.44617 -0.09652,0.89981 -0.08992,1.35651 -0.531388,0.3702 -1.120026,0.67736 -1.759066,0.90744 -0.952285,0.34285 -1.927014,0.47899 -2.87786,0.43718 v 0.99684 c 0.153875,0.006 0.307676,0.0142 0.462504,0.0119 0.3702,0.53138 0.677358,1.11951 0.907438,1.75855 0.46652,1.29571 1.909286,1.97442 3.204972,1.50792 1.295708,-0.46651 1.974417,-1.90874 1.507919,-3.20445 -1.407538,-3.9095 0.614271,-8.20582 4.523755,-9.61337 0.639088,-0.23009 1.288272,-0.36871 1.933732,-0.4222 0.285968,0.35608 0.598316,0.68617 0.933276,0.98806 -0.835658,-0.0427 -1.692783,0.0755 -2.528011,0.3762 -3.377774,1.21613 -5.136779,4.954 -3.920691,8.33179 v 5.2e-4 c 0.657918,1.8274 -0.283596,3.8281 -2.110982,4.48603 -1.827406,0.65792 -3.828093,-0.28359 -4.486031,-2.11098 -0.11776,-0.32707 -0.265413,-0.63422 -0.427881,-0.92966 v 2.26911 c 1.128571,1.6617 3.279337,2.42483 5.253426,1.71411 2.336726,-0.84132 3.555354,-3.43137 2.714046,-5.76813 -1.032728,-2.86843 0.449193,-6.01747 3.317627,-7.05021 2.868444,-1.03272 6.017483,0.44919 7.050216,3.31763 0.841318,2.33673 3.431357,3.55535 5.768123,2.71404 2.336746,-0.84131 3.555356,-3.43136 2.714046,-5.76812 -0.841271,-2.33671 -0.01361,-4.85964 1.872754,-6.273 0.11666,-0.55675 0.337984,-1.07422 0.642855,-1.53066 -3.072385,1.37822 -4.617368,4.92349 -3.458187,8.14317 0.65792,1.82741 -0.283596,3.82812 -2.110982,4.48603 v 5.2e-4 c -1.827386,0.65792 -3.82861,-0.28411 -4.486548,-2.1115 -0.30072,-0.83522 -0.755818,-1.5713 -1.321366,-2.18798 0.446158,0.0657 0.899808,0.0966 1.356506,0.0899 0.3702,0.53139 0.677358,1.12003 0.907438,1.75906 0.46652,1.2957 1.908748,1.97442 3.204456,1.50792 h 5.17e-4 c 1.295706,-0.46651 1.974416,-1.90925 1.507918,-3.20497 h -5.17e-4 c -1.407536,-3.9095 0.614293,-8.20582 4.523755,-9.61337 l -0.338997,-0.94257 c -0.53662,0.1932 -1.04164,0.43517 -1.51257,0.71882 -0.0815,-0.54365 -0.217112,-1.08706 -0.41031,-1.62368 -0.28311,-0.78635 0.118516,-1.63975 0.904854,-1.92288 v 5.2e-4 c 0.14744,-0.0531 0.297501,-0.082 0.445451,-0.0889 0.641128,-0.03 1.247389,0.35484 1.477429,0.99374 0.1932,0.53663 0.435179,1.04165 0.718819,1.51257 -0.543638,0.0815 -1.087065,0.2166 -1.623673,0.4098 l 0.339514,0.94257 c 0.536539,-0.19316 1.080038,-0.31764 1.62264,-0.3855 0.408292,-0.1963 0.852398,-0.33013 1.319816,-0.39223 -0.609397,-0.6913 -1.10295,-1.50574 -1.434538,-2.42672 -0.466518,-1.2957 -1.908738,-1.97442 -3.204456,-1.50792 l 0.249081,0.69298 -0.249597,-0.69298 c -1.295698,0.46651 -1.974407,1.90874 -1.507919,3.20446 0.23009,0.63908 0.368717,1.28827 0.422197,1.93373 -0.35607,0.28597 -0.686164,0.59883 -0.988054,0.93379 0.0427,-0.83566 -0.076,-1.6933 -0.376721,-2.52853 -0.657918,-1.8274 0.284113,-3.82809 2.111499,-4.48603 0.34264,-0.12336 0.691253,-0.19058 1.036113,-0.20619 0.0934,-0.004 0.186422,-0.005 0.279053,-0.002 1.389461,0.0486 2.670215,0.92678 3.171382,2.31872 0.3978,1.1049 1.06666,2.03508 1.903243,2.74609 1.116629,0.10487 2.10901,0.62401 2.822567,1.40353 1.161522,0.258 2.406169,0.20304 3.605981,-0.22892 0.83522,-0.30071 1.571299,-0.75582 2.18798,-1.32137 -0.0657,0.44616 -0.09652,0.89981 -0.08992,1.35651 -0.531385,0.37017 -1.120024,0.67736 -1.759062,0.90743 -1.058477,0.38109 -2.144973,0.50863 -3.195154,0.41755 0.147349,0.32118 0.257327,0.66332 0.324011,1.02113 0.151542,0.006 0.303323,0.009 0.455786,0.007 0.3702,0.53139 0.67736,1.1195 0.907438,1.75855 0.46652,1.2957 1.909274,1.97441 3.204971,1.50792 1.29571,-0.46651 1.97442,-1.90874 1.50792,-3.20446 -1.40754,-3.90948 0.61429,-8.20583 4.52375,-9.61337 0.63909,-0.23007 1.28828,-0.36871 1.93374,-0.42219 0.28597,0.35608 0.59831,0.68616 0.93327,0.98805 -0.83566,-0.0427 -1.69278,0.0755 -2.52801,0.37621 -3.37777,1.21612 -5.13679,4.95398 -3.92069,8.33179 v 5.1e-4 c 0.65792,1.82741 -0.2836,3.8281 -2.11098,4.48604 -1.827411,0.65789 -3.828104,-0.2836 -4.486032,-2.11099 -0.09852,-0.27362 -0.21509,-0.5354 -0.345198,-0.78703 v 2.25103 c 1.149487,1.57654 3.245582,2.28268 5.17074,1.58956 2.33674,-0.84131 3.55536,-3.43136 2.71405,-5.76812 -1.03273,-2.86845 0.4492,-6.01747 3.31763,-7.05022 2.86843,-1.0327 6.01747,0.4492 7.05021,3.31763 0.37142,1.0316 1.08394,1.8443 1.96474,2.35903 v -1.21905 c -0.44837,-0.383 -0.80787,-0.88288 -1.02268,-1.47949 -0.30072,-0.83522 -0.75581,-1.5713 -1.32136,-2.18798 0.44616,0.0657 0.8998,0.0965 1.3565,0.0899 0.3702,0.53139 0.67736,1.12002 0.90744,1.75907 0.02366,0.0657 0.05157,0.12874 0.0801,0.1912 v -3.03444 c -3.47744,0.52896 -6.948,-1.4482 -8.18555,-4.88549 -0.19345,-0.53729 -0.55612,-0.96623 -1.0051,-1.25367 h -2.70785 c -0.95468,0.61791 -1.40066,1.83716 -0.99994,2.95021 v 5.2e-4 c 0.23008,0.63908 0.36872,1.28828 0.4222,1.93373 -0.35607,0.28597 -0.68616,0.59832 -0.98805,0.93328 0.0427,-0.83567 -0.07551,-1.69278 -0.37621,-2.52802 -0.41598,-1.15539 -0.191,-2.37895 0.49144,-3.28972 z m 6.78408,0 c 0.20311,0.27222 0.3717,0.57779 0.49299,0.91468 1.08655,3.01787 4.18576,4.73667 7.24297,4.20284 v -1.01906 c -2.64828,0.55368 -5.3575,-0.90299 -6.30091,-3.5233 h 5.2e-4 c -0.07248,-0.2013 -0.16226,-0.39106 -0.25942,-0.57516 z m 2.27893,0 c 0.0325,0.0788 0.06952,0.15461 0.0987,0.23565 l 0.65526,-0.23565 z m 0.75396,0 -0.65526,0.23616 c 0.79244,2.20098 3.136,3.40852 5.35833,2.83859 v -1.04541 c -1.77247,0.59697 -3.68621,-0.29453 -4.37286,-2.02934 h -0.3297 z m 1.44125,0 c 0.60343,1.00016 1.85457,1.47496 2.9931,1.06505 0.01028,-0.004 0.01977,-0.009 0.02998,-0.0124 -0.02635,-0.0489 -0.0556,-0.0958 -0.08579,-0.14211 v -5.2e-4 c -0.19551,-0.29981 -0.46917,-0.54332 -0.7922,-0.7028 -0.26746,0.001 -0.52421,-0.0696 -0.75034,-0.2005 -0.04407,-0.003 -0.088,-0.007 -0.13281,-0.007 z m -7.22384,0.59842 c 0.59568,0.0199 1.14187,0.3958 1.35754,0.99477 0.19318,0.53662 0.43517,1.04164 0.71881,1.51257 -0.54365,0.0815 -1.08706,0.21711 -1.62367,0.41031 -0.53662,0.1932 -1.04164,0.43517 -1.51257,0.71882 -0.0815,-0.54365 -0.21711,-1.08706 -0.41031,-1.62368 -0.28311,-0.78635 0.11852,-1.63975 0.90486,-1.92288 0.14742,-0.0531 0.2975,-0.082 0.44545,-0.0889 0.0401,-0.002 0.0802,-0.002 0.11989,-0.001 z m -30.721127,0.12557 c 0.0816,0.54365 0.217111,1.08705 0.410311,1.62367 0.283115,0.78636 -0.118516,1.63976 -0.904854,1.92288 -0.78636,0.28311 -1.639752,-0.11851 -1.92288,-0.90485 -0.1932,-0.53661 -0.43506,-1.04178 -0.71882,-1.51257 0.54366,-0.0816 1.087044,-0.21661 1.623674,-0.40979 v -5.2e-4 c 0.536598,-0.1932 1.041769,-0.43506 1.512569,-0.71882 z m -10.407633,2.01745 c 1.430276,0.006 2.763826,0.89314 3.277836,2.32079 1.216126,3.37778 4.953992,5.1368 8.331791,3.92069 0.835218,-0.30071 1.571302,-0.75582 2.18798,-1.32137 -0.0657,0.44617 -0.096,0.89981 -0.0894,1.35651 -0.53139,0.37019 -1.120028,0.67736 -1.759066,0.90743 -3.909507,1.40754 -8.206327,-0.61426 -9.613883,-4.52375 -0.46652,-1.2957 -1.908748,-1.97441 -3.204456,-1.50792 -1.295698,0.46651 -1.974418,1.90874 -1.507918,3.20446 0.230088,0.63908 0.368199,1.28879 0.421679,1.93425 -0.356078,0.28597 -0.685648,0.59831 -0.987536,0.93327 0.0427,-0.83566 -0.07604,-1.69278 -0.376721,-2.52801 -0.65792,-1.8274 0.284111,-3.82861 2.111499,-4.48655 0.399738,-0.14392 0.807715,-0.2115 1.208195,-0.2098 z m 32.651237,0.62115 c 0.0816,0.54365 0.216594,1.08705 0.409794,1.62367 0.283114,0.78636 -0.118,1.63975 -0.904338,1.92288 -0.786358,0.28311 -1.63975,-0.11851 -1.92288,-0.90485 -0.1932,-0.53661 -0.435059,-1.04178 -0.718819,-1.51257 0.543648,-0.0816 1.087055,-0.2166 1.623673,-0.4098 v -5.1e-4 c 0.53661,-0.1932 1.04178,-0.43506 1.51257,-0.71882 z m -32.616097,1.38338 c 0.595748,0.0199 1.142396,0.3958 1.358056,0.99477 v 5.1e-4 c 0.1932,0.53663 0.435181,1.04165 0.718819,1.51257 -0.543648,0.0815 -1.087055,0.2166 -1.623673,0.4098 -0.53662,0.1932 -1.041651,0.43569 -1.512569,0.71933 -0.0815,-0.54364 -0.217111,-1.08757 -0.410311,-1.62419 -0.28311,-0.78635 0.118516,-1.63923 0.904854,-1.92236 0.14744,-0.0531 0.296984,-0.0825 0.444934,-0.0894 0.04007,-0.002 0.08017,-0.002 0.11989,-0.001 z m 44.59056,2.27686 c -0.11902,-0.004 -0.23872,-0.004 -0.35864,0.001 -0.44274,0.0191 -0.88994,0.10426 -1.32808,0.262 -2.33675,0.84132 -3.55586,3.43136 -2.71456,5.76813 1.03272,2.86842 -0.44869,6.01747 -3.31711,7.05021 h -5.2e-4 c -1.961054,0.70604 -4.052456,0.23616 -5.50974,-1.048 v 1.25626 c 1.663891,1.12118 3.82126,1.46446 5.84925,0.73432 0.83522,-0.30071 1.57131,-0.75581 2.18799,-1.32137 -0.0657,0.44617 -0.09601,0.8993 -0.08941,1.35599 -0.53137,0.3702 -1.12002,0.67789 -1.75906,0.90796 -2.124126,0.76474 -4.3615,0.51555 -6.18877,-0.49713 v 1.27899 c 1.256024,0.60388 2.284918,1.68242 2.795695,3.1011 h 5.16e-4 l 0.942062,-0.33951 c -0.30072,-0.83523 -0.755817,-1.57078 -1.321367,-2.18746 0.44616,0.0657 0.89929,0.0961 1.35599,0.0894 0.370204,0.53139 0.677874,1.12001 0.907954,1.75906 0.46652,1.29571 1.90927,1.97442 3.20497,1.50792 1.2957,-0.46651 1.97441,-1.90876 1.50792,-3.20445 h -5.2e-4 v -5.2e-4 c -1.40752,-3.9095 0.61428,-8.20582 4.52376,-9.61337 0.63908,-0.23008 1.2888,-0.36819 1.93425,-0.42168 0.28598,0.35608 0.59833,0.68565 0.93327,0.98754 -0.83565,-0.0427 -1.69277,0.076 -2.52801,0.37672 -3.37779,1.21613 -5.13681,4.954 -3.92069,8.33179 l 0.94258,-0.33951 c -1.03273,-2.86844 0.44868,-6.01696 3.31711,-7.0497 2.01286,-0.72469 4.16092,-0.20792 5.62188,1.15393 v -1.63401 c -2.14903,-0.68461 -3.96787,-2.31922 -4.79247,-4.60953 -0.46651,-1.29571 -1.90875,-1.97442 -3.20446,-1.50792 -1.29569,0.46651 -1.97442,1.90876 -1.50792,3.20445 0.23009,0.63909 0.3682,1.28828 0.42168,1.93374 -0.35608,0.28597 -0.68564,0.59883 -0.98753,0.93379 0.0427,-0.83566 -0.076,-1.69278 -0.37672,-2.52801 -0.65792,-1.8274 0.28359,-3.82861 2.11098,-4.48655 0.39973,-0.14392 0.80771,-0.2115 1.20819,-0.20981 1.43028,0.006 2.76434,0.89315 3.27836,2.32079 0.67311,1.86959 2.12034,3.23987 3.84989,3.88762 v -1.07539 c -1.30631,-0.59262 -2.38156,-1.69098 -2.90732,-3.15122 v -5.2e-4 c -0.64084,-1.77995 -2.2961,-2.91091 -4.0814,-2.97708 z m -2.89285,16.13493 c 0.65792,1.8274 -0.28359,3.82861 -2.11098,4.48655 -1.82741,0.65792 -3.82809,-0.28359 -4.486031,-2.11098 l -0.942578,0.33899 c 0.841328,2.33675 3.431379,3.55587 5.768119,2.71457 2.33674,-0.84132 3.55535,-3.43136 2.71405,-5.76813 z m 2.78898,-13.1346 c 0.5957,0.0199 1.14187,0.39582 1.35754,0.99477 0.1932,0.53663 0.4357,1.04165 0.71934,1.51257 -0.54365,0.0815 -1.08759,0.21712 -1.62419,0.41031 -0.53662,0.19321 -1.04165,0.43518 -1.51257,0.71882 -0.0815,-0.54364 -0.2166,-1.08705 -0.4098,-1.62367 -0.28311,-0.78635 0.118,-1.63924 0.90434,-1.92236 h 5.2e-4 c 0.14744,-0.0531 0.29699,-0.0825 0.44493,-0.0894 0.0401,-0.002 0.0802,-0.002 0.11989,-0.001 z m -41.128756,2.14354 c 1.430288,0.006 2.764343,0.89314 3.278353,2.32079 1.216128,3.3778 4.953989,5.1368 8.331791,3.92069 v -5.2e-4 c 0.835198,-0.3007 1.570784,-0.75581 2.187464,-1.32136 -0.0657,0.44616 -0.096,0.89981 -0.0894,1.3565 -0.531388,0.3702 -1.120027,0.67736 -1.759065,0.90744 -3.909474,1.40754 -8.205831,-0.61429 -9.613367,-4.52375 -0.46652,-1.2957 -1.908738,-1.97442 -3.204456,-1.50792 -1.295696,0.46651 -1.974923,1.90875 -1.508435,3.20445 v 5.2e-4 c 0.23007,0.63909 0.368717,1.28828 0.422197,1.93373 -0.35607,0.28598 -0.686164,0.59832 -0.988054,0.93328 0.0427,-0.83566 -0.07552,-1.69278 -0.376204,-2.52801 -0.657918,-1.8274 0.283596,-3.8281 2.110982,-4.48603 v -5.2e-4 c 0.39974,-0.14392 0.807717,-0.21098 1.208195,-0.20929 z m 32.651236,0.62115 c 0.0816,0.54365 0.21711,1.08705 0.41031,1.62368 0.28311,0.78633 -0.11851,1.63975 -0.90485,1.92288 -0.786357,0.28311 -1.639754,-0.11852 -1.922882,-0.90486 -0.1932,-0.5366 -0.435064,-1.04177 -0.71882,-1.51257 0.543646,-0.0816 1.087054,-0.21711 1.623674,-0.41031 0.536598,-0.1932 1.041768,-0.43506 1.512568,-0.71882 z m -32.615579,1.38338 c 0.595698,0.0199 1.14187,0.3958 1.35754,0.99477 0.1932,0.53662 0.435179,1.04164 0.718819,1.51257 -0.54365,0.0815 -1.087064,0.21712 -1.623674,0.41031 -0.536618,0.1932 -1.041639,0.43518 -1.512569,0.71882 -0.0815,-0.54365 -0.217111,-1.08705 -0.410311,-1.62367 -0.283108,-0.78636 0.118515,-1.63975 0.904855,-1.92288 0.14744,-0.0531 0.297501,-0.082 0.445451,-0.0889 0.04007,-0.002 0.08017,-0.002 0.119889,-0.001 z m 18.781282,1.19269 c -1.028905,1.19315 -1.405773,2.89256 -0.835608,4.47621 v 5.2e-4 c 1.032388,2.86832 -0.449362,6.01701 -3.317626,7.0497 -2.868456,1.03273 -6.016951,-0.44867 -7.049699,-3.31711 v -5.2e-4 c -0.841325,-2.33672 -3.431358,-3.55534 -5.768124,-2.71404 -2.336734,0.84132 -3.555871,3.43136 -2.714563,5.76812 1.032718,2.86845 -0.448676,6.01747 -3.31711,7.05022 h -5.17e-4 c -1.999026,0.7197 -4.132267,0.21554 -5.592423,-1.12552 v 1.27228 c 1.674989,1.16742 3.869211,1.53846 5.931937,0.79581 0.83522,-0.3007 1.571301,-0.75581 2.187981,-1.32136 -0.0657,0.44616 -0.096,0.89929 -0.0894,1.35599 -0.531388,0.37019 -1.120027,0.67788 -1.759065,0.90795 -2.156609,0.77645 -4.42913,0.50514 -6.271452,-0.54673 v 1.29087 c 1.293332,0.5958 2.356486,1.68927 2.878377,3.13883 h 5.17e-4 l 0.942061,-0.33951 c -0.300718,-0.83523 -0.755818,-1.57079 -1.321366,-2.18747 0.446158,0.0657 0.899291,0.0961 1.355989,0.0894 0.3702,0.53139 0.677877,1.12002 0.907955,1.75907 0.46652,1.2957 1.909275,1.97442 3.204973,1.50792 1.295686,-0.46651 1.974408,-1.90874 1.507918,-3.20446 h -5.17e-4 v -5.2e-4 c -1.407536,-3.90949 0.614293,-8.20581 4.523755,-9.61336 0.639078,-0.23009 1.288801,-0.3682 1.934249,-0.42168 0.28598,0.35608 0.598318,0.68565 0.933276,0.98753 -0.835668,-0.0427 -1.692773,0.076 -2.528011,0.37673 -3.377802,1.2161 -5.136807,4.95397 -3.920691,8.33179 l 0.942578,-0.33952 c -1.032728,-2.86842 0.448697,-6.01695 3.317111,-7.0497 2.868449,-1.03272 6.017477,0.4487 7.050215,3.31711 l 0.942578,-0.33899 c -0.300718,-0.83523 -0.755818,-1.5713 -1.321366,-2.18798 0.44616,0.0657 0.89929,0.096 1.35599,0.0894 0.370198,0.53139 0.677875,1.12002 0.907955,1.75906 l 0.942061,-0.33951 c -0.1932,-0.53661 -0.435061,-1.04126 -0.718819,-1.51205 0.543648,-0.0816 1.087055,-0.21713 1.623673,-0.41031 0.53661,-0.1932 1.041781,-0.43558 1.512569,-0.71934 0.0816,0.54365 0.217111,1.08705 0.410311,1.62367 v 5.2e-4 h 5.17e-4 c 0.28312,0.78635 -0.118506,1.63924 -0.904854,1.92236 -0.786358,0.28311 -1.639752,-0.11801 -1.92288,-0.90433 l -0.942578,0.33899 c 0.466518,1.29571 1.908747,1.97442 3.204455,1.50792 1.295698,-0.46651 1.974925,-1.90876 1.508435,-3.20445 h -5.17e-4 c -0.704192,-1.95593 -0.549739,-4.00898 0.269751,-5.74849 v -5.3883 c -0.1396,-0.56564 -0.132293,-1.13817 0,-1.67432 z m -5.924703,16.95556 -0.942578,0.33951 c 0.841328,2.33675 3.431886,3.55536 5.76864,2.71405 1.555847,-0.56016 2.615137,-1.89559 2.901632,-3.4153 -0.351129,-0.25594 -0.663507,-0.56184 -0.924491,-0.90899 0.0373,1.46896 -0.854788,2.85537 -2.316655,3.38171 -1.827396,0.65792 -3.828608,-0.28361 -4.486548,-2.11098 z m -12.252482,4.4111 c 0.65791,1.82741 -0.283596,3.82864 -2.110982,4.48654 -1.827406,0.65791 -3.828093,-0.28359 -4.486031,-2.11098 l -0.942578,0.339 c 0.841328,2.33675 3.431369,3.55585 5.768123,2.71456 2.336726,-0.84132 3.555346,-3.43136 2.714046,-5.76812 z m 43.847972,-20.2861 c -0.51444,-0.003 -1.0376,0.0826 -1.54874,0.26665 v -5.2e-4 c -2.33676,0.84132 -3.55587,3.43187 -2.71457,5.76864 h 5.2e-4 c 1.03272,2.86845 -0.44868,6.01747 -3.31711,7.05022 h -5.2e-4 c -2.86845,1.03272 -6.016949,-0.44919 -7.049697,-3.31763 h -5.17e-4 l -0.942061,0.33951 c 1.216114,3.3778 4.953995,5.13629 8.331795,3.92018 0.83522,-0.30071 1.5713,-0.75581 2.18798,-1.32137 -0.0657,0.44617 -0.096,0.89981 -0.0894,1.35651 -0.53139,0.37019 -1.12003,0.67736 -1.75907,0.90744 -3.88202,1.39762 -8.144538,-0.58703 -9.58236,-4.44263 v 1.43557 c 0,0.46925 -0.0737,0.92081 -0.208773,1.34411 0.201308,-0.0333 0.40265,-0.0614 0.60358,-0.078 0.28597,0.35608 0.598327,0.68616 0.933277,0.98805 -0.694254,-0.0355 -1.403166,0.0418 -2.102197,0.24081 -0.681981,0.9893 -1.759711,1.68172 -3.008602,1.85364 -1.585748,1.72843 -2.185999,4.25791 -1.337903,6.61355 0.657918,1.82738 -0.284113,3.8281 -2.111499,4.48603 v 5.1e-4 c -1.827406,0.65792 -3.828093,-0.28411 -4.486031,-2.1115 -0.30072,-0.8352 -0.755817,-1.57078 -1.321367,-2.18746 0.44616,0.0657 0.89929,0.096 1.35599,0.0894 0.3702,0.53139 0.677875,1.12003 0.907955,1.75907 0.466508,1.29571 1.908749,1.9744 3.204455,1.50792 1.295708,-0.46651 1.974417,-1.90926 1.507919,-3.20498 -0.870443,-2.41768 -0.428333,-4.98267 0.959631,-6.92154 -0.479638,-0.033 -0.937869,-0.14205 -1.362191,-0.31574 -0.43101,1.71934 -1.683512,3.19759 -3.480924,3.84473 -2.868454,1.0327 -6.016951,-0.44919 -7.049699,-3.31763 h -5.17e-4 c -0.657278,-1.82559 -2.382038,-2.96905 -4.219381,-2.9807 -0.514448,-0.003 -1.037584,0.0826 -1.548742,0.26665 v -5.1e-4 c -2.336756,0.84129 -3.555851,3.43187 -2.714563,5.76864 h 5.17e-4 c 1.032728,2.86842 -0.448675,6.01746 -3.317111,7.05021 h -5.16e-4 c -2.868434,1.03272 -6.016961,-0.44919 -7.049699,-3.31763 h -5.17e-4 l -0.942061,0.33952 c 1.216116,3.37778 4.953987,5.13628 8.331791,3.92017 0.835218,-0.30071 1.571302,-0.7558 2.18798,-1.32136 -0.0657,0.44616 -0.096,0.8998 -0.0894,1.3565 -0.53139,0.3702 -1.120028,0.67736 -1.759066,0.90744 -3.909472,1.40753 -8.206326,-0.6143 -9.613884,-4.52375 -0.01421,-0.0395 -0.03517,-0.0743 -0.05116,-0.11266 v 2.95073 c 0.159241,-0.0236 0.318541,-0.0421 0.47749,-0.0553 0.28597,0.35608 0.598328,0.68618 0.933276,0.98805 -0.466051,-0.0238 -0.938876,0.008 -1.410766,0.0884 v 1.01906 c 2.327973,-0.47373 4.693163,0.60501 5.864758,2.65875 h 1.128097 c -0.286117,-0.61826 -0.657608,-1.17523 -1.099675,-1.65726 0.44616,0.0657 0.89929,0.0965 1.35599,0.0899 0.332539,0.47733 0.611277,1.00267 0.83199,1.56734 h 1.088823 c -0.02381,-0.049 -0.05137,-0.0953 -0.07028,-0.14779 -0.1932,-0.53661 -0.435586,-1.04179 -0.719336,-1.51257 0.543648,-0.0816 1.087045,-0.21711 1.623673,-0.41031 0.5366,-0.1932 1.04177,-0.43506 1.51257,-0.71882 0.0816,0.54365 0.217112,1.08705 0.41031,1.62367 0.143782,0.39937 0.109162,0.81536 -0.06098,1.16582 h 1.05885 c 0.132108,-0.48049 0.125339,-1.00362 -0.05529,-1.50533 -1.407538,-3.90951 0.614287,-8.20582 4.523754,-9.61337 0.63909,-0.23009 1.288791,-0.3687 1.934249,-0.42219 0.28597,0.35608 0.598317,0.68616 0.933277,0.98805 -0.83566,-0.0427 -1.692783,0.0755 -2.528011,0.3762 v 5.2e-4 c -3.377799,1.21612 -5.136789,4.95398 -3.920691,8.33179 0.221319,0.61472 0.257682,1.2481 0.144177,1.84433 h 1.014408 c 0.106554,-0.71261 0.04447,-1.46037 -0.216007,-2.18384 h -5.17e-4 c -1.032728,-2.86846 0.449208,-6.01749 3.317627,-7.05022 2.868444,-1.03272 6.017468,0.44919 7.050216,3.31763 0.841318,2.33674 3.431367,3.55534 5.768123,2.71404 2.336746,-0.8413 3.555861,-3.43136 2.714563,-5.76812 h -5.17e-4 c -1.032728,-2.86845 0.449193,-6.01695 3.317627,-7.0497 2.86843,-1.03272 6.01747,0.4492 7.05022,3.31763 0.8413,2.33675 3.43135,3.55534 5.76812,2.71405 2.33674,-0.84131 3.55587,-3.43137 2.71456,-5.76813 h -5.1e-4 c -1.03273,-2.86843 0.44921,-6.01747 3.31762,-7.05021 0.73801,-0.26571 1.49395,-0.3622 2.22829,-0.3142 v -2.39675 c -0.59125,-0.68163 -1.07447,-1.4771 -1.39888,-2.37815 l -0.94258,0.339 c 0.1932,0.53662 0.4357,1.04164 0.71934,1.51257 -0.54365,0.0814 -1.08758,0.21711 -1.62419,0.41031 -0.53662,0.1932 -1.04164,0.43518 -1.51257,0.71882 -0.0815,-0.54365 -0.2166,-1.08706 -0.4098,-1.62368 h -5.1e-4 l -0.94206,0.33952 c 0.23009,0.63908 0.36819,1.28828 0.42167,1.93373 -0.35605,0.28597 -0.68564,0.59832 -0.98753,0.93328 0.0427,-0.83567 -0.07599,-1.69278 -0.37672,-2.52801 h -5.2e-4 c -0.65792,-1.82741 0.28411,-3.82862 2.1115,-4.48655 0.34264,-0.12336 0.69128,-0.19062 1.03611,-0.20619 1.49426,-0.0675 2.91534,0.83294 3.44992,2.31769 h 5.2e-4 c 0.12465,0.34622 0.28176,0.67058 0.4563,0.98133 v -2.28616 c -0.83325,-1.25424 -2.24629,-2.00596 -3.73362,-2.01538 z m -1.43557,5.01674 c -0.28311,-0.78633 0.11851,-1.63975 0.90485,-1.92288 0.78636,-0.2831 1.63975,0.11852 1.92288,0.90486 l 0.94206,-0.33952 c -0.36446,-1.01225 -1.32414,-1.64794 -2.34456,-1.65519 -0.28572,-0.002 -0.57645,0.0452 -0.85989,0.14728 -1.29569,0.46651 -1.97441,1.90873 -1.50792,3.20445 z m -50.895088,18.32343 c -0.367322,-1.02021 -1.068364,-1.82682 -1.935799,-2.34249 v 1.22577 c 0.434896,0.37971 0.783011,0.87188 0.993221,1.45572 z m 37.700024,-13.57281 c -0.355432,-0.98721 -1.02436,-1.77262 -1.853116,-2.28978 v 1.24902 c 0.395921,0.3688 0.713943,0.83372 0.910538,1.37976 z m -16.055867,-6.63784 c 0.0816,0.54366 0.216594,1.08706 0.409794,1.62367 h 5.17e-4 c 0.283108,0.78635 -0.118515,1.63977 -0.904855,1.92288 -0.786358,0.2831 -1.63975,-0.11851 -1.92288,-0.90485 -0.193198,-0.53661 -0.435059,-1.04178 -0.718819,-1.51257 0.54366,-0.0816 1.087044,-0.21711 1.623674,-0.41031 0.536598,-0.1932 1.041769,-0.43506 1.512569,-0.71882 z m -10.40815,2.01745 c 1.430266,0.006 2.764333,0.89314 3.278353,2.32079 1.216131,3.37778 4.953977,5.1368 8.331791,3.92069 0.835218,-0.30071 1.5713,-0.75581 2.18798,-1.32137 -0.0657,0.44617 -0.09652,0.8993 -0.08992,1.35599 -0.53139,0.3702 -1.119511,0.67788 -1.758549,0.90796 -3.909482,1.40753 -8.206326,-0.61427 -9.613884,-4.52376 -0.466518,-1.2957 -1.908747,-1.97441 -3.204455,-1.50792 -1.295678,0.46652 -1.974418,1.90874 -1.507918,3.20446 0.230088,0.63908 0.368199,1.28828 0.421679,1.93373 -0.356078,0.28598 -0.685648,0.59884 -0.987536,0.93379 0.0427,-0.83564 -0.07604,-1.69278 -0.376722,-2.52801 -0.657918,-1.82738 0.283595,-3.82863 2.110983,-4.48654 0.399738,-0.14392 0.807715,-0.2115 1.208195,-0.20981 z m 32.651241,0.62115 c 0.0816,0.54365 0.21711,1.08705 0.41031,1.62367 h 5.1e-4 v 5.2e-4 c 0.28312,0.78635 -0.1185,1.63924 -0.90485,1.92236 -0.78636,0.28311 -1.63975,-0.11851 -1.92288,-0.90485 -0.1932,-0.53659 -0.43558,-1.04178 -0.71934,-1.51257 0.54364,-0.0816 1.08706,-0.21659 1.62368,-0.40979 v -5.2e-4 h 5.1e-4 c 0.53644,-0.19317 1.0414,-0.43515 1.51206,-0.71882 z m 11.20448,0.67386 c 0.28597,0.35608 0.59832,0.68616 0.93328,0.98805 -0.83566,-0.0427 -1.69279,0.0755 -2.52802,0.37621 v 5.2e-4 c -3.37777,1.2161 -5.13677,4.95397 -3.92069,8.33179 0.65792,1.82738 -0.28359,3.82809 -2.11098,4.48603 -1.82741,0.65792 -3.82861,-0.28362 -4.48655,-2.11098 -0.30071,-0.83523 -0.75581,-1.57132 -1.32136,-2.18798 0.44616,0.0657 0.89929,0.0965 1.35599,0.0899 0.3702,0.53139 0.67787,1.11951 0.90795,1.75855 0.46652,1.2957 1.90876,1.97495 3.20446,1.50844 v -5.2e-4 c 1.29571,-0.46651 1.97442,-1.90874 1.50792,-3.20446 -1.40754,-3.90948 0.61427,-8.20581 4.52375,-9.61336 0.63909,-0.23009 1.28879,-0.36872 1.93425,-0.4222 z m -43.820065,0.70952 c 0.5957,0.0199 1.14188,0.3958 1.35754,0.99477 0.1932,0.53662 0.435696,1.04164 0.719336,1.51257 -0.543648,0.0814 -1.087572,0.21711 -1.62419,0.41031 -0.53662,0.1932 -1.041651,0.43518 -1.512569,0.71882 -0.0815,-0.54365 -0.216596,-1.08708 -0.409794,-1.62367 -0.28311,-0.78636 0.117999,-1.63924 0.904337,-1.92237 h 5.17e-4 c 0.14744,-0.0531 0.296994,-0.0825 0.444934,-0.0894 0.04007,-0.002 0.08018,-0.002 0.119889,-0.001 z m 44.513045,2.27634 c -0.09343,-0.003 -0.18699,-0.002 -0.28112,0.002 -0.44275,0.0191 -0.88994,0.10425 -1.32808,0.26199 -2.33675,0.84132 -3.55587,3.43136 -2.71457,5.76813 h 5.2e-4 c 1.03272,2.86845 -0.44919,6.01748 -3.31763,7.05021 -2.86843,1.03273 -6.01746,-0.44922 -7.05021,-3.31762 -0.84131,-2.33675 -3.431374,-3.55535 -5.768126,-2.71405 v -5.2e-4 c -2.336754,0.84132 -3.555871,3.4319 -2.714563,5.76864 h 5.17e-4 c 1.032708,2.86845 -0.449203,6.01696 -3.317627,7.0497 -2.868454,1.03273 -6.017468,-0.44867 -7.050216,-3.31711 -0.841318,-2.33674 -3.431357,-3.55586 -5.768123,-2.71456 -2.336761,0.84132 -3.555861,3.43138 -2.714563,5.76812 h 5.17e-4 c 0.301522,0.8375 0.382827,1.69769 0.283704,2.52336 h 2.105814 c 0.746551,-0.72832 1.652726,-1.31705 2.699577,-1.69395 0.639078,-0.23009 1.288799,-0.3682 1.934249,-0.42168 0.28597,0.35609 0.598318,0.68565 0.933276,0.98754 -0.835668,-0.0427 -1.692773,0.076 -2.528011,0.37672 -0.528626,0.19032 -1.01211,0.44857 -1.456242,0.75137 h 2.472201 c 0.807759,-0.1803 1.621291,-0.17235 2.391585,0 h 3.820955 c -2.684844,-0.36417 -5.077232,-2.1685 -6.060095,-4.89841 -0.466518,-1.29567 -1.908749,-1.97441 -3.204455,-1.50791 -1.295698,0.46652 -1.974422,1.90872 -1.507919,3.20445 0.23009,0.63908 0.3682,1.28879 0.42168,1.93425 -0.35608,0.28597 -0.685647,0.59833 -0.987537,0.93328 0.0427,-0.83567 -0.076,-1.69279 -0.376721,-2.52801 -0.657918,-1.8274 0.284118,-3.82862 2.111499,-4.48655 0.39974,-0.14392 0.807717,-0.21151 1.208195,-0.20981 1.430278,0.006 2.763828,0.89314 3.277836,2.32079 1.216128,3.3778 4.953988,5.1368 8.331792,3.92069 0.835208,-0.30071 1.5713,-0.75582 2.18798,-1.32137 -0.0657,0.44615 -0.096,0.89981 -0.0894,1.35651 -0.531388,0.3702 -1.120027,0.67736 -1.759065,0.90744 -0.504887,0.18177 -1.01629,0.30395 -1.527039,0.37465 h 3.112988 c 0.0892,-0.0495 0.178713,-0.099 0.265617,-0.15141 0.0076,0.0505 0.01785,0.10095 0.02636,0.15141 h 1.014925 c -0.690221,-3.57421 1.301087,-7.20815 4.835364,-8.48062 l 5.17e-4,5.2e-4 c 0.639078,-0.23009 1.288284,-0.3682 1.933732,-0.42168 0.28598,0.35608 0.598318,0.68564 0.933278,0.98754 -0.835675,-0.0427 -1.692775,0.076 -2.528013,0.37672 v -5.2e-4 c -3.114938,1.12151 -4.847554,4.38752 -4.145483,7.53804 h 1.028878 c -0.730798,-2.73926 0.738537,-5.61704 3.456119,-6.59546 2.868449,-1.03273 6.016959,0.4492 7.049699,3.31763 0.84133,2.33674 3.43139,3.55586 5.76812,2.71456 l -0.33899,-0.94258 c -1.8274,0.65792 -3.82862,-0.28359 -4.48655,-2.11098 -0.30072,-0.83523 -0.75582,-1.5713 -1.32137,-2.18798 0.44616,0.0657 0.89981,0.096 1.35651,0.0894 0.3702,0.53139 0.67736,1.12003 0.90744,1.75907 0.46652,1.29569 1.90874,1.97441 3.20445,1.50791 1.2957,-0.4665 1.97441,-1.90874 1.50792,-3.20445 -1.34782,-3.74363 0.44992,-7.84057 4.03748,-9.41751 v -1.08159 c -0.4814,0.18349 -0.93813,0.40469 -1.36529,0.66197 -0.0815,-0.54364 -0.21711,-1.08757 -0.41031,-1.62419 -0.2831,-0.78635 0.11851,-1.63923 0.90485,-1.92236 0.14744,-0.0531 0.29699,-0.0825 0.44494,-0.0894 0.0401,-0.002 0.0802,-0.002 0.11989,-0.001 0.10434,0.003 0.2061,0.0214 0.30592,0.046 v -1.01751 c -0.39541,-0.0591 -0.8097,-0.0248 -1.21026,0.11937 -1.2957,0.46651 -1.97442,1.90874 -1.50792,3.20446 0.23009,0.63908 0.3682,1.28879 0.42168,1.93425 -0.35608,0.28597 -0.68565,0.59831 -0.98754,0.93327 0.0427,-0.83566 -0.076,-1.69278 -0.37672,-2.52801 -0.65792,-1.8274 0.28411,-3.82861 2.1115,-4.48655 0.39974,-0.14392 0.80772,-0.2115 1.2082,-0.2098 0.11462,4.8e-4 0.22805,0.009 0.34106,0.0202 v -0.99994 c -0.09284,-0.008 -0.18614,-0.0137 -0.27957,-0.0165 z m -4.92631,20.622 0.33951,0.94258 c 2.33675,-0.84132 3.55535,-3.43137 2.71405,-5.76812 v -5.2e-4 c -0.88123,-2.44766 0.07252,-5.09468 2.15232,-6.46162 v -1.15859 c -2.82631,1.48743 -4.20695,4.871 -3.0949,7.95972 0.65791,1.82741 -0.28361,3.82861 -2.11098,4.48655 z M 22.03122,235.29995 c 0.0816,0.54365 0.217111,1.08705 0.410311,1.62367 0.283108,0.78636 -0.118517,1.63975 -0.904855,1.92288 -0.786358,0.28311 -1.63975,-0.11851 -1.92288,-0.90485 -0.1932,-0.53661 -0.435059,-1.04178 -0.718819,-1.51257 0.543658,-0.0816 1.087065,-0.21711 1.623673,-0.41031 0.5366,-0.1932 1.04177,-0.43506 1.51257,-0.71882 z m 11.942423,4.65759 c 1.389317,0.0488 2.669708,0.92729 3.170866,2.31924 h 5.17e-4 c 1.216128,3.37779 4.953987,5.13681 8.331791,3.92069 0.835218,-0.3007 1.571302,-0.75579 2.18798,-1.32136 -0.0657,0.44617 -0.09652,0.89929 -0.08992,1.35599 -0.531388,0.3702 -1.119519,0.67787 -1.758549,0.90795 -3.909482,1.40753 -8.206327,-0.6143 -9.613883,-4.52375 l -0.942578,0.33899 c 0.193198,0.53663 0.435696,1.04164 0.719336,1.51257 -0.54365,0.0814 -1.087576,0.21712 -1.624191,0.41031 -0.536618,0.19321 -1.041639,0.43519 -1.512569,0.71882 -0.0815,-0.54365 -0.216594,-1.08706 -0.409794,-1.62367 h -5.17e-4 l -0.942061,0.33951 c 0.23009,0.63909 0.3682,1.28829 0.42168,1.93374 -0.35607,0.28598 -0.685647,0.59831 -0.987537,0.93327 0.0427,-0.83567 -0.076,-1.69278 -0.376721,-2.52801 h -5.17e-4 c -0.657918,-1.8274 0.284113,-3.82861 2.111499,-4.48655 0.34264,-0.12336 0.691294,-0.19061 1.036112,-0.20619 0.09339,-0.004 0.186432,-0.005 0.279053,-0.002 z m -1.541508,4.01578 c -0.28311,-0.78636 0.118515,-1.63975 0.904855,-1.92288 0.786358,-0.28311 1.63975,0.11851 1.92288,0.90485 l 0.942061,-0.33951 c -0.36445,-1.01227 -1.324147,-1.64795 -2.34456,-1.6552 -0.28572,-0.002 -0.576456,0.0452 -0.859896,0.14728 -1.295696,0.46651 -1.974406,1.90873 -1.507918,3.20446 z m 34.085778,-3.39618 c 0.0816,0.54366 0.21711,1.08706 0.41031,1.62368 0.28311,0.78635 -0.11852,1.63975 -0.90486,1.92288 -0.78635,0.28311 -1.63923,-0.11851 -1.92236,-0.90486 -0.1932,-0.5366 -0.43559,-1.04177 -0.71934,-1.51257 0.54365,-0.0816 1.08706,-0.21711 1.62368,-0.41031 0.5366,-0.19319 1.04177,-0.43506 1.51257,-0.71882 z m -10.300666,2.01952 c 1.3893,0.0486 2.669695,0.92676 3.170866,2.31872 1.21613,3.3778 4.95398,5.1368 8.33179,3.92069 h 5.2e-4 c 0.83522,-0.30071 1.57078,-0.75582 2.18746,-1.32136 -0.0657,0.44617 -0.096,0.8993 -0.0894,1.35599 -0.53139,0.37018 -1.12003,0.67787 -1.75907,0.90795 -3.90948,1.40753 -8.20632,-0.61429 -9.613879,-4.52375 h 5.17e-4 c -0.466518,-1.29571 -1.909264,-1.97442 -3.204972,-1.50792 v -5.2e-4 c -1.295698,0.46652 -1.974408,1.90875 -1.507918,3.20446 0.230088,0.63907 0.368199,1.28881 0.421679,1.93424 -0.356078,0.28597 -0.685648,0.59832 -0.987536,0.93328 0.0427,-0.83566 -0.0761,-1.69278 -0.376722,-2.52801 -0.657908,-1.82741 0.283597,-3.82861 2.110983,-4.48655 l 5.16e-4,5.2e-4 c 0.34263,-0.12336 0.691283,-0.19059 1.036113,-0.20619 0.09339,-0.004 0.186433,-0.005 0.279053,-0.002 z m -0.19172,2.00401 c 0.641128,-0.0301 1.247896,0.35432 1.477946,0.99322 0.1932,0.53662 0.435181,1.04164 0.718819,1.51257 -0.543648,0.0815 -1.087059,0.21711 -1.623673,0.41031 v -5.1e-4 c -0.53662,0.19321 -1.041651,0.43569 -1.512569,0.71933 -0.0815,-0.54365 -0.217111,-1.08706 -0.410311,-1.62367 -0.28311,-0.78636 0.118516,-1.63976 0.904854,-1.92288 v 5.1e-4 c 0.14744,-0.0531 0.296984,-0.0819 0.444934,-0.0889 z m -30.601233,0.12402 c 0.0816,0.54365 0.217111,1.08706 0.410311,1.62368 h 5.17e-4 v 5.2e-4 c 0.28312,0.78635 -0.118506,1.63923 -0.904854,1.92236 -0.78636,0.28311 -1.639751,-0.11852 -1.922881,-0.90486 -0.193198,-0.53658 -0.435577,-1.04178 -0.719335,-1.51257 0.543628,-0.0816 1.087055,-0.21659 1.623673,-0.40979 v -5.2e-4 h 5.17e-4 c 0.536438,-0.19316 1.041394,-0.43515 1.512052,-0.71882 z m 49.877059,0.68317 c -1.30572,1.19159 -1.84443,3.0978 -1.20975,4.86068 0.92884,2.5799 -0.18084,5.38102 -2.49958,6.67091 h 1.70945 c 0.39687,0 0.7659,-0.1169 1.07694,-0.31626 0.17503,-0.83171 0.48447,-1.62746 0.92294,-2.35127 v -3.33055 c -0.06328,-0.33898 -0.14665,-0.67761 -0.26717,-1.01234 -0.36643,-1.01779 -0.23541,-2.08891 0.26717,-2.95228 z m -27.633455,1.95543 c 0.0816,0.54365 0.217111,1.08706 0.410311,1.62368 0.283108,0.78636 -0.118517,1.63975 -0.904855,1.92288 -0.786358,0.28312 -1.63975,-0.11852 -1.92288,-0.90486 -0.1932,-0.53661 -0.435059,-1.04178 -0.718819,-1.51257 0.54366,-0.0816 1.087044,-0.21659 1.623674,-0.40979 v -5.2e-4 c 0.536598,-0.1932 1.041769,-0.43505 1.512569,-0.71882 z m 22.243605,2.6386 c 0.0816,0.54365 0.21659,1.08706 0.40979,1.62368 0.28312,0.78634 -0.118,1.63975 -0.90434,1.92288 -0.78634,0.2831 -1.63975,-0.11852 -1.92288,-0.90486 -0.1932,-0.53661 -0.43505,-1.04178 -0.71881,-1.51257 0.54365,-0.0816 1.08705,-0.21659 1.62367,-0.40979 v -5.2e-4 c 0.53661,-0.1932 1.04178,-0.43506 1.51257,-0.71882 z m -10.26863,1.02165 c -0.11902,-0.004 -0.23872,-0.004 -0.35863,0.001 -0.442754,0.0191 -0.889945,0.10426 -1.328084,0.262 h -5.17e-4 c -2.298547,0.82757 -3.510752,3.34669 -2.749186,5.65288 h 1.045414 c -0.0239,-0.0747 -0.04145,-0.14994 -0.06821,-0.22427 -0.657918,-1.82741 0.284117,-3.82809 2.111499,-4.48603 0.34264,-0.12336 0.691246,-0.19059 1.036117,-0.20619 1.49437,-0.0676 2.91585,0.83242 3.45043,2.31717 0.37116,1.03089 0.97938,1.90855 1.7384,2.59932 h 1.69447 c -1.11593,-0.62524 -2.02226,-1.63694 -2.49081,-2.93832 h 5.2e-4 c -0.64085,-1.77994 -2.29611,-2.91127 -4.08141,-2.97759 z m -22.347469,0.36173 c 0.59575,0.0199 1.142397,0.39579 1.358057,0.99477 v 5.2e-4 c 0.1932,0.53661 0.435179,1.04165 0.718819,1.51257 -0.543648,0.0814 -1.087055,0.21659 -1.623673,0.40979 -0.53662,0.19321 -1.04165,0.43568 -1.51257,0.71934 -0.0815,-0.54365 -0.217112,-1.08759 -0.41031,-1.62419 -0.28311,-0.78636 0.118526,-1.63924 0.904854,-1.92237 0.14744,-0.0531 0.296984,-0.0825 0.444934,-0.0894 0.0401,-0.002 0.0802,-0.002 0.119889,-0.001 z m 22.275129,1.64073 c -0.06611,-0.003 -0.13237,-0.002 -0.19896,5.1e-4 -0.245845,0.0104 -0.493955,0.0577 -0.736903,0.14521 l 0.249081,0.69299 -0.249598,-0.69299 c -1.295696,0.4665 -1.974402,1.90874 -1.507918,3.20446 0.0673,0.18694 0.124406,0.37495 0.176217,0.56327 h 1.034562 c -0.07251,-0.30225 -0.160492,-0.60362 -0.268201,-0.90278 -0.283108,-0.78635 0.118515,-1.63975 0.904855,-1.92288 v 5.1e-4 c 0.147438,-0.0531 0.296975,-0.082 0.444935,-0.0889 0.64113,-0.03 1.2479,0.35484 1.47794,0.99374 0.1932,0.53661 0.43518,1.04165 0.71882,1.51257 -0.54155,0.0812 -1.08287,0.21571 -1.61747,0.40772 h 3.14141 c -0.54538,-0.65563 -0.99418,-1.40991 -1.30018,-2.25981 -0.35535,-0.98695 -1.27697,-1.61609 -2.26859,-1.65364 z m -41.105504,2.14302 c -0.09123,-0.002 -0.182683,-3.4e-4 -0.274402,0.004 -0.284673,0.0123 -0.571047,0.0533 -0.855761,0.12195 0.06309,0.35147 0.216681,0.67126 0.437699,0.93328 1.01544,-0.18413 2.033503,0.092 2.807064,0.71158 h 1.390612 c -0.836875,-1.0925 -2.136819,-1.74533 -3.505212,-1.77043 z" /><rect
       style="fill:none;stroke:#000000;stroke-width:0.499999;stroke-linecap:round;stroke-linejoin:round;stroke-dasharray:none"
       id="rect67421"
       width="9.1866341"
       height="22.371605"
       x="45.897148"
       y="219.36612"
       ry="4.391314"
       rx="4.391314" /><g
       aria-label="espirg"
       transform="matrix(0,0.26458333,-0.26458333,0,217.43532,133.55997)"
       id="text67712"
       style="font-weight:bold;font-size:24px;line-height:1.25;font-family:Carlito;-inkscape-font-specification:'Carlito Bold';letter-spacing:0px;word-spacing:0px;baseline-shift:baseline;opacity:1;vector-effect:none;stroke-width:0.999999;stop-color:#000000;stop-opacity:1"><path
         d="m 343.07596,624.64844 q 1.10156,0 2.02734,0.36328 0.92578,0.35156 1.59375,1.03125 0.66797,0.66797 1.04297,1.65234 0.375,0.98438 0.375,2.25 0,0.33985 -0.0352,0.5625 -0.0351,0.21094 -0.11718,0.33985 -0.0703,0.1289 -0.21094,0.1875 -0.12891,0.0469 -0.32813,0.0469 h -6.96093 q 0.0703,0.84375 0.30468,1.46484 0.23438,0.6211 0.6211,1.01954 0.38672,0.39843 0.91406,0.59765 0.52734,0.1875 1.17188,0.1875 0.64453,0 1.11328,-0.15234 0.48047,-0.16406 0.83203,-0.33985 0.36328,-0.1875 0.64453,-0.33984 0.28125,-0.16406 0.55078,-0.16406 0.32813,0 0.53906,0.26953 l 0.85547,1.10156 q -0.48047,0.5625 -1.0664,0.9375 -0.58594,0.36328 -1.21875,0.58594 -0.6211,0.21094 -1.26563,0.30469 -0.64453,0.0937 -1.24219,0.0937 -1.20703,0 -2.25,-0.39844 -1.04297,-0.39844 -1.8164,-1.18359 -0.77344,-0.79688 -1.21875,-1.95704 -0.4336,-1.17187 -0.4336,-2.70703 0,-1.18359 0.38672,-2.22656 0.38672,-1.05469 1.10156,-1.82812 0.72657,-0.78516 1.75782,-1.24219 1.03125,-0.45703 2.33203,-0.45703 z m 0.0586,2.12109 q -1.13672,0 -1.78125,0.66797 -0.64453,0.65625 -0.83203,1.86328 h 4.92188 q 0,-0.50391 -0.14063,-0.96094 -0.12891,-0.45703 -0.42187,-0.80859 -0.28125,-0.35156 -0.71485,-0.55078 -0.43359,-0.21094 -1.03125,-0.21094 z"
         id="path67764" /><path
         d="m 357.04471,627.17969 q -0.11719,0.19922 -0.25781,0.28125 -0.12891,0.0703 -0.32813,0.0703 -0.21094,0 -0.44531,-0.10547 -0.22266,-0.11719 -0.50391,-0.24609 -0.26953,-0.14063 -0.62109,-0.2461 -0.35156,-0.11718 -0.8086,-0.11718 -0.70312,0 -1.08984,0.32812 -0.38672,0.31641 -0.38672,0.85547 0,0.36328 0.22266,0.60937 0.22265,0.23438 0.58594,0.42188 0.375,0.17578 0.83203,0.32812 0.46875,0.15235 0.96093,0.32813 0.49219,0.17578 0.94922,0.42187 0.46875,0.23438 0.83203,0.58594 0.375,0.35156 0.59766,0.85547 0.22266,0.50391 0.22266,1.20703 0,0.84375 -0.29297,1.5586 -0.29297,0.71484 -0.86719,1.23046 -0.5625,0.51563 -1.40625,0.8086 -0.83203,0.29297 -1.93359,0.29297 -0.5625,0 -1.11328,-0.10547 -0.55079,-0.10547 -1.05469,-0.29297 -0.50391,-0.19922 -0.94922,-0.45703 -0.43359,-0.25781 -0.75,-0.5625 l 0.69141,-1.125 q 0.1289,-0.19922 0.30468,-0.31641 0.17578,-0.11719 0.45703,-0.11719 0.25782,0 0.48047,0.14063 0.23438,0.14062 0.50391,0.31641 0.26953,0.16406 0.64453,0.30468 0.375,0.14063 0.9375,0.14063 0.42188,0 0.71484,-0.10547 0.30469,-0.10547 0.48047,-0.28125 0.1875,-0.1875 0.26953,-0.42188 0.0937,-0.23437 0.0937,-0.48046 0,-0.51563 -0.38671,-0.79688 -0.38672,-0.29297 -0.97266,-0.50391 -0.58594,-0.21093 -1.26563,-0.43359 -0.66796,-0.22266 -1.2539,-0.60937 -0.58594,-0.38672 -0.97266,-1.01954 -0.38672,-0.63281 -0.38672,-1.67578 0,-0.72656 0.26953,-1.37109 0.26954,-0.65625 0.79688,-1.14844 0.53906,-0.49219 1.32422,-0.78515 0.79687,-0.29297 1.85156,-0.29297 0.57422,0 1.11328,0.10547 0.53906,0.10546 1.00781,0.30468 0.48047,0.1875 0.86719,0.45703 0.39844,0.26954 0.70313,0.58594 z"
         id="path67766" /><path
         d="m 359.85721,640.24609 v -15.41015 h 1.82812 q 0.28125,0 0.46875,0.1289 0.19922,0.12891 0.25782,0.39844 l 0.24609,1.01953 q 0.35156,-0.38672 0.73828,-0.71484 0.38672,-0.32813 0.83203,-0.5625 0.45703,-0.23438 0.97266,-0.36328 0.52734,-0.12891 1.13672,-0.12891 0.92578,0 1.69922,0.39844 0.77343,0.39844 1.33593,1.16015 0.5625,0.75 0.86719,1.86329 0.31641,1.11328 0.31641,2.53125 0,1.30078 -0.35157,2.41406 -0.35156,1.11328 -0.99609,1.93359 -0.64453,0.8086 -1.55859,1.27735 -0.90235,0.45703 -2.02735,0.45703 -0.94922,0 -1.60547,-0.28125 -0.65625,-0.29297 -1.18359,-0.78516 v 4.66406 z m 5.46094,-13.27734 q -0.83204,0 -1.40625,0.33984 -0.57422,0.32813 -1.07813,0.96094 v 5.15625 q 0.44531,0.53906 0.96094,0.76172 0.52734,0.21094 1.125,0.21094 0.57422,0 1.04297,-0.22266 0.48047,-0.23437 0.82031,-0.70312 0.33984,-0.46875 0.51562,-1.1836 0.1875,-0.72656 0.1875,-1.72265 0,-0.98438 -0.15234,-1.66407 -0.15234,-0.6914 -0.43359,-1.11328 -0.28125,-0.43359 -0.67969,-0.62109 -0.39844,-0.19922 -0.90234,-0.19922 z"
         id="path67768" /><path
         d="m 372.3494,636.47266 z m 3.38671,-11.63672 v 11.63672 h -2.97656 v -11.63672 z m 0.36329,-3.33985 q 0,0.38672 -0.15235,0.72657 -0.15234,0.32812 -0.41015,0.58593 -0.25782,0.2461 -0.60938,0.39844 -0.35156,0.14063 -0.73828,0.14063 -0.375,0 -0.71484,-0.14063 -0.32813,-0.15234 -0.58594,-0.39844 -0.2461,-0.25781 -0.39844,-0.58593 -0.14062,-0.33985 -0.14062,-0.72657 0,-0.38672 0.14062,-0.72656 0.15234,-0.33984 0.39844,-0.58594 0.25781,-0.25781 0.58594,-0.39843 0.33984,-0.15235 0.71484,-0.15235 0.38672,0 0.73828,0.15235 0.35156,0.14062 0.60938,0.39843 0.25781,0.2461 0.41015,0.58594 0.15235,0.33984 0.15235,0.72656 z"
         id="path67770" /><path
         d="m 378.4783,636.47266 v -11.63672 h 1.7461 q 0.45703,0 0.63281,0.16406 0.1875,0.16406 0.24609,0.57422 l 0.15235,1.18359 q 0.52734,-0.99609 1.23046,-1.57031 0.70313,-0.57422 1.62891,-0.57422 0.76172,0 1.25391,0.36328 l -0.22266,2.22656 q -0.0234,0.21094 -0.14062,0.30469 -0.11719,0.082 -0.31641,0.082 -0.17578,0 -0.50391,-0.0469 -0.32812,-0.0586 -0.60937,-0.0586 -0.41016,0 -0.73828,0.11719 -0.31641,0.11719 -0.57422,0.35156 -0.2461,0.22266 -0.44531,0.55079 -0.19922,0.32812 -0.36329,0.75 v 7.21875 z"
         id="path67772" /><path
         d="m 390.84158,624.63672 q 0.70313,0 1.32422,0.15234 0.63281,0.15235 1.16016,0.4336 h 3.23437 v 1.11328 q 0,0.25781 -0.15234,0.41015 -0.14063,0.15235 -0.48047,0.22266 l -0.91406,0.1875 q 0.21094,0.58594 0.21094,1.24219 0,0.86718 -0.33985,1.57031 -0.32812,0.69141 -0.92578,1.18359 -0.58594,0.49219 -1.39453,0.76172 -0.79688,0.25781 -1.72266,0.25781 -0.28125,0 -0.55078,-0.0234 -0.26953,-0.0234 -0.53906,-0.0703 -0.43359,0.28125 -0.43359,0.65625 0,0.33985 0.30468,0.49219 0.30469,0.15235 0.79688,0.22266 0.49219,0.0586 1.125,0.082 0.63281,0.0117 1.28906,0.0703 0.66797,0.0586 1.30078,0.19922 0.63281,0.14063 1.125,0.45703 0.49219,0.31641 0.79688,0.84375 0.30468,0.52735 0.30468,1.35938 0,0.77343 -0.36328,1.5 -0.36328,0.73828 -1.05468,1.3125 -0.69141,0.57422 -1.69922,0.91406 -1.00782,0.35156 -2.29688,0.35156 -1.26562,0 -2.20312,-0.25781 -0.9375,-0.25781 -1.54688,-0.67969 -0.60937,-0.42187 -0.91406,-0.98437 -0.29297,-0.55078 -0.29297,-1.14844 0,-0.78516 0.44531,-1.32422 0.44532,-0.55078 1.23047,-0.87891 -0.41015,-0.23437 -0.66797,-0.64453 -0.24609,-0.41015 -0.24609,-1.04297 0,-0.25781 0.082,-0.52734 0.0937,-0.28125 0.28125,-0.55078 0.1875,-0.28125 0.45703,-0.52734 0.26953,-0.2461 0.64453,-0.44532 -0.84375,-0.48047 -1.33593,-1.26562 -0.48047,-0.79688 -0.48047,-1.86328 0,-0.86719 0.33984,-1.5586 0.33984,-0.70312 0.92578,-1.18359 0.59766,-0.49219 1.40625,-0.75 0.82031,-0.26953 1.76953,-0.26953 z m 2.77735,12.32812 q 0,-0.3164 -0.17578,-0.51562 -0.17579,-0.19922 -0.48047,-0.30469 -0.30469,-0.11719 -0.71485,-0.16406 -0.41015,-0.0586 -0.8789,-0.082 -0.45703,-0.0352 -0.96094,-0.0586 -0.49219,-0.0234 -0.97266,-0.082 -0.38672,0.2461 -0.63281,0.57422 -0.23437,0.32813 -0.23437,0.76172 0,0.29297 0.11718,0.53906 0.12891,0.2461 0.41016,0.42188 0.28125,0.17578 0.75,0.26953 0.46875,0.10547 1.16016,0.10547 0.72656,0 1.21875,-0.11719 0.5039,-0.10547 0.80859,-0.30469 0.31641,-0.1875 0.44531,-0.45703 0.14063,-0.26953 0.14063,-0.58594 z m -2.77735,-6.70312 q 0.90235,0 1.32422,-0.49219 0.4336,-0.49219 0.4336,-1.30078 0,-0.82031 -0.4336,-1.28906 -0.42187,-0.48047 -1.32422,-0.48047 -0.89062,0 -1.32422,0.48047 -0.42187,0.46875 -0.42187,1.28906 0,0.79687 0.42187,1.30078 0.4336,0.49219 1.32422,0.49219 z"
         id="path67774" /></g><path
       id="path2239"
       style="fill:#729fcf;stroke:none;stroke-width:0.05;stroke-linecap:round;stroke-linejoin:round;stroke-opacity:1"
       d="M 52.029382 27.640173 C 51.849204 27.828065 51.662577 28.009007 51.464042 28.175024 L 50.34008 27.844812 A 0.78754935 0.78754935 0 0 0 49.363395 28.37863 L 49.033183 29.503625 C 48.658249 29.621118 48.271465 29.703437 47.878215 29.757357 L 47.878215 31.330904 C 48.093643 31.306342 48.310259 31.286597 48.522103 31.246155 L 48.031694 32.917887 C 47.980955 32.923437 47.9291 32.922398 47.878215 32.927189 L 47.878215 39.033276 L 50.651689 29.57804 L 60.475378 32.460034 L 70.299068 35.341512 L 67.41759 45.164685 L 67.416557 45.164168 L 66.086405 49.698258 A 0.78754935 0.78754935 0 0 0 66.621257 50.674943 L 71.15483 52.005094 L 71.840059 52.206116 L 71.840059 50.565389 L 71.598214 50.494592 L 67.82015 49.38665 L 68.928609 45.608069 L 68.928092 45.607552 L 69.298612 44.34458 C 70.092242 44.833255 70.942267 45.251016 71.840059 45.591532 L 71.840059 43.887244 C 71.106867 43.570977 70.408944 43.201943 69.759566 42.773617 L 70.226721 41.180432 C 70.767945 41.57194 71.347802 41.919878 71.961499 42.219128 L 72.369226 41.811401 L 76.395854 41.811401 C 75.685471 41.758527 74.969857 41.635753 74.258 41.426929 C 72.918115 41.033875 71.720764 40.392382 70.700077 39.567611 L 71.18997 37.895878 C 72.153658 38.810577 73.341794 39.516559 74.701383 39.915393 C 76.060973 40.314227 77.44203 40.36195 78.747131 40.112797 L 78.256722 41.78453 C 78.180869 41.792826 78.103456 41.791883 78.027279 41.798482 C 78.417031 41.819644 78.769271 41.931429 78.998279 42.340568 L 78.998279 44.848942 L 80.877234 38.444682 L 90.700924 41.32616 L 100.52461 44.208154 L 97.642619 54.031327 L 97.641585 54.030811 L 96.311951 58.564901 A 0.78754935 0.78754935 0 0 0 96.846285 59.541585 L 101.38038 60.871737 L 105.87829 62.191036 L 105.87829 59.525566 L 105.60131 60.469694 L 101.82324 59.361235 L 98.045178 58.252775 L 99.153638 54.474194 L 99.153121 54.474194 L 99.523641 53.211222 C 100.63168 53.893498 101.84555 54.444009 103.15339 54.827661 C 104.0598 55.093553 104.97098 55.261694 105.87829 55.35166 L 105.87829 53.766744 C 105.11858 53.681758 104.35614 53.538368 103.59678 53.315609 C 102.28074 52.929551 101.0717 52.35679 99.984595 51.639742 L 100.45175 50.047074 C 101.51101 50.813314 102.71569 51.415541 104.04016 51.804073 C 104.65138 51.983375 105.26562 52.104994 105.87829 52.182861 L 105.87829 50.588127 C 105.41325 50.519061 104.94779 50.429241 104.48354 50.293054 C 103.14367 49.900002 101.94579 49.259024 100.92511 48.434253 L 101.41552 46.76252 C 102.3792 47.677219 103.56734 48.383201 104.92693 48.782035 C 105.2433 48.874842 105.56083 48.944634 105.87829 49.00011 L 105.87829 47.398657 C 105.70876 47.362044 105.53947 47.320122 105.37031 47.2705 C 103.97009 46.859747 102.79468 46.057591 101.9266 45.019474 L 102.25681 43.894995 A 0.78754935 0.78754935 0 0 0 101.72299 42.918311 L 100.59903 42.588615 C 100.19441 41.297399 100.15324 39.875275 100.56389 38.475171 C 100.97466 37.075101 101.77688 35.899985 102.81491 35.03197 L 103.93939 35.362183 A 0.78754935 0.78754935 0 0 0 104.91659 34.827848 L 105.24629 33.703886 C 105.45352 33.638946 105.66495 33.586913 105.87829 33.541105 L 105.87829 31.944303 C 105.83836 31.951346 105.79716 31.952727 105.75737 31.960323 L 105.87829 31.548462 L 105.87829 29.640051 C 105.87829 29.05713 105.6271 28.533834 105.22924 28.168306 L 103.62727 33.628438 L 93.804093 30.74696 L 83.980404 27.864966 L 84.046549 27.640173 L 82.405823 27.640173 L 82.24821 28.178125 A 0.78754935 0.78754935 0 0 0 82.78151 29.155326 L 83.90599 29.485539 C 84.31061 30.776753 84.351267 32.198361 83.940613 33.598466 C 83.529841 34.998537 82.727616 36.173134 81.689587 37.04115 L 80.565108 36.711454 A 0.78754935 0.78754935 0 0 0 79.588424 37.245272 L 79.258728 38.369751 C 77.967408 38.77441 76.544985 38.814607 75.144767 38.403857 C 73.744552 37.993106 72.569651 37.190949 71.701567 36.152832 L 72.031262 35.028353 A 0.78754935 0.78754935 0 0 0 71.497961 34.051668 L 70.372965 33.721973 C 69.968345 32.430757 69.9282 31.008633 70.338859 29.608529 C 70.550063 28.888663 70.8664 28.229849 71.26335 27.640173 L 69.453125 27.640173 C 69.204448 28.122266 68.985572 28.625762 68.827323 29.165145 C 68.428591 30.52457 68.380352 31.905417 68.629403 33.210376 L 66.959737 32.720483 C 66.817246 31.416103 66.923865 30.061455 67.316821 28.721761 C 67.426221 28.348868 67.55889 27.990264 67.705428 27.640173 L 66.022843 27.640173 C 65.947594 27.8514 65.869194 28.060541 65.805286 28.278377 C 65.416826 29.602733 65.272815 30.941915 65.345365 32.247127 L 63.752181 31.779456 C 63.736071 30.477413 63.907767 29.150889 64.29375 27.834993 C 64.313201 27.768693 64.338472 27.705928 64.358862 27.640173 L 62.719169 27.640173 C 62.382332 28.866467 62.20519 30.100211 62.182251 31.319019 L 60.918762 30.948499 L 59.655273 30.577979 C 60.214969 29.668911 60.679979 28.685037 61.042786 27.640173 L 59.365885 27.640173 C 59.018822 28.521847 58.589981 29.351115 58.084827 30.117025 L 56.492159 29.64987 C 56.94063 29.029863 57.324597 28.35458 57.650745 27.640173 L 55.896847 27.640173 C 55.59951 28.186771 55.261107 28.702646 54.878304 29.176514 L 53.207605 28.686104 C 53.512764 28.364567 53.784564 28.009676 54.039596 27.640173 L 52.029382 27.640173 z M 73.319556 27.640173 C 72.649091 28.283345 72.129675 29.100067 71.850395 30.051912 L 71.850911 30.051912 C 70.996796 32.964116 72.67596 36.038551 75.588151 36.892839 C 78.500341 37.747126 81.574121 36.06719 82.42856 33.155082 C 83.023542 31.126423 82.387073 29.0211 80.963017 27.640173 L 73.319556 27.640173 z M 88.804915 27.640173 L 94.247477 29.236458 L 101.80361 31.453377 A 0.78754935 0.78754935 0 0 0 102.78081 30.918526 L 103.7425 27.640173 L 102.10126 27.640173 L 101.49096 29.719633 L 94.690861 27.724406 L 94.40354 27.640173 L 88.804915 27.640173 z M 77.071781 27.663944 C 77.459549 27.658297 77.85504 27.710436 78.247937 27.825692 C 80.343388 28.440389 81.532588 30.616753 80.918058 32.712215 C 80.303213 34.807584 78.126986 35.996517 76.031535 35.38182 C 73.936084 34.767122 72.746884 32.590758 73.361414 30.495296 C 73.860975 28.792809 75.391456 27.688417 77.071781 27.663944 z M 77.336882 29.249894 C 76.245754 29.16108 75.191597 29.851205 74.872432 30.93868 C 74.508 32.181606 75.23201 33.505678 76.474919 33.870284 C 77.717827 34.23489 79.041763 33.511143 79.406523 32.268315 C 79.770955 31.025389 79.047462 29.701833 77.804553 29.337227 C 77.64919 29.291652 77.492757 29.262582 77.336882 29.249894 z M 85.649552 29.996619 L 87.319735 30.487028 C 87.462226 31.791409 87.355602 33.145541 86.962651 34.485234 C 86.569617 35.824904 85.927883 37.021939 85.103333 38.042639 L 83.432633 37.552747 C 84.347171 36.589126 85.053318 35.401247 85.452148 34.04185 C 85.850881 32.682424 85.898604 31.301577 85.649552 29.996619 z M 77.046977 30.818274 C 77.148773 30.807297 77.255144 30.815959 77.361686 30.847213 C 77.787857 30.97223 78.019835 31.39876 77.894987 31.824931 C 77.769829 32.25101 77.344473 32.484282 76.918302 32.359265 C 76.492133 32.234249 76.259637 31.808235 76.384485 31.382064 C 76.478354 31.062505 76.741589 30.851205 77.046977 30.818274 z M 88.934106 30.960384 L 90.526774 31.427539 C 90.542884 32.729582 90.371704 34.056105 89.985722 35.372001 C 89.599677 36.687879 89.027305 37.896661 88.310372 38.983667 L 86.717704 38.516512 C 87.483847 37.457328 88.085656 36.252953 88.474186 34.928617 C 88.862646 33.604262 89.006656 32.265598 88.934106 30.960384 z M 52.475867 31.754134 A 0.78754935 0.78754935 0 0 0 51.498149 32.288468 L 49.281746 39.844596 L 47.878215 44.628284 L 47.878215 48.34847 A 0.78754935 0.78754935 0 0 0 48.576363 47.844108 L 50.793282 40.28798 L 50.793799 40.28798 L 52.788509 33.487362 L 59.589128 35.482072 L 66.389229 37.476782 L 64.394002 44.277917 L 62.1776 51.834045 A 0.78754935 0.78754935 0 0 0 62.711418 52.811764 L 70.268062 55.028682 L 71.840059 55.489636 L 71.840059 53.847876 L 70.711446 53.51663 L 63.911344 51.52192 L 65.906055 44.721301 L 65.905538 44.721301 L 68.122457 37.165173 A 0.78754935 0.78754935 0 0 0 67.588639 36.187455 L 60.032511 33.970536 L 52.475867 31.754134 z M 92.097221 31.887976 L 93.36071 32.259013 L 94.623682 32.629533 C 93.941515 33.737521 93.391914 34.951122 93.008276 36.258769 C 92.624715 37.566437 92.432279 38.884742 92.407796 40.185661 L 91.144307 39.815141 L 89.880819 39.444104 C 90.562985 38.336116 91.112585 37.122514 91.496224 35.814868 C 91.879785 34.507199 92.072738 33.188895 92.097221 31.887976 z M 96.194128 33.08997 L 97.787313 33.557125 C 97.021171 34.616309 96.418845 35.820685 96.030314 37.14502 C 95.641856 38.469375 95.498361 39.80804 95.570911 41.113253 L 93.977726 40.646098 C 93.961616 39.344054 94.132795 38.017531 94.518778 36.701636 C 94.904822 35.385758 95.477194 34.176976 96.194128 33.08997 z M 99.401168 34.030998 L 101.07135 34.52089 C 100.15681 35.484511 99.451699 36.672389 99.052869 38.031787 C 98.654136 39.391213 98.605896 40.77206 98.854948 42.077018 L 97.184766 41.587126 C 97.042276 40.282746 97.148893 38.928097 97.54185 37.588403 C 97.934883 36.248734 98.576618 35.051699 99.401168 34.030998 z M 105.87829 35.17098 C 104.11204 35.67104 102.62824 37.034445 102.07542 38.918555 L 102.07594 38.918555 C 101.22182 41.830759 102.90098 44.905194 105.81318 45.759481 C 105.83483 45.765832 105.85662 45.768912 105.87829 45.774984 L 105.87829 44.11617 C 104.02108 43.364031 103.00996 41.327651 103.58644 39.361938 C 103.93859 38.161828 104.81022 37.274918 105.87829 36.838062 L 105.87829 35.17098 z M 54.611654 35.663456 A 0.78754935 0.78754935 0 0 0 53.633936 36.197274 L 52.303784 40.731364 L 52.304301 40.731364 L 49.422823 50.55402 L 47.878215 50.100818 L 47.878215 52.665519 C 48.105926 52.411236 48.350778 52.17471 48.61047 51.957552 L 49.734949 52.287764 A 0.78754935 0.78754935 0 0 0 50.71215 51.75343 L 51.041846 50.629468 C 52.333166 50.224808 53.755072 50.184612 55.15529 50.595361 C 56.555505 51.006113 57.730923 51.807752 58.599007 52.84587 L 58.269312 53.970349 A 0.78754935 0.78754935 0 0 0 58.802612 54.94755 L 59.926575 55.277246 C 60.331195 56.568462 60.371857 57.990069 59.961198 59.390173 C 59.550426 60.790243 58.7482 61.965358 57.710173 62.833374 L 56.58621 62.503678 A 0.78754935 0.78754935 0 0 0 55.609526 63.036979 L 55.279313 64.161975 C 53.987992 64.566635 52.566085 64.606831 51.165869 64.196082 C 49.84605 63.808914 48.72943 63.071164 47.878215 62.118689 L 47.878215 64.251375 C 48.706083 64.891375 49.659777 65.395357 50.722485 65.7071 C 52.082075 66.105934 53.463132 66.154173 54.768233 65.905021 L 54.277824 67.576237 C 52.973335 67.71892 51.618985 67.611685 50.279102 67.218636 C 49.413884 66.964825 48.615483 66.598028 47.878215 66.154618 L 47.878215 67.957609 C 48.496783 68.266933 49.149165 68.528256 49.835718 68.729655 C 51.160186 69.118186 52.499143 69.262167 53.804468 69.189575 L 53.337313 70.782243 C 52.035126 70.798393 50.708372 70.627248 49.392334 70.241191 C 48.868681 70.087578 48.367032 69.89673 47.878215 69.686702 L 47.878215 71.390474 C 48.228207 71.522707 48.584048 71.645683 48.94895 71.752726 C 50.256788 72.136379 51.575331 72.3293 52.876359 72.353723 L 52.505839 73.616695 L 52.505322 73.616178 L 51.91156 75.640344 L 53.55332 75.640344 L 54.016858 74.059562 L 54.016341 74.059562 L 56.897819 64.236389 L 66.721509 67.118384 L 76.545199 69.999862 L 74.890519 75.640344 L 79.301619 75.640344 C 78.441738 75.267454 77.648911 74.794199 76.945691 74.22596 L 77.4361 72.554228 C 78.399787 73.468926 79.587925 74.174909 80.947514 74.573743 C 82.307104 74.972577 83.688161 75.020297 84.993262 74.771147 L 84.738497 75.640344 L 86.378707 75.640344 L 87.123364 73.103031 L 95.773482 75.640344 L 101.36746 75.640344 L 100.22334 75.304447 C 100.20724 74.002403 100.37893 72.67588 100.76491 71.359985 C 101.15095 70.044108 101.72332 68.835326 102.44026 67.748319 L 104.03344 68.215991 C 103.2673 69.275176 102.66497 70.479034 102.27644 71.803369 C 101.90098 73.083406 101.75888 74.376692 101.81497 75.640344 L 103.39421 75.640344 C 103.33899 74.524315 103.4553 73.380995 103.78798 72.246753 C 104.18101 70.907082 104.82275 69.710048 105.6473 68.689347 L 105.87829 68.757043 L 105.87829 67.114766 L 100.05022 65.40531 L 90.226534 62.523832 L 93.108012 52.701176 L 93.108529 52.701176 L 94.43868 48.167603 A 0.78754935 0.78754935 0 0 0 93.903829 47.189884 L 89.370772 45.86025 L 84.837199 44.530098 A 0.78754935 0.78754935 0 0 0 83.858964 45.063916 L 82.529329 49.597489 L 82.529846 49.598006 L 79.648368 59.420662 L 78.998279 59.229976 L 78.998279 60.871737 L 79.960494 61.15389 A 0.78754935 0.78754935 0 0 0 80.937179 60.620072 L 81.266874 59.495593 C 82.558195 59.090934 83.980619 59.050737 85.380835 59.461487 C 86.781053 59.872238 87.955952 60.674394 88.824036 61.712512 L 88.49434 62.836991 A 0.78754935 0.78754935 0 0 0 89.027641 63.814193 L 90.15212 64.143888 C 90.556742 65.435104 90.597398 66.857228 90.186743 68.257332 C 89.775971 69.657402 88.97323 70.832 87.935201 71.700016 L 86.811239 71.369804 A 0.78754935 0.78754935 0 0 0 85.834554 71.903621 L 85.504858 73.028101 C 84.213538 73.43276 82.791115 73.472957 81.390898 73.062207 C 79.990682 72.651456 78.815781 71.849816 77.947697 70.811698 L 78.277393 69.686702 A 0.78754935 0.78754935 0 0 0 77.743575 68.710018 L 76.619613 68.380322 C 76.214992 67.089107 76.174336 65.666983 76.584989 64.266878 C 76.589678 64.250897 76.595702 64.235776 76.600492 64.219853 L 74.982503 64.219853 C 74.683359 65.450383 74.650628 66.690283 74.875533 67.868726 L 73.205868 67.378833 C 73.093235 66.347772 73.143338 65.285566 73.36038 64.223987 C 72.778439 64.251759 72.194807 64.28354 71.858146 63.719108 C 71.622333 64.786418 71.533195 65.856599 71.591496 66.905477 L 69.998311 66.437805 C 69.982201 65.13576 70.153898 63.809755 70.53988 62.49386 C 70.854956 61.419885 71.299526 60.421516 71.840059 59.498177 L 71.840059 57.129846 L 69.825195 56.538668 L 60.001506 53.65719 L 62.882983 43.834534 L 62.8835 43.834534 L 64.213135 39.30096 A 0.78754935 0.78754935 0 0 0 63.6788 38.323242 L 59.145744 36.993608 L 54.611654 35.663456 z M 54.924296 37.396167 L 58.70236 38.504626 L 62.480424 39.612569 L 61.371965 43.39115 L 61.372481 43.39115 L 61.001961 44.653605 C 59.893913 43.97133 58.680046 43.421852 57.372209 43.0382 C 56.06437 42.654547 54.745827 42.461626 53.4448 42.437203 L 53.81532 41.174748 L 53.815837 41.174748 L 54.924296 37.396167 z M 105.87829 38.642603 C 105.51739 38.933996 105.23719 39.33098 105.09798 39.805322 C 104.82418 40.73915 105.16492 41.718192 105.87829 42.302327 L 105.87829 38.642603 z M 56.747441 39.572262 A 0.78754638 0.78754638 0 0 0 55.770756 40.106596 L 55.327372 41.618132 L 56.837874 42.060999 L 57.059049 41.306006 L 57.815592 41.527698 L 58.571102 41.74939 L 58.34941 42.504382 L 59.860429 42.947766 L 60.303813 41.43623 A 0.78754638 0.78754638 0 0 0 59.770512 40.459029 L 58.258976 40.015645 L 56.747441 39.572262 z M 82.700895 40.62026 A 0.78754935 0.78754935 0 0 0 81.723694 41.155111 L 79.507292 48.711239 L 79.506775 48.711239 L 78.998279 50.444983 L 78.998279 56.041541 L 81.018311 49.154622 L 81.018827 49.154622 L 83.013538 42.353487 L 89.814156 44.348714 L 96.614258 46.343424 L 94.619548 53.14456 L 94.620064 53.14456 L 92.403145 60.700688 A 0.78754935 0.78754935 0 0 0 92.936963 61.678406 L 100.49309 63.894808 L 105.87829 65.474556 L 105.87829 63.832796 L 100.93699 62.383272 L 94.136373 60.388045 L 96.1316 53.587944 L 96.131083 53.587944 L 98.347485 46.031816 A 0.78754935 0.78754935 0 0 0 97.814185 45.054097 L 90.25754 42.837179 L 82.700895 40.62026 z M 52.983846 44.008167 C 54.286032 43.992017 55.612785 44.163677 56.928825 44.549736 C 58.244863 44.935793 59.453905 45.508038 60.541007 46.225085 L 60.073853 47.817753 C 59.014599 47.051515 57.80991 46.449803 56.485441 46.061271 C 55.16097 45.67274 53.822014 45.528759 52.516691 45.601351 L 52.983846 44.008167 z M 70.439628 46.051453 L 69.996761 47.562472 A 0.78754638 0.78754638 0 0 0 70.530062 48.539673 L 71.840059 48.924146 L 71.840059 47.282385 L 71.728955 47.249829 L 71.840059 46.870524 L 71.840059 46.46228 L 70.439628 46.051453 z M 85.149325 46.262809 L 88.927389 47.370752 L 92.705452 48.479211 L 91.596993 52.257792 L 91.59751 52.257792 L 91.227507 53.520247 C 90.119459 52.837972 88.905593 52.288495 87.597754 51.904842 C 86.289916 51.52119 84.971373 51.327752 83.670345 51.303328 L 84.040348 50.040873 L 84.040865 50.04139 L 85.149325 46.262809 z M 53.030355 47.155261 C 54.024451 47.143532 55.037661 47.276983 56.042574 47.571773 C 57.382457 47.964826 58.579808 48.606837 59.600496 49.431608 L 59.110087 51.102824 C 58.146399 50.188126 56.958779 49.482143 55.59919 49.083309 C 54.239601 48.684475 52.858544 48.636753 51.553442 48.885905 L 52.043335 47.214689 C 52.369457 47.179018 52.698989 47.159171 53.030355 47.155261 z M 86.972986 48.438904 A 0.78754638 0.78754638 0 0 0 85.995785 48.973238 L 85.552401 50.484774 L 87.062903 50.927641 L 87.284595 50.172648 L 88.040621 50.39434 L 88.79613 50.616032 L 88.574955 51.371025 L 90.085457 51.814408 L 90.528841 50.302873 A 0.78754638 0.78754638 0 0 0 89.99554 49.325671 L 88.484005 48.882288 L 86.972986 48.438904 z M 53.072729 51.883655 C 50.73217 51.924507 48.579098 53.469307 47.878215 55.823466 L 47.878215 58.941105 C 48.391408 60.681429 49.74545 62.13847 51.608736 62.685063 C 54.520926 63.53935 57.595224 61.858897 58.449662 58.94679 C 59.303777 56.034585 57.624614 52.960151 54.712423 52.105863 C 54.166387 51.945685 53.614479 51.874199 53.072729 51.883655 z M 83.209391 52.874809 C 84.511577 52.858659 85.838331 53.029803 87.15437 53.415861 C 88.470409 53.80192 89.67945 54.37468 90.766553 55.091728 L 90.298881 56.684395 C 89.239626 55.918157 88.034939 55.316444 86.71047 54.927913 C 85.386001 54.539382 84.047561 54.394884 82.742236 54.467476 L 83.209391 52.874809 z M 53.092367 53.456169 C 53.480134 53.450521 53.876142 53.502143 54.269039 53.617399 C 56.36449 54.232096 57.553689 56.408461 56.93916 58.503923 C 56.324315 60.59929 54.147571 61.788224 52.05212 61.173527 C 49.956669 60.55883 48.76747 58.382464 49.381999 56.287004 C 49.881561 54.584516 51.412041 53.480641 53.092367 53.456169 z M 100.66517 54.917578 L 100.22179 56.429114 A 0.78754638 0.78754638 0 0 0 100.75561 57.405798 L 102.26663 57.849182 L 103.77764 58.292566 A 0.78754638 0.78754638 0 0 0 104.75485 57.759265 L 105.19823 56.247729 L 103.68721 55.804346 L 103.46604 56.559855 L 102.71001 56.338163 L 101.95398 56.115955 L 102.17568 55.360962 L 100.66517 54.917578 z M 53.357467 55.042118 C 52.266339 54.953304 51.2127 55.642912 50.893534 56.730387 C 50.529102 57.973312 51.252595 59.297386 52.495504 59.661991 C 53.738414 60.026597 55.062347 59.303366 55.427108 58.060539 C 55.791539 56.817613 55.068564 55.49354 53.825655 55.128935 C 53.670292 55.083359 53.513342 55.054806 53.357467 55.042118 z M 61.670138 55.788843 L 63.340837 56.278735 C 63.483326 57.583117 63.376189 58.937247 62.983236 60.276941 C 62.590203 61.616611 61.948985 62.814162 61.124434 63.834863 L 59.453735 63.344971 C 60.368272 62.381349 61.073904 61.193471 61.472734 59.834074 C 61.871466 58.474648 61.919189 57.093802 61.670138 55.788843 z M 83.255383 56.021387 C 84.24948 56.009658 85.26269 56.143626 86.267603 56.438416 C 87.607487 56.831469 88.804838 57.47348 89.825525 58.29825 L 89.335632 59.968949 C 88.371944 59.054251 87.183809 58.348786 85.824219 57.949951 C 84.46463 57.551118 83.083573 57.503395 81.778471 57.752547 L 82.26888 56.081331 C 82.595002 56.04566 82.924018 56.025296 83.255383 56.021387 z M 53.067562 56.609981 C 53.169358 56.599004 53.275729 56.608183 53.382271 56.639437 C 53.80844 56.764454 54.040936 57.190984 53.916089 57.617155 C 53.79093 58.043234 53.365056 58.276506 52.938888 58.151489 C 52.512717 58.026473 52.280739 57.599941 52.405587 57.173771 C 52.499456 56.854211 52.762174 56.642912 53.067562 56.609981 z M 64.954692 56.752091 L 66.547876 57.219246 C 66.563986 58.521291 66.392806 59.847813 66.006824 61.163708 C 65.62078 62.479585 65.047891 63.688367 64.330957 64.775374 L 62.738289 64.308219 C 63.504433 63.249034 64.106758 62.044659 64.495288 60.720325 C 64.883748 59.39597 65.027241 58.057306 64.954692 56.752091 z M 68.117806 57.6802 L 69.381295 58.05072 L 70.644784 58.42124 C 69.962616 59.52923 69.412499 60.74283 69.028861 62.050476 C 68.645301 63.358144 68.452865 64.676448 68.428381 65.977368 L 67.164893 65.606848 L 65.901404 65.236328 C 66.58357 64.128339 67.133171 62.914737 67.516809 61.607092 C 67.90037 60.299424 68.093321 58.981119 68.117806 57.6802 z M 47.878215 60.071785 L 47.878215 61.413822 L 48.052364 60.820577 A 0.78754935 0.78754935 0 0 0 47.878215 60.071785 z M 83.298275 60.750297 C 81.613572 60.779702 80.029749 61.591716 79.010681 62.92019 C 79.027797 63.435276 78.990123 63.927938 78.468595 64.219853 L 78.267574 64.219853 C 78.203962 64.379402 78.145817 64.542265 78.096525 64.710262 L 78.097042 64.710779 C 77.242928 67.622982 78.922091 70.697418 81.834281 71.551705 C 84.746473 72.405992 87.820252 70.72554 88.674691 67.813432 C 89.528805 64.901229 87.849642 61.826276 84.937451 60.971989 C 84.391416 60.81181 83.840024 60.740841 83.298275 60.750297 z M 83.317912 62.322811 C 83.705679 62.317163 84.101171 62.368786 84.494067 62.484041 C 86.589518 63.098739 87.778717 65.275103 87.164189 67.370565 C 86.549343 69.465933 84.373116 70.654867 82.277665 70.040169 C 80.182215 69.425472 78.993016 67.249107 79.607544 65.153646 C 80.107106 63.451159 81.637587 62.347284 83.317912 62.322811 z M 83.583012 63.908761 C 82.491884 63.819947 81.437728 64.509554 81.118563 65.59703 C 80.754131 66.839954 81.47814 68.164028 82.721049 68.528634 C 83.963958 68.893239 85.287892 68.17001 85.652653 66.927181 C 86.017085 65.684256 85.293592 64.360183 84.050684 63.995577 C 83.89532 63.950001 83.738887 63.921448 83.583012 63.908761 z M 91.895683 64.654968 L 93.565865 65.145378 C 93.708354 66.449758 93.601218 67.80389 93.208264 69.143583 C 92.815232 70.483253 92.174013 71.680804 91.349463 72.701506 L 89.678764 72.211096 C 90.5933 71.247473 91.299448 70.059596 91.698279 68.700199 C 92.097011 67.340774 92.144734 65.959928 91.895683 64.654968 z M 83.29259 65.476624 C 83.394386 65.465647 83.501274 65.474825 83.607817 65.506079 C 84.033987 65.631095 84.265965 66.057627 84.141117 66.483797 C 84.015958 66.909876 83.590087 67.142631 83.163916 67.017615 C 82.737746 66.892599 82.505768 66.466583 82.630615 66.040413 C 82.724484 65.720854 82.987202 65.509554 83.29259 65.476624 z M 95.180237 65.618734 L 96.772904 66.085889 C 96.789014 67.387933 96.617836 68.714455 96.231852 70.030351 C 95.845809 71.346227 95.273436 72.55501 94.556502 73.642017 L 92.963318 73.174862 C 93.72946 72.115678 94.331787 70.911301 94.720317 69.586967 C 95.108776 68.262611 95.252787 66.923947 95.180237 65.618734 z M 58.721997 66.412484 A 0.78754935 0.78754935 0 0 0 57.744279 66.946818 L 55.527877 74.502946 L 55.194047 75.640344 L 56.835291 75.640344 L 57.038896 74.94633 L 57.039412 74.94633 L 59.034639 68.145711 L 65.834741 70.140422 L 72.63536 72.135649 L 71.606999 75.640344 L 73.248759 75.640344 L 74.36807 71.823523 A 0.78754935 0.78754935 0 0 0 73.83477 70.845805 L 66.278125 68.629403 L 58.721997 66.412484 z M 98.343351 66.546842 L 99.60684 66.917362 L 100.86981 67.287882 C 100.18764 68.395872 99.637528 69.609473 99.25389 70.917118 C 98.870329 72.224786 98.677893 73.543091 98.65341 74.84401 L 97.389921 74.47349 L 96.126432 74.102454 C 96.8086 72.994464 97.358717 71.78138 97.742354 70.473735 C 98.125916 69.166066 98.318867 67.847762 98.343351 66.546842 z M 60.857784 70.321806 A 0.78754935 0.78754935 0 0 0 59.880066 70.855623 L 58.549915 75.389714 L 58.550431 75.389714 L 58.477051 75.640344 L 60.118294 75.640344 L 61.170426 72.054517 L 64.94849 73.162976 L 68.726554 74.270919 L 68.325028 75.640344 L 69.966272 75.640344 L 70.459265 73.95931 A 0.78754935 0.78754935 0 0 0 69.924931 72.981592 L 65.391874 71.651957 L 60.857784 70.321806 z M 105.87829 71.257149 C 105.65037 71.712322 105.44724 72.184877 105.299 72.690137 C 105.042 73.566363 104.94518 74.449441 104.96517 75.317367 C 105.5143 74.96073 105.87829 74.343467 105.87829 73.63995 L 105.87829 71.257149 z M 47.878215 72.259155 L 47.878215 72.60332 L 47.971232 72.286544 L 47.878215 72.259155 z M 49.483285 72.729928 L 49.261593 73.48492 L 48.506083 73.263228 L 47.878215 73.07926 L 47.878215 73.63995 C 47.878215 74.090129 48.028752 74.504007 48.27974 74.838326 L 49.573718 75.218148 A 0.78754638 0.78754638 0 0 0 50.550403 74.68433 L 50.993787 73.172795 L 49.483285 72.729928 z M 62.993571 74.231128 A 0.78754638 0.78754638 0 0 0 62.016886 74.764945 L 61.760055 75.640344 L 66.541675 75.640344 A 0.78754638 0.78754638 0 0 0 66.016642 75.117896 L 64.505107 74.674512 L 62.993571 74.231128 z M 88.947026 75.279126 A 0.78754935 0.78754935 0 0 0 88.108834 75.640344 L 90.178475 75.640344 L 88.947026 75.279126 z " /><path
       id="path554"
       style="color:#000000;fill:#2e3436;stroke-linecap:round;stroke-linejoin:round;stroke-dashoffset:3;-inkscape-stroke:none"
       d="m 65.024048,112.60884 v 2.21072 c -2.108847,-0.57587 -4.3254,-0.88832 -6.6151,-0.88832 v 2.64635 c 2.304055,0 4.523573,0.3514 6.6151,0.99322 v 2.78846 c -2.069895,-0.73429 -4.296284,-1.13533 -6.6151,-1.13533 v 2.6448 c 2.345803,0 4.579698,0.46828 6.6151,1.31516 v 2.92593 c -1.986043,-1.01881 -4.234798,-1.59474 -6.6151,-1.59474 v 2.64635 c 2.45143,0 4.724808,0.73742 6.6151,2.00039 v 1.96836 a 1.3230472,1.3230472 0 0 0 1.3224,1.3224 h 1.968355 c 1.262861,1.89014 2.000291,4.16338 2.000395,6.61458 h 2.64635 c -8.4e-5,-2.37998 -0.575644,-4.62872 -1.594218,-6.61458 h 2.924369 c 0.846523,2.03532 1.31458,4.26914 1.314649,6.61458 h 2.64635 c -6e-5,-2.31859 -0.401162,-4.54485 -1.135331,-6.61458 h 2.788977 c 0.641687,2.09132 0.992651,4.3108 0.992704,6.61458 h 2.6448 c -4.8e-5,-2.28938 -0.312601,-4.50588 -0.888318,-6.61458 h 2.211751 v -2.64635 H 67.668848 v -17.1974 z m 5.29115,0 v 13.22865 a 1.3230472,1.3230472 0 0 0 1.3224,1.32395 h 13.229683 v -2.64635 H 72.961548 v -11.90625 z m 5.29115,0 v 7.9375 a 1.3230472,1.3230472 0 0 0 1.32395,1.3224 h 7.936983 v -2.6448 h -6.614583 v -6.6151 z m 5.2927,0 v 2.64635 a 1.3230422,1.3230422 0 0 0 1.3224,1.3224 h 2.645833 v -2.64635 h -1.323433 v -1.3224 z m -22.4901,17.1974 v 2.64635 c 3.668612,0 6.614822,2.94604 6.6151,6.61458 h 2.6448 c -2.83e-4,-5.09845 -4.161382,-9.26093 -9.2599,-9.26093 z m 0,5.2927 v 2.6448 c 0.746117,0 1.322128,0.5774 1.3224,1.32343 h 2.64635 c -2.87e-4,-2.17596 -1.792725,-3.96823 -3.96875,-3.96823 z"
       inkscape:tile-cx="13.229166"
       inkscape:tile-cy="13.229166"
       inkscape:tile-w="26.458333"
       inkscape:tile-h="26.458333"
       inkscape:tile-x0="0"
       inkscape:tile-y0="0" /></g></svg>
