<?xml version="1.0" encoding="UTF-8" standalone="no"?>
<!-- Created with Inkscape (http://www.inkscape.org/) -->

<svg
   width="210mm"
   height="297mm"
   viewBox="0 0 210 297"
   version="1.1"
   id="svg16601"
   sodipodi:docname="pattern_bottom.svg"
   inkscape:version="1.2.2 (b0a8486541, 2022-12-01)"
   xmlns:inkscape="http://www.inkscape.org/namespaces/inkscape"
   xmlns:sodipodi="http://sodipodi.sourceforge.net/DTD/sodipodi-0.dtd"
   xmlns="http://www.w3.org/2000/svg"
   xmlns:svg="http://www.w3.org/2000/svg">
  <sodipodi:namedview
     id="namedview16603"
     pagecolor="#ffffff"
     bordercolor="#666666"
     borderopacity="1.0"
     inkscape:showpageshadow="2"
     inkscape:pageopacity="0.0"
     inkscape:pagecheckerboard="0"
     inkscape:deskcolor="#d1d1d1"
     inkscape:document-units="mm"
     showgrid="false"
     showguides="true"
     inkscape:zoom="1.1022196"
     inkscape:cx="154.68787"
     inkscape:cy="338.40806"
     inkscape:window-width="1884"
     inkscape:window-height="999"
     inkscape:window-x="0"
     inkscape:window-y="0"
     inkscape:window-maximized="0"
     inkscape:current-layer="layer1">
    <sodipodi:guide
       position="44,186.09922"
       orientation="-1,0"
       id="guide16739"
       inkscape:locked="false"
       inkscape:label=""
       inkscape:color="rgb(0,134,229)" />
    <sodipodi:guide
       position="60.845264,222"
       orientation="0,1"
       id="guide16741"
       inkscape:locked="false"
       inkscape:label=""
       inkscape:color="rgb(0,134,229)" />
  </sodipodi:namedview>
  <defs
     id="defs16598" />
  <g
     inkscape:label="Layer 1"
     inkscape:groupmode="layer"
     id="layer1">
    <path
       id="use1096-6"
       style="color:#000000;fill:#2e3436;stroke-width:0.999998;stroke-linecap:round;stroke-linejoin:round;stroke-dashoffset:3;-inkscape-stroke:none"
       d="M 45.999259 74.750476 C 44.759602 74.750476 43.749268 75.760809 43.749268 77.000468 L 43.749268 121.00037 C 43.749268 122.24001 44.759602 123.25036 45.999259 123.25036 L 99.999064 123.25036 C 101.23872 123.25036 102.24906 122.24001 102.24906 121.00037 L 102.24906 77.000468 C 102.24906 75.760809 101.23872 74.750476 99.999064 74.750476 L 80.25505 74.750476 A 0.250025 0.250025 0 0 0 80.004936 75.000073 L 80.004936 78.023661 A 0.250025 0.250025 0 0 0 80.004936 78.035547 C 80.018606 78.355617 80.03992 78.657479 79.99305 78.892859 C 79.94902 79.113939 79.847585 79.265289 79.626147 79.402389 L 75.825346 79.402389 A 0.250025 0.250025 0 0 0 75.815527 79.404456 C 75.495389 79.418156 75.191523 79.43782 74.956148 79.39102 C 74.734169 79.34692 74.584091 79.24707 74.446619 79.0236 L 74.446619 75.000073 A 0.250025 0.250025 0 0 0 74.196505 74.750476 L 45.999259 74.750476 z M 45.999259 75.250187 L 46.356344 75.250187 C 46.281084 75.403335 46.209673 75.559543 46.149121 75.723027 C 45.850854 76.528496 45.763918 77.361918 45.859733 78.161637 L 44.869613 77.795251 C 44.838629 77.010643 44.958015 76.206801 45.24375 75.422786 C 45.472466 75.313533 45.727999 75.250187 45.999259 75.250187 z M 47.444132 75.250187 L 48.652844 75.250187 C 48.349007 75.568087 48.102206 75.949259 47.940226 76.386552 C 47.301315 78.11205 48.187766 80.042361 49.913232 80.68138 C 51.638703 81.32039 53.568957 80.433276 54.208061 78.707857 C 54.663818 77.477033 54.339221 76.145983 53.491309 75.250187 L 54.470577 75.250187 L 54.307796 75.689954 A 0.47747335 0.47747335 0 0 0 54.589433 76.303353 L 55.255542 76.550366 C 55.446027 77.348315 55.410802 78.210041 55.103613 79.03962 C 54.796362 79.869149 54.261528 80.545696 53.597245 81.027096 L 52.931136 80.780599 A 0.47747335 0.47747335 0 0 0 52.317737 81.062236 L 52.07124 81.728345 C 51.273227 81.918855 50.411612 81.883676 49.581986 81.576416 C 48.752362 81.269176 48.075424 80.734894 47.593994 80.070565 L 47.840491 79.403939 A 0.47747335 0.47747335 0 0 0 47.558854 78.791056 L 46.892745 78.544043 C 46.702262 77.746094 46.737491 76.884348 47.044674 76.054789 C 47.151233 75.767092 47.286544 75.498939 47.444132 75.250187 z M 50.417594 75.250187 L 51.717257 75.250187 C 51.779546 75.267739 51.841494 75.285703 51.903292 75.308582 C 53.144847 75.768381 53.772212 77.134516 53.312508 78.376095 C 52.852625 79.617573 51.48655 80.245637 50.244995 79.785828 C 49.003442 79.326018 48.375562 77.959853 48.835262 76.718315 C 49.110895 75.974211 49.71269 75.451392 50.417594 75.250187 z M 55.488603 75.250187 L 57.244051 75.250187 L 61.520276 76.83407 L 65.997522 78.492367 A 0.47747335 0.47747335 0 0 0 66.610921 78.209696 L 67.707495 75.250187 L 68.726038 75.250187 L 67.009347 79.88453 L 61.18903 77.729106 L 55.368713 75.573682 L 55.488603 75.250187 z M 59.993754 75.250187 L 62.743457 75.250187 L 64.869942 76.037736 A 0.47747335 0.47747335 0 0 0 65.483858 75.756099 L 65.671444 75.250187 L 66.688953 75.250187 L 65.88125 77.430933 L 61.852039 75.938517 L 59.993754 75.250187 z M 70.574504 75.250187 L 72.798657 75.250187 L 72.746464 75.391264 L 73.6415 75.72251 L 73.816683 75.250187 L 73.946391 75.250187 L 73.946391 76.595325 C 73.388277 76.229006 72.785445 75.914513 72.133065 75.6729 C 71.618166 75.482209 71.096943 75.343057 70.574504 75.250187 z M 82.03737 75.250187 L 85.01755 75.250187 L 84.817045 75.791756 C 84.022066 75.823256 83.207463 75.70176 82.413574 75.4078 C 82.284764 75.360097 82.160053 75.306558 82.03737 75.250187 z M 86.035575 75.250187 L 90.236353 75.250187 L 92.362321 76.037736 L 98.182638 78.19316 L 97.491207 80.059713 C 97.352039 80.073833 97.213633 80.091917 97.077279 80.121208 A 0.250025 0.250025 0 0 0 96.952222 80.189937 C 96.799152 80.343007 96.647545 80.496164 96.494885 80.648824 A 0.250025 0.250025 0 0 0 96.420988 80.824524 L 96.420988 82.949976 L 96.027214 84.01296 L 95.032442 86.699101 A 0.47747335 0.47747335 0 0 0 95.314596 87.3125 L 96.420988 87.722294 L 96.420988 88.740837 L 93.639762 87.710925 L 95.131661 83.681714 L 95.131661 83.681197 L 96.789958 79.204468 A 0.47747335 0.47747335 0 0 0 96.508321 78.590552 L 92.031075 76.932772 L 87.553829 75.274475 A 0.47747335 0.47747335 0 0 0 86.939913 75.556628 L 85.282133 80.033875 L 83.789718 84.063086 L 79.760506 82.570671 L 75.731295 81.078772 L 76.166927 79.902616 L 77.184953 79.902616 L 77.123975 80.066947 A 0.47747335 0.47747335 0 0 0 77.406128 80.680347 L 80.092269 81.675118 L 82.77841 82.669889 A 0.47747335 0.47747335 0 0 0 83.392326 82.388253 L 84.387097 79.702112 L 84.38658 79.702112 L 86.035575 75.250187 z M 92.985539 75.250187 L 93.463029 75.250187 C 93.456123 75.306682 93.447373 75.363215 93.442358 75.419686 L 92.985539 75.250187 z M 94.423694 75.250187 L 95.384875 75.250187 C 95.344655 75.538514 95.32062 75.826837 95.316663 76.1137 L 94.373051 75.764368 C 94.382812 75.593326 94.401663 75.421688 94.423694 75.250187 z M 96.354842 75.250187 L 97.316024 75.250187 C 97.216155 75.781185 97.200554 76.315119 97.262797 76.834587 L 96.273193 76.467684 C 96.257254 76.065145 96.288015 75.657486 96.354842 75.250187 z M 98.293225 75.250187 L 99.283346 75.250187 C 98.774924 76.92487 99.654697 78.738255 101.31681 79.353813 C 101.45981 79.40677 101.60442 79.445272 101.74934 79.477319 L 101.74934 80.45297 C 101.54755 80.418463 101.34588 80.368143 101.14576 80.303109 C 101.05634 80.235937 100.96239 80.179272 100.86413 80.140845 C 100.76321 80.10138 100.66075 80.078203 100.55769 80.061263 C 99.921938 79.744691 99.392604 79.288832 98.997058 78.742997 L 99.243555 78.076888 A 0.47747335 0.47747335 0 0 0 98.961918 77.463489 L 98.295809 77.216992 C 98.145049 76.585415 98.138026 75.914012 98.293225 75.250187 z M 100.2869 75.276025 C 100.61531 75.330088 100.91227 75.474021 101.15145 75.683236 C 101.1461 75.696377 101.13936 75.708588 101.1344 75.721993 C 100.89194 76.376864 101.16764 77.105712 101.74934 77.451086 L 101.74934 78.490299 C 101.71557 78.47983 101.68164 78.470712 101.64806 78.45826 C 100.40649 77.998461 99.778618 76.631809 100.23833 75.39023 C 100.25287 75.350961 100.27024 75.313757 100.2869 75.276025 z M 80.505164 75.472396 C 80.985171 75.805852 81.508854 76.090648 82.081812 76.302836 C 82.866551 76.593466 83.670532 76.73685 84.463062 76.74777 L 84.113212 77.691382 C 83.324953 77.646482 82.529795 77.487168 81.750049 77.198389 C 81.310127 77.035466 80.896871 76.834205 80.505164 76.606177 L 80.505164 75.472396 z M 69.438139 76.07546 C 70.226405 76.12036 71.02155 76.279683 71.801302 76.568453 C 72.581054 76.857253 73.288004 77.254397 73.915385 77.733757 L 73.566052 78.677368 C 72.95758 78.169449 72.254289 77.754625 71.469539 77.464006 C 70.684794 77.173376 69.880825 77.030001 69.088289 77.019071 L 69.438139 76.07546 z M 51.011357 76.117834 C 50.454102 76.144734 49.935427 76.497291 49.730815 77.049561 C 49.458188 77.786 49.840334 78.617545 50.576758 78.890275 C 51.313181 79.163005 52.144141 78.781228 52.416956 78.044849 C 52.689582 77.308409 52.307953 76.476854 51.571529 76.204134 C 51.387423 76.135934 51.197108 76.108834 51.011357 76.117834 z M 87.670101 76.335909 L 91.699312 77.828324 L 95.728524 79.320223 L 94.236108 83.349951 L 92.578328 87.826681 A 0.47747335 0.47747335 0 0 0 92.859965 88.440597 L 96.420988 89.759896 L 96.420988 90.777405 L 91.185132 88.837988 L 93.340556 83.018188 L 93.341073 83.018188 L 94.335844 80.332048 A 0.47747335 0.47747335 0 0 0 94.053691 79.718648 L 91.36755 78.723877 L 88.681409 77.729106 A 0.47747335 0.47747335 0 0 0 88.067493 78.010742 L 87.072721 80.696883 L 87.073238 80.696883 L 84.917814 86.5172 L 79.097498 84.361259 L 73.277181 82.205835 L 74.248698 79.582739 C 74.431452 79.743781 74.646637 79.838412 74.860547 79.880912 C 74.955213 79.899734 75.049581 79.909369 75.143734 79.915019 L 74.669861 81.194527 A 0.47747335 0.47747335 0 0 0 74.951497 81.808443 L 79.428743 83.466223 L 83.90599 85.12452 A 0.47747335 0.47747335 0 0 0 84.519389 84.842367 L 86.177686 80.36512 L 87.670101 76.335909 z M 56.288554 76.932772 L 57.278158 77.299158 C 57.309548 78.094037 57.188137 78.908859 56.894202 79.702629 C 56.600216 80.496368 56.161962 81.193684 55.620378 81.776404 L 54.630257 81.410018 C 55.223862 80.865618 55.700846 80.176812 55.999166 79.371383 C 56.297431 78.565943 56.384368 77.732491 56.288554 76.932772 z M 51.050631 77.068681 C 51.112661 77.066681 51.17664 77.07567 51.239766 77.09917 C 51.492272 77.19267 51.614814 77.460576 51.521403 77.713086 C 51.427813 77.965526 51.160508 78.088739 50.908004 77.995239 C 50.655497 77.901739 50.532956 77.633843 50.626367 77.381323 C 50.696557 77.191993 50.864535 77.075731 51.050631 77.068681 z M 58.234688 77.653658 L 59.1783 78.002991 C 59.13335 78.79116 58.974034 79.586475 58.685307 80.366154 C 58.396549 81.145783 57.999798 81.852897 57.52052 82.480237 L 56.576392 82.130387 C 57.084262 81.521958 57.499137 80.81904 57.789754 80.034391 C 58.080334 79.249712 58.223742 78.446107 58.234688 77.653658 z M 80.505164 77.694999 C 80.798909 77.842834 81.102669 77.977052 81.418286 78.093941 C 82.193185 78.380911 82.982671 78.552674 83.76853 78.622074 L 83.491545 79.370349 L 82.662138 81.608972 L 80.423515 80.780082 L 78.184892 79.951192 L 78.202979 79.902616 L 79.725883 79.902616 A 0.250025 0.250025 0 0 0 79.846806 79.871611 C 79.958287 79.809211 80.051734 79.734551 80.132576 79.653536 L 80.755278 79.88453 L 81.65083 80.216292 A 0.47747155 0.47747155 0 0 0 82.264229 79.934139 L 82.595475 79.038586 L 81.700439 78.70734 L 81.535075 79.154858 L 81.08704 78.988977 L 80.639006 78.823096 L 80.804887 78.375578 L 80.515499 78.268091 C 80.511559 78.183051 80.508652 78.095461 80.505164 78.013843 L 80.505164 77.694999 z M 69.033512 77.970435 C 69.732858 77.976607 70.443128 78.101835 71.137777 78.359041 C 71.931658 78.653061 72.62938 79.091673 73.212069 79.633382 L 72.845166 80.623503 C 72.300733 80.029783 71.612087 79.552914 70.806531 79.254594 C 70.000972 78.956254 69.16774 78.869346 68.36792 78.965206 L 68.734306 77.975085 C 68.833678 77.971148 68.933606 77.969553 69.033512 77.970435 z M 60.108993 78.347673 L 60.857267 78.624658 L 61.605542 78.902161 C 61.146412 79.54366 60.762847 80.254383 60.475895 81.029163 C 60.188972 81.803942 60.017219 82.593111 59.947762 83.37889 L 59.198971 83.101904 L 58.450696 82.824402 C 58.909819 82.182922 59.293396 81.472179 59.580343 80.6974 C 59.867268 79.922611 60.039534 79.133452 60.108993 78.347673 z M 44.248979 78.583317 L 46.779574 79.520728 L 44.62415 85.341044 L 44.623633 85.340527 L 44.248979 86.352352 L 44.248979 83.603682 L 45.386377 80.532035 A 0.47747335 0.47747335 0 0 0 45.10474 79.918636 L 44.248979 79.60186 L 44.248979 78.583317 z M 88.797681 78.790023 L 91.035787 79.618913 L 93.27441 80.447803 L 92.44552 82.686426 L 92.168534 83.434701 C 91.527025 82.975511 90.815925 82.592033 90.041016 82.305054 C 89.266156 82.018084 88.477147 81.845814 87.691288 81.776404 L 87.968274 81.028646 L 88.797681 78.790023 z M 62.536235 79.246326 L 63.479846 79.596175 C 62.971976 80.204615 62.55762 80.907512 62.267 81.692171 C 61.976423 82.47686 61.83301 83.280942 61.822066 84.073421 L 60.877938 83.723572 C 60.922898 82.935393 61.082207 82.140575 61.370931 81.360925 C 61.659693 80.581256 62.056957 79.873665 62.536235 79.246326 z M 98.614653 79.775492 C 98.701895 79.87063 98.794255 79.961312 98.890088 80.048861 C 98.767145 80.045128 98.642747 80.041242 98.517501 80.037492 L 98.614653 79.775492 z M 68.904838 79.881429 C 69.425062 79.872429 69.956253 79.958127 70.474768 80.150146 C 71.304394 80.457386 71.981334 80.992165 72.46276 81.656514 L 72.215747 82.322624 A 0.47747335 0.47747335 0 0 0 72.4979 82.935506 L 73.16401 83.18252 C 73.354493 83.980479 73.318751 84.842204 73.011564 85.671773 C 72.704312 86.501312 72.169998 87.178356 71.505713 87.659766 L 70.839604 87.412752 A 0.47747335 0.47747335 0 0 0 70.226204 87.694389 L 69.979708 88.361015 C 69.181694 88.551515 68.32008 88.515819 67.490454 88.208569 C 66.660828 87.90132 65.983892 87.367027 65.502462 86.702718 L 65.748958 86.036609 A 0.47747335 0.47747335 0 0 0 65.467322 85.42321 L 64.801213 85.176713 C 64.610733 84.378764 64.645957 83.517018 64.953141 82.687459 C 65.260396 81.85792 65.794713 81.180876 66.458993 80.699467 L 67.125102 80.945964 A 0.47747335 0.47747335 0 0 0 67.738501 80.664327 L 67.984998 79.998218 C 68.284254 79.926818 68.592703 79.886919 68.904838 79.881429 z M 64.436377 79.950159 L 65.425981 80.316545 C 64.832375 80.860954 64.355908 81.550267 64.057589 82.355697 C 63.759326 83.161166 63.671868 83.994071 63.767684 84.793791 L 62.77808 84.427405 C 62.74669 83.632496 62.86862 82.817683 63.162553 82.023934 C 63.456541 81.230165 63.894795 80.532858 64.436377 79.950159 z M 89.563009 80.159965 A 0.47747155 0.47747155 0 0 0 89.195589 80.464339 L 88.863826 81.360409 L 89.758862 81.691654 L 89.924744 81.244137 L 90.372778 81.410018 L 90.820813 81.575899 L 90.654932 82.023417 L 91.549967 82.354663 L 91.88173 81.459111 A 0.47747155 0.47747155 0 0 0 91.599577 80.846228 L 90.704541 80.514465 L 89.808988 80.182703 A 0.47747155 0.47747155 0 0 0 89.563009 80.159965 z M 100.1205 80.529451 C 100.33821 80.528451 100.52888 80.546533 100.68068 80.605933 C 100.82012 80.660433 100.92788 80.758555 101.02846 80.920125 L 101.02846 90.82443 C 101.01526 91.15555 101.05643 91.475584 101.03053 91.723083 C 101.00543 91.963073 100.93727 92.108715 100.71427 92.240365 C 100.01075 92.377924 99.139564 92.25536 98.290125 92.30496 C 97.969975 92.31866 97.668032 92.338324 97.432812 92.291524 C 97.210943 92.247424 97.058706 92.147695 96.921216 91.924105 L 96.921216 80.929944 C 97.027846 80.823214 97.133093 80.71607 97.239543 80.60955 C 97.942932 80.473 98.812818 80.594854 99.661617 80.544954 C 99.821037 80.537954 99.975046 80.530451 100.1205 80.529451 z M 44.248979 80.619885 L 44.324943 80.647791 L 44.248979 80.852946 L 44.248979 80.619885 z M 68.834041 80.841577 C 67.53336 80.902377 66.328022 81.724657 65.848694 83.018705 C 65.209778 84.744184 66.096231 86.674504 67.8217 87.313534 C 69.547164 87.952553 71.476909 87.065429 72.116012 85.340011 C 72.754927 83.614532 71.868472 81.684192 70.143005 81.045182 C 69.711639 80.885422 69.267602 80.821307 68.834041 80.841577 z M 47.211072 81.10306 C 47.755506 81.696739 48.44467 82.173639 49.250224 82.471969 C 50.055782 82.770308 50.889018 82.857227 51.688835 82.761357 L 51.321932 83.751477 C 50.526961 83.782977 49.712344 83.661581 48.918461 83.367521 C 48.12458 83.073521 47.427377 82.63489 46.844686 82.09318 L 47.211072 81.10306 z M 101.52817 81.380046 C 101.60188 81.392868 101.67559 81.40459 101.74934 81.414152 L 101.74934 82.377401 C 101.67562 82.368209 101.60192 82.357789 101.52817 82.345878 L 101.52817 81.380046 z M 68.872799 81.792424 C 69.18267 81.778824 69.500854 81.825725 69.811243 81.940735 C 71.052796 82.400524 71.680676 83.767186 71.220976 85.008765 C 70.76109 86.250253 69.395015 86.8778 68.153463 86.417981 C 66.911908 85.958181 66.284029 84.592037 66.74373 83.350468 C 67.088644 82.419349 67.943186 81.833193 68.872799 81.792424 z M 53.046891 81.842033 L 58.867725 83.997457 L 64.688041 86.152881 L 62.532617 91.973197 L 62.5321 91.973197 L 61.537329 94.659338 A 0.47747335 0.47747335 0 0 0 61.819482 95.272738 L 64.505623 96.267509 L 67.191764 97.26228 A 0.47747335 0.47747335 0 0 0 67.684757 97.151693 L 67.684757 98.463241 L 64.173861 97.163062 L 60.144649 95.670646 L 61.637065 91.641435 L 63.294845 87.164705 A 0.47747335 0.47747335 0 0 0 63.013208 86.550789 L 58.535962 84.892493 L 54.058716 83.234196 A 0.47747335 0.47747335 0 0 0 53.445317 83.516866 L 51.787537 87.993595 L 51.78702 87.993595 L 50.294604 92.022807 L 46.265393 90.530908 L 44.248979 89.784184 L 44.248979 88.765641 L 46.597156 89.635356 L 49.283297 90.630127 A 0.47747335 0.47747335 0 0 0 49.897213 90.34849 L 50.891984 87.661833 L 50.891467 87.661833 L 53.046891 81.842033 z M 87.34609 82.707613 C 88.134389 82.752513 88.93001 82.911837 89.70977 83.200606 C 90.489499 83.489396 91.196473 83.88656 91.823853 84.36591 L 91.474003 85.309521 C 90.865534 84.801602 90.162746 84.386779 89.378007 84.096159 C 88.593258 83.805539 87.789306 83.662155 86.996757 83.651225 L 87.34609 82.707613 z M 68.919824 82.749988 C 68.362571 82.776888 67.843896 83.129971 67.639282 83.682231 C 67.366655 84.41866 67.748801 85.249699 68.485225 85.522428 C 69.221651 85.795158 70.052606 85.413371 70.325423 84.677002 C 70.598052 83.940573 70.216419 83.109007 69.479997 82.836287 C 69.29589 82.768088 69.105576 82.740988 68.919824 82.749988 z M 46.490702 83.049194 C 47.099177 83.557124 47.802468 83.971927 48.587215 84.262557 C 49.371962 84.553177 50.175414 84.696551 50.967948 84.707491 L 50.618616 85.651103 C 49.830351 85.606203 49.035206 85.446859 48.255452 85.15811 C 47.475698 84.86931 46.768235 84.472136 46.140853 83.992806 L 46.490702 83.049194 z M 101.52817 83.311194 C 101.60191 83.320732 101.67564 83.329327 101.74934 83.336515 L 101.74934 84.299764 C 101.67565 84.292637 101.60192 84.285149 101.52817 84.275993 L 101.52817 83.311194 z M 74.197021 83.564925 L 75.186625 83.931828 C 75.218015 84.726737 75.096605 85.541023 74.802669 86.334782 C 74.508684 87.128541 74.069912 87.825848 73.528328 88.408557 L 72.538725 88.042171 C 73.13233 87.497762 73.609314 86.808975 73.907633 86.003536 C 74.205898 85.198087 74.292835 84.364644 74.197021 83.564925 z M 68.959098 83.700834 C 69.021128 83.698834 69.085107 83.707823 69.148234 83.731323 C 69.400739 83.824823 69.523283 84.09273 69.429871 84.345239 C 69.336281 84.597669 69.068978 84.720902 68.816471 84.627393 C 68.563966 84.533893 68.441423 84.265996 68.534835 84.013477 C 68.605025 83.824157 68.773003 83.707874 68.959098 83.700834 z M 76.142639 84.285811 L 77.086768 84.635144 C 77.041808 85.423313 76.882506 86.218638 76.593774 86.998307 C 76.305018 87.777947 75.907738 88.485051 75.428471 89.11239 L 74.484859 88.763057 C 74.992729 88.154628 75.407594 87.451204 75.698222 86.666545 C 75.988797 85.881875 76.1317 85.078261 76.142639 84.285811 z M 54.174988 84.296147 L 58.204199 85.788045 L 62.233411 87.280461 L 60.741512 91.309672 L 59.083732 95.786918 A 0.47747335 0.47747335 0 0 0 59.364852 96.400317 L 63.842098 98.058614 L 67.684757 99.481783 L 67.684757 100.49929 L 63.510852 98.95365 L 57.690535 96.798226 L 59.845959 90.977909 L 59.846476 90.978426 L 60.841248 88.291768 A 0.47747335 0.47747335 0 0 0 60.558577 87.678369 L 57.872953 86.683598 L 55.186812 85.688826 A 0.47747335 0.47747335 0 0 0 54.572896 85.970463 L 53.578125 88.656604 L 53.578125 88.657121 L 51.422701 94.476921 L 45.602384 92.321497 L 44.248979 91.820235 L 44.248979 90.802209 L 45.934147 91.426461 L 50.411393 93.084241 A 0.47747335 0.47747335 0 0 0 51.024792 92.802087 L 52.682572 88.325358 L 52.683089 88.325358 L 54.174988 84.296147 z M 86.94198 84.602588 C 87.641324 84.608742 88.3516 84.733892 89.046244 84.991195 C 89.840124 85.285204 90.53734 85.723816 91.12002 86.265535 L 90.753634 87.255656 C 90.209214 86.661947 89.520011 86.185077 88.714482 85.886747 C 87.908912 85.588418 87.07567 85.501489 86.275871 85.597359 L 86.642773 84.607239 C 86.742145 84.603301 86.842074 84.601709 86.94198 84.602588 z M 45.796171 84.924015 C 46.437681 85.383205 47.148797 85.766692 47.92369 86.053662 C 48.698582 86.340642 49.488074 86.512902 50.273934 86.582312 L 49.996431 87.330587 L 49.167542 89.56921 L 46.928918 88.74032 L 44.690295 87.910913 L 45.519185 85.67229 L 45.796171 84.924015 z M 78.016943 84.979826 L 78.765735 85.256812 L 79.51401 85.534314 C 79.054881 86.175803 78.67132 86.886557 78.384363 87.661316 C 78.097448 88.436105 77.925682 89.225761 77.85623 90.01156 L 77.107438 89.734058 L 76.359163 89.457072 C 76.818283 88.815603 77.201862 88.104332 77.48881 87.329553 C 77.775733 86.554774 77.947481 85.765625 78.016943 84.979826 z M 101.52817 85.236658 C 101.57777 85.24264 101.62741 85.250343 101.677 85.254744 L 101.52817 85.656787 L 101.52817 85.236658 z M 96.420988 85.699162 L 96.420988 86.704785 L 96.093359 86.583346 L 96.420988 85.699162 z M 80.444702 85.878996 L 81.388314 86.228328 C 80.880437 86.836778 80.46557 87.540172 80.174951 88.324841 C 79.884375 89.109511 79.741482 89.913105 79.730534 90.705575 L 78.786405 90.355725 C 78.831365 89.567536 78.990684 88.772748 79.279399 87.993079 C 79.568165 87.213419 79.965426 86.506335 80.444702 85.878996 z M 46.414738 86.004053 L 46.083492 86.899605 A 0.47747155 0.47747155 0 0 0 46.365129 87.513005 L 47.260681 87.84425 L 48.155717 88.176013 A 0.47747155 0.47747155 0 0 0 48.769116 87.894377 L 49.100879 86.998824 L 48.205843 86.667061 L 48.039962 87.114579 L 47.591927 86.948698 L 47.144409 86.782817 L 47.309774 86.335299 L 46.414738 86.004053 z M 86.813306 86.513582 C 87.333525 86.504582 87.864716 86.59029 88.383236 86.7823 C 89.212845 87.089539 89.889799 87.624318 90.371228 88.288668 L 90.124215 88.954777 A 0.47747335 0.47747335 0 0 0 90.405851 89.568176 L 91.072477 89.814673 C 91.262947 90.612622 91.227231 91.474357 90.920032 92.303927 C 90.612802 93.133456 90.07844 93.810519 89.414181 94.291919 L 88.748071 94.044906 A 0.47747335 0.47747335 0 0 0 88.134672 94.327059 L 87.888175 94.993168 C 87.090156 95.183658 86.228034 95.147972 85.398405 94.840723 C 84.568786 94.533483 83.891842 93.999201 83.410413 93.334871 L 83.657426 92.668762 A 0.47747335 0.47747335 0 0 0 83.375273 92.055363 L 82.709163 91.808866 C 82.518684 91.010897 82.554419 90.149152 82.861609 89.319613 C 83.168869 88.490063 83.703171 87.81303 84.36746 87.33162 L 85.033569 87.578117 A 0.47747335 0.47747335 0 0 0 85.646969 87.29648 L 85.893465 86.630371 C 86.192725 86.558971 86.501176 86.519062 86.813306 86.513582 z M 82.344845 86.582312 L 83.334448 86.949215 C 82.740859 87.493614 82.264386 88.182411 81.966056 88.98785 C 81.66779 89.793309 81.580332 90.626205 81.676152 91.425944 L 80.686548 91.059558 C 80.655108 90.264669 80.777059 89.449846 81.071021 88.656087 C 81.365007 87.862328 81.803255 87.165011 82.344845 86.582312 z M 55.302568 86.749744 L 57.541191 87.578634 L 59.779814 88.40804 L 58.950407 90.646663 L 58.950924 90.646663 L 58.673938 91.394938 C 58.032427 90.935729 57.321309 90.551774 56.546419 90.264775 C 55.771525 89.977805 54.982029 89.806071 54.196175 89.736641 L 54.473161 88.988367 L 54.473678 88.988367 L 55.302568 86.749744 z M 86.742509 87.47373 C 85.44183 87.53453 84.236491 88.357317 83.757161 89.651375 C 83.118252 91.376854 84.004689 93.306667 85.730168 93.945687 C 87.455616 94.584706 89.38538 93.697582 90.024479 91.972164 C 90.663389 90.246686 89.776941 88.316365 88.051473 87.677336 C 87.620103 87.517586 87.176069 87.45346 86.742509 87.47373 z M 65.119539 87.73573 C 65.663976 88.329419 66.353134 88.805802 67.158691 89.104122 C 67.428519 89.204055 67.701515 89.278978 67.975179 89.332015 C 67.902383 89.404424 67.82957 89.476591 67.757104 89.549056 A 0.250025 0.250025 0 0 0 67.684757 89.724756 L 67.684757 90.245654 C 67.397392 90.184833 67.110779 90.104804 66.826929 89.999674 C 66.033046 89.705665 65.335845 89.26756 64.753153 88.72585 L 65.119539 87.73573 z M 101.74934 87.808594 L 101.74934 90.557263 L 101.69819 90.695239 L 101.52817 90.632194 L 101.52817 88.405973 L 101.74934 87.808594 z M 56.068412 88.120203 A 0.47747155 0.47747155 0 0 0 55.700993 88.424577 L 55.36923 89.320129 L 56.264266 89.651375 L 56.430147 89.203857 L 56.877665 89.369739 L 57.3257 89.53562 L 57.159819 89.983138 L 58.054854 90.314901 L 58.386617 89.419348 A 0.47747155 0.47747155 0 0 0 58.10498 88.805949 L 57.209428 88.474186 L 56.313875 88.14294 A 0.47747155 0.47747155 0 0 0 56.068412 88.120203 z M 86.781266 88.425094 C 87.091136 88.411494 87.409321 88.458495 87.71971 88.573405 C 88.961269 89.033214 89.589153 90.399349 89.129443 91.640918 C 88.669574 92.882407 87.303479 93.509944 86.06193 93.050134 C 84.820392 92.590325 84.192498 91.22417 84.652197 89.982621 C 84.997107 89.051502 85.851647 88.465864 86.781266 88.425094 z M 70.955359 88.474186 L 72.228149 88.945475 L 70.780693 88.945475 L 70.955359 88.474186 z M 86.828292 89.382141 C 86.271032 89.409041 85.75238 89.762105 85.54775 90.314384 C 85.27513 91.050813 85.657274 91.881842 86.393693 92.154582 C 87.130102 92.427301 87.961091 92.045535 88.233891 91.309155 C 88.506551 90.572726 88.124367 89.741667 87.387948 89.468958 C 87.203838 89.400758 87.014042 89.373141 86.828292 89.382141 z M 73.936572 89.428133 C 74.154277 89.427133 74.345468 89.446865 74.497262 89.506165 C 74.636705 89.560664 74.744461 89.658787 74.845044 89.820357 L 74.845044 109.97468 A 0.250025 0.250025 0 0 0 74.845044 109.98657 C 74.858734 110.30669 74.879928 110.60851 74.833158 110.84388 C 74.789238 111.06493 74.689154 111.21685 74.467806 111.35393 L 69.563713 111.35393 A 0.250025 0.250025 0 0 0 69.553894 111.35393 C 69.233752 111.36763 68.931955 111.38874 68.696582 111.34204 C 68.474574 111.29794 68.322472 111.19818 68.184985 110.97462 L 68.184985 89.828109 C 68.312659 89.700529 68.441609 89.573463 68.569458 89.445703 L 73.4658 89.445703 A 0.250025 0.250025 0 0 0 73.475618 89.445703 C 73.635014 89.438703 73.791119 89.429233 73.936572 89.428133 z M 64.39917 89.681348 C 65.007644 90.189287 65.710418 90.604091 66.495166 90.89471 C 66.887998 91.040198 67.286098 91.142946 67.684757 91.215104 L 67.684757 92.188171 C 67.175388 92.105551 66.66648 91.976381 66.16392 91.790263 C 65.384168 91.501473 64.676704 91.104806 64.04932 90.625476 L 64.39917 89.681348 z M 75.344755 90.09941 L 76.776192 90.62961 L 82.596509 92.785551 L 80.441085 98.605351 L 80.440568 98.605351 L 79.445797 101.29149 A 0.47747335 0.47747335 0 0 0 79.72795 101.90489 L 82.414091 102.89966 L 85.100232 103.89443 A 0.47747335 0.47747335 0 0 0 85.714148 103.6128 L 86.708919 100.92666 L 86.708403 100.92666 L 88.863826 95.10634 L 94.684143 97.26228 L 100.50498 99.417704 L 100.42229 99.64043 C 100.31956 99.630736 100.21696 99.626343 100.11637 99.626994 C 99.952852 99.627994 99.792066 99.639831 99.637846 99.646631 A 0.250025 0.250025 0 0 0 99.633712 99.646631 C 99.227463 99.670613 98.786805 99.641953 98.339217 99.633195 L 94.352897 98.157316 L 89.875651 96.499019 A 0.47747335 0.47747335 0 0 0 89.262252 96.781173 L 87.603955 101.25842 L 86.11154 105.28763 L 82.082328 103.79521 L 78.053117 102.30332 L 79.545532 98.273588 L 81.203312 93.796859 A 0.47747335 0.47747335 0 0 0 80.921676 93.182943 L 76.44443 91.524646 L 75.344755 91.117436 L 75.344755 90.09941 z M 92.105489 90.197078 L 93.095093 90.563981 C 93.126593 91.35888 93.0045 92.173156 92.71062 92.966935 C 92.41662 93.760684 91.978376 94.458021 91.436796 95.04071 L 90.447192 94.674325 C 91.040802 94.129915 91.517265 93.441138 91.815584 92.635689 C 92.113834 91.83024 92.201299 90.996788 92.105489 90.197078 z M 86.867566 90.332987 C 86.929566 90.330987 86.993572 90.340993 87.056702 90.363993 C 87.309201 90.457493 87.431748 90.724893 87.338338 90.977393 C 87.244738 91.229832 86.977439 91.353046 86.724939 91.259546 C 86.472429 91.166046 86.349893 90.898666 86.443302 90.646147 C 86.513502 90.456817 86.681476 90.340037 86.867566 90.332987 z M 53.851493 90.667851 C 54.639755 90.712751 55.434901 90.872064 56.214657 91.160844 C 56.994406 91.449604 57.70136 91.846271 58.328739 92.325631 L 57.979407 93.269759 C 57.370933 92.76184 56.667639 92.347026 55.882894 92.056396 C 55.098145 91.765747 54.294693 91.622392 53.502161 91.611462 L 53.851493 90.667851 z M 94.051107 90.917965 L 94.995235 91.267297 C 94.950335 92.055497 94.790962 92.850801 94.502242 93.630461 C 94.213462 94.4101 93.816218 95.117204 93.336938 95.744543 L 92.393327 95.395211 C 92.901196 94.786781 93.31607 94.083377 93.606689 93.298698 C 93.897249 92.514019 94.040187 91.710424 94.051107 90.917965 z M 63.704639 91.556169 C 64.346148 92.015358 65.057265 92.399352 65.832157 92.686332 C 66.443687 92.91281 67.064115 93.059876 67.684757 93.148319 L 67.684757 94.557019 L 67.075492 96.201363 L 64.837386 95.372473 L 62.598763 94.543583 L 63.427653 92.304443 L 63.704639 91.556169 z M 95.925411 91.611979 L 96.420988 91.795947 L 96.420988 92.025907 A 0.250025 0.250025 0 0 0 96.451994 92.14683 C 96.607883 92.425335 96.833913 92.601983 97.075728 92.702352 C 96.769829 93.198294 96.502827 93.726967 96.29283 94.293986 C 96.005901 95.068775 95.834177 95.857914 95.764697 96.643713 L 95.015906 96.366211 L 94.267631 96.089225 C 94.726761 95.447736 95.110318 94.736993 95.397278 93.962223 C 95.684198 93.187434 95.855941 92.397778 95.925411 91.611979 z M 101.53489 91.65332 L 101.74934 91.732385 L 101.74934 92.750411 L 101.16902 92.535437 C 101.39661 92.321453 101.50059 92.039017 101.52817 91.775793 C 101.53249 91.734524 101.53276 91.694214 101.53489 91.65332 z M 75.344755 92.135978 L 76.112667 92.420199 L 80.141878 93.912614 L 78.649463 97.941825 L 78.64998 97.941825 L 76.991683 102.41907 A 0.47747335 0.47747335 0 0 0 77.273319 103.03299 L 81.750566 104.69077 L 86.227812 106.34906 A 0.47747335 0.47747335 0 0 0 86.841211 106.06691 L 88.499508 101.58966 L 89.991923 97.560453 L 94.021134 99.052869 L 96.69849 100.04402 C 96.630857 100.11209 96.563374 100.18017 96.495402 100.24814 A 0.250025 0.250025 0 0 0 96.420988 100.42384 L 96.420988 100.97523 A 0.47747335 0.47747335 0 0 0 96.375513 100.94371 L 93.689372 99.948938 L 91.003231 98.954167 A 0.47747335 0.47747335 0 0 0 90.389832 99.235803 L 89.394543 101.92194 L 89.39506 101.92194 L 87.239636 107.74226 L 81.41932 105.58632 L 75.599003 103.4309 L 77.754427 97.611096 L 78.749715 94.924955 A 0.47747335 0.47747335 0 0 0 78.467045 94.311556 L 75.780904 93.316268 L 75.344755 93.154521 L 75.344755 92.135978 z M 53.447384 92.562826 C 54.146728 92.56898 54.857001 92.69413 55.551648 92.951432 C 56.345527 93.245442 57.042734 93.683547 57.625423 94.225256 L 57.258521 95.215894 C 56.714084 94.622184 56.025439 94.145315 55.219885 93.846985 C 54.414326 93.548655 53.581087 93.461717 52.781274 93.557597 L 53.148177 92.567476 C 53.247548 92.563539 53.347477 92.561946 53.447384 92.562826 z M 64.323206 92.636206 L 63.991443 93.531759 A 0.47747155 0.47747155 0 0 0 64.273596 94.145158 L 65.168632 94.476921 L 66.064185 94.808167 A 0.47747155 0.47747155 0 0 0 66.677584 94.52653 L 67.009347 93.630977 L 66.114311 93.299731 L 65.948429 93.747249 L 65.500395 93.581368 L 65.052877 93.415487 L 65.218241 92.967969 L 64.323206 92.636206 z M 98.617236 92.793819 C 98.787512 92.792752 98.964751 92.797531 99.142269 92.803121 L 99.296781 92.860482 C 98.788922 93.468901 98.374028 94.172335 98.083419 94.956995 C 97.792839 95.741684 97.649435 96.545269 97.638485 97.337728 L 96.694873 96.988395 C 96.739773 96.200216 96.899136 95.404891 97.187866 94.625232 C 97.431832 93.966517 97.754538 93.360372 98.137679 92.809839 C 98.195155 92.806926 98.25553 92.8055 98.311312 92.803121 A 0.250025 0.250025 0 0 0 98.315446 92.803121 C 98.41412 92.797296 98.514906 92.79446 98.617236 92.793819 z M 44.522347 92.940063 L 45.270622 93.217049 L 46.019413 93.494035 C 45.560291 94.135514 45.176717 94.846774 44.889766 95.621554 C 44.602845 96.396343 44.430572 97.185502 44.361117 97.971281 L 44.248979 97.92994 L 44.248979 94.483639 C 44.386221 93.97104 44.476851 93.454786 44.522347 92.940063 z M 100.25331 93.214982 L 101.24292 93.581368 C 100.64932 94.125787 100.17232 94.814564 99.874007 95.620003 C 99.575747 96.425472 99.488799 97.258885 99.584619 98.058614 L 98.595015 97.691711 C 98.563515 96.896832 98.685012 96.082517 98.978971 95.288757 C 99.272951 94.495008 99.711755 93.797682 100.25331 93.214982 z M 46.949589 93.838717 L 47.893717 94.188566 C 47.385849 94.796995 46.970974 95.499893 46.680355 96.284562 C 46.389778 97.069241 46.246365 97.872836 46.235421 98.665295 L 45.291809 98.315963 C 45.336759 97.527784 45.496079 96.732469 45.784802 95.952799 C 46.073559 95.17315 46.470311 94.466036 46.949589 93.838717 z M 75.344755 94.172546 L 75.449658 94.211304 L 77.688281 95.040194 L 76.858875 97.278817 L 76.859391 97.278817 L 76.581889 98.027091 C 76.195188 97.750295 75.780969 97.50441 75.344755 97.287602 L 75.344755 96.718127 L 75.963322 96.947054 L 76.295085 96.051501 A 0.47747155 0.47747155 0 0 0 76.013448 95.438102 L 75.344755 95.190572 L 75.344755 94.172546 z M 83.028007 94.367883 C 83.572446 94.961563 84.26161 95.438462 85.067159 95.736792 C 85.872728 96.035122 86.705961 96.12204 87.50577 96.02618 L 87.138867 97.0163 C 86.343888 97.0478 85.529286 96.926394 84.735396 96.632345 C 83.941527 96.338325 83.243804 95.899713 82.661104 95.358004 L 83.028007 94.367883 z M 101.74934 94.419043 L 101.74934 96.081991 C 101.71963 96.147905 101.69111 96.214723 101.66563 96.283529 C 101.35223 97.129913 101.40896 98.023557 101.74934 98.791386 L 101.74934 100.4688 C 101.59272 100.31182 101.44775 100.14485 101.31888 99.967025 L 101.56589 99.300916 A 0.47747335 0.47747335 0 0 0 101.28374 98.687516 L 100.61763 98.44102 C 100.42717 97.64307 100.46236 96.781315 100.76956 95.951766 C 100.9902 95.356053 101.33015 94.841194 101.74934 94.419043 z M 53.318193 94.47382 C 53.838417 94.46482 54.369605 94.550518 54.888123 94.742537 C 55.717746 95.049777 56.394684 95.584049 56.876115 96.248389 L 56.629618 96.914498 A 0.47747335 0.47747335 0 0 0 56.911255 97.527897 L 57.577364 97.77491 C 57.767852 98.57285 57.732618 99.434596 57.425435 100.26416 C 57.118185 101.09368 56.583349 101.77026 55.919067 102.25164 L 55.252958 102.00514 A 0.47747335 0.47747335 0 0 0 54.640076 102.28678 L 54.393062 102.95289 C 53.595048 103.1434 52.733433 103.10819 51.903809 102.80096 C 51.07418 102.4937 50.397246 101.95892 49.915816 101.29459 L 50.162313 100.62848 A 0.47747335 0.47747335 0 0 0 49.880676 100.0156 L 49.214567 99.768587 C 49.024077 98.970638 49.059312 98.108903 49.366496 97.279333 C 49.673744 96.449804 50.208066 95.773247 50.872347 95.291858 L 51.538973 95.538354 A 0.47747335 0.47747335 0 0 0 52.151855 95.256718 L 52.398869 94.590609 C 52.698124 94.519209 53.006059 94.47931 53.318193 94.47382 z M 48.849731 94.54255 L 49.839335 94.908936 C 49.245729 95.453335 48.769264 96.142152 48.470943 96.947571 C 48.172679 97.75304 48.08574 98.586462 48.181555 99.386182 L 47.191951 99.019796 C 47.160562 98.224897 47.281972 97.410074 47.575907 96.616325 C 47.869896 95.822566 48.308152 95.125259 48.849731 94.54255 z M 53.247396 95.433968 C 51.946713 95.494768 50.741376 96.317057 50.262048 97.611096 C 49.623138 99.336574 50.509583 101.26691 52.235055 101.90592 C 53.96052 102.54495 55.890781 101.65781 56.529883 99.932402 C 57.168796 98.206933 56.282345 96.276583 54.556877 95.637573 C 54.125509 95.477813 53.680956 95.413698 53.247396 95.433968 z M 82.307121 96.314018 C 82.91561 96.821957 83.618894 97.236761 84.403634 97.52738 C 85.188393 97.81801 85.992334 97.961394 86.784884 97.972314 L 86.435034 98.915926 C 85.646775 98.871026 84.85163 98.711703 84.071871 98.422933 C 83.292122 98.134143 82.585177 97.736959 81.957788 97.257629 L 82.307121 96.314018 z M 53.28667 96.384814 C 53.596541 96.371214 53.914725 96.418216 54.225114 96.533126 C 55.466666 96.992925 56.094548 98.35909 55.634847 99.600639 C 55.174964 100.84214 53.808369 101.47018 52.566817 101.01037 C 51.32526 100.55057 50.697384 99.184408 51.157084 97.942859 C 51.501997 97.01175 52.357056 96.425584 53.28667 96.384814 z M 53.333179 97.342379 C 52.775924 97.369279 52.25725 97.721815 52.052637 98.274105 C 51.780009 99.010534 52.162155 99.842091 52.89858 100.11482 C 53.635001 100.38755 54.466478 100.00526 54.739294 99.268876 C 55.011921 98.532437 54.629773 97.701398 53.893351 97.428678 C 53.709245 97.360478 53.51893 97.333479 53.333179 97.342379 z M 58.610376 98.157316 L 59.59998 98.523702 C 59.63137 99.318601 59.509968 100.1334 59.216024 100.92717 C 58.922038 101.72092 58.483781 102.41825 57.9422 103.00095 L 56.952596 102.63456 C 57.5462 102.09016 58.022667 101.40085 58.320988 100.59541 C 58.619251 99.789972 58.706191 98.957045 58.610376 98.157316 z M 81.613106 98.188839 C 82.254615 98.648028 82.965726 99.031496 83.740625 99.318486 C 84.515514 99.605465 85.304493 99.777209 86.090352 99.846619 L 85.813367 100.59489 L 84.98396 102.83352 L 82.745337 102.00463 L 80.507231 101.17574 L 81.336121 98.937113 L 81.336121 98.936597 L 81.613106 98.188839 z M 53.372453 98.292708 C 53.434483 98.290708 53.498463 98.300714 53.561589 98.323714 C 53.814095 98.417214 53.937153 98.68511 53.843742 98.93763 C 53.750152 99.19007 53.482848 99.313303 53.230343 99.219784 C 52.977837 99.126284 52.854778 98.858377 52.948189 98.605868 C 53.018379 98.416528 53.186358 98.299748 53.372453 98.292708 z M 75.344755 98.369706 C 75.657501 98.548099 75.956445 98.743784 76.237207 98.958301 L 75.887874 99.901912 C 75.71611 99.758524 75.532524 99.627442 75.344755 99.500903 L 75.344755 98.369706 z M 60.55651 98.878202 L 61.500122 99.227535 C 61.455162 100.01572 61.295852 100.81103 61.007129 101.5907 C 60.718372 102.37035 60.321621 103.07745 59.842342 103.70478 L 58.898214 103.35493 C 59.406083 102.74651 59.820956 102.04359 60.111576 101.25894 C 60.402154 100.47427 60.545563 99.670662 60.55651 98.878202 z M 44.248979 98.948482 L 49.101396 100.74527 L 46.945972 106.56507 L 46.945455 106.56507 L 45.950684 109.25121 A 0.47747335 0.47747335 0 0 0 46.233354 109.86513 L 48.919495 110.8599 L 51.605119 111.85467 A 0.47747335 0.47747335 0 0 0 52.219035 111.57303 L 53.213806 108.88638 L 55.36923 103.06658 L 61.189547 105.222 L 67.009863 107.37743 L 64.854439 113.19774 L 64.853923 113.19722 L 63.859151 115.88388 A 0.47747335 0.47747335 0 0 0 64.141821 116.49728 L 66.827445 117.49205 L 69.513586 118.48682 A 0.47747335 0.47747335 0 0 0 70.127502 118.20519 L 71.122274 115.51905 L 71.122274 115.51853 L 72.479297 111.85364 L 73.497839 111.85364 L 72.017826 115.85029 L 72.01731 115.85029 L 70.525411 119.8795 L 66.4962 118.38761 L 62.466988 116.89519 L 63.958887 112.86598 L 65.616667 108.38873 A 0.47747335 0.47747335 0 0 0 65.33503 107.77533 L 60.857784 106.11704 L 56.380538 104.45874 A 0.47747335 0.47747335 0 0 0 55.767139 104.74141 L 54.109359 109.21814 L 54.108842 109.21814 L 52.616943 113.24735 L 48.587732 111.75545 L 44.558521 110.26304 L 46.050419 106.23383 L 47.708199 101.75658 A 0.47747335 0.47747335 0 0 0 47.427079 101.14266 L 44.248979 99.965991 L 44.248979 98.948482 z M 82.231673 99.268359 L 81.89991 100.16391 A 0.47747155 0.47747155 0 0 0 82.182064 100.77731 L 83.0771 101.10907 L 83.972652 101.44084 A 0.47747155 0.47747155 0 0 0 84.586051 101.15868 L 84.917814 100.26313 L 84.022778 99.931885 L 83.856897 100.3794 L 83.408862 100.21352 L 82.960828 100.04764 L 83.126709 99.600122 L 82.231673 99.268359 z M 62.430815 99.572217 L 63.179089 99.849202 L 63.927881 100.1267 C 63.468753 100.76817 63.085187 101.47893 62.798234 102.25371 C 62.511313 103.02851 62.339039 103.81764 62.269584 104.60343 L 61.521309 104.32645 L 60.772518 104.04895 C 61.231642 103.40747 61.615216 102.69673 61.902165 101.92194 C 62.18909 101.14716 62.36136 100.35802 62.430815 99.572217 z M 91.119503 100.01405 L 93.358126 100.84346 L 95.596232 101.67235 L 94.767342 103.91097 L 94.490356 104.65924 C 93.848827 104.20005 93.138234 103.81658 92.363354 103.5296 C 91.588455 103.24261 90.79897 103.07038 90.01311 103.00095 L 90.290096 102.25319 L 91.119503 100.01405 z M 100.1205 100.12722 C 100.33821 100.12622 100.52939 100.14595 100.68119 100.20525 C 100.82063 100.25975 100.92788 100.35839 101.02846 100.51996 L 101.02846 110.42427 C 101.01526 110.75539 101.05643 111.07489 101.03053 111.3224 C 101.00543 111.56239 100.93727 111.70855 100.71427 111.8402 C 100.00971 111.97795 99.137316 111.8545 98.286507 111.9048 L 98.290641 111.90273 C 97.970492 111.91643 97.668032 111.93754 97.432812 111.89084 C 97.210943 111.84674 97.058706 111.74753 96.921216 111.52394 L 96.921216 100.52978 C 97.027756 100.42324 97.133003 100.31593 97.239543 100.20939 C 97.943022 100.07281 98.812918 100.19459 99.661617 100.14479 C 99.821037 100.13779 99.975046 100.12832 100.1205 100.12722 z M 64.858057 100.47087 L 65.802185 100.82072 C 65.294317 101.42916 64.87944 102.13206 64.588822 102.91672 C 64.298246 103.70139 64.154833 104.50549 64.143888 105.29797 L 63.200277 104.94812 C 63.245227 104.15994 63.404545 103.3646 63.69327 102.58495 C 63.982029 101.80528 64.378778 101.0982 64.858057 100.47087 z M 75.344755 100.68998 C 75.409098 100.74478 75.472289 100.80066 75.533891 100.85793 L 75.344755 101.36849 L 75.344755 100.68998 z M 44.248979 100.98402 L 46.647282 101.87233 L 45.154867 105.90206 L 44.248979 108.34791 L 44.248979 105.59821 L 44.259314 105.5703 L 44.259831 105.5703 L 45.254602 102.88416 A 0.47747335 0.47747335 0 0 0 44.972449 102.27076 L 44.248979 102.00308 L 44.248979 100.98402 z M 66.758199 101.1747 L 67.684757 101.51783 L 67.684757 101.60258 C 67.12104 102.1373 66.666878 102.80411 66.379411 103.58024 C 66.081147 104.38571 65.994208 105.21861 66.090023 106.01833 L 65.100419 105.65195 C 65.069029 104.85705 65.190439 104.04224 65.484375 103.24848 C 65.778364 102.45472 66.216617 101.75741 66.758199 101.1747 z M 91.884831 101.38399 A 0.47747155 0.47747155 0 0 0 91.517411 101.68888 L 91.185649 102.58495 L 92.081201 102.9162 L 92.246566 102.46868 L 92.6946 102.63456 L 93.142635 102.80044 L 92.976754 103.24796 L 93.87179 103.57921 L 94.203552 102.68365 A 0.47747155 0.47747155 0 0 0 93.921916 102.07077 L 93.026363 101.73901 L 92.130811 101.40725 A 0.47747155 0.47747155 0 0 0 91.884831 101.38399 z M 101.52869 101.54161 C 101.60108 101.60025 101.67344 101.65874 101.74934 101.71369 L 101.74934 102.84178 C 101.67479 102.79922 101.60093 102.75588 101.52869 102.71053 L 101.52869 101.54161 z M 96.420988 102.19635 L 96.420988 104.94553 L 94.900151 109.05122 A 0.47747335 0.47747335 0 0 0 95.181787 109.66514 L 96.420988 110.12403 L 96.420988 111.14257 L 93.507471 110.06305 L 95.662895 104.24325 L 96.420988 102.19635 z M 49.533411 102.3276 C 50.077845 102.92131 50.766489 103.39817 51.572046 103.69651 C 52.377602 103.99483 53.21084 104.08179 54.010657 103.9859 L 53.643754 104.97602 C 52.848784 105.00762 52.034162 104.88612 51.240283 104.59207 C 50.4464 104.29807 49.749196 103.85945 49.166508 103.31772 L 49.533411 102.3276 z M 67.684757 103.09397 L 67.684757 106.609 L 67.123035 106.40074 C 66.932546 105.60279 66.967781 104.74105 67.274963 103.91149 C 67.38354 103.61835 67.523325 103.34667 67.684757 103.09397 z M 101.52869 103.8071 C 101.60146 103.84397 101.67488 103.88 101.74934 103.91459 L 101.74934 104.96207 C 101.67527 104.93142 101.60134 104.90068 101.52869 104.86802 L 101.52869 103.8071 z M 89.668429 103.93216 C 90.456698 103.97706 91.251843 104.1364 92.031592 104.42515 C 92.811331 104.71395 93.518305 105.11111 94.145675 105.59045 L 93.796342 106.53407 C 93.187873 106.02615 92.484578 105.61132 91.699829 105.3207 C 90.91509 105.03006 90.111098 104.88671 89.318579 104.87577 L 89.668429 103.93216 z M 48.812524 104.27374 C 49.420995 104.78168 50.124288 105.19647 50.909037 105.4871 C 51.693781 105.77772 52.497236 105.92112 53.289771 105.93204 L 52.940438 106.87565 C 52.152171 106.83075 51.357026 106.67142 50.577275 106.38265 C 49.797521 106.09387 49.090569 105.69669 48.463192 105.21735 L 48.812524 104.27374 z M 75.344755 104.35487 L 75.485832 104.40706 C 75.673796 105.19446 75.64079 106.04383 75.344755 106.86324 L 75.344755 104.35487 z M 76.518844 104.78947 L 77.508447 105.15586 C 77.539797 105.95077 77.418427 106.76556 77.124491 107.55933 C 76.830515 108.35307 76.392248 109.05039 75.850667 109.6331 L 75.344755 109.44603 L 75.344755 108.74427 C 75.71358 108.30286 76.018578 107.79744 76.229456 107.22808 C 76.527714 106.42263 76.614654 105.58921 76.518844 104.78947 z M 78.464978 105.51036 L 79.40859 105.85969 C 79.36363 106.64788 79.204321 107.44321 78.915597 108.22285 C 78.626849 109.0025 78.230085 109.70961 77.75081 110.33693 L 76.806681 109.98708 C 77.314555 109.37865 77.729416 108.67574 78.020044 107.89109 C 78.31061 107.1064 78.45403 106.30281 78.464978 105.51036 z M 56.49681 105.52069 L 60.526021 107.01259 L 64.555233 108.505 L 63.063334 112.53422 L 61.405554 117.01095 A 0.47747335 0.47747335 0 0 0 61.687191 117.62486 L 66.164437 119.28316 L 70.641683 120.94146 A 0.47747335 0.47747335 0 0 0 71.255082 120.65878 L 72.912862 116.18206 L 72.913379 116.18206 L 74.405278 112.15284 L 78.434489 113.64474 L 82.4637 115.13716 L 80.971802 119.16637 L 79.644751 122.75013 L 78.626208 122.75013 L 80.076249 118.83512 L 81.071537 116.14898 A 0.47747335 0.47747335 0 0 0 80.788867 115.53507 L 78.102726 114.5403 L 75.417102 113.54552 A 0.47747335 0.47747335 0 0 0 74.803186 113.82716 L 73.808415 116.51382 L 71.652991 122.33362 L 65.832674 120.17819 L 60.012358 118.02277 L 62.167782 112.20245 L 62.168298 112.20297 L 63.16307 109.51631 A 0.47747335 0.47747335 0 0 0 62.8804 108.90291 L 60.194775 107.90814 L 57.508634 106.91337 A 0.47747335 0.47747335 0 0 0 56.894718 107.19501 L 55.899947 109.88115 L 55.899947 109.88167 L 53.744523 115.70146 L 47.924207 113.54604 L 44.248979 112.18488 L 44.248979 111.16686 L 48.255969 112.65101 L 52.733215 114.30878 A 0.47747335 0.47747335 0 0 0 53.346615 114.02663 L 55.004395 109.5499 L 55.004911 109.5499 L 56.49681 105.52069 z M 89.263802 105.82765 C 89.96314 105.8338 90.673413 105.95845 91.368066 106.21574 C 92.161936 106.50974 92.859679 106.94836 93.442358 107.49008 L 93.075456 108.4802 C 92.531006 107.88649 91.84236 107.40963 91.03682 107.11129 C 90.231261 106.81296 89.398029 106.72604 88.59821 106.8219 L 88.964596 105.83178 C 89.063965 105.82785 89.163897 105.82677 89.263802 105.82765 z M 101.52869 105.90155 C 101.56874 105.91778 101.60776 105.93552 101.64858 105.95064 C 101.68202 105.96302 101.71575 105.97289 101.74934 105.98423 L 101.74934 107.00587 L 101.52869 106.92371 L 101.52869 105.90155 z M 48.117993 106.14856 C 48.7595 106.60775 49.470618 106.99124 50.245512 107.27821 C 51.020402 107.56519 51.809897 107.73744 52.595756 107.80686 L 52.31877 108.55513 L 52.318254 108.55513 L 51.489364 110.79375 L 49.250741 109.96486 L 47.012118 109.13546 L 47.841524 106.89683 L 47.841007 106.89683 L 48.117993 106.14856 z M 80.339282 106.20437 L 81.087557 106.48136 L 81.835832 106.75886 C 81.376692 107.40034 80.993144 108.11111 80.706185 108.88586 C 80.419267 109.66066 80.247497 110.45031 80.178052 111.2361 L 79.42926 110.9586 L 78.680986 110.68162 C 79.140115 110.04014 79.523675 109.32888 79.810632 108.5541 C 80.097547 107.77931 80.269838 106.99017 80.339282 106.20437 z M 82.766524 107.10354 L 83.710136 107.45287 C 83.202246 108.06131 82.7879 108.76474 82.49729 109.54939 C 82.20671 110.33408 82.063306 111.13766 82.052356 111.93012 L 81.108228 111.58027 C 81.153227 110.79209 81.313009 109.99727 81.601737 109.21762 C 81.890495 108.43795 82.287245 107.73088 82.766524 107.10354 z M 48.737077 107.2286 L 48.405314 108.12415 A 0.47747155 0.47747155 0 0 0 48.686951 108.73755 L 49.582503 109.06879 L 50.478056 109.40056 A 0.47747155 0.47747155 0 0 0 51.090938 109.11892 L 51.422701 108.22337 L 50.527665 107.89161 L 50.361784 108.33912 L 49.914266 108.17324 L 49.466231 108.00736 L 49.632113 107.55984 L 48.737077 107.2286 z M 96.420988 107.69524 L 96.420988 109.10549 L 95.961584 108.93547 L 96.420988 107.69524 z M 89.135128 107.73813 C 89.655347 107.72913 90.186528 107.81482 90.705058 108.00684 C 91.534667 108.31409 92.211621 108.84885 92.69305 109.51321 L 92.446037 110.17932 A 0.47747335 0.47747335 0 0 0 92.72819 110.79272 L 93.394299 111.03922 C 93.584779 111.83716 93.549034 112.6989 93.241854 113.52847 C 92.934594 114.35799 92.400282 115.03508 91.736003 115.51646 L 91.069893 115.26945 A 0.47747335 0.47747335 0 0 0 90.456494 115.5516 L 90.209998 116.21771 C 89.411958 116.4082 88.550373 116.37251 87.720744 116.06527 C 86.891115 115.75802 86.214171 115.22374 85.732751 114.55942 L 85.979248 113.89331 A 0.47747335 0.47747335 0 0 0 85.697611 113.27991 L 85.031502 113.03341 C 84.841002 112.23546 84.876261 111.37373 85.183431 110.54416 C 85.490681 109.71463 86.025003 109.03755 86.689282 108.55616 L 87.355391 108.80266 A 0.47747335 0.47747335 0 0 0 87.968791 108.52102 L 88.215287 107.85492 C 88.514537 107.78352 88.822998 107.74362 89.135128 107.73813 z M 84.666667 107.80686 L 85.65627 108.17376 C 85.062661 108.71815 84.586198 109.40694 84.287878 110.21239 C 83.989599 111.01784 83.90267 111.85075 83.99849 112.65049 L 83.00837 112.2841 C 82.97697 111.4892 83.098963 110.67438 83.392843 109.88063 C 83.686852 109.08688 84.125077 108.38956 84.666667 107.80686 z M 101.52869 107.94277 L 101.74934 108.02441 L 101.74934 109.04296 L 101.52869 108.96131 L 101.52869 107.94277 z M 57.62439 107.97429 L 59.863013 108.80318 L 62.101636 109.63258 L 61.272746 111.87121 L 60.99576 112.61948 C 60.35425 112.16027 59.643134 111.77631 58.868241 111.48932 C 58.093348 111.20235 57.303855 111.03061 56.517997 110.96119 L 56.7955 110.21291 L 57.62439 107.97429 z M 89.064331 108.69827 C 87.763662 108.75907 86.558313 109.58187 86.078984 110.87592 C 85.440074 112.60139 86.326521 114.5312 88.05199 115.17023 C 89.777438 115.80925 91.707192 114.92211 92.346301 113.19671 C 92.985221 111.47123 92.098753 109.54088 90.373295 108.90188 C 89.941926 108.74213 89.497891 108.678 89.064331 108.69827 z M 67.441361 108.95976 C 67.519071 109.0445 67.600542 109.12601 67.684757 109.20522 L 67.684757 110.44287 C 67.469828 110.2906 67.265201 110.12724 67.074976 109.95039 L 67.441361 108.95976 z M 58.390234 109.34475 A 0.47747155 0.47747155 0 0 0 58.022815 109.64912 L 57.691052 110.54467 L 58.586088 110.87592 L 58.751969 110.4284 L 59.200004 110.59428 L 59.647522 110.76016 L 59.481641 111.20768 L 60.377193 111.53944 L 60.708439 110.64389 A 0.47747155 0.47747155 0 0 0 60.426803 110.03049 L 59.53125 109.69873 L 58.636214 109.36748 A 0.47747155 0.47747155 0 0 0 58.390234 109.34475 z M 89.103088 109.64912 C 89.412958 109.63552 89.731143 109.68302 90.041532 109.79795 C 91.283091 110.25775 91.910955 111.6239 91.451265 112.86546 C 90.991366 114.10693 89.625291 114.7345 88.383752 114.27468 C 87.142184 113.81487 86.51433 112.44872 86.974019 111.20717 C 87.318939 110.27606 88.173489 109.6899 89.103088 109.64912 z M 101.52869 109.97882 L 101.74934 110.06047 L 101.74934 111.07901 L 101.53954 111.00098 C 101.53536 110.79757 101.52125 110.60395 101.52869 110.43564 A 0.250025 0.250025 0 0 0 101.52869 110.42427 L 101.52869 109.97882 z M 75.362842 110.47129 L 79.098014 111.85415 L 84.918331 114.00958 L 82.762907 119.8299 L 82.76239 119.8299 L 81.767619 122.51604 A 0.47747335 0.47747335 0 0 0 81.769686 122.75013 L 80.662777 122.75013 L 81.867354 119.49813 L 83.525134 115.0214 A 0.47747335 0.47747335 0 0 0 83.243498 114.40749 L 78.766252 112.74919 L 75.136499 111.40509 C 75.231008 111.25913 75.29204 111.10022 75.323568 110.94155 C 75.354881 110.78396 75.362953 110.62641 75.362842 110.47129 z M 89.150114 110.60669 C 88.592864 110.63359 88.074172 110.98665 87.869572 111.53893 C 87.596922 112.27535 87.979086 113.1064 88.715515 113.37913 C 89.451934 113.65185 90.282883 113.27006 90.555713 112.5337 C 90.828343 111.79725 90.446716 110.96623 89.710286 110.6935 C 89.526187 110.6253 89.335864 110.59769 89.150114 110.60669 z M 66.720992 110.90589 C 67.329465 111.41382 68.032759 111.82862 68.817505 112.11925 C 69.602254 112.40986 70.405703 112.55327 71.198238 112.56419 L 70.848905 113.5078 C 70.060638 113.4629 69.265493 113.30358 68.485742 113.01481 C 67.70599 112.72601 66.998522 112.32938 66.371143 111.85002 L 66.720992 110.90589 z M 94.427311 111.42162 L 95.416915 111.78853 C 95.448315 112.58343 95.326819 113.39769 95.032959 114.19148 C 94.738989 114.9852 94.300198 115.68257 93.758618 116.26525 L 92.769014 115.89887 C 93.362624 115.35446 93.839593 114.66567 94.137923 113.86023 C 94.436183 113.05479 94.523131 112.22133 94.427311 111.42162 z M 89.189388 111.55753 C 89.251388 111.55553 89.315394 111.56554 89.378524 111.58854 C 89.631014 111.68204 89.75358 111.94944 89.66016 112.20194 C 89.56656 112.45438 89.299241 112.57761 89.046761 112.48409 C 88.794251 112.39059 88.671735 112.1232 88.765125 111.87069 C 88.835324 111.68136 89.003288 111.56457 89.189388 111.55753 z M 56.173315 111.8924 C 56.961579 111.93729 57.756725 112.09661 58.536479 112.38539 C 59.316231 112.67416 60.023695 113.07084 60.651078 113.55017 L 60.301229 114.4943 C 59.692756 113.98636 58.989462 113.57157 58.204716 113.28094 C 57.419968 112.9903 56.616518 112.84693 55.823983 112.83601 L 56.173315 111.8924 z M 101.33025 111.942 L 101.74934 112.09703 L 101.74934 113.11558 L 99.866772 112.41794 C 100.20484 112.41679 100.54385 112.39707 100.8724 112.32648 A 0.250025 0.250025 0 0 0 100.93854 112.30322 C 101.11199 112.20869 101.23798 112.08201 101.33025 111.942 z M 96.372929 112.14251 L 97.317057 112.49184 C 97.272157 113.28004 97.112794 114.07535 96.824064 114.855 C 96.535304 115.63463 96.13803 116.34177 95.658761 116.96909 L 94.715149 116.61976 C 95.223018 116.01133 95.637892 115.30789 95.928512 114.52324 C 96.219081 113.73857 96.361989 112.93497 96.372929 112.14251 z M 66.026461 112.78071 C 66.667971 113.2399 67.379086 113.62391 68.153979 113.91088 C 68.928873 114.19788 69.718362 114.3696 70.504224 114.43901 L 70.226721 115.18728 L 69.397831 117.42591 L 67.159208 116.59702 L 64.920585 115.76761 L 65.749475 113.52899 L 66.026461 112.78071 z M 98.247233 112.83652 L 98.996025 113.11403 L 99.744299 113.39101 C 99.28517 114.03248 98.901582 114.74323 98.614653 115.51801 C 98.327713 116.2928 98.155999 117.08246 98.086519 117.86826 L 97.337728 117.59076 L 96.589453 117.31377 C 97.048563 116.67228 97.43216 115.96156 97.7191 115.18677 C 98.00605 114.41199 98.177753 113.62232 98.247233 112.83652 z M 44.969865 113.47008 L 45.913993 113.81993 C 45.869043 114.60811 45.709206 115.40292 45.420483 116.18257 C 45.131723 116.96223 44.734973 117.66934 44.255697 118.29666 L 44.248979 118.29407 L 44.248979 116.4947 C 44.350028 116.28643 44.44292 116.07224 44.524931 115.85081 C 44.815508 115.06615 44.958919 114.26255 44.969865 113.47008 z M 100.67499 113.73569 L 101.6186 114.08503 C 101.11075 114.69345 100.69586 115.39688 100.40524 116.18154 C 100.11466 116.96623 99.971764 117.76981 99.960824 118.56227 L 99.016695 118.21294 C 99.061595 117.42477 99.220959 116.62943 99.509688 115.84978 C 99.798448 115.07011 100.19571 114.36302 100.67499 113.73569 z M 55.769206 113.78737 C 56.46855 113.79349 57.178823 113.91876 57.87347 114.17598 C 58.66735 114.46999 59.364555 114.9081 59.947245 115.4498 L 59.580859 116.44044 C 59.036423 115.84672 58.347265 115.36988 57.541707 115.07153 C 56.736149 114.7732 55.902914 114.68627 55.103097 114.78214 L 55.469999 113.79202 C 55.56937 113.78807 55.669299 113.78649 55.769206 113.78737 z M 66.645028 113.86075 L 66.313782 114.7563 A 0.47747155 0.47747155 0 0 0 66.595418 115.3697 L 67.490971 115.70146 L 68.386007 116.03271 A 0.47747155 0.47747155 0 0 0 68.999406 115.75107 L 69.331169 114.85552 L 68.436133 114.52428 L 68.270251 114.97179 L 67.822217 114.80591 L 67.374699 114.64003 L 67.540063 114.19251 L 66.645028 113.86075 z M 46.844169 114.16409 L 47.592961 114.44159 L 48.341235 114.71858 C 47.882111 115.36005 47.498536 116.07134 47.211589 116.8461 C 46.924664 117.6209 46.752394 118.41003 46.682939 119.19583 L 45.934664 118.91884 L 45.186389 118.64134 C 45.645517 117.99986 46.029083 117.28911 46.316036 116.51434 C 46.602958 115.73956 46.774714 114.94988 46.844169 114.16409 z M 75.532857 114.60644 L 77.77148 115.43585 L 80.010103 116.26474 L 79.180697 118.50336 L 79.181213 118.50336 L 78.904228 119.25164 C 78.262721 118.79243 77.55159 118.40896 76.776709 118.12199 C 76.001819 117.83501 75.212324 117.66276 74.426465 117.59334 L 74.703451 116.84506 L 74.703967 116.84506 L 75.532857 114.60644 z M 49.271411 115.06326 L 50.21554 115.41311 C 49.70767 116.02153 49.292796 116.72443 49.002177 117.50911 C 48.711599 118.29378 48.568186 119.09738 48.557243 119.88984 L 47.613631 119.54051 C 47.658581 118.75232 47.817896 117.95701 48.106624 117.17734 C 48.395382 116.39769 48.792132 115.6906 49.271411 115.06326 z M 101.74934 115.57227 L 101.74934 119.22476 L 100.91684 118.91626 C 100.88534 118.12136 101.00734 117.30706 101.30131 116.5133 C 101.42451 116.18068 101.57699 115.86831 101.74934 115.57227 z M 85.349829 115.59243 C 85.894269 116.18613 86.583432 116.66248 87.388981 116.96082 C 88.19453 117.25914 89.027773 117.34609 89.827592 117.25021 L 89.460689 118.24084 C 88.6657 118.27234 87.851098 118.15085 87.057218 117.85689 C 86.263339 117.56288 85.566153 117.12425 84.983443 116.58255 L 85.349829 115.59243 z M 55.640531 115.69836 C 56.160701 115.68916 56.691429 115.77504 57.209945 115.96708 C 58.039572 116.27433 58.716506 116.80859 59.197937 117.47293 L 58.95144 118.13904 A 0.47747335 0.47747335 0 0 0 59.233077 118.75244 L 59.899186 118.99945 C 60.089671 119.79741 60.05444 120.65914 59.747257 121.48871 C 59.571691 121.9627 59.320157 122.38436 59.013969 122.75013 L 57.597001 122.75013 C 58.152376 122.37354 58.601848 121.8315 58.851705 121.15695 C 59.490615 119.43148 58.604164 117.50114 56.878699 116.86212 C 56.44733 116.70237 56.003295 116.63773 55.569735 116.658 C 54.269052 116.7188 53.063196 117.5416 52.58387 118.83564 C 52.042315 120.2982 52.599464 121.90449 53.831856 122.75013 L 52.418506 122.75013 C 52.355674 122.67486 52.294955 122.59823 52.237638 122.51914 L 52.484135 121.85303 A 0.47747335 0.47747335 0 0 0 52.202498 121.24014 L 51.536389 120.99313 C 51.345903 120.19519 51.381131 119.33346 51.688318 118.50388 C 51.995569 117.67434 52.530405 116.99728 53.194686 116.51589 L 53.860795 116.7629 A 0.47747335 0.47747335 0 0 0 54.473678 116.48126 L 54.720691 115.81515 C 55.019946 115.74372 55.32843 115.70389 55.640531 115.69836 z M 51.171554 115.76709 L 52.161674 116.13348 C 51.568069 116.67789 51.091085 117.36669 50.792765 118.17212 C 50.4945 118.97757 50.407558 119.81101 50.503377 120.61073 L 49.513774 120.24434 C 49.482384 119.44945 49.603794 118.63463 49.897729 117.84087 C 50.191715 117.04713 50.629974 116.34979 51.171554 115.76709 z M 76.298702 115.9769 A 0.47747155 0.47747155 0 0 0 75.931283 116.28127 L 75.59952 117.17683 L 76.494556 117.50859 L 76.660437 117.06107 L 77.107955 117.22695 L 77.55599 117.39283 L 77.390108 117.84035 L 78.285144 118.1716 L 78.616907 117.27605 A 0.47747155 0.47747155 0 0 0 78.33527 116.66265 L 77.439718 116.3314 L 76.544165 115.99964 A 0.47747155 0.47747155 0 0 0 76.298702 115.9769 z M 91.185649 116.33088 L 97.006482 118.48682 L 101.74934 120.24331 L 101.74934 121.00037 C 101.74934 121.50071 101.54019 121.94962 101.20571 122.26799 L 101.4336 121.65356 A 0.47747335 0.47747335 0 0 0 101.15197 121.03964 L 96.674719 119.38134 L 92.197473 117.72356 A 0.47747335 0.47747335 0 0 0 91.584074 118.00572 L 89.925777 122.48245 L 89.826558 122.75013 L 88.809049 122.75013 L 89.030741 122.1512 L 89.030225 122.1512 L 91.185649 116.33088 z M 84.62946 117.53856 C 85.237929 118.04649 85.940687 118.46129 86.725456 118.75192 C 87.510185 119.04253 88.314167 119.18595 89.106706 119.19686 L 88.757373 120.14047 C 87.969114 120.09557 87.173959 119.93628 86.39421 119.64748 C 85.614441 119.35869 84.90699 118.9615 84.27961 118.48217 L 84.62946 117.53856 z M 55.608492 117.60936 C 55.918363 117.59576 56.236547 117.64276 56.546936 117.75767 C 57.788491 118.21746 58.416369 119.58363 57.956669 120.82518 C 57.496782 122.06667 56.130194 122.69472 54.888639 122.23492 C 53.647084 121.77511 53.019203 120.40845 53.478906 119.16689 C 53.823819 118.23577 54.678878 117.65013 55.608492 117.60936 z M 74.081783 118.52455 C 74.870051 118.56945 75.66519 118.72877 76.444946 119.01754 C 77.224696 119.30631 77.931641 119.70351 78.559029 120.18285 L 78.209696 121.12646 C 77.601224 120.61854 76.897937 120.20372 76.113184 119.91309 C 75.328434 119.62246 74.524991 119.4791 73.73245 119.46816 L 74.081783 118.52455 z M 55.655518 118.56692 C 55.098265 118.59382 54.579588 118.94638 54.374976 119.49865 C 54.102349 120.23509 54.483978 121.06662 55.220402 121.33936 C 55.956825 121.61208 56.788301 121.22981 57.061117 120.49342 C 57.333744 119.75699 56.951597 118.92595 56.215173 118.65322 C 56.031069 118.58502 55.841268 118.55792 55.655518 118.56692 z M 92.313745 118.785 L 96.342957 120.27741 L 100.37217 121.76931 L 100.00888 122.74961 C 100.00557 122.74963 100.00238 122.75013 99.999064 122.75013 L 98.988273 122.75013 A 0.47747335 0.47747335 0 0 0 98.697335 122.16774 L 96.011194 121.17297 L 93.325053 120.17819 A 0.47747335 0.47747335 0 0 0 92.711654 120.45983 L 91.863643 122.75013 L 90.845101 122.75013 L 92.313745 118.785 z M 44.248979 119.31313 L 45.602901 119.81439 L 51.423218 121.96982 L 51.134347 122.75013 L 50.054826 122.75013 A 0.47747335 0.47747335 0 0 0 49.748901 122.36721 L 45.271655 120.70943 L 44.248979 120.33064 L 44.248979 119.31313 z M 60.932198 119.38186 L 61.921802 119.74825 C 61.953192 120.54315 61.831772 121.35796 61.537846 122.15172 C 61.460743 122.35989 61.368162 122.55697 61.270162 122.75013 L 60.184957 122.75013 C 60.364753 122.46081 60.520015 122.15148 60.64281 121.81995 C 60.941075 121.0145 61.028012 120.1816 60.932198 119.38186 z M 83.934928 119.41338 C 84.576428 119.87257 85.287548 120.25606 86.062447 120.54303 C 86.837336 120.83001 87.626315 121.00175 88.412174 121.07116 L 88.135189 121.81944 L 87.790507 122.75013 L 83.773698 122.75013 L 82.829053 122.40028 L 83.657943 120.16166 L 83.657943 120.16114 L 83.934928 119.41338 z M 55.694792 119.51725 C 55.756822 119.51525 55.8208 119.52526 55.883927 119.54826 C 56.136433 119.64176 56.258976 119.90966 56.165564 120.16217 C 56.071974 120.41461 55.804671 120.53785 55.552165 120.44433 C 55.299659 120.35083 55.177117 120.08291 55.270528 119.83041 C 55.340718 119.64108 55.508697 119.52428 55.694792 119.51725 z M 62.878333 120.10223 L 63.821944 120.45208 C 63.778243 121.21836 63.625415 121.9913 63.351689 122.75013 L 62.327462 122.75013 C 62.364617 122.66252 62.400019 122.5736 62.433398 122.48348 C 62.723977 121.69879 62.867388 120.89469 62.878333 120.10223 z M 73.677673 120.41952 C 74.37702 120.42563 75.087292 120.55084 75.781938 120.80813 C 76.575823 121.10214 77.273019 121.54078 77.855713 122.08247 L 77.608183 122.75013 L 77.157048 122.75013 C 76.673586 122.3069 76.102019 121.94509 75.450175 121.70368 C 74.644622 121.40535 73.811379 121.31842 73.011564 121.41429 L 73.378467 120.42417 C 73.477839 120.42022 73.577767 120.41865 73.677673 120.41952 z M 84.553495 120.4929 L 84.221733 121.38846 A 0.47747155 0.47747155 0 0 0 84.503886 122.00186 L 85.398922 122.33362 L 86.294474 122.66538 A 0.47747155 0.47747155 0 0 0 86.907874 122.38323 L 87.239636 121.48767 L 86.3446 121.15643 L 86.178719 121.60395 L 85.730684 121.43807 L 85.283167 121.27218 L 85.448531 120.82467 L 84.553495 120.4929 z M 64.752637 120.79676 L 65.500911 121.07375 L 66.249703 121.35125 C 65.939029 121.78532 65.667184 122.2539 65.432699 122.75013 L 64.351628 122.75013 C 64.558604 122.10321 64.694961 121.44928 64.752637 120.79676 z M 93.441325 121.23859 L 95.679948 122.068 L 97.522213 122.75013 L 94.771993 122.75013 L 94.452633 122.63179 A 0.47747155 0.47747155 0 0 0 93.954989 122.75013 L 92.881669 122.75013 L 93.441325 121.23859 z M 44.287219 121.36313 L 44.939893 121.60498 L 48.032727 122.75013 L 45.999259 122.75013 C 45.154343 122.75013 44.453504 122.15722 44.287219 121.36313 z M 67.179879 121.69541 L 68.124007 122.04526 C 67.938453 122.26756 67.766201 122.503 67.607243 122.75013 L 66.503951 122.75013 C 66.704985 122.3779 66.928805 122.02405 67.179879 121.69541 z M 73.548999 122.33052 C 74.069168 122.32132 74.599897 122.4072 75.118412 122.59924 C 75.23973 122.64416 75.35699 122.69542 75.471362 122.75013 L 72.517021 122.75013 L 72.629159 122.44731 C 72.928416 122.37587 73.236897 122.33604 73.548999 122.33052 z M 69.080021 122.39925 L 70.027767 122.75013 L 68.784949 122.75013 C 68.879412 122.62907 68.976334 122.51081 69.080021 122.39925 z " />
  </g>
</svg>
