<?xml version="1.0" encoding="UTF-8" standalone="no"?>
<!-- Created with Inkscape (http://www.inkscape.org/) -->

<svg
   width="210mm"
   height="297mm"
   viewBox="0 0 210 297"
   version="1.1"
   id="svg3536"
   xmlns="http://www.w3.org/2000/svg"
   xmlns:svg="http://www.w3.org/2000/svg">
  <defs
     id="defs3533" />
  <g
     id="layer1">
    <path
       id="path2239"
       style="fill:#000000;stroke:none;stroke-width:0.05;stroke-linecap:round;stroke-linejoin:round;stroke-opacity:1"
       d="m 55.283127,79.660075 c -0.180178,0.187892 -0.366805,0.368834 -0.56534,0.534851 l -1.123962,-0.330212 a 0.78754935,0.78754935 0 0 0 -0.976685,0.533818 l -0.330212,1.124995 c -0.374934,0.117493 -0.761718,0.199812 -1.154968,0.253732 v 1.573547 c 0.215428,-0.02456 0.432044,-0.04431 0.643888,-0.08475 l -0.490409,1.671732 c -0.05074,0.0055 -0.102594,0.0045 -0.153479,0.0093 v 6.106087 l 2.773474,-9.455236 9.823689,2.881994 9.82369,2.881478 -2.881478,9.823173 -0.001,-5.17e-4 -1.330152,4.534093 a 0.78754935,0.78754935 0 0 0 0.534852,0.97668 l 4.533573,1.33015 0.685229,0.20103 v -1.64073 l -0.241845,-0.0708 -3.778064,-1.10794 1.108459,-3.778585 -5.17e-4,-5.17e-4 0.37052,-1.262972 c 0.79363,0.488675 1.643655,0.906436 2.541447,1.246952 V 95.90714 c -0.733192,-0.316267 -1.431115,-0.685301 -2.080493,-1.113627 l 0.467155,-1.593185 c 0.541224,0.391508 1.121081,0.739446 1.734778,1.038696 l 0.407727,-0.407727 h 4.026628 c -0.710416,-0.05287 -1.42603,-0.175642 -2.137887,-0.384466 -1.339885,-0.393054 -2.537236,-1.034547 -3.557923,-1.859318 l 0.489893,-1.671733 c 0.963688,0.914699 2.151824,1.620681 3.511413,2.019515 1.35959,0.398834 2.740647,0.446557 4.045748,0.197404 l -0.490409,1.671733 c -0.07585,0.0083 -0.153266,0.0074 -0.229443,0.01395 0.389752,0.02116 0.741992,0.132947 0.971,0.542086 v 2.508374 l 1.878955,-6.40426 9.82369,2.881478 9.823681,2.881994 -2.88199,9.823176 -0.001,-5.2e-4 -1.32963,4.53409 a 0.78754935,0.78754935 0 0 0 0.53433,0.97669 l 4.53409,1.33015 4.49791,1.3193 v -2.66547 l -0.27698,0.94412 -3.77807,-1.10845 -3.77805,-1.10847 1.10846,-3.77858 h -5.2e-4 l 0.37052,-1.26297 c 1.10803,0.68228 2.3219,1.23279 3.62974,1.61644 0.90641,0.26589 1.81759,0.43403 2.7249,0.524 v -1.58492 c -0.75971,-0.085 -1.52215,-0.22837 -2.28151,-0.45113 -1.31604,-0.38606 -2.52508,-0.95882 -3.61218,-1.67587 l 0.46715,-1.59267 c 1.05926,0.76624 2.26394,1.36847 3.58841,1.757 0.61122,0.17931 1.22546,0.30092 1.83813,0.37879 v -1.59473 c -0.46504,-0.0691 -0.9305,-0.15889 -1.39475,-0.29508 -1.33987,-0.39305 -2.53775,-1.03403 -3.55843,-1.8588 l 0.49041,-1.67173 c 0.96368,0.914699 2.15182,1.62068 3.51141,2.01951 0.31637,0.0928 0.6339,0.1626 0.95136,0.21808 v -1.601453 c -0.16953,-0.03661 -0.33882,-0.07854 -0.50798,-0.128157 -1.40022,-0.410753 -2.57563,-1.212909 -3.44371,-2.251026 l 0.33021,-1.124479 a 0.78754935,0.78754935 0 0 0 -0.53382,-0.976684 l -1.12396,-0.329696 c -0.40462,-1.291216 -0.44579,-2.71334 -0.0351,-4.113444 0.41077,-1.40007 1.21299,-2.575186 2.25102,-3.443201 l 1.12448,0.330213 a 0.78754935,0.78754935 0 0 0 0.9772,-0.534335 l 0.3297,-1.123962 c 0.20723,-0.06494 0.41866,-0.116973 0.632,-0.162781 v -1.596802 c -0.0399,0.007 -0.0811,0.0084 -0.12092,0.01602 l 0.12092,-0.411861 v -1.908411 c 0,-0.582921 -0.25119,-1.106217 -0.64905,-1.471745 l -1.60197,5.460132 -9.823168,-2.881478 -9.823689,-2.881994 0.06615,-0.224793 h -1.640726 l -0.157613,0.537952 a 0.78754935,0.78754935 0 0 0 0.5333,0.977201 l 1.12448,0.330213 c 0.40462,1.291214 0.445277,2.712822 0.03462,4.112927 -0.410772,1.400071 -1.212997,2.574668 -2.251026,3.442684 l -1.124479,-0.329696 a 0.78754935,0.78754935 0 0 0 -0.976684,0.533818 l -0.329696,1.124479 c -1.29132,0.404659 -2.713743,0.444856 -4.113961,0.03411 -1.400215,-0.410751 -2.575116,-1.212908 -3.4432,-2.251025 l 0.329695,-1.124479 a 0.78754935,0.78754935 0 0 0 -0.533301,-0.976685 l -1.124996,-0.329695 c -0.40462,-1.291216 -0.444765,-2.71334 -0.03411,-4.113444 0.211204,-0.719866 0.527541,-1.37868 0.924491,-1.968356 h -1.810225 c -0.248677,0.482093 -0.467553,0.985589 -0.625802,1.524972 -0.398732,1.359425 -0.446971,2.740272 -0.19792,4.045231 l -1.669666,-0.489893 c -0.142491,-1.30438 -0.03587,-2.659028 0.357084,-3.998722 0.1094,-0.372893 0.242069,-0.731497 0.388607,-1.081588 H 69.27666 c -0.07525,0.211227 -0.153649,0.420368 -0.217557,0.638204 -0.38846,1.324356 -0.532471,2.663538 -0.459921,3.96875 L 67.005998,83.79936 c -0.01611,-1.302043 0.155586,-2.628567 0.541569,-3.944463 0.01945,-0.0663 0.04472,-0.129065 0.06511,-0.19482 h -1.639693 c -0.336837,1.226294 -0.513979,2.460038 -0.536918,3.678846 l -1.263489,-0.37052 -1.263489,-0.37052 c 0.559696,-0.909068 1.024706,-1.892942 1.387513,-2.937806 H 62.6197 c -0.347063,0.881674 -0.775904,1.710942 -1.281058,2.476852 l -1.592738,-0.467157 c 0.448471,-0.620007 0.832438,-1.29529 1.158586,-2.009697 h -1.753898 c -0.297337,0.546598 -0.63574,1.062473 -1.018543,1.536341 l -1.670699,-0.49041 c 0.305159,-0.321537 0.576959,-0.676428 0.831991,-1.045931 z m 21.290174,0 c -0.670465,0.643172 -1.189881,1.459894 -1.469161,2.411739 h 5.16e-4 c -0.854115,2.912204 0.825049,5.986639 3.73724,6.840927 2.91219,0.854287 5.98597,-0.825649 6.840409,-3.737757 0.594982,-2.028659 -0.04149,-4.133982 -1.465543,-5.514909 z m 15.485359,0 5.442562,1.596285 7.556128,2.216919 a 0.78754935,0.78754935 0 0 0 0.9772,-0.534851 l 0.96169,-3.278353 H 105.355 l -0.6103,2.07946 -6.800094,-1.995227 -0.287321,-0.08423 z m -11.733134,0.02377 c 0.387768,-0.0056 0.783259,0.04649 1.176156,0.161748 2.095451,0.614697 3.284651,2.791061 2.670121,4.886523 -0.614845,2.095369 -2.791072,3.284302 -4.886523,2.669605 -2.095451,-0.614698 -3.284651,-2.791062 -2.670121,-4.886524 0.499561,-1.702487 2.030042,-2.806879 3.710367,-2.831352 z m 0.265101,1.58595 c -1.091128,-0.08881 -2.145285,0.601311 -2.46445,1.688786 -0.364432,1.242926 0.359578,2.566998 1.602487,2.931604 1.242908,0.364606 2.566844,-0.359141 2.931604,-1.601969 0.364432,-1.242926 -0.359061,-2.566482 -1.60197,-2.931088 -0.155363,-0.04557 -0.311796,-0.07465 -0.467671,-0.08733 z m 8.31267,0.746725 1.670183,0.490409 c 0.142491,1.304381 0.03587,2.658513 -0.357084,3.998206 -0.393034,1.33967 -1.034768,2.536705 -1.859318,3.557405 l -1.6707,-0.489892 c 0.914538,-0.963621 1.620685,-2.1515 2.019515,-3.510897 0.398733,-1.359426 0.446456,-2.740273 0.197404,-4.045231 z m -8.602575,0.821655 c 0.101796,-0.01098 0.208167,-0.0023 0.314709,0.02894 0.426171,0.125017 0.658149,0.551547 0.533301,0.977718 -0.125158,0.426079 -0.550514,0.659351 -0.976685,0.534334 -0.426169,-0.125016 -0.658665,-0.55103 -0.533817,-0.977201 0.09387,-0.319559 0.357104,-0.530859 0.662492,-0.563791 z m 11.887129,0.14211 1.592668,0.467155 c 0.01611,1.302043 -0.15507,2.628566 -0.541052,3.944462 -0.386045,1.315878 -0.958417,2.52466 -1.67535,3.611666 l -1.592668,-0.467155 c 0.766143,-1.059184 1.367952,-2.263559 1.756482,-3.587895 0.38846,-1.324355 0.53247,-2.663019 0.45992,-3.968233 z m -36.458239,0.79375 a 0.78754935,0.78754935 0 0 0 -0.977718,0.534334 l -2.216403,7.556128 -1.403531,4.783688 v 3.720185 a 0.78754935,0.78754935 0 0 0 0.698148,-0.504361 l 2.216919,-7.556128 h 5.17e-4 l 1.99471,-6.800618 6.800619,1.99471 6.800101,1.99471 -1.995227,6.801135 -2.216402,7.556132 a 0.78754935,0.78754935 0 0 0 0.533818,0.97771 l 7.556644,2.21692 1.571997,0.46096 v -1.64176 l -1.128613,-0.33125 -6.800102,-1.99471 1.994711,-6.800618 h -5.17e-4 l 2.216919,-7.556128 a 0.78754935,0.78754935 0 0 0 -0.533818,-0.977718 l -7.556128,-2.216919 z m 39.621354,0.133842 1.263489,0.371037 1.262972,0.37052 c -0.682167,1.107988 -1.231768,2.321589 -1.615406,3.629236 -0.383561,1.307668 -0.575997,2.625973 -0.60048,3.926892 l -1.263489,-0.37052 -1.263488,-0.371037 c 0.682166,-1.107988 1.231766,-2.32159 1.615405,-3.629236 0.383561,-1.307669 0.576514,-2.625973 0.600997,-3.926892 z m 4.096907,1.201994 1.593187,0.467155 c -0.76614,1.059184 -1.36847,2.26356 -1.757001,3.587895 -0.388458,1.324355 -0.531953,2.66302 -0.459403,3.968233 l -1.593185,-0.467155 c -0.01611,-1.302044 0.155069,-2.628567 0.541052,-3.944462 0.386044,-1.315878 0.958416,-2.52466 1.67535,-3.611666 z m 3.207037,0.941028 1.67018,0.489892 c -0.91454,0.963621 -1.61965,2.151499 -2.01848,3.510897 -0.39873,1.359426 -0.44697,2.740273 -0.19792,4.045231 l -1.67018,-0.489892 c -0.14249,-1.30438 -0.0359,-2.659029 0.35708,-3.998723 0.39304,-1.339669 1.03477,-2.536704 1.85932,-3.557405 z m 6.47712,1.139982 c -1.76625,0.50006 -3.25005,1.863465 -3.80287,3.747575 h 5.2e-4 c -0.85412,2.912204 0.82504,5.986639 3.73724,6.840926 0.0216,0.0064 0.0434,0.0094 0.0651,0.0155 v -1.65881 c -1.85721,-0.752139 -2.86833,-2.788519 -2.29185,-4.754232 0.35215,-1.20011 1.22378,-2.08702 2.29185,-2.523876 z m -51.266631,0.492476 a 0.78754935,0.78754935 0 0 0 -0.977718,0.533818 l -1.330152,4.53409 h 5.17e-4 l -2.881478,9.822655 -1.544608,-0.4532 v 2.5647 c 0.227711,-0.25428 0.472563,-0.49081 0.732255,-0.70797 l 1.124479,0.33022 a 0.78754935,0.78754935 0 0 0 0.977201,-0.53434 l 0.329696,-1.12396 c 1.29132,-0.40466 2.713226,-0.44486 4.113444,-0.0341 1.400215,0.41075 2.575633,1.21239 3.443717,2.25051 l -0.329695,1.12448 a 0.78754935,0.78754935 0 0 0 0.5333,0.9772 l 1.123963,0.3297 c 0.40462,1.29121 0.445282,2.71282 0.03462,4.11292 -0.410772,1.40007 -1.212998,2.57519 -2.251025,3.4432 l -1.12396,-0.32969 a 0.78754935,0.78754935 0 0 0 -0.976684,0.5333 l -0.330213,1.125 c -1.291321,0.40466 -2.713228,0.44485 -4.113444,0.0341 -1.319819,-0.38717 -2.436439,-1.12492 -3.287654,-2.0774 v 2.13269 c 0.827868,0.64 1.781562,1.14398 2.84427,1.45573 1.35959,0.39883 2.740647,0.44707 4.045748,0.19792 l -0.490409,1.67121 c -1.304489,0.14269 -2.658839,0.0354 -3.998722,-0.3576 -0.865218,-0.25381 -1.663619,-0.62061 -2.400887,-1.06402 v 1.80299 c 0.618568,0.30933 1.27095,0.57065 1.957503,0.77205 1.324468,0.38853 2.663425,0.53251 3.96875,0.45992 l -0.467155,1.59267 c -1.302187,0.0161 -2.628941,-0.155 -3.944979,-0.54105 -0.523653,-0.15362 -1.025302,-0.34446 -1.514119,-0.55449 v 1.70377 c 0.349992,0.13223 0.705833,0.25521 1.070735,0.36225 1.307838,0.38365 2.626381,0.57658 3.927409,0.601 l -0.37052,1.26297 -5.17e-4,-5.2e-4 -0.593762,2.02417 h 1.64176 l 0.463538,-1.58078 h -5.17e-4 l 2.881478,-9.82318 9.82369,2.882 9.82369,2.88148 -1.65468,5.64048 h 4.4111 c -0.859881,-0.37289 -1.652708,-0.84615 -2.355928,-1.41439 l 0.490409,-1.67173 c 0.963687,0.9147 2.151825,1.62068 3.511414,2.01951 1.35959,0.39884 2.740647,0.44656 4.045748,0.19741 l -0.254765,0.8692 h 1.64021 l 0.744657,-2.53732 8.650118,2.53732 h 5.593973 l -1.14412,-0.3359 c -0.0161,-1.30204 0.15559,-2.62857 0.54157,-3.94446 0.38604,-1.31588 0.95841,-2.52466 1.67535,-3.61167 l 1.59318,0.46767 c -0.76614,1.05919 -1.36847,2.26305 -1.757,3.58738 -0.37546,1.28004 -0.51756,2.57332 -0.46147,3.83698 h 1.57924 c -0.0552,-1.11603 0.0611,-2.25935 0.39377,-3.3936 0.39303,-1.33967 1.03477,-2.5367 1.85932,-3.5574 l 0.23099,0.0677 v -1.64228 l -5.82807,-1.70945 -9.823681,-2.88148 2.881478,-9.82266 h 5.17e-4 l 1.330151,-4.53357 A 0.78754935,0.78754935 0 0 0 97.157574,99.209786 L 92.624517,97.880152 88.090944,96.55 a 0.78754935,0.78754935 0 0 0 -0.978235,0.533818 l -1.329635,4.533572 5.17e-4,5.2e-4 -2.881478,9.82265 -0.650089,-0.19068 v 1.64176 l 0.962215,0.28215 a 0.78754935,0.78754935 0 0 0 0.976685,-0.53382 l 0.329695,-1.12447 c 1.291321,-0.40466 2.713745,-0.44486 4.113961,-0.0341 1.400218,0.41075 2.575117,1.2129 3.443201,2.25102 l -0.329696,1.12448 a 0.78754935,0.78754935 0 0 0 0.533301,0.9772 l 1.124479,0.3297 c 0.404622,1.29121 0.445278,2.71334 0.03462,4.11344 -0.410772,1.40007 -1.213513,2.57467 -2.251542,3.44268 l -1.123962,-0.33021 a 0.78754935,0.78754935 0 0 0 -0.976685,0.53382 L 88.7586,125.048 c -1.29132,0.40466 -2.713743,0.44486 -4.11396,0.0341 -1.400216,-0.41075 -2.575117,-1.21239 -3.443201,-2.25051 l 0.329696,-1.125 a 0.78754935,0.78754935 0 0 0 -0.533818,-0.97668 l -1.123962,-0.3297 c -0.404621,-1.29121 -0.445277,-2.71333 -0.03462,-4.11344 0.0047,-0.016 0.01071,-0.0311 0.0155,-0.047 h -1.617989 c -0.299144,1.23053 -0.331875,2.47043 -0.10697,3.64887 l -1.669665,-0.48989 c -0.112633,-1.03106 -0.06253,-2.09327 0.154512,-3.15485 -0.581941,0.0278 -1.165573,0.0596 -1.502234,-0.50488 -0.235813,1.06731 -0.324951,2.1375 -0.26665,3.18637 l -1.593185,-0.46767 c -0.01611,-1.30204 0.155587,-2.62805 0.541569,-3.94394 0.315076,-1.07398 0.759646,-2.07235 1.300179,-2.99569 v -2.36832 l -2.014862,-0.59118 -9.823689,-2.88148 2.881477,-9.822654 h 5.17e-4 L 67.46688,91.320862 A 0.78754935,0.78754935 0 0 0 66.932545,90.343144 L 62.399489,89.01351 Z m 0.312642,1.732711 3.778064,1.108459 3.778064,1.107943 -1.108459,3.778581 h 5.16e-4 l -0.37052,1.262455 c -1.108048,-0.682274 -2.321915,-1.231752 -3.629752,-1.615404 -1.307839,-0.383653 -2.626382,-0.576574 -3.927409,-0.600997 l 0.37052,-1.262455 h 5.17e-4 z m 50.953989,1.246436 c -0.3609,0.291393 -0.6411,0.688377 -0.78031,1.162719 -0.2738,0.933828 0.0669,1.91287 0.78031,2.497005 z m -49.130844,0.929659 a 0.78754638,0.78754638 0 0 0 -0.976685,0.534334 l -0.443384,1.511536 1.510502,0.442867 0.221175,-0.754993 0.756543,0.221692 0.75551,0.221692 -0.221692,0.754992 1.511019,0.443384 0.443384,-1.511536 A 0.78754638,0.78754638 0 0 0 63.024257,92.47893 l -1.511536,-0.443384 z m 25.953454,1.047998 a 0.78754935,0.78754935 0 0 0 -0.977201,0.534851 l -2.216402,7.556128 h -5.17e-4 l -0.508496,1.73374 v 5.59656 l 2.020032,-6.88692 h 5.16e-4 l 1.994711,-6.801132 6.800618,1.995227 6.800102,1.99471 -1.99471,6.801135 h 5.16e-4 l -2.216919,7.55613 a 0.78754935,0.78754935 0 0 0 0.533818,0.97772 l 7.556122,2.2164 5.3852,1.57975 v -1.64176 l -4.9413,-1.44953 -6.800612,-1.99522 1.995227,-6.8001 h -5.17e-4 l 2.216402,-7.556133 a 0.78754935,0.78754935 0 0 0 -0.5333,-0.977719 l -7.556645,-2.216917 z m -29.717049,3.387907 c 1.302186,-0.01615 2.628939,0.15551 3.944979,0.541569 1.316038,0.386057 2.52508,0.958302 3.612182,1.675349 l -0.467154,1.592668 c -1.059254,-0.766238 -2.263943,-1.36795 -3.588412,-1.756482 -1.324471,-0.388531 -2.663427,-0.532512 -3.96875,-0.45992 z m 17.455782,2.043286 -0.442867,1.511019 a 0.78754638,0.78754638 0 0 0 0.533301,0.977197 l 1.309997,0.38448 v -1.641764 l -0.111104,-0.03256 0.111104,-0.379305 v -0.408239 z m 14.709697,0.211356 3.778064,1.107943 3.778063,1.108457 -1.108459,3.77858 h 5.17e-4 l -0.370003,1.26246 c -1.108048,-0.68228 -2.321914,-1.23175 -3.629753,-1.61541 -1.307838,-0.38365 -2.626381,-0.57709 -3.927409,-0.60151 l 0.370003,-1.26246 5.17e-4,5.2e-4 z M 56.2841,99.175162 c 0.994096,-0.01173 2.007306,0.121722 3.012219,0.416512 1.339883,0.393053 2.537234,1.035066 3.557922,1.859836 l -0.490409,1.67122 c -0.963688,-0.9147 -2.151308,-1.62068 -3.510897,-2.01952 -1.359589,-0.39883 -2.740646,-0.44655 -4.045748,-0.1974 l 0.489893,-1.671219 c 0.326122,-0.03567 0.655654,-0.05552 0.98702,-0.05943 z m 33.942631,1.283648 a 0.78754638,0.78754638 0 0 0 -0.977201,0.53433 l -0.443384,1.51154 1.510502,0.44286 0.221692,-0.75499 0.756026,0.22169 0.755509,0.22169 -0.221175,0.755 1.510502,0.44338 0.443384,-1.51154 a 0.78754638,0.78754638 0 0 0 -0.533301,-0.9772 l -1.511535,-0.44338 z m -33.900257,3.44475 c -2.340559,0.0409 -4.493631,1.58565 -5.194514,3.93981 v 3.11764 c 0.513193,1.74032 1.867235,3.19736 3.730521,3.74395 2.91219,0.85429 5.986488,-0.82616 6.840926,-3.73827 0.854115,-2.9122 -0.825048,-5.98664 -3.737239,-6.84093 -0.546036,-0.16017 -1.097944,-0.23166 -1.639694,-0.2222 z m 30.136662,0.99115 c 1.302186,-0.0162 2.62894,0.15499 3.944979,0.54105 1.316039,0.38606 2.52508,0.95882 3.612183,1.67587 l -0.467672,1.59267 c -1.059255,-0.76624 -2.263942,-1.36795 -3.588411,-1.75648 -1.324469,-0.38854 -2.662909,-0.53303 -3.968234,-0.46044 z m -30.117024,0.58136 c 0.387767,-0.006 0.783775,0.046 1.176672,0.16123 2.095451,0.6147 3.28465,2.79106 2.670121,4.88652 -0.614845,2.09537 -2.791589,3.28431 -4.88704,2.66961 -2.095451,-0.6147 -3.28465,-2.79106 -2.670121,-4.88652 0.499562,-1.70249 2.030042,-2.80637 3.710368,-2.83084 z m 47.572798,1.46141 -0.44338,1.51154 a 0.78754638,0.78754638 0 0 0 0.53382,0.97668 l 1.51102,0.44338 1.51101,0.44339 a 0.78754638,0.78754638 0 0 0 0.97721,-0.5333 l 0.44338,-1.51154 -1.51102,-0.44338 -0.22117,0.75551 -0.75603,-0.2217 -0.75603,-0.2222 0.2217,-0.755 z m -47.307698,0.12454 c -1.091128,-0.0888 -2.144767,0.60079 -2.463933,1.68827 -0.364432,1.24292 0.359061,2.567 1.60197,2.9316 1.24291,0.36461 2.566843,-0.35862 2.931604,-1.60145 0.364431,-1.24293 -0.358544,-2.567 -1.601453,-2.9316 -0.155363,-0.0456 -0.312313,-0.0741 -0.468188,-0.0868 z m 8.312671,0.74672 1.670699,0.4899 c 0.142489,1.30438 0.03535,2.65851 -0.357601,3.9982 -0.393033,1.33967 -1.034251,2.53722 -1.858802,3.55792 l -1.670699,-0.48989 c 0.914537,-0.96362 1.620169,-2.1515 2.018999,-3.51089 0.398732,-1.35943 0.446455,-2.74028 0.197404,-4.04524 z m 21.585245,0.23255 c 0.994097,-0.0117 2.007307,0.12224 3.01222,0.41703 1.339884,0.39305 2.537235,1.03506 3.557922,1.85983 l -0.489893,1.6707 c -0.963688,-0.9147 -2.151823,-1.62016 -3.511413,-2.019 -1.359589,-0.39883 -2.740646,-0.44655 -4.045748,-0.1974 l 0.490409,-1.67122 c 0.326122,-0.0357 0.655138,-0.056 0.986503,-0.0599 z m -30.187821,0.58859 c 0.101796,-0.011 0.208167,-0.002 0.314709,0.0295 0.426169,0.12502 0.658665,0.55155 0.533818,0.97772 -0.125159,0.42608 -0.551033,0.65935 -0.977201,0.53433 -0.426171,-0.12501 -0.658149,-0.55154 -0.533301,-0.97771 0.09387,-0.31956 0.356587,-0.53086 0.661975,-0.56379 z m 11.88713,0.14211 1.593184,0.46716 c 0.01611,1.30204 -0.15507,2.62856 -0.541052,3.94446 -0.386044,1.31588 -0.958933,2.52466 -1.675867,3.61167 l -1.592668,-0.46716 c 0.766144,-1.05918 1.368469,-2.26356 1.756999,-3.58789 0.38846,-1.32436 0.531953,-2.66302 0.459404,-3.96824 z m 3.163114,0.92811 1.263489,0.37052 1.263489,0.37052 c -0.682168,1.10799 -1.232285,2.32159 -1.615923,3.62924 -0.38356,1.30767 -0.575996,2.62597 -0.60048,3.92689 l -1.263488,-0.37052 -1.263489,-0.37052 c 0.682166,-1.10799 1.231767,-2.32159 1.615405,-3.62924 0.383561,-1.30766 0.576512,-2.62597 0.600997,-3.92689 z m -20.239591,2.39159 v 1.34203 l 0.174149,-0.59324 a 0.78754935,0.78754935 0 0 0 -0.174149,-0.74879 z m 35.42006,0.67851 c -1.684703,0.0294 -3.268526,0.84142 -4.287594,2.16989 0.01712,0.51509 -0.02056,1.00775 -0.542086,1.29966 h -0.201021 c -0.06361,0.15955 -0.121757,0.32242 -0.171049,0.49041 l 5.17e-4,5.2e-4 c -0.854114,2.9122 0.825049,5.98664 3.737239,6.84093 2.912192,0.85428 5.985971,-0.82617 6.84041,-3.73828 0.854114,-2.9122 -0.825049,-5.98715 -3.73724,-6.84144 -0.546035,-0.16018 -1.097427,-0.23115 -1.639176,-0.22169 z m 0.01964,1.57251 c 0.387767,-0.006 0.783259,0.046 1.176155,0.16123 2.095451,0.6147 3.28465,2.79106 2.670122,4.88653 -0.614846,2.09536 -2.791073,3.2843 -4.886524,2.6696 -2.09545,-0.6147 -3.284649,-2.79106 -2.670121,-4.88652 0.499562,-1.70249 2.030043,-2.80636 3.710368,-2.83084 z m 0.2651,1.58595 c -1.091128,-0.0888 -2.145284,0.6008 -2.464449,1.68827 -0.364432,1.24292 0.359577,2.567 1.602486,2.9316 1.242909,0.36461 2.566843,-0.35862 2.931604,-1.60145 0.364432,-1.24292 -0.359061,-2.567 -1.601969,-2.9316 -0.155364,-0.0456 -0.311797,-0.0741 -0.467672,-0.0868 z m 8.312671,0.74621 1.670182,0.49041 c 0.142489,1.30438 0.03535,2.65851 -0.357601,3.9982 -0.393032,1.33967 -1.034251,2.53723 -1.858801,3.55793 L 92.932512,124.231 c 0.914536,-0.96363 1.620684,-2.1515 2.019515,-3.5109 0.398732,-1.35942 0.446455,-2.74027 0.197404,-4.04523 z m -8.603093,0.82166 c 0.101796,-0.011 0.208684,-0.002 0.315227,0.0294 0.42617,0.12501 0.658148,0.55154 0.5333,0.97771 -0.125159,0.42608 -0.55103,0.65884 -0.977201,0.53382 -0.42617,-0.12502 -0.658148,-0.55103 -0.533301,-0.9772 0.09387,-0.31956 0.356587,-0.53086 0.661975,-0.56379 z m 11.887647,0.14211 1.592665,0.46715 c 0.0161,1.30204 -0.155066,2.62857 -0.54105,3.94446 -0.386043,1.31588 -0.958416,2.52466 -1.67535,3.61167 l -1.593184,-0.46716 c 0.766142,-1.05918 1.368469,-2.26356 1.756999,-3.58789 0.388459,-1.32436 0.53247,-2.66302 0.45992,-3.96823 z m -36.45824,0.79374 a 0.78754935,0.78754935 0 0 0 -0.977718,0.53434 l -2.216402,7.55613 -0.33383,1.1374 h 1.641244 l 0.203605,-0.69402 h 5.16e-4 l 1.995227,-6.80062 6.800102,1.99471 6.800619,1.99523 -1.028361,3.5047 h 1.64176 l 1.119311,-3.81683 a 0.78754935,0.78754935 0 0 0 -0.5333,-0.97771 l -7.556645,-2.21641 z m 39.621355,0.13436 1.26349,0.37052 1.26296,0.37052 c -0.68217,1.10799 -1.23227,2.32159 -1.61591,3.62924 -0.38356,1.30767 -0.576,2.62597 -0.60048,3.92689 l -1.26349,-0.37052 -1.26349,-0.37103 c 0.68217,-1.108 1.23228,-2.32108 1.61592,-3.62872 0.38356,-1.30767 0.57651,-2.62598 0.601,-3.9269 z m -37.485568,3.77497 a 0.78754935,0.78754935 0 0 0 -0.977718,0.53381 l -1.330151,4.5341 h 5.16e-4 l -0.07338,0.25063 h 1.641243 l 1.052132,-3.58583 3.778064,1.10846 3.778064,1.10794 -0.401526,1.36943 h 1.641244 l 0.492993,-1.68104 a 0.78754935,0.78754935 0 0 0 -0.534334,-0.97772 l -4.533057,-1.32963 z m 45.020498,0.93534 c -0.22792,0.45517 -0.43105,0.92773 -0.57929,1.43299 -0.257,0.87622 -0.35382,1.7593 -0.33383,2.62723 0.54913,-0.35664 0.91312,-0.9739 0.91312,-1.67742 z m -58.000067,1.00201 v 0.34416 l 0.09302,-0.31678 z m 1.60507,0.47077 -0.221692,0.75499 -0.75551,-0.22169 -0.627868,-0.18397 v 0.56069 c 0,0.45018 0.150537,0.86406 0.401525,1.19838 l 1.293978,0.37982 a 0.78754638,0.78754638 0 0 0 0.976685,-0.53382 l 0.443384,-1.51153 z m 13.510286,1.5012 a 0.78754638,0.78754638 0 0 0 -0.976685,0.53382 l -0.256831,0.87539 h 4.78162 A 0.78754638,0.78754638 0 0 0 69.27039,127.1378 l -1.511535,-0.44339 z m 25.953455,1.048 a 0.78754935,0.78754935 0 0 0 -0.838192,0.36121 h 2.069641 z" />
  </g>
</svg>
