<?xml version="1.0" encoding="UTF-8" standalone="no"?>
<!-- Created with Inkscape (http://www.inkscape.org/) -->

<svg
   sodipodi:docname="pattern.svg"
   xml:space="preserve"
   id="svg5"
   version="1.1"
   viewBox="0 0 210 296.99999"
   height="1122.5197"
   width="793.70081"
   inkscape:version="1.2.2 (b0a8486541, 2022-12-01)"
   xmlns:inkscape="http://www.inkscape.org/namespaces/inkscape"
   xmlns:sodipodi="http://sodipodi.sourceforge.net/DTD/sodipodi-0.dtd"
   xmlns:xlink="http://www.w3.org/1999/xlink"
   xmlns="http://www.w3.org/2000/svg"
   xmlns:svg="http://www.w3.org/2000/svg"><sodipodi:namedview
     id="namedview7"
     pagecolor="#ffffff"
     bordercolor="#666666"
     borderopacity="1.0"
     inkscape:showpageshadow="false"
     inkscape:pageopacity="0.0"
     inkscape:pagecheckerboard="0"
     inkscape:deskcolor="#d1d1d1"
     inkscape:document-units="mm"
     showgrid="true"
     showborder="false"
     inkscape:zoom="1.1227729"
     inkscape:cx="641.26949"
     inkscape:cy="668.87971"
     inkscape:window-width="1884"
     inkscape:window-height="1021"
     inkscape:window-x="0"
     inkscape:window-y="0"
     inkscape:window-maximized="0"
     inkscape:current-layer="layer1"><inkscape:grid
       type="xygrid"
       id="grid3613"
       units="px"
       spacingx="26.458333"
       spacingy="26.458333"
       originx="0"
       originy="0"
       enabled="false" /></sodipodi:namedview><defs
     id="defs2"><inkscape:path-effect
       effect="offset"
       id="path-effect55323"
       is_visible="true"
       lpeversion="1.2"
       linejoin_type="round"
       unit="mm"
       offset="0.7"
       miter_limit="4"
       attempt_force_join="false"
       update_on_knot_move="true" /><inkscape:path-effect
       effect="offset"
       id="path-effect55316"
       is_visible="true"
       lpeversion="1.2"
       linejoin_type="miter"
       unit="mm"
       offset="0.53331326"
       miter_limit="4"
       attempt_force_join="false"
       update_on_knot_move="true" /><linearGradient
       id="linearGradient43860"
       inkscape:swatch="solid"><stop
         style="stop-color:#a40000;stop-opacity:1;"
         offset="0"
         id="stop43858" /></linearGradient><pattern
       inkscape:collect="always"
       xlink:href="#pattern29833"
       id="pattern31992"
       patternTransform="matrix(0.12970046,-0.00917964,-0.00930812,-0.13151574,265.53602,315.57952)" /><inkscape:path-effect
       effect="knot"
       id="path-effect2522"
       is_visible="true"
       lpeversion="1"
       switcher_size="15"
       interruption_width="3"
       prop_to_stroke_width="true"
       add_stroke_width="inkscape_1.0_and_up"
       both="false"
       inverse_width="false"
       add_other_stroke_width="inkscape_1.0_and_up"
       crossing_points_vector="22.588635 | 133.16848 | 0 | 3 | 0 | 0 | 0 | 0 | 1 | 61.507606 | 87.389831 | 0 | 1 | 1 | 1 | 1.248084 | 0.89755273 | 1 | 73.923643 | 92.615037 | 0 | 2 | 2 | 1 | 1.496168 | 0.79510545 | 1 | 37.719825 | 133.16848 | 1 | 4 | 0 | 0 | 0 | 0 | 1 | 76.638797 | 87.389831 | 1 | 2 | 2 | 2 | 1.248084 | 0.89755273 | 1 | 52.851016 | 133.16848 | 2 | 5 | 0 | 0 | 1.7306588e-15 | 3.9412917e-15 | 1 | 49.091569 | 184.17233 | 3 | 6 | 0 | 1 | 1 | 1 | 1 | 49.091569 | 184.17233 | 3 | 6 | 1 | 2 | 1 | 1 | 1 | 61.507606 | 178.94713 | 3 | 4 | 3 | 1 | 1.248084 | 0.89755273 | 1 | 73.923643 | 173.72192 | 3 | 5 | 4 | 1 | 1.496168 | 0.79510545 | 1 | 49.091569 | 184.17233 | 3 | 6 | 0 | 0 | 1 | 1 | 1 | 49.091569 | 184.17233 | 3 | 6 | 2 | 3 | 1 | 1 | 1 | 64.222759 | 184.17233 | 4 | 7 | 0 | 2 | 1 | 1 | 1 | 64.222759 | 184.17233 | 4 | 7 | 2 | 3 | 1 | 1 | 1 | 76.638797 | 178.94713 | 4 | 5 | 5 | 2 | 1.248084 | 0.89755273 | 1 | 64.222759 | 184.17233 | 4 | 7 | 3 | 1 | 1 | 1 | 1 | 64.222759 | 184.17233 | 4 | 7 | 4 | 4 | 1 | 1 | 1 | 79.35395 | 184.17233 | 5 | 8 | 3 | 3 | 1 | 1 | 1 | 79.35395 | 184.17233 | 5 | 8 | 0 | 4 | 1 | 1 | 1 | 79.35395 | 184.17233 | 5 | 8 | 4 | 2 | 1 | 1 | 1 | 79.35395 | 184.17233 | 5 | 8 | 5 | 5 | 1 | 1 | 1 | 61.507606 | 189.39754 | 6 | 7 | 4 | 0 | 1.248084 | 0.89755273 | 1 | 73.923643 | 194.62275 | 6 | 8 | 5 | 0 | 1.496168 | 0.79510545 | 1 | 76.638797 | 189.39754 | 7 | 8 | 5 | 1 | 1.248084 | 0.89755273 | 1" /><inkscape:path-effect
       effect="tiling"
       id="path-effect2520"
       is_visible="true"
       lpeversion="1"
       unit="px"
       seed="1;1"
       lpesatellites=""
       num_rows="3"
       num_cols="3"
       gapx="-218.81479"
       gapy="0"
       offset="0"
       offset_type="false"
       scale="0"
       rotate="0"
       mirrorrowsx="false"
       mirrorrowsy="true"
       mirrorcolsx="false"
       mirrorcolsy="false"
       mirrortrans="false"
       shrink_interp="false"
       split_items="false"
       link_styles="false"
       interpolate_scalex="false"
       interpolate_scaley="true"
       interpolate_rotatex="false"
       interpolate_rotatey="true"
       random_scale="false"
       random_rotate="false"
       random_gap_y="false"
       random_gap_x="false"
       transformorigin="" /><inkscape:path-effect
       effect="knot"
       id="path-effect2516"
       is_visible="true"
       lpeversion="1"
       switcher_size="3"
       interruption_width="3"
       prop_to_stroke_width="true"
       add_stroke_width="inkscape_1.0_and_up"
       both="false"
       inverse_width="false"
       add_other_stroke_width="inkscape_1.0_and_up"
       crossing_points_vector="45.598026 | 87.269639 | 0 | 0 | 1 | 4 | 0.39802277 | 2.1855207 | 1 | 41.326527 | 84.796312 | 0 | 0 | 0 | 7 | 0.34535018 | 3.6729407 | 1 | 70.628137 | 105.93074 | 0 | 4 | 2 | 3 | 0.73322955 | 1.4391264 | 1 | 54.59393 | 111.35553 | 0 | 4 | 3 | 2 | 1.4391264 | 0.73322955 | 1 | 46.834501 | 82.940036 | 0 | 0 | 5 | 6 | 2.2861669 | 3.5996846 | 1 | 94.677098 | 87.269639 | 1 | 1 | 1 | 4 | 0.39802277 | 2.1855207 | 1 | 90.405598 | 84.796312 | 1 | 1 | 0 | 7 | 0.34535018 | 3.6729407 | 1 | 119.70721 | 105.93074 | 1 | 5 | 2 | 3 | 0.73322955 | 1.4391264 | 1 | 103.673 | 111.35553 | 1 | 5 | 3 | 2 | 1.4391264 | 0.73322955 | 1 | 95.913573 | 82.940036 | 1 | 1 | 5 | 6 | 2.2861669 | 3.5996846 | 1 | 143.75617 | 87.269639 | 2 | 2 | 1 | 4 | 0.39802277 | 2.1855207 | 1 | 139.48467 | 84.796312 | 2 | 2 | 0 | 7 | 0.34535018 | 3.6729407 | 1 | 168.78628 | 105.93074 | 2 | 6 | 2 | 3 | 0.73322955 | 1.4391264 | 1 | 152.75207 | 111.35553 | 2 | 6 | 3 | 2 | 1.4391264 | 0.73322955 | 1 | 144.99264 | 82.940036 | 2 | 2 | 5 | 6 | 2.2861669 | 3.5996846 | 1 | 192.83524 | 87.269639 | 3 | 3 | 1 | 4 | 0.39802277 | 2.1855207 | 1 | 188.56374 | 84.796312 | 3 | 3 | 0 | 7 | 0.34535018 | 3.6729407 | 1 | 217.86535 | 105.93074 | 3 | 7 | 2 | 3 | 0.73322955 | 1.4391264 | 1 | 201.83114 | 111.35553 | 3 | 7 | 3 | 2 | 1.4391264 | 0.73322955 | 1 | 194.07172 | 82.940036 | 3 | 3 | 5 | 6 | 2.2861669 | 3.5996846 | 1 | 79.624041 | 130.01663 | 4 | 4 | 1 | 4 | 0.39802277 | 2.1855207 | 1 | 83.895541 | 132.48996 | 4 | 4 | 0 | 9 | 0.34535018 | 3.6729407 | 1 | 78.387566 | 134.34624 | 4 | 4 | 5 | 8 | 2.2861669 | 3.5996846 | 1 | 65.412604 | 149.59706 | 4 | 8 | 6 | 7 | 2.77607 | 3.3363633 | 1 | 59.809464 | 143.83246 | 4 | 8 | 7 | 6 | 3.3363633 | 2.77607 | 1 | 128.70311 | 130.01663 | 5 | 5 | 1 | 4 | 0.39802277 | 2.1855207 | 1 | 132.97461 | 132.48996 | 5 | 5 | 0 | 9 | 0.34535018 | 3.6729407 | 1 | 127.46664 | 134.34624 | 5 | 5 | 5 | 8 | 2.2861669 | 3.5996846 | 1 | 114.49168 | 149.59706 | 5 | 9 | 6 | 7 | 2.77607 | 3.3363633 | 1 | 108.88854 | 143.83246 | 5 | 9 | 7 | 6 | 3.3363633 | 2.77607 | 1 | 177.78218 | 130.01663 | 6 | 6 | 1 | 4 | 0.39802277 | 2.1855207 | 1 | 182.05368 | 132.48996 | 6 | 6 | 0 | 9 | 0.34535018 | 3.6729407 | 1 | 176.54571 | 134.34624 | 6 | 6 | 5 | 8 | 2.2861669 | 3.5996846 | 1 | 163.57075 | 149.59706 | 6 | 10 | 6 | 7 | 2.77607 | 3.3363633 | 1 | 157.96761 | 143.83246 | 6 | 10 | 7 | 6 | 3.3363633 | 2.77607 | 1 | 226.86126 | 130.01663 | 7 | 7 | 1 | 4 | 0.39802277 | 2.1855207 | 1 | 231.13276 | 132.48996 | 7 | 7 | 0 | 9 | 0.34535018 | 3.6729407 | 1 | 225.62478 | 134.34624 | 7 | 7 | 5 | 8 | 2.2861669 | 3.5996846 | 1 | 212.64982 | 149.59706 | 7 | 11 | 6 | 7 | 2.77607 | 3.3363633 | 1 | 207.04668 | 143.83246 | 7 | 11 | 7 | 6 | 3.3363633 | 2.77607 | 1 | 45.598026 | 163.41289 | 8 | 8 | 1 | 4 | 0.39802277 | 2.1855207 | 1 | 41.326527 | 160.93957 | 8 | 8 | 0 | 9 | 0.34535018 | 3.6729407 | 1 | 70.628137 | 182.074 | 8 | 12 | 2 | 3 | 0.73322955 | 1.4391264 | 1 | 54.59393 | 187.49878 | 8 | 12 | 3 | 2 | 1.4391264 | 0.73322955 | 1 | 46.834501 | 159.08329 | 8 | 8 | 5 | 8 | 2.2861669 | 3.5996846 | 1 | 94.677098 | 163.41289 | 9 | 9 | 1 | 4 | 0.39802277 | 2.1855207 | 1 | 90.405598 | 160.93957 | 9 | 9 | 0 | 9 | 0.34535018 | 3.6729407 | 1 | 119.70721 | 182.074 | 9 | 13 | 2 | 3 | 0.73322955 | 1.4391264 | 1 | 103.673 | 187.49878 | 9 | 13 | 3 | 2 | 1.4391264 | 0.73322955 | 1 | 95.913573 | 159.08329 | 9 | 9 | 5 | 8 | 2.2861669 | 3.5996846 | 1 | 143.75617 | 163.41289 | 10 | 10 | 1 | 4 | 0.39802277 | 2.1855207 | 1 | 139.48467 | 160.93957 | 10 | 10 | 0 | 9 | 0.34535018 | 3.6729407 | 1 | 168.78628 | 182.074 | 10 | 14 | 2 | 3 | 0.73322955 | 1.4391264 | 1 | 152.75207 | 187.49878 | 10 | 14 | 3 | 2 | 1.4391264 | 0.73322955 | 1 | 144.99264 | 159.08329 | 10 | 10 | 5 | 8 | 2.2861669 | 3.5996846 | 1 | 192.83524 | 163.41289 | 11 | 11 | 1 | 4 | 0.39802277 | 2.1855207 | 1 | 188.56374 | 160.93957 | 11 | 11 | 0 | 9 | 0.34535018 | 3.6729407 | 1 | 217.86535 | 182.074 | 11 | 15 | 2 | 3 | 0.73322955 | 1.4391264 | 1 | 201.83114 | 187.49878 | 11 | 15 | 3 | 2 | 1.4391264 | 0.73322955 | 1 | 194.07172 | 159.08329 | 11 | 11 | 5 | 8 | 2.2861669 | 3.5996846 | 1 | 79.624041 | 206.15989 | 12 | 12 | 1 | 4 | 0.39802277 | 2.1855207 | 1 | 83.895541 | 208.63321 | 12 | 12 | 0 | 7 | 0.34535018 | 3.6729407 | 1 | 78.387566 | 210.48949 | 12 | 12 | 5 | 6 | 2.2861669 | 3.5996846 | 1 | 128.70311 | 206.15989 | 13 | 13 | 1 | 4 | 0.39802277 | 2.1855207 | 1 | 132.97461 | 208.63321 | 13 | 13 | 0 | 7 | 0.34535018 | 3.6729407 | 1 | 127.46664 | 210.48949 | 13 | 13 | 5 | 6 | 2.2861669 | 3.5996846 | 1 | 177.78218 | 206.15989 | 14 | 14 | 1 | 4 | 0.39802277 | 2.1855207 | 1 | 182.05368 | 208.63321 | 14 | 14 | 0 | 7 | 0.34535018 | 3.6729407 | 1 | 176.54571 | 210.48949 | 14 | 14 | 5 | 6 | 2.2861669 | 3.5996846 | 1 | 226.86126 | 206.15989 | 15 | 15 | 1 | 4 | 0.39802277 | 2.1855207 | 1 | 231.13276 | 208.63321 | 15 | 15 | 0 | 7 | 0.34535018 | 3.6729407 | 1 | 225.62478 | 210.48949 | 15 | 15 | 5 | 6 | 2.2861669 | 3.5996846 | 1" /><inkscape:path-effect
       effect="tiling"
       id="path-effect2514"
       is_visible="true"
       lpeversion="1"
       unit="px"
       seed="1;1"
       lpesatellites=""
       num_rows="4"
       num_cols="4"
       gapx="0"
       gapy="-37.102744"
       offset="50"
       offset_type="false"
       scale="0"
       rotate="0"
       mirrorrowsx="true"
       mirrorrowsy="true"
       mirrorcolsx="false"
       mirrorcolsy="false"
       mirrortrans="false"
       shrink_interp="false"
       split_items="false"
       link_styles="false"
       interpolate_scalex="false"
       interpolate_scaley="true"
       interpolate_rotatex="false"
       interpolate_rotatey="true"
       random_scale="false"
       random_rotate="false"
       random_gap_y="false"
       random_gap_x="false"
       transformorigin="" /><inkscape:path-effect
       effect="tiling"
       id="path-effect355"
       is_visible="true"
       lpeversion="1"
       unit="px"
       seed="1;1"
       lpesatellites=""
       num_rows="3"
       num_cols="3"
       gapx="0"
       gapy="-123.29428"
       offset="0"
       offset_type="false"
       scale="0"
       rotate="0"
       mirrorrowsx="true"
       mirrorrowsy="false"
       mirrorcolsx="false"
       mirrorcolsy="false"
       mirrortrans="false"
       shrink_interp="false"
       split_items="false"
       link_styles="false"
       interpolate_scalex="false"
       interpolate_scaley="true"
       interpolate_rotatex="false"
       interpolate_rotatey="true"
       random_scale="false"
       random_rotate="false"
       random_gap_y="false"
       random_gap_x="false"
       transformorigin="" /><pattern
       patternUnits="userSpaceOnUse"
       width="999.99999"
       height="999.99803"
       patternTransform="translate(0,200)"
       id="pattern29833"><path
         id="path27626"
         style="color:#000000;fill:#000000;stroke-width:3.77953;stroke-linecap:square;stroke-linejoin:round;-inkscape-stroke:none"
         d="M 575.00001,0 V 0.00195024 C 575.00001,41.71852 541.71817,75.00093 500.00194,75.00195 V 125 C 568.74009,124.9989 625.00195,68.740452 625.00195,0.00195024 L 625.00392,0 Z M 675,0 V 0.00195024 C 675,96.9467 596.94629,174.99695 500.00194,174.99804 v 50.0039 C 623.96821,225.00092 725.00001,123.96859 725.00001,0.00195024 V 0 Z M 775.00392,0 V 0.00195024 C 775.00392,152.17476 652.17449,274.99885 500.00194,274.99999 v 49.99804 c 44.30914,-1.9e-4 86.56619,-8.92909 125.08985,-25.0625 -10.62769,19.84309 -19.73034,40.61964 -27.14063,62.17969 -31.21508,8.40087 -64.04943,12.88657 -97.95115,12.88672 v -0.002 h -0.002 c -207.40124,0 -374.99894,-167.59714 -375,-374.99805976 H 75 C 75.000113,28.470043 77.835092,56.283213 83.193358,83.195312 56.284811,77.828349 28.46978,74.998046 0.00195312,74.998046 H 0 v 50.003904 h 0.00195312 c 33.90376488,0 66.74020588,4.48702 97.95703288,12.88867 7.409604,21.55784 16.508484,42.33261 27.134764,62.17384 C 86.570011,183.93019 44.311502,175 0.00195312,175 H 0 v 49.99805 H 0.00195312 C 152.1748,224.99805 274.99894,347.82744 275,499.99999 h -0.002 c 0.001,123.96646 101.03322,224.99807 225,224.99807 H 500 v -49.99805 h -0.002 c -96.94477,0 -174.99504,-78.05552 -174.9961,-175.00002 h -0.004 c -2.3e-4,-44.30911 -8.92911,-86.56808 -25.0625,-125.09178 19.84307,10.62769 40.61958,19.73034 62.17969,27.14063 8.40086,31.21508 12.88656,64.04943 12.88671,97.95115 H 375 c 10e-4,68.73826 56.25951,125.00197 124.99805,125.00197 h 0.002 v -50.0039 h -0.002 c -41.71661,0 -74.99894,-33.2818 -75,-74.99807 h 0.002 c -1.1e-4,-28.46737 -2.82935,-56.27974 -8.19534,-83.18748 26.91202,5.35827 54.72526,8.19141 83.19338,8.19141 h 0.002 v -0.004 c 28.46737,-1.2e-4 56.27974,-2.82932 83.18748,-8.1953 -5.35827,26.91197 -8.19141,54.72521 -8.19141,83.19337 v 0.002 h 0.004 c 0,41.71657 -33.28184,74.99898 -74.99807,75 v 49.99804 c 68.73815,-10e-4 125.00001,-56.25951 125.00001,-124.99804 l 0.002,-0.002 h -0.004 c 0,-207.40124 167.59714,-374.99895 374.99807,-375.00001 L 999.99999,75 c -28.46808,1.13e-4 -56.28125,2.835088 -83.19334,8.193358 5.36697,-26.908547 8.19727,-54.723579 8.19727,-83.19140776 V 0 h -50.00391 v 0.00195024 c 0,33.90376476 -4.48898,66.74020876 -12.89064,97.95703176 -21.55782,7.409638 -42.3326,16.508518 -62.17384,27.134768 C 816.06981,86.570045 825,44.311502 825,0.00195024 V 0 Z M 175.00195,0.00195024 C 175.00301,179.1966 320.80309,325.00196 499.99805,325.00196 h 0.002 v -49.99804 h -0.002 C 347.82503,275.00392 225.00106,152.17465 225,0.00195024 Z m 99.9961,0 c 0.001,123.96645976 101.03322,224.99805976 225,224.99805976 h 0.002 v -49.99806 h -0.002 c -96.94477,0 -174.99504,-78.055515 -174.9961,-174.99999976 z m 100.00195,0 C 375.00106,68.740188 431.25951,125.00391 499.99805,125.00391 h 0.002 V 75 h -0.002 c -41.71661,0 -74.99894,-33.281783 -75,-74.99804976 z M 999.99999,175.00195 c -179.19462,0.001 -325.00196,145.80115 -325.00196,324.99611 v 0.002 H 675 c 0,96.94476 -78.05371,174.99499 -174.99806,174.99609 v 50.00391 c 123.96627,-10e-4 224.99807,-101.03335 224.99807,-225 v -0.002 h -0.004 c 0,-152.17297 122.83121,-274.99691 275.00391,-274.99805 z m 0,99.99611 c -123.96643,10e-4 -225,101.03323 -225,225 v 0.002 h 0.004 c 0,152.17281 -122.82943,274.99691 -275.00198,274.99804 v 49.99805 c 44.30914,-1.9e-4 86.56619,-8.9291 125.08985,-25.0625 -10.62769,19.84309 -19.73034,40.61964 -27.14063,62.17969 -31.21508,8.40087 -64.04943,12.88656 -97.95115,12.88672 v -0.002 h -0.002 c -207.40124,0 -374.99894,-167.59714 -375,-374.99807 H 125 C 124.99894,431.26187 68.740456,374.99805 0.00195312,374.99805 H 0 v 50.0039 h 0.00195312 c 41.71656988,0 74.99894288,33.2818 75.00000088,74.99804 H 75 c 1.13e-4,28.46812 2.835092,56.28128 8.193358,83.19337 C 56.284811,577.82639 28.46978,574.99609 0.00195312,574.99609 H 0 V 625 h 0.00195312 c 33.90376488,0 66.74020588,4.48702 97.95703288,12.88868 7.409604,21.55782 16.508484,42.3326 27.134764,62.17383 C 86.570011,683.92824 44.311502,674.99805 0.00195312,674.99805 H 0 v 49.99804 H 0.00195312 C 152.1748,724.99609 274.99894,847.82549 275,999.99803 h 49.99805 c -2.3e-4,-44.30914 -8.92911,-86.56807 -25.0625,-125.09178 19.84307,10.6277 40.61958,19.73035 62.17969,27.14064 8.40086,31.21508 12.88656,64.04942 12.88671,97.95114 h 49.99806 c -1.1e-4,-28.46736 -2.82935,-56.27973 -8.19534,-83.18747 26.91202,5.35827 54.72526,8.1914 83.19338,8.1914 h 0.002 v -0.004 c 28.46737,-1.1e-4 56.27974,-2.82931 83.18748,-8.1953 -5.35827,26.91198 -8.19141,54.72522 -8.19141,83.19338 v 0.002 h 50.00391 v -0.002 c 0,-207.40124 167.59714,-374.99895 374.99807,-375 l 0.002,-49.99805 c -28.46808,1.1e-4 -56.28125,2.83506 -83.19334,8.19333 5.36697,-26.90853 8.19727,-54.72355 8.19727,-83.1914 v -0.002 h -0.004 c 0,-41.71661 33.28373,-74.99894 74.99997,-75 v -49.99805 c -68.7382,0.001 -125.00388,56.25952 -125.00388,124.99805 v 0.002 h 0.004 c 0,33.90376 -4.48898,66.74022 -12.89064,97.95704 -21.55782,7.40965 -42.3326,16.50852 -62.17384,27.13477 C 816.06981,586.5681 825,544.30954 825,499.99999 v -0.002 h -0.002 c 0,-96.94485 78.05556,-174.99504 175.00003,-174.9961 z M 0,275.00195 V 325 H 0.00195312 C 96.946662,325 174.99699,403.05567 174.99805,499.99999 h 0.004 c 0.001,179.19465 145.80114,325.00002 324.9961,325.00002 h 0.002 v -49.99805 h -0.002 C 347.82503,775.00196 225.00106,652.17269 225,499.99999 h 0.002 C 225.0009,376.03375 123.96859,275.00195 0.00195312,275.00195 Z m 999.99999,399.99806 c -179.19462,10e-4 -325.00196,145.80114 -325.00196,324.9961 v 0.002 h 49.99805 v -0.002 c 0,-152.17297 122.83121,-274.99692 275.00391,-274.99805 z m 0,99.9961 c -123.96643,10e-4 -225,101.03323 -225,225 v 0.002 h 49.99804 v -0.002 c 0,-96.94485 78.05556,-174.99504 175.00003,-174.9961 z M 0,775 v 49.99805 h 0.00195312 c 96.94470888,0 174.99503688,78.05567 174.99609688,174.99998 h 50.0039 C 225.0009,876.0318 123.96859,775 0.00195312,775 Z m 0,99.99609 V 925 H 0.00195312 C 41.718523,925 75.000896,958.2818 75.001954,999.99803 H 125 C 124.99894,931.25992 68.740456,874.99609 0.00195312,874.99609 Z m 999.99999,0.002 c -68.73823,10e-4 -125.00391,56.25951 -125.00391,124.99805 v 0.002 h 50.00391 v -0.002 c 0,-41.71662 33.28373,-74.99895 75,-75 z" /></pattern></defs><g
     inkscape:label="Layer 1"
     inkscape:groupmode="layer"
     id="layer1"><path
       id="rect31990"
       style="fill:url(#pattern31992);fill-opacity:1;stroke:#000000;stroke-width:7;stroke-linecap:square;stroke-linejoin:round;stroke-dasharray:none"
       d="m -395.42173,-29.859685 c -43.15617,0 -77.89963,34.7434695 -77.89963,77.899638 V 252.57476 c 0,43.15617 34.74346,77.89964 77.89963,77.89964 h 172.16469 c 43.15617,0 77.89912,-34.74347 77.89912,-77.89964 V 48.039953 c 0,-43.1561685 -34.74295,-77.899638 -77.89912,-77.899638 z M -407.6858,93.790269 h 143.30809 c 5.13285,0 9.26506,4.13222 9.26506,9.265071 v 75.25743 c 0,5.13285 -4.13221,9.26506 -9.26506,9.26506 H -407.6858 c -5.13285,0 -9.26507,-4.13221 -9.26507,-9.26506 v -75.25743 c 0,-5.132851 4.13222,-9.265071 9.26507,-9.265071 z"
       sodipodi:nodetypes="ssssssssssssssssss" /><g
       style="fill:#000000;fill-opacity:1;stroke:#000000;stroke-linecap:round;stroke-linejoin:round;stroke-opacity:1"
       id="g43456"
       transform="translate(26.433333,24.433333)" /><path
       id="path65668"
       style="color:#000000;fill:#000000;stroke-width:3.77953;stroke-linecap:square;stroke-linejoin:round;-inkscape-stroke:none"
       d="M 60.099691 154.01747 C 58.995123 154.01747 58.099813 154.9133 58.099813 156.01787 L 58.099813 156.28193 C 58.656862 155.39168 59.403181 154.61686 60.306913 154.01747 L 60.099691 154.01747 z M 62.664909 154.01747 C 62.529485 154.05651 62.393719 154.09257 62.259249 154.14098 L 62.259249 154.1415 C 60.056844 154.93443 58.549833 156.80138 58.099813 158.93965 L 58.099813 161.60719 C 58.160991 161.89726 58.235359 162.18664 58.338558 162.47329 C 58.697559 163.47043 58.57733 164.51779 58.099813 165.37182 L 58.099813 166.96914 C 59.385156 165.77593 59.911238 163.8839 59.281136 162.13377 L 59.280619 162.13377 C 58.247891 159.26534 59.729832 156.1163 62.598246 155.08356 C 65.46669 154.05083 68.615714 155.53277 69.648462 158.40118 C 70.48978 160.73794 73.079821 161.95653 75.416585 161.11523 C 77.753336 160.27391 78.972436 157.68385 78.131148 155.34711 L 78.130632 155.34711 C 77.972368 154.90752 77.87977 154.46159 77.835559 154.01747 L 76.83252 154.01747 C 76.878431 154.57523 76.990155 155.13551 77.18857 155.68662 C 77.846488 157.51402 76.904462 159.51472 75.077071 160.17265 L 75.077071 160.17317 C 73.249665 160.83109 71.248978 159.88906 70.59104 158.06167 C 70.29032 157.22645 69.835222 156.49089 69.269674 155.87421 C 69.715832 155.93991 70.168965 155.97021 70.625663 155.96361 C 70.995863 156.495 71.303538 157.08363 71.533618 157.72267 C 72.000118 159.01838 73.442366 159.69709 74.738074 159.23059 C 76.033785 158.76408 76.712492 157.32134 76.245992 156.02562 C 76.007065 155.36199 75.874702 154.68737 75.825863 154.01747 L 74.13811 154.01747 C 73.791049 154.20936 73.426909 154.37947 73.041536 154.51822 C 70.918419 155.2826 68.684217 155.02896 66.857418 154.01747 L 62.664909 154.01747 z M 78.842733 154.01747 C 78.882338 154.34904 78.955437 154.68099 79.07321 155.00811 L 79.073726 155.00811 C 80.106444 157.87656 78.624515 161.02507 75.756099 162.05781 C 72.88764 163.09053 69.738632 161.60914 68.705884 158.7407 C 67.864566 156.40395 65.274526 155.18483 62.93776 156.02614 C 60.601006 156.86743 59.381909 159.45749 60.223197 161.79426 L 60.223714 161.79426 C 61.100816 164.23047 60.159363 166.86418 58.099813 168.23676 L 58.099813 169.39948 C 58.588021 169.13922 59.037575 168.82838 59.433065 168.46569 C 59.367365 168.91185 59.337065 169.36498 59.343665 169.82168 C 58.958549 170.08996 58.542457 170.32398 58.099813 170.52086 L 58.099813 171.60348 C 58.570732 171.42218 59.018062 171.20519 59.436682 170.95287 C 59.518282 171.49653 59.653276 172.03992 59.846476 172.57655 C 60.129596 173.3629 59.728467 174.2163 58.942139 174.49943 C 58.659986 174.60101 58.369786 174.61146 58.099813 174.55059 L 58.099813 175.56448 C 58.486401 175.61759 58.890421 175.58268 59.281136 175.442 C 60.576834 174.97549 61.255544 173.53326 60.789054 172.23755 C 59.381518 168.32805 61.403327 164.0312 65.312809 162.62367 C 65.951889 162.39358 66.60161 162.25547 67.247058 162.20199 C 67.533018 162.55806 67.845376 162.88763 68.180334 163.18952 C 67.344666 163.14682 66.487563 163.26552 65.652323 163.56624 C 62.274521 164.78237 60.515516 168.52024 61.731632 171.89803 C 62.389552 173.72544 61.448036 175.72665 59.62065 176.38458 L 59.960164 177.32716 C 62.29691 176.48584 63.515509 173.89578 62.674211 171.55904 L 62.674211 171.55852 C 61.641483 168.69007 63.123422 165.54157 65.991838 164.50882 C 68.860282 163.4761 72.008798 164.9575 73.041536 167.82593 L 73.984115 167.48693 C 73.683395 166.65173 73.228278 165.91563 72.662748 165.29895 C 73.108888 165.36465 73.562555 165.39495 74.019255 165.38835 C 74.389453 165.91975 74.696613 166.50838 74.926693 167.14742 L 75.869271 166.80791 C 75.676071 166.2713 75.4337 165.76665 75.149935 165.29585 C 75.693588 165.21425 76.237507 165.07874 76.774125 164.88554 C 77.310735 164.69235 77.815408 164.44996 78.286178 164.16621 C 78.367776 164.70986 78.50329 165.25377 78.696488 165.7904 C 78.979608 166.57675 78.578499 167.42963 77.792151 167.71276 L 78.131148 168.65534 C 79.426826 168.18883 80.105555 166.7466 79.639067 165.45088 C 78.231529 161.5414 80.253339 157.24455 84.162821 155.837 L 84.163338 155.83752 C 84.802408 155.60743 85.451622 155.46932 86.09707 155.41584 C 86.38305 155.77192 86.695387 156.10148 87.030347 156.40337 C 86.194679 156.36067 85.337574 156.47937 84.502336 156.78009 L 84.502336 156.77958 C 81.124552 157.9957 79.365527 161.73356 80.581645 165.11137 C 81.239563 166.93877 80.29805 168.93998 78.470662 169.59792 C 76.643256 170.25583 74.642053 169.31432 73.984115 167.48693 L 73.041536 167.82645 C 73.882866 170.1632 76.472904 171.38179 78.80966 170.54049 C 81.146384 169.69919 82.365521 167.10914 81.524223 164.77237 C 80.491495 161.90392 81.973416 158.75488 84.84185 157.72216 C 87.710284 156.68943 90.858811 158.17137 91.891549 161.03978 C 92.732867 163.37654 95.322926 164.59563 97.659672 163.75435 L 97.320675 162.81177 C 95.493267 163.46969 93.492065 162.52816 92.834127 160.70079 C 92.533407 159.86556 92.07831 159.12946 91.51276 158.51281 C 91.95892 158.57851 92.412567 158.60881 92.869267 158.60221 C 93.239465 159.13358 93.546625 159.72223 93.776705 160.36127 C 94.243223 161.65698 95.685454 162.33569 96.98116 161.86919 C 98.276854 161.40268 98.955567 159.96045 98.489079 158.66473 C 97.928324 157.10723 97.919711 155.49076 98.350069 154.01747 L 96.598238 154.01747 C 96.048419 154.55695 95.379834 154.99309 94.606112 155.27166 C 92.545582 156.01351 90.344578 155.45265 88.882947 154.01747 L 87.547628 154.01747 C 89.222294 156.22727 92.202223 157.20176 94.945109 156.21424 L 94.945626 156.21424 C 95.780844 155.91353 96.516411 155.45843 97.133089 154.89287 C 97.067389 155.33904 97.037089 155.79217 97.043689 156.24886 C 96.512299 156.61906 95.923663 156.92674 95.284623 157.15682 C 91.867716 158.38699 88.155355 156.99722 86.334265 154.01747 L 85.188082 154.01747 C 85.270581 154.1762 85.356109 154.33289 85.447498 154.48463 C 84.903858 154.56613 84.360444 154.70174 83.823824 154.89494 L 83.823824 154.89442 C 83.287206 155.08762 82.782173 155.33011 82.311255 155.61376 C 82.231141 155.07935 82.098236 154.54519 81.910246 154.01747 L 80.871033 154.01747 C 80.893915 154.12185 80.921251 154.22599 80.958366 154.32908 C 81.188456 154.96816 81.326566 155.61788 81.380046 156.26333 C 81.023966 156.5493 80.694399 156.86165 80.392509 157.19661 C 80.435209 156.36094 80.316416 155.50381 80.015788 154.6686 C 79.938215 154.45313 79.884694 154.23529 79.850423 154.01747 L 78.842733 154.01747 z M 97.320675 162.81177 L 97.660189 163.75435 C 99.996919 162.91303 101.21552 160.32299 100.37424 157.98622 L 100.37424 157.98571 C 99.890237 156.6414 99.964303 155.23819 100.4688 154.01747 L 99.402201 154.01747 C 98.939034 155.36916 98.911156 156.8795 99.431657 158.32522 C 100.08958 160.15262 99.148057 162.15383 97.320675 162.81177 z M 78.131148 168.65534 L 77.791634 167.71276 C 77.005276 167.99587 76.152401 167.59476 75.869271 166.80842 L 74.926693 167.14742 C 75.393211 168.44313 76.835442 169.12183 78.131148 168.65534 z M 59.62065 176.38458 C 59.116123 176.56623 58.598909 176.62192 58.099813 176.57475 L 58.099813 177.57727 C 58.71313 177.62396 59.344943 177.54847 59.959648 177.32716 L 59.62065 176.38458 z M 90.545378 154.01747 C 91.645427 154.63054 92.992777 154.78769 94.266597 154.32908 C 94.503066 154.24394 94.724756 154.13635 94.937358 154.01747 L 90.545378 154.01747 z M 101.57985 154.01747 C 101.00828 155.10037 100.87079 156.40788 101.31681 157.64671 C 102.34953 160.51516 100.86763 163.66366 97.999186 164.69641 L 97.999186 164.69692 C 95.130746 165.72965 91.981719 164.24771 90.948971 161.3793 L 90.949487 161.3793 C 90.108179 159.04255 87.51811 157.82343 85.181364 158.66473 L 85.180847 158.66473 C 82.844113 159.50605 81.625493 162.09609 82.466801 164.43286 C 83.499529 167.30128 82.017608 170.45033 79.149174 171.48307 C 76.28072 172.5158 73.131686 171.03386 72.098958 168.16545 L 72.099475 168.16545 C 71.258157 165.8287 68.667591 164.6101 66.330835 165.4514 C 63.994079 166.29272 62.775481 168.88278 63.616789 171.21952 C 64.649497 174.08797 63.167596 177.23648 60.299162 178.26922 L 60.299162 178.26974 C 59.571081 178.53187 58.824848 178.63099 58.099813 178.58755 L 58.099813 179.58749 C 58.938883 179.63165 59.799885 179.51379 60.638676 179.2118 C 61.473894 178.91109 62.209978 178.45599 62.826656 177.89043 C 62.760956 178.3366 62.730139 178.79024 62.736739 179.24694 C 62.205351 179.61714 61.616713 179.9243 60.977673 180.15438 C 60.025388 180.49723 59.050659 180.63337 58.099813 180.59156 L 58.099813 181.5884 C 58.253688 181.59466 58.407489 181.60256 58.562317 181.60028 C 58.932517 182.13166 59.239675 182.71979 59.469755 183.35883 C 59.936275 184.65454 61.379041 185.33325 62.674727 184.86675 C 63.970435 184.40024 64.649144 182.95801 64.182646 181.6623 C 62.775108 177.7528 64.796917 173.45648 68.706401 172.04893 C 69.345489 171.81884 69.994673 171.68022 70.640133 171.62673 C 70.926101 171.98281 71.238449 172.3129 71.573409 172.61479 C 70.737751 172.57209 69.880626 172.69029 69.045398 172.99099 C 65.667624 174.20712 63.908619 177.94499 65.124707 181.32278 L 65.124707 181.3233 C 65.782625 183.1507 64.841111 185.1514 63.013725 185.80933 C 61.186319 186.46725 59.185632 185.52574 58.527694 183.69835 C 58.409934 183.37128 58.262281 183.06413 58.099813 182.76869 L 58.099813 185.0378 C 59.228384 186.6995 61.37915 187.46263 63.353239 186.75191 C 65.689965 185.91059 66.908593 183.32054 66.067285 180.98378 C 65.034557 178.11535 66.516478 174.96631 69.384912 173.93357 C 72.253356 172.90085 75.402395 174.38276 76.435128 177.2512 C 77.276446 179.58793 79.866485 180.80655 82.203251 179.96524 C 84.539997 179.12393 85.758607 176.53388 84.917297 174.19712 C 84.076026 171.86041 84.903689 169.33748 86.790051 167.92412 C 86.906711 167.36737 87.128035 166.8499 87.432906 166.39346 C 84.360521 167.77168 82.815538 171.31695 83.974719 174.53663 C 84.632639 176.36404 83.691123 178.36475 81.863737 179.02266 L 81.863737 179.02318 C 80.036351 179.6811 78.035127 178.73907 77.377189 176.91168 C 77.076469 176.07646 76.621371 175.34038 76.055823 174.7237 C 76.501981 174.7894 76.955631 174.82032 77.412329 174.81362 C 77.782529 175.34501 78.089687 175.93365 78.319767 176.57268 C 78.786287 177.86838 80.228515 178.5471 81.524223 178.0806 L 81.52474 178.0806 C 82.820446 177.61409 83.499156 176.17135 83.032658 174.87563 L 83.032141 174.87563 C 81.624605 170.96613 83.646434 166.66981 87.555896 165.26226 L 87.216899 164.31969 C 86.680279 164.51289 86.175259 164.75486 85.704329 165.03851 C 85.622831 164.49486 85.487217 163.95145 85.294019 163.41483 C 85.010909 162.62848 85.412535 161.77508 86.198873 161.49195 L 86.198873 161.49247 C 86.346313 161.43937 86.496374 161.41048 86.644324 161.40358 C 87.285452 161.37358 87.891713 161.75842 88.121753 162.39732 C 88.314953 162.93395 88.556932 163.43897 88.840572 163.90989 C 88.296934 163.99139 87.753507 164.12649 87.216899 164.31969 L 87.556413 165.26226 C 88.092952 165.0691 88.636451 164.94462 89.179053 164.87676 C 89.587345 164.68046 90.031451 164.54663 90.498869 164.48453 C 89.889472 163.79323 89.395919 162.97879 89.064331 162.05781 C 88.597813 160.76211 87.155593 160.08339 85.859875 160.54989 L 86.108956 161.24287 L 85.859359 160.54989 C 84.563661 161.0164 83.884952 162.45863 84.35144 163.75435 C 84.58153 164.39343 84.720157 165.04262 84.773637 165.68808 C 84.417567 165.97405 84.087473 166.28691 83.785583 166.62187 C 83.828283 165.78621 83.709582 164.92857 83.408862 164.09334 C 82.750944 162.26594 83.692975 160.26525 85.520361 159.60731 C 85.863001 159.48395 86.211614 159.41673 86.556474 159.40112 C 86.649873 159.3969 86.742896 159.39633 86.835527 159.39957 C 88.224988 159.44819 89.505742 160.32635 90.006909 161.71829 C 90.404709 162.82319 91.073569 163.75337 91.910152 164.46438 C 93.026781 164.56925 94.019162 165.08839 94.732719 165.86791 C 95.894241 166.12591 97.138888 166.07095 98.3387 165.63899 C 99.17392 165.33828 99.909999 164.88317 100.52668 164.31762 C 100.46098 164.76378 100.43016 165.21743 100.43676 165.67413 C 99.905375 166.0443 99.316736 166.35149 98.677698 166.58156 C 97.619221 166.96265 96.532725 167.09019 95.482544 166.99911 C 95.629893 167.32029 95.739871 167.66243 95.806555 168.02024 C 95.958097 168.02628 96.109878 168.02971 96.262341 168.02747 C 96.632541 168.55886 96.939701 169.14697 97.169779 169.78602 C 97.636299 171.08172 99.079053 171.76043 100.37475 171.29394 C 101.67046 170.82743 102.34917 169.3852 101.88267 168.08948 C 100.47513 164.18 102.49696 159.88365 106.40642 158.47611 C 107.04551 158.24604 107.6947 158.1074 108.34016 158.05392 C 108.62613 158.41 108.93847 158.74008 109.27343 159.04197 C 108.43777 158.99927 107.58065 159.11747 106.74542 159.41818 C 103.36765 160.6343 101.60863 164.37216 102.82473 167.74997 L 102.82473 167.75048 C 103.48265 169.57789 102.54113 171.57858 100.71375 172.23652 C 98.886339 172.89441 96.885646 171.95292 96.227718 170.12553 C 96.129202 169.85191 96.012628 169.59013 95.88252 169.3385 L 95.88252 171.58953 C 97.032007 173.16607 99.128102 173.87221 101.05326 173.17909 C 103.39 172.33778 104.60862 169.74773 103.76731 167.41097 C 102.73458 164.54252 104.21651 161.3935 107.08494 160.36075 C 109.95337 159.32805 113.10241 160.80995 114.13515 163.67838 C 114.50657 164.70998 115.21909 165.52268 116.09989 166.03741 L 116.09989 164.81836 C 115.65152 164.43536 115.29202 163.93548 115.07721 163.33887 C 114.77649 162.50365 114.3214 161.76757 113.75585 161.15089 C 114.20201 161.21659 114.65565 161.2474 115.11235 161.2408 C 115.48255 161.77219 115.78971 162.36082 116.01979 162.99987 C 116.04345 163.06558 116.07136 163.12861 116.09989 163.19107 L 116.09989 160.15663 C 112.62245 160.68559 109.15189 158.70843 107.91434 155.27114 C 107.72089 154.73385 107.35822 154.30491 106.90924 154.01747 L 104.20139 154.01747 C 103.24671 154.63538 102.80073 155.85463 103.20145 156.96768 L 103.20145 156.9682 C 103.43153 157.60728 103.57017 158.25648 103.62365 158.90193 C 103.26758 159.1879 102.93749 159.50025 102.6356 159.83521 C 102.6783 158.99954 102.56009 158.14243 102.25939 157.30719 C 101.84341 156.1518 102.06839 154.92824 102.75083 154.01747 L 101.57985 154.01747 z M 108.36393 154.01747 C 108.56704 154.28969 108.73563 154.59526 108.85692 154.93215 C 109.94347 157.95002 113.04268 159.66882 116.09989 159.13499 L 116.09989 158.11593 C 113.45161 158.66961 110.74239 157.21294 109.79898 154.59263 L 109.7995 154.59263 C 109.72702 154.39133 109.63724 154.20157 109.54008 154.01747 L 108.36393 154.01747 z M 110.64286 154.01747 C 110.67536 154.09627 110.71238 154.17208 110.74156 154.25312 L 111.39682 154.01747 L 110.64286 154.01747 z M 111.39682 154.01747 L 110.74156 154.25363 C 111.534 156.45461 113.87756 157.66215 116.09989 157.09222 L 116.09989 156.04681 C 114.32742 156.64378 112.41368 155.75228 111.72703 154.01747 L 111.39733 154.01747 L 111.39682 154.01747 z M 112.83807 154.01747 C 113.4415 155.01763 114.69264 155.49243 115.83117 155.08252 C 115.84145 155.07882 115.85094 155.07395 115.86115 155.07012 C 115.8348 155.02126 115.80555 154.97432 115.77536 154.92801 L 115.77536 154.92749 C 115.57985 154.62768 115.30619 154.38417 114.98316 154.22469 C 114.7157 154.22579 114.45895 154.15504 114.23282 154.02419 C 114.18875 154.02129 114.14482 154.01747 114.10001 154.01747 L 112.83807 154.01747 z M 105.61423 154.61589 C 106.20991 154.63579 106.7561 155.01169 106.97177 155.61066 C 107.16495 156.14728 107.40694 156.6523 107.69058 157.12323 C 107.14693 157.20473 106.60352 157.34034 106.06691 157.53354 C 105.53029 157.72674 105.02527 157.96871 104.55434 158.25236 C 104.47284 157.70871 104.33723 157.1653 104.14403 156.62868 C 103.86092 155.84233 104.26255 154.98893 105.04889 154.7058 C 105.19631 154.6527 105.34639 154.62382 105.49434 154.61692 C 105.53444 154.61492 105.57454 154.61489 105.61423 154.61589 z M 74.893103 154.74146 C 74.974703 155.28511 75.110214 155.82851 75.303414 156.36513 C 75.586529 157.15149 75.184898 158.00489 74.39856 158.28801 C 73.6122 158.57112 72.758808 158.1695 72.47568 157.38316 C 72.28248 156.84655 72.04062 156.34138 71.75686 155.87059 C 72.30052 155.78899 72.843904 155.65398 73.380534 155.4608 L 73.380534 155.46028 C 73.917132 155.26708 74.422303 155.02522 74.893103 154.74146 z M 64.48547 156.75891 C 65.915746 156.76491 67.249296 157.65205 67.763306 159.0797 C 68.979432 162.45748 72.717298 164.2165 76.095097 163.00039 C 76.930315 162.69968 77.666399 162.24457 78.283077 161.67902 C 78.217377 162.12519 78.187077 162.57883 78.193677 163.03553 C 77.662287 163.40572 77.073649 163.71289 76.434611 163.94296 C 72.525104 165.3505 68.228284 163.3287 66.820728 159.41921 C 66.354208 158.12351 64.91198 157.4448 63.616272 157.91129 C 62.320574 158.3778 61.641854 159.82003 62.108354 161.11575 C 62.338442 161.75483 62.476553 162.40454 62.530033 163.05 C 62.173955 163.33597 61.844385 163.64831 61.542497 163.98327 C 61.585197 163.14761 61.466454 162.29049 61.165776 161.45526 C 60.507856 159.62786 61.449887 157.62665 63.277275 156.96871 C 63.677013 156.82479 64.08499 156.75721 64.48547 156.75891 z M 97.136707 157.38006 C 97.218305 157.92371 97.353301 158.46711 97.546501 159.00373 C 97.829615 159.79009 97.428501 160.64348 96.642163 160.92661 C 95.855805 161.20972 95.002413 160.8081 94.719283 160.02176 C 94.526083 159.48515 94.284224 158.97998 94.000464 158.50919 C 94.544112 158.42759 95.087519 158.29259 95.624137 158.09939 L 95.624137 158.09888 C 96.160747 157.90568 96.665917 157.66382 97.136707 157.38006 z M 64.52061 158.76344 C 65.116358 158.78334 65.663006 159.15924 65.878666 159.75821 L 65.878666 159.75872 C 66.071866 160.29535 66.313847 160.80037 66.597485 161.27129 C 66.053837 161.35279 65.51043 161.48789 64.973812 161.68109 C 64.437192 161.87429 63.932161 162.11678 63.461243 162.40042 C 63.379743 161.85678 63.244132 161.31285 63.050932 160.77623 C 62.767822 159.98988 63.169448 159.137 63.955786 158.85387 C 64.103226 158.80077 64.25277 158.77137 64.40072 158.76447 C 64.44079 158.76247 64.48089 158.76244 64.52061 158.76344 z M 109.11117 161.0403 C 108.99215 161.03589 108.87245 161.03616 108.75253 161.04133 C 108.30979 161.06045 107.86259 161.14559 107.42445 161.30333 C 105.0877 162.14465 103.86859 164.73469 104.70989 167.07146 C 105.74261 169.93988 104.2612 173.08893 101.39278 174.12167 L 101.39226 174.12167 C 99.431206 174.82771 97.339804 174.35783 95.88252 173.07367 L 95.88252 174.32993 C 97.546411 175.45111 99.70378 175.79439 101.73177 175.06425 C 102.56699 174.76354 103.30308 174.30844 103.91976 173.74288 C 103.85406 174.18905 103.82375 174.64218 103.83035 175.09887 C 103.29898 175.46907 102.71033 175.77676 102.07129 176.00683 C 99.947164 176.77157 97.70979 176.52238 95.88252 175.5097 L 95.88252 176.78869 C 97.138544 177.39257 98.167438 178.47111 98.678215 179.88979 L 98.678731 179.88979 L 99.620793 179.55028 C 99.320073 178.71505 98.864976 177.9795 98.299426 177.36282 C 98.745586 177.42852 99.198716 177.45892 99.655416 177.45222 C 100.02562 177.98361 100.33329 178.57223 100.56337 179.21128 C 101.02989 180.50699 102.47264 181.1857 103.76834 180.7192 C 105.06404 180.25269 105.74275 178.81044 105.27626 177.51475 L 105.27574 177.51475 L 105.27574 177.51423 C 103.86822 173.60473 105.89002 169.30841 109.7995 167.90086 C 110.43858 167.67078 111.0883 167.53267 111.73375 167.47918 C 112.01973 167.83526 112.33208 168.16483 112.66702 168.46672 C 111.83137 168.42402 110.97425 168.54272 110.13901 168.84344 C 106.76122 170.05957 105.0022 173.79744 106.21832 177.17523 L 107.1609 176.83572 C 106.12817 173.96728 107.60958 170.81876 110.47801 169.78602 C 112.49087 169.06133 114.63893 169.5781 116.09989 170.93995 L 116.09989 169.30594 C 113.95086 168.62133 112.13202 166.98672 111.30742 164.69641 C 110.84091 163.4007 109.39867 162.72199 108.10296 163.18849 C 106.80727 163.655 106.12854 165.09725 106.59504 166.39294 C 106.82513 167.03203 106.96324 167.68122 107.01672 168.32668 C 106.66064 168.61265 106.33108 168.92551 106.02919 169.26047 C 106.07189 168.42481 105.95319 167.56769 105.65247 166.73246 C 104.99455 164.90506 105.93606 162.90385 107.76345 162.24591 C 108.16318 162.10199 108.57116 162.03441 108.97164 162.0361 C 110.40192 162.0421 111.73598 162.92925 112.25 164.35689 C 112.92311 166.22648 114.37034 167.59676 116.09989 168.24451 L 116.09989 167.16912 C 114.79358 166.5765 113.71833 165.47814 113.19257 164.0179 L 113.19257 164.01738 C 112.55173 162.23743 110.89647 161.10647 109.11117 161.0403 z M 106.21832 177.17523 C 106.87624 179.00263 105.93473 181.00384 104.10734 181.66178 C 102.27993 182.3197 100.27925 181.37819 99.621309 179.5508 L 98.678731 179.88979 C 99.520059 182.22654 102.11011 183.44566 104.44685 182.60436 C 106.78359 181.76304 108.0022 179.173 107.1609 176.83623 L 106.21832 177.17523 z M 109.0073 164.04063 C 109.603 164.06053 110.14917 164.43645 110.36484 165.0354 C 110.55804 165.57203 110.80054 166.07705 111.08418 166.54797 C 110.54053 166.62947 109.99659 166.76509 109.45999 166.95828 C 108.92337 167.15149 108.41834 167.39346 107.94742 167.6771 C 107.86592 167.13346 107.73082 166.59005 107.53762 166.05343 C 107.25451 165.26708 107.65562 164.41419 108.44196 164.13107 L 108.44248 164.13107 C 108.58992 164.07797 108.73947 164.04857 108.88741 164.04167 C 108.92751 164.03967 108.96761 164.03963 109.0073 164.04063 z M 67.878544 166.18417 C 69.308832 166.19017 70.642887 167.07731 71.156897 168.50496 C 72.373025 171.88276 76.110886 173.64176 79.488688 172.42565 L 79.488688 172.42513 C 80.323886 172.12443 81.059472 171.66932 81.676152 171.10377 C 81.610452 171.54993 81.580151 172.00358 81.586751 172.46027 C 81.055363 172.83047 80.466724 173.13763 79.827686 173.36771 C 75.918212 174.77525 71.621855 172.75342 70.214319 168.84396 C 69.747799 167.54826 68.305581 166.86954 67.009863 167.33604 C 65.714167 167.80255 65.03494 169.24479 65.501428 170.54049 L 65.501428 170.54101 C 65.731498 171.1801 65.870145 171.82929 65.923625 172.47474 C 65.567555 172.76072 65.237461 173.07306 64.935571 173.40802 C 64.978271 172.57236 64.860047 171.71524 64.559367 170.88001 C 63.901449 169.05261 64.842963 167.05191 66.670349 166.39398 L 66.670349 166.39346 C 67.070089 166.24954 67.478066 166.18248 67.878544 166.18417 z M 100.52978 166.80532 C 100.61138 167.34897 100.74689 167.89237 100.94009 168.429 C 101.2232 169.21533 100.82158 170.06875 100.03524 170.35188 C 99.248883 170.63499 98.395486 170.23336 98.112358 169.44702 C 97.919158 168.91042 97.677294 168.40525 97.393538 167.93445 C 97.937184 167.85285 98.480592 167.71734 99.017212 167.52414 C 99.55381 167.33094 100.05898 167.08908 100.52978 166.80532 z M 67.914201 168.1887 C 68.509899 168.2086 69.056071 168.5845 69.271741 169.18347 C 69.464941 169.72009 69.70692 170.22511 69.99056 170.69604 C 69.44691 170.77754 68.903496 170.91316 68.366886 171.10635 C 67.830268 171.29955 67.325247 171.54153 66.854317 171.82517 C 66.772817 171.28152 66.637206 170.73812 66.444006 170.2015 C 66.160898 169.41514 66.562521 168.56175 67.348861 168.27862 C 67.496301 168.22552 67.646362 168.19663 67.794312 168.18973 C 67.83438 168.18773 67.874481 168.1877 67.914201 168.1887 z M 86.695483 169.38139 C 85.666578 170.57454 85.28971 172.27395 85.859875 173.8576 L 85.859875 173.85812 C 86.892263 176.72644 85.410513 179.87513 82.542249 180.90782 C 79.673793 181.94055 76.525298 180.45915 75.49255 177.59071 L 75.49255 177.59019 C 74.651225 175.25347 72.061192 174.03485 69.724426 174.87615 C 67.387692 175.71747 66.168555 178.30751 67.009863 180.64427 C 68.042581 183.51272 66.561187 186.66174 63.692753 187.69449 L 63.692236 187.69449 C 61.69321 188.41419 59.559969 187.91003 58.099813 186.56897 L 58.099813 187.84125 C 59.774802 189.00867 61.969024 189.37971 64.03175 188.63706 C 64.86697 188.33636 65.603051 187.88125 66.219731 187.3157 C 66.154031 187.76186 66.12373 188.21499 66.13033 188.67169 C 65.598942 189.04188 65.010303 189.34957 64.371265 189.57964 C 62.214656 190.35609 59.942135 190.08478 58.099813 189.03291 L 58.099813 190.32378 C 59.393145 190.91958 60.456299 192.01305 60.97819 193.46261 L 60.978707 193.46261 L 61.920768 193.1231 C 61.62005 192.28787 61.16495 191.55231 60.599402 190.93563 C 61.04556 191.00133 61.498693 191.03173 61.955391 191.02503 C 62.325591 191.55642 62.633268 192.14505 62.863346 192.7841 C 63.329866 194.0798 64.772621 194.75852 66.068319 194.29202 C 67.364005 193.82551 68.042727 192.38328 67.576237 191.08756 L 67.57572 191.08756 L 67.57572 191.08704 C 66.168184 187.17755 68.190013 182.88123 72.099475 181.47368 C 72.738553 181.24359 73.388276 181.10548 74.033724 181.052 C 74.319704 181.40808 74.632042 181.73765 74.967 182.03953 C 74.131332 181.99683 73.274227 182.11553 72.438989 182.41626 C 69.061187 183.63236 67.302182 187.37023 68.518298 190.74805 L 69.460876 190.40853 C 68.428148 187.54011 69.909573 184.39158 72.777987 183.35883 C 75.646436 182.32611 78.795464 183.80753 79.828202 186.67594 L 80.77078 186.33695 C 80.470062 185.50172 80.014962 184.76565 79.449414 184.14897 C 79.895574 184.21467 80.348704 184.24497 80.805404 184.23837 C 81.175602 184.76976 81.483279 185.35839 81.713359 185.99743 L 82.65542 185.65792 C 82.46222 185.12131 82.220359 184.61666 81.936601 184.14587 C 82.480249 184.06427 83.023656 183.92874 83.560274 183.73556 C 84.096884 183.54236 84.602055 183.29998 85.072843 183.01622 C 85.154443 183.55987 85.289954 184.10327 85.483154 184.63989 L 85.483154 184.64041 L 85.483671 184.64041 C 85.766791 185.42676 85.365165 186.27965 84.578817 186.56277 C 83.792459 186.84588 82.939065 186.44476 82.655937 185.65844 L 81.713359 185.99743 C 82.179877 187.29314 83.622106 187.97185 84.917814 187.50535 C 86.213512 187.03884 86.892739 185.59659 86.426249 184.3009 L 86.425732 184.3009 C 85.72154 182.34497 85.875993 180.29192 86.695483 178.55241 L 86.695483 173.16411 C 86.555883 172.59847 86.56319 172.02594 86.695483 171.48979 L 86.695483 169.38139 z M 80.77078 186.33695 L 79.828202 186.67646 C 80.66953 189.01321 83.260088 190.23182 85.596842 189.39051 C 87.152689 188.83035 88.211979 187.49492 88.498474 185.97521 C 88.147345 185.71927 87.834967 185.41337 87.573983 185.06622 C 87.611286 186.53518 86.719195 187.92159 85.257328 188.44793 C 83.429932 189.10585 81.42872 188.16432 80.77078 186.33695 z M 68.518298 190.74805 C 69.176208 192.57546 68.234702 194.57669 66.407316 195.23459 C 64.57991 195.8925 62.579223 194.951 61.921285 193.12361 L 60.978707 193.46261 C 61.820035 195.79936 64.410076 197.01846 66.74683 196.17717 C 69.083556 195.33585 70.302176 192.74581 69.460876 190.40905 L 68.518298 190.74805 z M 112.36627 170.46195 C 111.85183 170.45895 111.32867 170.54455 110.81753 170.7286 L 110.81753 170.72808 C 108.48077 171.5694 107.26166 174.15995 108.10296 176.49672 L 108.10348 176.49672 C 109.1362 179.36517 107.6548 182.51419 104.78637 183.54694 L 104.78585 183.54694 C 101.9174 184.57966 98.768901 183.09775 97.736153 180.22931 L 97.735636 180.22931 L 96.793575 180.56882 C 98.009689 183.94662 101.74757 185.70511 105.12537 184.489 C 105.96059 184.18829 106.69667 183.73319 107.31335 183.16763 C 107.24765 183.6138 107.21735 184.06744 107.22395 184.52414 C 106.69256 184.89433 106.10392 185.2015 105.46488 185.43158 C 101.58286 186.8292 97.320342 184.84455 95.88252 180.98895 L 95.88252 182.42452 C 95.88252 182.89377 95.808824 183.34533 95.673747 183.76863 C 95.875055 183.73535 96.076397 183.70725 96.277327 183.6906 C 96.563297 184.04668 96.875654 184.37676 97.210604 184.67865 C 96.51635 184.64317 95.807438 184.72044 95.108407 184.91946 C 94.426426 185.90876 93.348696 186.60118 92.099805 186.7731 C 90.514057 188.50153 89.913806 191.03101 90.761902 193.38665 C 91.41982 195.21403 90.477789 197.21475 88.650403 197.87268 L 88.650403 197.87319 C 86.822997 198.53111 84.82231 197.58908 84.164372 195.76169 C 83.863652 194.92649 83.408555 194.19091 82.843005 193.57423 C 83.289165 193.63993 83.742295 193.67023 84.198995 193.66363 C 84.569195 194.19502 84.87687 194.78366 85.10695 195.4227 C 85.573458 196.71841 87.015699 197.3971 88.311405 196.93062 C 89.607113 196.46411 90.285822 195.02136 89.819324 193.72564 C 88.948881 191.30796 89.390991 188.74297 90.778955 186.8041 C 90.299317 186.77111 89.841086 186.66205 89.416764 186.48836 C 88.985754 188.2077 87.733252 189.68595 85.93584 190.33309 C 83.067386 191.36579 79.918889 189.8839 78.886141 187.01546 L 78.885624 187.01546 C 78.228346 185.18987 76.503586 184.04641 74.666243 184.03476 C 74.151795 184.03176 73.628659 184.11736 73.117501 184.30141 L 73.117501 184.3009 C 70.780745 185.14219 69.56165 187.73277 70.402938 190.06954 L 70.403455 190.06954 C 71.436183 192.93796 69.95478 196.087 67.086344 197.11975 L 67.085828 197.11975 C 64.217394 198.15247 61.068867 196.67056 60.036129 193.80212 L 60.035612 193.80212 L 59.093551 194.14164 C 60.309667 197.51942 64.047538 199.27792 67.425342 198.06181 C 68.26056 197.7611 68.996644 197.30601 69.613322 196.74045 C 69.547622 197.18661 69.517322 197.64025 69.523922 198.09695 C 68.992532 198.46715 68.403894 198.77431 67.764856 199.00439 C 63.855384 200.41192 59.55853 198.39009 58.150972 194.48064 C 58.136762 194.44116 58.115805 194.40629 58.099813 194.36798 L 58.099813 197.31871 C 58.259054 197.29516 58.418354 197.27658 58.577303 197.26341 C 58.863273 197.61949 59.175631 197.94959 59.510579 198.25146 C 59.044528 198.22765 58.571703 198.2598 58.099813 198.33983 L 58.099813 199.35889 C 60.427786 198.88516 62.792976 199.9639 63.964571 202.01764 L 65.092668 202.01764 C 64.806551 201.39938 64.43506 200.84241 63.992993 200.36038 C 64.439153 200.42608 64.892283 200.4569 65.348983 200.4503 C 65.681522 200.92763 65.96026 201.45297 66.180973 202.01764 L 67.269796 202.01764 C 67.24599 201.96864 67.218427 201.92237 67.199516 201.86985 C 67.006316 201.33324 66.76393 200.82806 66.48018 200.35728 C 67.023828 200.27568 67.567225 200.14017 68.103853 199.94697 C 68.640453 199.75377 69.145623 199.51191 69.616423 199.22815 C 69.698021 199.7718 69.833535 200.3152 70.026733 200.85182 C 70.170515 201.25119 70.135895 201.66718 69.965755 202.01764 L 71.024605 202.01764 C 71.156713 201.53715 71.149944 201.01402 70.969312 200.51231 C 69.561774 196.6028 71.583599 192.30649 75.493066 190.89894 C 76.132156 190.66885 76.781857 190.53024 77.427315 190.47675 C 77.713285 190.83283 78.025632 191.16291 78.360592 191.4648 C 77.524932 191.4221 76.667809 191.5403 75.832581 191.841 L 75.832581 191.84152 C 72.454782 193.05764 70.695792 196.7955 71.91189 200.17331 C 72.133209 200.78803 72.169572 201.42141 72.056067 202.01764 L 73.070475 202.01764 C 73.177029 201.30503 73.114942 200.55727 72.854468 199.8338 L 72.853951 199.8338 C 71.821223 196.96534 73.303159 193.81631 76.171578 192.78358 C 79.040022 191.75086 82.189046 193.23277 83.221794 196.10121 C 84.063112 198.43795 86.653161 199.65655 88.989917 198.81525 C 91.326663 197.97395 92.545778 195.38389 91.70448 193.04713 L 91.703963 193.04713 C 90.671235 190.17868 92.153156 187.03018 95.02159 185.99743 C 97.89002 184.96471 101.03906 186.44663 102.07181 189.31506 C 102.91311 191.65181 105.50316 192.8704 107.83993 192.02911 C 110.17667 191.1878 111.3958 188.59774 110.55449 186.26098 L 110.55398 186.26098 C 109.52125 183.39255 111.00319 180.24351 113.8716 179.21077 C 114.60961 178.94506 115.36555 178.84857 116.09989 178.89657 L 116.09989 176.49982 C 115.50864 175.81819 115.02542 175.02272 114.70101 174.12167 L 113.75843 174.46067 C 113.95163 174.99729 114.19413 175.50231 114.47777 175.97324 C 113.93412 176.05464 113.39019 176.19035 112.85358 176.38355 C 112.31696 176.57675 111.81194 176.81873 111.34101 177.10237 C 111.25951 176.55872 111.12441 176.01531 110.93121 175.47869 L 110.9307 175.47869 L 109.98864 175.81821 C 110.21873 176.45729 110.35683 177.10649 110.41031 177.75194 C 110.05426 178.03791 109.72467 178.35026 109.42278 178.68522 C 109.46548 177.84955 109.34679 176.99244 109.04606 176.15721 L 109.04554 176.15721 C 108.38762 174.3298 109.32965 172.32859 111.15704 171.67066 C 111.49968 171.5473 111.84832 171.48004 112.19315 171.46447 C 113.68741 171.39697 115.10849 172.29741 115.64307 173.78216 L 115.64359 173.78216 C 115.76824 174.12838 115.92535 174.45274 116.09989 174.76349 L 116.09989 172.47733 C 115.26664 171.22309 113.8536 170.47137 112.36627 170.46195 z M 110.9307 175.47869 C 110.64759 174.69236 111.04921 173.83894 111.83555 173.55581 C 112.62191 173.27271 113.4753 173.67433 113.75843 174.46067 L 114.70049 174.12115 C 114.33603 173.1089 113.37635 172.47321 112.35593 172.46596 C 112.07021 172.46396 111.77948 172.51116 111.49604 172.61324 C 110.20035 173.07975 109.52163 174.52197 109.98812 175.81769 L 110.9307 175.47869 z M 60.035612 193.80212 C 59.66829 192.78191 58.967248 191.9753 58.099813 191.45963 L 58.099813 192.6854 C 58.534709 193.06511 58.882824 193.55728 59.093034 194.14112 L 60.035612 193.80212 z M 97.735636 180.22931 C 97.380204 179.2421 96.711276 178.45669 95.88252 177.93953 L 95.88252 179.18855 C 96.278441 179.55735 96.596463 180.02227 96.793058 180.56831 L 97.735636 180.22931 z M 81.679769 173.59147 C 81.761369 174.13513 81.896363 174.67853 82.089563 175.21514 L 82.09008 175.21514 C 82.373188 176.00149 81.971565 176.85491 81.185225 177.13802 C 80.398867 177.42112 79.545475 177.01951 79.262345 176.23317 C 79.069147 175.69656 78.827286 175.19139 78.543526 174.7206 C 79.087186 174.639 79.63057 174.50349 80.1672 174.31029 C 80.703798 174.11709 81.208969 173.87523 81.679769 173.59147 z M 71.271619 175.60892 C 72.701885 175.61492 74.035952 176.50206 74.549972 177.92971 C 75.766103 181.30749 79.503949 183.06651 82.881763 181.8504 C 83.716981 181.54969 84.453063 181.09459 85.069743 180.52903 C 85.004043 180.9752 84.973226 181.42833 84.979826 181.88502 C 84.448436 182.25522 83.860315 182.5629 83.221277 182.79298 C 79.311795 184.20051 75.014951 182.17871 73.607393 178.26922 C 73.140875 176.97352 71.698646 176.29481 70.402938 176.7613 C 69.10726 177.22782 68.42852 178.67004 68.89502 179.96576 C 69.125108 180.60484 69.263219 181.25404 69.316699 181.89949 C 68.960621 182.18547 68.631051 182.49833 68.329163 182.83328 C 68.371863 181.99764 68.253121 181.1405 67.952441 180.30527 C 67.294523 178.47789 68.236036 176.47664 70.063424 175.81873 C 70.463162 175.67481 70.871139 175.60723 71.271619 175.60892 z M 103.92286 176.23007 C 104.00446 176.77372 104.13997 177.31712 104.33317 177.85374 L 104.33368 177.85374 L 104.33368 177.85426 C 104.6168 178.64061 104.21518 179.4935 103.42883 179.77662 C 102.64247 180.05973 101.78908 179.65811 101.50595 178.87177 C 101.31275 178.33518 101.07037 177.82999 100.78661 177.3592 C 101.33025 177.2776 101.87367 177.14261 102.41029 176.94941 L 102.41029 176.94889 L 102.4108 176.94889 C 102.94724 176.75572 103.4522 176.51374 103.92286 176.23007 z M 115.12734 176.90393 C 115.41331 177.26001 115.72566 177.59009 116.06062 177.89198 C 115.22496 177.84928 114.36783 177.96748 113.5326 178.26819 L 113.5326 178.26871 C 110.15483 179.48481 108.39583 183.22268 109.61191 186.6005 C 110.26983 188.42788 109.32832 190.42859 107.50093 191.08653 C 105.67352 191.74445 103.67232 190.80291 103.01438 188.97555 C 102.71367 188.14032 102.25857 187.40423 101.69302 186.78757 C 102.13918 186.85327 102.59231 186.88408 103.04901 186.87748 C 103.41921 187.40887 103.72688 187.99699 103.95696 188.63603 C 104.42348 189.93173 105.86572 190.61098 107.16142 190.14447 L 107.16142 190.14395 C 108.45713 189.67744 109.13584 188.23521 108.66934 186.93949 C 107.2618 183.03001 109.28361 178.73368 113.19309 177.32613 C 113.83218 177.09604 114.48188 176.95741 115.12734 176.90393 z M 71.307275 177.61345 C 71.902975 177.63335 72.449155 178.00925 72.664815 178.60822 C 72.858015 179.14484 73.100511 179.64986 73.384151 180.12079 C 72.840503 180.20219 72.296579 180.3379 71.759961 180.5311 C 71.223341 180.7243 70.71831 180.96628 70.247392 181.24992 C 70.165892 180.70627 70.030796 180.16284 69.837598 179.62625 C 69.554488 178.83989 69.955597 177.98701 70.741935 177.70388 L 70.742452 177.70388 C 70.889892 177.65078 71.039446 177.62138 71.187386 177.61448 C 71.227456 177.61248 71.267565 177.61245 71.307275 177.61345 z M 115.82032 179.88979 C 115.72689 179.88695 115.63333 179.88729 115.5392 179.89135 C 115.09645 179.91043 114.64926 179.9956 114.21112 180.15334 C 111.87437 180.99466 110.65525 183.5847 111.49655 185.92147 L 111.49707 185.92147 C 112.52979 188.78992 111.04788 191.93895 108.17944 192.97168 C 105.31101 194.00441 102.16198 192.52246 101.12923 189.65406 C 100.28792 187.31731 97.697856 186.09871 95.361104 186.94001 L 95.361104 186.93949 C 93.02435 187.78081 91.805233 190.37139 92.646541 192.70813 L 92.647058 192.70813 C 93.679766 195.57658 92.197855 198.72509 89.329431 199.75783 C 86.460977 200.79056 83.311963 199.30916 82.279215 196.44072 C 81.437897 194.10398 78.847858 192.88486 76.511092 193.72616 C 74.174331 194.56748 72.955231 197.15754 73.796529 199.49428 L 73.797046 199.49428 C 74.098568 200.33178 74.179873 201.19197 74.08075 202.01764 L 76.186564 202.01764 C 76.933115 201.28932 77.83929 200.70059 78.886141 200.32369 C 79.525219 200.0936 80.17494 199.95549 80.82039 199.90201 C 81.10636 200.2581 81.418708 200.58766 81.753666 200.88955 C 80.917998 200.84685 80.060893 200.96555 79.225655 201.26627 C 78.697029 201.45659 78.213545 201.71484 77.769413 202.01764 L 80.241614 202.01764 C 81.049373 201.83734 81.862905 201.84529 82.633199 202.01764 L 86.454154 202.01764 C 83.76931 201.65347 81.376922 199.84914 80.394059 197.11923 C 79.927541 195.82356 78.48531 195.14482 77.189604 195.61132 C 75.893906 196.07784 75.215182 197.52004 75.681685 198.81577 C 75.911775 199.45485 76.049885 200.10456 76.103365 200.75002 C 75.747285 201.03599 75.417718 201.34835 75.115828 201.6833 C 75.158528 200.84763 75.039827 199.99051 74.739107 199.15529 C 74.081189 197.32789 75.023225 195.32667 76.850606 194.66874 C 77.250346 194.52482 77.658323 194.45723 78.058801 194.45893 C 79.489079 194.46493 80.822629 195.35207 81.336637 196.77972 C 82.552765 200.15752 86.290625 201.91652 89.668429 200.70041 C 90.503637 200.3997 91.239729 199.94459 91.856409 199.37904 C 91.790709 199.82519 91.760408 200.27885 91.767008 200.73555 C 91.23562 201.10575 90.646981 201.41291 90.007943 201.64299 C 89.503056 201.82476 88.991653 201.94694 88.480904 202.01764 L 91.593892 202.01764 C 91.683095 201.96813 91.772605 201.91861 91.859509 201.86623 C 91.867084 201.9167 91.877358 201.96718 91.885864 202.01764 L 92.900789 202.01764 C 92.210568 198.44343 94.201876 194.80949 97.736153 193.53702 L 97.73667 193.53754 C 98.375748 193.30745 99.024954 193.16934 99.670402 193.11586 C 99.956382 193.47194 100.26872 193.8015 100.60368 194.1034 C 99.768005 194.0607 98.910905 194.1794 98.075667 194.48012 L 98.075667 194.4796 C 94.960729 195.60111 93.228113 198.86712 93.930184 202.01764 L 94.959062 202.01764 C 94.228264 199.27838 95.697599 196.4006 98.415181 195.42218 C 101.28363 194.38945 104.43214 195.87138 105.46488 198.73981 C 106.30621 201.07655 108.89627 202.29567 111.233 201.45437 L 110.89401 200.51179 C 109.06661 201.16971 107.06539 200.2282 106.40746 198.40081 C 106.10674 197.56558 105.65164 196.82951 105.08609 196.21283 C 105.53225 196.27853 105.9859 196.30883 106.4426 196.30223 C 106.8128 196.83362 107.11996 197.42226 107.35004 198.0613 C 107.81656 199.35699 109.25878 200.03571 110.55449 199.56921 C 111.85019 199.10271 112.5289 197.66047 112.06241 196.36476 C 110.71459 192.62113 112.51233 188.52419 116.09989 186.94725 L 116.09989 185.86566 C 115.61849 186.04915 115.16176 186.27035 114.7346 186.52763 C 114.6531 185.98399 114.51749 185.44006 114.32429 184.90344 C 114.04119 184.11709 114.4428 183.26421 115.22914 182.98108 C 115.37658 182.92798 115.52613 182.89858 115.67408 182.89168 C 115.71418 182.88968 115.75428 182.88965 115.79397 182.89065 C 115.89831 182.89413 116.00007 182.91202 116.09989 182.93664 L 116.09989 181.91913 C 115.70448 181.86005 115.29019 181.89429 114.88963 182.0385 C 113.59393 182.50501 112.91521 183.94724 113.38171 185.24296 C 113.6118 185.88204 113.74991 186.53175 113.80339 187.17721 C 113.44731 187.46318 113.11774 187.77552 112.81585 188.11048 C 112.85855 187.27482 112.73985 186.4177 112.43913 185.58247 C 111.78121 183.75507 112.72324 181.75386 114.55063 181.09592 C 114.95037 180.952 115.35835 180.88442 115.75883 180.88612 C 115.87345 180.8866 115.98688 180.89465 116.09989 180.90627 L 116.09989 179.90633 C 116.00705 179.89866 115.91375 179.89264 115.82032 179.88979 z M 110.89401 200.51179 L 111.23352 201.45437 C 113.57027 200.61305 114.78887 198.023 113.94757 195.68625 L 113.94757 195.68573 C 113.06634 193.23807 114.02009 190.59105 116.09989 189.22411 L 116.09989 188.06552 C 113.27358 189.55295 111.89294 192.93652 113.00499 196.02524 C 113.6629 197.85265 112.72138 199.85385 110.89401 200.51179 z M 62.829757 180.37814 C 62.911357 180.92179 63.046868 181.46519 63.240068 182.00181 C 63.523176 182.78817 63.121551 183.64156 62.335213 183.92469 C 61.548855 184.2078 60.695463 183.80618 60.412333 183.01984 C 60.219133 182.48323 59.977274 181.97806 59.693514 181.50727 C 60.237172 181.42567 60.780579 181.29016 61.317187 181.09696 C 61.853787 180.90376 62.358957 180.6619 62.829757 180.37814 z M 74.77218 185.03573 C 76.161497 185.08448 77.441888 185.96302 77.943046 187.35497 L 77.943563 187.35497 C 79.159691 190.73276 82.89755 192.49178 86.275354 191.27566 C 87.110572 190.97496 87.846656 190.51987 88.463334 189.9543 C 88.397634 190.40047 88.366817 190.85359 88.373417 191.31029 C 87.842029 191.68049 87.253898 191.98816 86.614868 192.21824 C 82.705386 193.62577 78.408541 191.60394 77.000985 187.69449 L 76.058407 188.03348 C 76.251605 188.57011 76.494103 189.07512 76.777743 189.54605 C 76.234093 189.62745 75.690167 189.76317 75.153552 189.95636 C 74.616934 190.14957 74.111913 190.39155 73.640983 190.67518 C 73.559483 190.13153 73.424389 189.58812 73.231189 189.05151 L 73.230672 189.05151 L 72.288611 189.39102 C 72.518701 190.03011 72.656811 190.67931 72.710291 191.32476 C 72.354221 191.61074 72.024644 191.92307 71.722754 192.25803 C 71.765454 191.42236 71.646751 190.56525 71.346033 189.73002 L 71.345516 189.73002 C 70.687598 187.90262 71.629629 185.90141 73.457015 185.24347 C 73.799655 185.12011 74.148309 185.05286 74.493127 185.03728 C 74.586519 185.03307 74.679559 185.03248 74.77218 185.03573 z M 73.230672 189.05151 C 72.947562 188.26515 73.349187 187.41176 74.135527 187.12863 C 74.921885 186.84552 75.775277 187.24714 76.058407 188.03348 L 77.000468 187.69397 C 76.636018 186.6817 75.676321 186.04602 74.655908 186.03877 C 74.370188 186.03677 74.079452 186.08397 73.796012 186.18605 C 72.500316 186.65256 71.821606 188.09478 72.288094 189.39051 L 73.230672 189.05151 z M 107.31645 185.65533 C 107.39805 186.19899 107.53356 186.74239 107.72676 187.27901 C 108.00987 188.06536 107.60824 188.91876 106.8219 189.20189 C 106.03555 189.485 105.18267 189.08338 104.89954 188.29703 C 104.70634 187.76043 104.46395 187.25526 104.1802 186.78446 C 104.72385 186.70286 105.26726 186.56735 105.80388 186.37415 C 106.34048 186.18096 106.84565 185.93909 107.31645 185.65533 z M 97.015784 187.67485 C 98.405084 187.72346 99.685479 188.60161 100.18665 189.99357 C 101.40278 193.37137 105.14063 195.13037 108.51844 193.91426 L 108.51896 193.91426 C 109.35418 193.61355 110.08974 193.15844 110.70642 192.5929 C 110.64072 193.03907 110.61042 193.4922 110.61702 193.94889 C 110.08563 194.31907 109.49699 194.62676 108.85795 194.85684 C 104.94847 196.26437 100.65163 194.24255 99.244071 190.33309 L 99.244588 190.33309 C 98.77807 189.03738 97.335324 188.35867 96.039616 188.82517 L 96.039616 188.82465 C 94.743918 189.29117 94.065208 190.7334 94.531698 192.02911 C 94.761786 192.66818 94.899897 193.31792 94.953377 193.96335 C 94.597299 194.24932 94.267729 194.56167 93.965841 194.89663 C 94.008541 194.06097 93.889739 193.20385 93.589119 192.36862 C 92.931211 190.54121 93.872716 188.54001 95.700102 187.88207 L 95.700618 187.88259 C 96.043248 187.75923 96.391901 187.692 96.736731 187.6764 C 96.830121 187.67217 96.923164 187.67161 97.015784 187.67485 z M 96.824064 189.67886 C 97.465192 189.64876 98.07196 190.03318 98.30201 190.67208 C 98.49521 191.2087 98.737191 191.71372 99.020829 192.18465 C 98.477181 192.26615 97.93377 192.40176 97.397156 192.59496 L 97.397156 192.59445 C 96.860536 192.78766 96.355505 193.03014 95.884587 193.31378 C 95.803087 192.77013 95.667476 192.22672 95.474276 191.69011 C 95.191166 190.90375 95.592792 190.05035 96.37913 189.76723 L 96.37913 189.76774 C 96.52657 189.71466 96.676114 189.68586 96.824064 189.67886 z M 66.222831 189.80288 C 66.304431 190.34653 66.439942 190.88994 66.633142 191.42656 L 66.633659 191.42656 L 66.633659 191.42708 C 66.916779 192.21343 66.515153 193.06631 65.728805 193.34944 C 64.942445 193.63255 64.089054 193.23092 63.805924 192.44458 C 63.612726 191.908 63.370347 191.4028 63.086589 190.93201 C 63.630217 190.85043 64.173644 190.71542 64.710262 190.52222 L 64.710262 190.5217 L 64.710779 190.5217 C 65.247217 190.32854 65.752173 190.08655 66.222831 189.80288 z M 116.09989 190.48605 C 114.79417 191.67764 114.25546 193.58385 114.89014 195.34673 C 115.81898 197.92663 114.7093 200.72775 112.39056 202.01764 L 114.10001 202.01764 C 114.49688 202.01764 114.86591 201.90074 115.17695 201.70138 C 115.35198 200.86967 115.66142 200.07392 116.09989 199.35011 L 116.09989 196.01956 C 116.03661 195.68058 115.95324 195.34195 115.83272 195.00722 C 115.46629 193.98943 115.59731 192.91831 116.09989 192.05494 L 116.09989 190.48605 z M 88.466435 192.44148 C 88.548035 192.98513 88.683546 193.52854 88.876746 194.06516 C 89.159854 194.85152 88.758229 195.70491 87.971891 195.98804 C 87.185533 196.27116 86.332141 195.86952 86.049011 195.08318 C 85.855811 194.54657 85.613952 194.0414 85.330192 193.57061 C 85.873852 193.48901 86.417236 193.35402 86.953866 193.16082 L 86.953866 193.1603 C 87.490464 192.9671 87.995635 192.72525 88.466435 192.44148 z M 110.71004 195.08008 C 110.79164 195.62373 110.92663 196.16714 111.11983 196.70376 C 111.40295 197.4901 111.00183 198.34351 110.21549 198.62664 C 109.42915 198.90974 108.57574 198.50812 108.29261 197.72178 C 108.09941 197.18517 107.85756 196.68 107.5738 196.20921 C 108.11745 196.12761 108.66085 195.99262 109.19747 195.79942 L 109.19747 195.7989 C 109.73408 195.6057 110.23925 195.36384 110.71004 195.08008 z M 100.44141 196.10173 C 100.32239 196.0973 100.20269 196.09759 100.08278 196.10276 C 99.640026 196.12184 99.192835 196.20702 98.754696 196.36476 L 98.754179 196.36476 C 96.455632 197.19233 95.243427 199.71145 96.004993 202.01764 L 97.050407 202.01764 C 97.026511 201.94298 97.008959 201.8677 96.982194 201.79337 C 96.324276 199.96596 97.266311 197.96528 99.093693 197.30734 C 99.436333 197.18398 99.784939 197.11675 100.12981 197.10115 C 101.62418 197.03355 103.04566 197.93357 103.58024 199.41832 C 103.9514 200.44921 104.55962 201.32687 105.31864 202.01764 L 107.01311 202.01764 C 105.89718 201.3924 104.99085 200.3807 104.5223 199.07932 L 104.52282 199.07932 C 103.88197 197.29938 102.22671 196.16805 100.44141 196.10173 z M 78.093941 196.46346 C 78.689691 196.48336 79.236338 196.85925 79.451998 197.45823 L 79.451998 197.45875 C 79.645198 197.99536 79.887177 198.5004 80.170817 198.97132 C 79.627169 199.05272 79.083762 199.18791 78.547144 199.38111 C 78.010524 199.57432 77.505494 199.81679 77.034574 200.10045 C 76.953074 199.5568 76.817462 199.01286 76.624264 198.47626 C 76.341154 197.6899 76.74279 196.83702 77.529118 196.55389 C 77.676558 196.50079 77.826102 196.47139 77.974052 196.46449 C 78.014152 196.46249 78.054251 196.46246 78.093941 196.46346 z M 100.36907 198.10419 C 100.30296 198.10168 100.2367 198.10188 100.17011 198.1047 C 99.924265 198.11513 99.676155 198.16245 99.433207 198.24991 L 99.682288 198.9429 L 99.43269 198.24991 C 98.136994 198.71641 97.458288 200.15865 97.924772 201.45437 C 97.992077 201.64131 98.049178 201.82932 98.100989 202.01764 L 99.135551 202.01764 C 99.063038 201.71539 98.975059 201.41402 98.86735 201.11486 C 98.584242 200.32851 98.985865 199.47511 99.772205 199.19198 L 99.772205 199.19249 C 99.919643 199.13939 100.06918 199.11051 100.21714 199.10361 C 100.85827 199.07361 101.46504 199.45845 101.69508 200.09735 C 101.88828 200.63396 102.13026 201.139 102.4139 201.60992 C 101.87235 201.6911 101.33103 201.82563 100.79643 202.01764 L 103.93784 202.01764 C 103.39246 201.36201 102.94366 200.60773 102.63766 199.75783 C 102.28231 198.77088 101.36069 198.14174 100.36907 198.10419 z M 59.263566 200.24721 C 59.17234 200.24554 59.080883 200.24687 58.989164 200.25083 C 58.704491 200.26312 58.418117 200.3041 58.133403 200.37278 C 58.196493 200.72425 58.350084 201.04404 58.571102 201.30606 C 59.586542 201.12193 60.604605 201.39808 61.378166 202.01764 L 62.768778 202.01764 C 61.931903 200.92514 60.631959 200.27231 59.263566 200.24721 z " /><rect
       style="fill:none;stroke:#000000;stroke-width:0.499999;stroke-linecap:round;stroke-linejoin:round;stroke-dasharray:none"
       id="rect67421"
       width="9.1866341"
       height="22.371605"
       x="86.695686"
       y="164.44431"
       ry="4.391314" /><g
       aria-label="espirg"
       transform="matrix(0,0.26458333,-0.26458333,0,258.23386,78.638161)"
       id="text67712"
       style="font-weight:bold;font-size:24px;line-height:1.25;font-family:Carlito;-inkscape-font-specification:'Carlito Bold';letter-spacing:0px;word-spacing:0px;baseline-shift:baseline;opacity:1;vector-effect:none;stroke-width:0.999999;stop-color:#000000;stop-opacity:1"><path
         d="m 343.07596,624.64844 q 1.10156,0 2.02734,0.36328 0.92578,0.35156 1.59375,1.03125 0.66797,0.66797 1.04297,1.65234 0.375,0.98438 0.375,2.25 0,0.33985 -0.0352,0.5625 -0.0351,0.21094 -0.11718,0.33985 -0.0703,0.1289 -0.21094,0.1875 -0.12891,0.0469 -0.32813,0.0469 h -6.96093 q 0.0703,0.84375 0.30468,1.46484 0.23438,0.6211 0.6211,1.01954 0.38672,0.39843 0.91406,0.59765 0.52734,0.1875 1.17188,0.1875 0.64453,0 1.11328,-0.15234 0.48047,-0.16406 0.83203,-0.33985 0.36328,-0.1875 0.64453,-0.33984 0.28125,-0.16406 0.55078,-0.16406 0.32813,0 0.53906,0.26953 l 0.85547,1.10156 q -0.48047,0.5625 -1.0664,0.9375 -0.58594,0.36328 -1.21875,0.58594 -0.6211,0.21094 -1.26563,0.30469 -0.64453,0.0937 -1.24219,0.0937 -1.20703,0 -2.25,-0.39844 -1.04297,-0.39844 -1.8164,-1.18359 -0.77344,-0.79688 -1.21875,-1.95704 -0.4336,-1.17187 -0.4336,-2.70703 0,-1.18359 0.38672,-2.22656 0.38672,-1.05469 1.10156,-1.82812 0.72657,-0.78516 1.75782,-1.24219 1.03125,-0.45703 2.33203,-0.45703 z m 0.0586,2.12109 q -1.13672,0 -1.78125,0.66797 -0.64453,0.65625 -0.83203,1.86328 h 4.92188 q 0,-0.50391 -0.14063,-0.96094 -0.12891,-0.45703 -0.42187,-0.80859 -0.28125,-0.35156 -0.71485,-0.55078 -0.43359,-0.21094 -1.03125,-0.21094 z"
         id="path67764" /><path
         d="m 357.04471,627.17969 q -0.11719,0.19922 -0.25781,0.28125 -0.12891,0.0703 -0.32813,0.0703 -0.21094,0 -0.44531,-0.10547 -0.22266,-0.11719 -0.50391,-0.24609 -0.26953,-0.14063 -0.62109,-0.2461 -0.35156,-0.11718 -0.8086,-0.11718 -0.70312,0 -1.08984,0.32812 -0.38672,0.31641 -0.38672,0.85547 0,0.36328 0.22266,0.60937 0.22265,0.23438 0.58594,0.42188 0.375,0.17578 0.83203,0.32812 0.46875,0.15235 0.96093,0.32813 0.49219,0.17578 0.94922,0.42187 0.46875,0.23438 0.83203,0.58594 0.375,0.35156 0.59766,0.85547 0.22266,0.50391 0.22266,1.20703 0,0.84375 -0.29297,1.5586 -0.29297,0.71484 -0.86719,1.23046 -0.5625,0.51563 -1.40625,0.8086 -0.83203,0.29297 -1.93359,0.29297 -0.5625,0 -1.11328,-0.10547 -0.55079,-0.10547 -1.05469,-0.29297 -0.50391,-0.19922 -0.94922,-0.45703 -0.43359,-0.25781 -0.75,-0.5625 l 0.69141,-1.125 q 0.1289,-0.19922 0.30468,-0.31641 0.17578,-0.11719 0.45703,-0.11719 0.25782,0 0.48047,0.14063 0.23438,0.14062 0.50391,0.31641 0.26953,0.16406 0.64453,0.30468 0.375,0.14063 0.9375,0.14063 0.42188,0 0.71484,-0.10547 0.30469,-0.10547 0.48047,-0.28125 0.1875,-0.1875 0.26953,-0.42188 0.0937,-0.23437 0.0937,-0.48046 0,-0.51563 -0.38671,-0.79688 -0.38672,-0.29297 -0.97266,-0.50391 -0.58594,-0.21093 -1.26563,-0.43359 -0.66796,-0.22266 -1.2539,-0.60937 -0.58594,-0.38672 -0.97266,-1.01954 -0.38672,-0.63281 -0.38672,-1.67578 0,-0.72656 0.26953,-1.37109 0.26954,-0.65625 0.79688,-1.14844 0.53906,-0.49219 1.32422,-0.78515 0.79687,-0.29297 1.85156,-0.29297 0.57422,0 1.11328,0.10547 0.53906,0.10546 1.00781,0.30468 0.48047,0.1875 0.86719,0.45703 0.39844,0.26954 0.70313,0.58594 z"
         id="path67766" /><path
         d="m 359.85721,640.24609 v -15.41015 h 1.82812 q 0.28125,0 0.46875,0.1289 0.19922,0.12891 0.25782,0.39844 l 0.24609,1.01953 q 0.35156,-0.38672 0.73828,-0.71484 0.38672,-0.32813 0.83203,-0.5625 0.45703,-0.23438 0.97266,-0.36328 0.52734,-0.12891 1.13672,-0.12891 0.92578,0 1.69922,0.39844 0.77343,0.39844 1.33593,1.16015 0.5625,0.75 0.86719,1.86329 0.31641,1.11328 0.31641,2.53125 0,1.30078 -0.35157,2.41406 -0.35156,1.11328 -0.99609,1.93359 -0.64453,0.8086 -1.55859,1.27735 -0.90235,0.45703 -2.02735,0.45703 -0.94922,0 -1.60547,-0.28125 -0.65625,-0.29297 -1.18359,-0.78516 v 4.66406 z m 5.46094,-13.27734 q -0.83204,0 -1.40625,0.33984 -0.57422,0.32813 -1.07813,0.96094 v 5.15625 q 0.44531,0.53906 0.96094,0.76172 0.52734,0.21094 1.125,0.21094 0.57422,0 1.04297,-0.22266 0.48047,-0.23437 0.82031,-0.70312 0.33984,-0.46875 0.51562,-1.1836 0.1875,-0.72656 0.1875,-1.72265 0,-0.98438 -0.15234,-1.66407 -0.15234,-0.6914 -0.43359,-1.11328 -0.28125,-0.43359 -0.67969,-0.62109 -0.39844,-0.19922 -0.90234,-0.19922 z"
         id="path67768" /><path
         d="m 372.3494,636.47266 z m 3.38671,-11.63672 v 11.63672 h -2.97656 v -11.63672 z m 0.36329,-3.33985 q 0,0.38672 -0.15235,0.72657 -0.15234,0.32812 -0.41015,0.58593 -0.25782,0.2461 -0.60938,0.39844 -0.35156,0.14063 -0.73828,0.14063 -0.375,0 -0.71484,-0.14063 -0.32813,-0.15234 -0.58594,-0.39844 -0.2461,-0.25781 -0.39844,-0.58593 -0.14062,-0.33985 -0.14062,-0.72657 0,-0.38672 0.14062,-0.72656 0.15234,-0.33984 0.39844,-0.58594 0.25781,-0.25781 0.58594,-0.39843 0.33984,-0.15235 0.71484,-0.15235 0.38672,0 0.73828,0.15235 0.35156,0.14062 0.60938,0.39843 0.25781,0.2461 0.41015,0.58594 0.15235,0.33984 0.15235,0.72656 z"
         id="path67770" /><path
         d="m 378.4783,636.47266 v -11.63672 h 1.7461 q 0.45703,0 0.63281,0.16406 0.1875,0.16406 0.24609,0.57422 l 0.15235,1.18359 q 0.52734,-0.99609 1.23046,-1.57031 0.70313,-0.57422 1.62891,-0.57422 0.76172,0 1.25391,0.36328 l -0.22266,2.22656 q -0.0234,0.21094 -0.14062,0.30469 -0.11719,0.082 -0.31641,0.082 -0.17578,0 -0.50391,-0.0469 -0.32812,-0.0586 -0.60937,-0.0586 -0.41016,0 -0.73828,0.11719 -0.31641,0.11719 -0.57422,0.35156 -0.2461,0.22266 -0.44531,0.55079 -0.19922,0.32812 -0.36329,0.75 v 7.21875 z"
         id="path67772" /><path
         d="m 390.84158,624.63672 q 0.70313,0 1.32422,0.15234 0.63281,0.15235 1.16016,0.4336 h 3.23437 v 1.11328 q 0,0.25781 -0.15234,0.41015 -0.14063,0.15235 -0.48047,0.22266 l -0.91406,0.1875 q 0.21094,0.58594 0.21094,1.24219 0,0.86718 -0.33985,1.57031 -0.32812,0.69141 -0.92578,1.18359 -0.58594,0.49219 -1.39453,0.76172 -0.79688,0.25781 -1.72266,0.25781 -0.28125,0 -0.55078,-0.0234 -0.26953,-0.0234 -0.53906,-0.0703 -0.43359,0.28125 -0.43359,0.65625 0,0.33985 0.30468,0.49219 0.30469,0.15235 0.79688,0.22266 0.49219,0.0586 1.125,0.082 0.63281,0.0117 1.28906,0.0703 0.66797,0.0586 1.30078,0.19922 0.63281,0.14063 1.125,0.45703 0.49219,0.31641 0.79688,0.84375 0.30468,0.52735 0.30468,1.35938 0,0.77343 -0.36328,1.5 -0.36328,0.73828 -1.05468,1.3125 -0.69141,0.57422 -1.69922,0.91406 -1.00782,0.35156 -2.29688,0.35156 -1.26562,0 -2.20312,-0.25781 -0.9375,-0.25781 -1.54688,-0.67969 -0.60937,-0.42187 -0.91406,-0.98437 -0.29297,-0.55078 -0.29297,-1.14844 0,-0.78516 0.44531,-1.32422 0.44532,-0.55078 1.23047,-0.87891 -0.41015,-0.23437 -0.66797,-0.64453 -0.24609,-0.41015 -0.24609,-1.04297 0,-0.25781 0.082,-0.52734 0.0937,-0.28125 0.28125,-0.55078 0.1875,-0.28125 0.45703,-0.52734 0.26953,-0.2461 0.64453,-0.44532 -0.84375,-0.48047 -1.33593,-1.26562 -0.48047,-0.79688 -0.48047,-1.86328 0,-0.86719 0.33984,-1.5586 0.33984,-0.70312 0.92578,-1.18359 0.59766,-0.49219 1.40625,-0.75 0.82031,-0.26953 1.76953,-0.26953 z m 2.77735,12.32812 q 0,-0.3164 -0.17578,-0.51562 -0.17579,-0.19922 -0.48047,-0.30469 -0.30469,-0.11719 -0.71485,-0.16406 -0.41015,-0.0586 -0.8789,-0.082 -0.45703,-0.0352 -0.96094,-0.0586 -0.49219,-0.0234 -0.97266,-0.082 -0.38672,0.2461 -0.63281,0.57422 -0.23437,0.32813 -0.23437,0.76172 0,0.29297 0.11718,0.53906 0.12891,0.2461 0.41016,0.42188 0.28125,0.17578 0.75,0.26953 0.46875,0.10547 1.16016,0.10547 0.72656,0 1.21875,-0.11719 0.5039,-0.10547 0.80859,-0.30469 0.31641,-0.1875 0.44531,-0.45703 0.14063,-0.26953 0.14063,-0.58594 z m -2.77735,-6.70312 q 0.90235,0 1.32422,-0.49219 0.4336,-0.49219 0.4336,-1.30078 0,-0.82031 -0.4336,-1.28906 -0.42187,-0.48047 -1.32422,-0.48047 -0.89062,0 -1.32422,0.48047 -0.42187,0.46875 -0.42187,1.28906 0,0.79687 0.42187,1.30078 0.4336,0.49219 1.32422,0.49219 z"
         id="path67774" /></g></g></svg>
