<?xml version="1.0" encoding="UTF-8" standalone="no"?>
<!-- Created with Inkscape (http://www.inkscape.org/) -->

<svg
   width="210mm"
   height="297mm"
   viewBox="0 0 210 297"
   version="1.1"
   id="svg16601"
   sodipodi:docname="pattern_top.svg"
   inkscape:version="1.2.2 (b0a8486541, 2022-12-01)"
   xmlns:inkscape="http://www.inkscape.org/namespaces/inkscape"
   xmlns:sodipodi="http://sodipodi.sourceforge.net/DTD/sodipodi-0.dtd"
   xmlns="http://www.w3.org/2000/svg"
   xmlns:svg="http://www.w3.org/2000/svg">
  <sodipodi:namedview
     id="namedview16603"
     pagecolor="#ffffff"
     bordercolor="#666666"
     borderopacity="1.0"
     inkscape:showpageshadow="2"
     inkscape:pageopacity="0.0"
     inkscape:pagecheckerboard="0"
     inkscape:deskcolor="#d1d1d1"
     inkscape:document-units="mm"
     showgrid="false"
     showguides="true"
     inkscape:zoom="12.241914"
     inkscape:cx="193.71971"
     inkscape:cy="293.74491"
     inkscape:window-width="1884"
     inkscape:window-height="999"
     inkscape:window-x="0"
     inkscape:window-y="0"
     inkscape:window-maximized="0"
     inkscape:current-layer="layer1">
    <sodipodi:guide
       position="44,186.09922"
       orientation="-1,0"
       id="guide16739"
       inkscape:locked="false"
       inkscape:label=""
       inkscape:color="rgb(0,134,229)" />
    <sodipodi:guide
       position="60.845264,222"
       orientation="0,1"
       id="guide16741"
       inkscape:locked="false"
       inkscape:label=""
       inkscape:color="rgb(0,134,229)" />
  </sodipodi:namedview>
  <defs
     id="defs16598" />
  <g
     inkscape:label="Layer 1"
     inkscape:groupmode="layer"
     id="layer1">
    <path
       id="path554-3"
       style="color:#000000;fill:#000000;stroke-width:0.999996;stroke-linecap:round;stroke-linejoin:round;stroke-dashoffset:3;-inkscape-stroke:none"
       d="M 45.999776 74.749959 C 44.760119 74.749959 43.749784 75.760291 43.749784 76.999951 L 43.749784 120.99985 C 43.749784 122.2395 44.760118 123.24984 45.999776 123.24984 L 93.084241 123.24984 A 0.250025 0.250025 0 0 0 93.275444 122.83798 C 93.252324 122.81068 93.230301 122.77588 93.208781 122.74238 L 93.208781 112.28307 C 93.336361 112.15558 93.46394 112.02782 93.591703 111.90015 L 96.687638 111.90015 A 0.250025 0.250025 0 0 0 96.921733 111.62523 L 96.921733 100.5272 C 97.027718 100.42122 97.134073 100.31486 97.240059 100.20887 C 97.942676 100.07293 98.812665 100.19419 99.660067 100.14479 C 99.819485 100.13779 99.975581 100.12977 100.12102 100.12877 C 100.33873 100.12777 100.52992 100.14585 100.68171 100.20525 C 100.82033 100.25945 100.92731 100.35822 101.02743 100.5179 L 101.02743 110.42375 L 101.02949 110.41393 C 101.00929 110.8691 101.07768 111.29879 100.97678 111.55857 A 0.250025 0.250025 0 0 0 101.21088 111.90015 L 101.32818 111.90015 A 0.250025 0.250025 0 0 0 101.34007 111.90015 C 101.56983 111.88995 101.79 111.87521 101.98447 111.88671 A 0.250025 0.250025 0 0 0 102.25009 111.6366 L 102.25009 76.999951 C 102.25009 75.760291 101.23974 74.749959 100.0001 74.749959 L 80.256083 74.749959 A 0.250025 0.250025 0 0 0 80.005969 75.000073 L 80.005969 78.023661 A 0.250025 0.250025 0 0 0 80.005969 78.03503 C 80.019639 78.355099 80.038887 78.656962 79.992017 78.892342 C 79.947807 79.114357 79.848703 79.266949 79.625114 79.404456 L 75.826379 79.404456 A 0.250025 0.250025 0 0 0 75.814494 79.404456 C 75.494357 79.418136 75.192558 79.437273 74.957182 79.390503 C 74.735172 79.346393 74.582553 79.247146 74.445068 79.0236 L 74.445068 75.000073 A 0.250025 0.250025 0 0 0 74.195471 74.749959 L 45.999776 74.749959 z M 45.999776 75.250187 L 46.308801 75.250187 L 46.467448 75.309098 C 46.418138 76.166627 46.24402 77.031355 45.929496 77.879484 C 45.61493 78.727603 45.182606 79.496796 44.66084 80.179085 L 44.250012 80.02664 L 44.250012 78.946086 C 44.527941 78.503766 44.766686 78.028601 44.955396 77.519816 C 45.220604 76.804654 45.36896 76.075314 45.4179 75.350439 C 45.600092 75.286486 45.795198 75.250187 45.999776 75.250187 z M 49.297249 75.250187 L 52.282597 75.250187 L 53.886633 75.844983 A 0.51949316 0.51949316 0 0 0 54.554293 75.538542 L 54.661263 75.250187 L 55.768689 75.250187 L 54.986308 77.360136 L 49.297249 75.250187 z M 60.960103 75.250187 L 62.417379 75.250187 L 62.120756 76.049622 C 61.763632 75.751231 61.375275 75.484051 60.960103 75.250187 z M 63.524805 75.250187 L 64.633264 75.250187 L 63.320683 78.789506 A 0.51949316 0.51949316 0 0 0 63.626607 79.457682 L 68.497111 81.263774 L 73.367615 83.070382 A 0.51949316 0.51949316 0 0 0 74.035274 82.763424 L 75.093091 79.911918 C 75.348361 79.932544 75.600241 79.912164 75.835681 79.9021 L 75.826379 79.904167 L 76.203617 79.904167 L 74.467806 84.585018 L 68.135893 82.236841 L 61.804496 79.888664 L 63.524805 75.250187 z M 65.741207 75.250187 L 66.84915 75.250187 L 65.990804 77.564258 A 0.51949316 0.51949316 0 0 0 66.297762 78.231917 L 69.219548 79.315572 L 72.14185 80.399227 A 0.51949316 0.51949316 0 0 0 72.809509 80.092786 L 73.893681 77.171 L 73.945357 77.031474 L 73.945357 79.124886 A 0.250025 0.250025 0 0 0 73.97843 79.246326 C 74.027416 79.333841 74.083937 79.410066 74.144828 79.478353 L 73.241524 81.913863 L 68.858329 80.288639 L 64.475651 78.662899 L 65.741207 75.250187 z M 67.957609 75.250187 L 69.065552 75.250187 L 69.023177 75.364392 L 68.661959 76.33901 A 0.51949119 0.51949119 0 0 0 68.9684 77.006152 L 69.941984 77.367371 L 70.916085 77.728589 A 0.51949119 0.51949119 0 0 0 71.583744 77.422148 L 71.944963 76.448047 L 72.306181 75.473946 A 0.51949119 0.51949119 0 0 0 72.334086 75.250187 L 73.497323 75.250187 L 72.919063 76.809265 L 72.016276 79.244775 L 69.580766 78.341471 L 67.145772 77.438684 L 67.957609 75.250187 z M 70.173494 75.250187 L 70.208118 75.250187 L 70.664421 75.419686 L 71.151729 75.600037 L 70.971379 76.086829 L 70.790511 76.574137 L 70.303719 76.39327 L 69.81641 76.212402 L 69.996761 75.72561 L 70.173494 75.250187 z M 80.50568 75.250187 L 82.1955 75.250187 C 82.963181 75.480962 83.74681 75.541542 84.503369 75.451208 L 84.10391 76.528145 C 83.238981 76.562045 82.352672 76.429846 81.489083 76.109566 C 81.143646 75.981455 80.816106 75.826942 80.50568 75.651196 L 80.50568 75.250187 z M 85.685209 75.250187 L 88.134672 75.250187 L 92.313228 76.799963 L 98.644625 79.14814 L 98.316479 80.033358 C 97.928729 80.026374 97.536947 80.037897 97.157377 80.109839 A 0.51949316 0.51949316 0 0 0 96.822514 79.580155 L 91.95201 77.773547 L 87.081506 75.967456 A 0.51949316 0.51949316 0 0 0 86.813822 75.942651 A 0.51949316 0.51949316 0 0 0 86.413847 76.274414 L 84.607756 81.144401 L 82.801664 86.014388 A 0.51949316 0.51949316 0 0 0 83.107589 86.682564 L 87.978092 88.488656 L 92.848596 90.295264 A 0.51949316 0.51949316 0 0 0 93.516256 89.988306 L 95.322347 85.118319 L 96.422021 82.153125 L 96.422021 85.14054 L 96.296448 85.47902 L 93.948787 91.8099 L 87.616874 89.461723 L 81.285478 87.113546 L 83.633655 80.782666 L 85.685209 75.250187 z M 92.048645 75.250187 L 93.613407 75.250187 C 93.559773 75.542814 93.514867 75.835573 93.488867 76.12817 L 92.674447 75.826379 L 91.860026 75.524589 C 91.924497 75.434602 91.987017 75.342765 92.048645 75.250187 z M 94.669674 75.250187 L 95.731624 75.250187 C 95.605212 75.794382 95.535256 76.341925 95.527502 76.884713 L 94.500692 76.503857 C 94.524708 76.08668 94.583607 75.66802 94.669674 75.250187 z M 96.805977 75.250187 L 97.881881 75.250187 C 97.622665 76.053254 97.55004 76.876562 97.644686 77.669678 L 96.567749 77.270219 C 96.541677 76.602469 96.622386 75.922917 96.805977 75.250187 z M 98.989823 75.250187 L 100.0001 75.250187 C 100.04498 75.250187 100.0889 75.253618 100.13291 75.256905 C 100.04794 75.410049 99.971853 75.569997 99.909147 75.739046 C 99.252197 77.510731 100.07705 79.476986 101.74986 80.277787 L 101.74986 81.405367 C 101.7306 81.398584 101.7112 81.393373 101.69198 81.386247 C 101.63603 81.365484 101.58145 81.342631 101.52714 81.319584 L 101.52714 80.826074 A 0.250025 0.250025 0 0 0 101.49613 80.703084 C 101.33797 80.420484 101.10884 80.236445 100.86309 80.140328 C 100.61734 80.044208 100.36315 80.027633 100.1174 80.029224 C 99.997678 80.030102 99.882327 80.03665 99.767037 80.042143 C 99.684247 79.946658 99.60414 79.848982 99.530359 79.74707 L 99.799076 79.022567 A 0.51949316 0.51949316 0 0 0 99.492635 78.354907 L 98.768132 78.08619 C 98.561282 77.217921 98.600417 76.280764 98.935046 75.378345 C 98.951376 75.334318 98.972114 75.293287 98.989823 75.250187 z M 57.189274 75.278609 L 57.189274 75.279126 C 57.950171 75.286126 58.723417 75.422603 59.479057 75.702873 C 60.342654 76.023162 61.101557 76.500716 61.73525 77.090385 L 61.335274 78.167322 C 60.743252 77.521062 59.994132 77.001973 59.117839 76.676973 C 58.241546 76.351984 57.335019 76.257331 56.464771 76.36123 L 56.864229 75.283777 C 56.972349 75.279777 57.080574 75.277609 57.189274 75.278609 z M 101.10649 75.642928 C 101.49941 75.96332 101.74986 76.451153 101.74986 76.999951 L 101.74986 79.069592 C 100.85831 78.396918 100.47324 77.204719 100.88273 76.100264 C 100.94315 75.937483 101.01925 75.785318 101.10649 75.642928 z M 47.479272 75.684786 L 48.293693 75.986576 L 49.108114 76.288883 C 48.60826 76.986583 48.190287 77.759628 47.877698 78.602437 C 47.565131 79.445286 47.377467 80.303961 47.301506 81.15887 L 46.487602 80.85708 L 45.673181 80.55529 C 46.173034 79.85759 46.590477 79.084028 46.90308 78.241219 C 47.215636 77.39839 47.403315 76.539685 47.479272 75.684786 z M 50.119938 76.664054 L 51.146749 77.04491 C 50.593876 77.706639 50.142491 78.471295 49.825899 79.324874 C 49.509353 80.178453 49.352962 81.053224 49.340658 81.915413 L 48.313847 81.534558 C 48.363147 80.677069 48.536757 79.811785 48.851282 78.963656 C 49.16584 78.115536 49.59817 77.346354 50.119938 76.664054 z M 80.50568 76.811849 C 80.707806 76.909844 80.912989 77.003458 81.127865 77.08315 C 81.981523 77.39976 82.856125 77.556102 83.718404 77.568392 L 83.337549 78.594686 C 82.47993 78.545386 81.614874 78.371841 80.766646 78.057251 C 80.678446 78.024524 80.591605 77.989837 80.50568 77.953898 L 80.50568 76.811849 z M 87.207597 77.122424 L 91.590792 78.748165 L 95.973987 80.373389 L 94.348246 84.756584 L 92.722506 89.140295 L 88.339311 87.514555 L 83.956632 85.888814 L 85.581856 81.505619 L 87.207597 77.122424 z M 57.048714 77.358069 C 57.614723 77.348069 58.192573 77.442371 58.75662 77.651591 C 59.659098 77.986291 60.395305 78.567718 60.918762 79.290767 L 60.650045 80.015788 A 0.51949316 0.51949316 0 0 0 60.956486 80.682931 L 61.68099 80.951648 C 61.887841 81.819917 61.848713 82.757591 61.514075 83.66001 C 61.179365 84.562389 60.597879 85.298722 59.874898 85.822152 L 59.149878 85.553434 A 0.51949316 0.51949316 0 0 0 58.482735 85.859359 L 58.214018 86.584379 C 57.345677 86.791239 56.408134 86.752174 55.505656 86.417464 C 54.60318 86.082755 53.866978 85.50082 53.343514 84.777771 L 53.612231 84.053267 A 0.51949316 0.51949316 0 0 0 53.30579 83.385608 L 52.581287 83.11689 C 52.374442 82.248621 52.413047 81.311455 52.747685 80.409045 C 53.082393 79.506666 53.664394 78.770323 54.387378 78.246903 L 55.111882 78.515621 A 0.51949316 0.51949316 0 0 0 55.779541 78.20918 L 56.048258 77.484676 C 56.373886 77.407076 56.709108 77.363889 57.048714 77.358069 z M 52.186995 77.430933 L 53.263416 77.829875 C 52.617301 78.421884 52.098555 79.171151 51.773584 80.04731 C 51.448665 80.92351 51.353478 81.830249 51.457324 82.700378 L 50.380904 82.30092 C 50.347144 81.43606 50.479784 80.550068 50.8 79.686609 C 51.120257 78.82315 51.597467 78.064652 52.186995 77.430933 z M 56.9712 78.40245 C 55.556029 78.467949 54.244464 79.362565 53.722302 80.770264 C 53.026292 82.647282 53.989887 84.747761 55.866874 85.44388 C 57.743868 86.14 59.843756 85.17573 60.539974 83.298792 C 61.235982 81.421783 60.272398 79.321294 58.395402 78.625175 C 57.926155 78.451145 57.442925 78.38061 56.9712 78.40245 z M 88.039587 78.613289 A 0.51949316 0.51949316 0 0 0 87.639612 78.944535 L 86.555957 81.866838 L 85.471785 84.78914 A 0.51949316 0.51949316 0 0 0 85.778743 85.456799 L 88.701046 86.540454 L 91.622831 87.624109 A 0.51949316 0.51949316 0 0 0 92.291007 87.317668 L 93.374662 84.395882 L 94.458317 81.47358 A 0.51949316 0.51949316 0 0 0 94.151359 80.80592 L 91.229574 79.722266 L 88.307271 78.638611 A 0.51949316 0.51949316 0 0 0 88.039587 78.613289 z M 80.466923 79.053056 C 81.29013 79.352176 82.127642 79.533457 82.961861 79.607544 L 82.660071 80.421448 L 82.35828 81.235352 C 81.660549 80.735432 80.887148 80.317555 80.04421 80.004936 C 79.943832 79.967709 79.843236 79.932925 79.742419 79.899516 A 0.250025 0.250025 0 0 0 79.847839 79.871094 C 80.20106 79.673385 80.389708 79.365908 80.466923 79.053056 z M 57.013057 79.437528 C 57.350204 79.422928 57.69654 79.474026 58.034184 79.599276 C 59.38477 80.100155 60.067168 81.586975 59.56639 82.937573 C 59.065406 84.288102 57.578676 84.970669 56.228092 84.469779 C 54.877517 83.96889 54.195108 82.482071 54.695886 81.131482 C 55.071624 80.118583 56.00162 79.481428 57.013057 79.437528 z M 88.433362 79.793062 L 90.868355 80.69585 L 93.303349 81.599154 L 92.400045 84.034664 L 91.497257 86.469657 L 89.061747 85.56687 L 86.626754 84.663566 L 87.530058 82.228056 L 88.433362 79.793062 z M 77.111572 80.442118 C 77.969184 80.491418 78.834773 80.66549 79.682992 80.98007 C 80.531225 81.29466 81.300226 81.726877 81.982593 82.248726 L 81.601737 83.275537 C 80.939968 82.722608 80.174914 82.27077 79.321257 81.954171 C 78.4676 81.637581 77.593512 81.481219 76.731234 81.468929 L 77.111572 80.442118 z M 57.0637 80.479325 C 56.457396 80.508325 55.892884 80.891921 55.669987 81.4927 C 55.372998 82.293819 55.788219 83.198062 56.589311 83.495162 C 57.390402 83.792272 58.295091 83.377394 58.592289 82.576355 C 58.889275 81.775266 58.474061 80.870486 57.672965 80.573376 C 57.472696 80.499077 57.265802 80.469675 57.0637 80.479325 z M 100.12102 80.529451 L 100.12154 80.529451 C 100.33903 80.528085 100.53004 80.546094 100.68171 80.605416 C 100.82033 80.659636 100.92731 80.758379 101.02743 80.918058 L 101.02743 90.82443 L 101.02949 90.812545 C 101.01459 91.148314 101.05776 91.47184 101.03156 91.722567 C 101.00646 91.962176 100.93689 92.10886 100.71478 92.240365 C 100.01126 92.377936 99.138542 92.254843 98.289091 92.304443 C 97.968946 92.318123 97.667001 92.337767 97.431779 92.291007 C 97.210873 92.247098 97.059332 92.147034 96.922249 91.925655 L 96.922249 80.927877 C 97.028329 80.821697 97.134686 80.715526 97.240576 80.60955 C 97.944232 80.473427 98.815431 80.595104 99.664201 80.544954 L 99.660583 80.547021 C 99.819823 80.539929 99.97572 80.530509 100.12102 80.529451 z M 44.250012 81.135099 L 46.125867 81.830664 L 52.45778 84.178841 L 50.109603 90.510238 L 47.761426 96.841117 L 44.250012 95.538871 L 44.250012 94.431962 L 46.661751 95.326481 A 0.51949316 0.51949316 0 0 0 47.329411 95.019523 L 49.135502 90.149536 L 50.941593 85.279032 A 0.51949316 0.51949316 0 0 0 50.635669 84.611373 L 45.765165 82.804765 L 44.250012 82.243042 L 44.250012 81.135099 z M 89.265352 81.283927 A 0.51949119 0.51949119 0 0 0 88.865377 81.615173 L 88.504159 82.589274 L 88.14294 83.563892 A 0.51949119 0.51949119 0 0 0 88.449382 84.231034 L 89.423482 84.592253 L 90.397583 84.953471 A 0.51949119 0.51949119 0 0 0 91.064726 84.647546 L 91.425944 83.672929 L 91.787162 82.698828 A 0.51949119 0.51949119 0 0 0 91.481238 82.031685 L 90.507137 81.670467 L 89.533036 81.308732 A 0.51949119 0.51949119 0 0 0 89.265352 81.283927 z M 62.804952 81.368677 L 63.881372 81.767619 C 63.915132 82.632488 63.782482 83.518987 63.462276 84.382446 C 63.142015 85.245915 62.664807 86.004413 62.075281 86.638123 L 60.998344 86.238664 C 61.644464 85.646644 62.163717 84.897397 62.488692 84.021228 C 62.813614 83.145069 62.908799 82.238836 62.804952 81.368677 z M 57.106075 81.513371 C 57.173565 81.510371 57.243078 81.52136 57.311747 81.54696 C 57.58643 81.64883 57.719419 81.940457 57.617672 82.215137 C 57.515716 82.489746 57.225215 82.623448 56.950529 82.521578 C 56.675854 82.419708 56.542339 82.128598 56.644088 81.853918 C 56.720558 81.647969 56.903603 81.520931 57.106075 81.513371 z M 64.921619 82.154159 L 65.948429 82.535014 C 65.899129 83.392543 65.724997 84.25727 65.410478 85.1054 C 65.095916 85.953519 64.664106 86.722711 64.142338 87.405001 L 63.115527 87.024146 C 63.668397 86.362456 64.119787 85.59775 64.436377 84.744181 C 64.752918 83.890592 64.909312 83.016368 64.921619 82.154159 z M 101.52714 82.426493 C 101.60124 82.451001 101.67545 82.474443 101.74986 82.49574 L 101.74986 83.562341 C 101.67553 83.54441 101.6013 83.525038 101.52714 83.504464 L 101.52714 82.426493 z M 89.65861 82.464217 L 90.145919 82.645085 L 90.632711 82.825435 L 90.45236 83.312744 L 90.272009 83.799536 L 89.784701 83.618669 L 89.297392 83.437801 L 89.477743 82.951009 L 89.65861 82.464217 z M 76.670256 82.504008 L 76.670256 82.504525 C 77.431253 82.511525 78.204908 82.648002 78.960555 82.928271 C 79.824153 83.248551 80.582534 83.726104 81.216231 84.315784 L 80.816772 85.392721 C 80.224694 84.746521 79.475114 84.227372 78.59882 83.902372 C 77.722525 83.577383 76.816009 83.482719 75.945752 83.586629 L 76.345211 82.509176 C 76.45333 82.505176 76.561542 82.503008 76.670256 82.504008 z M 66.960254 82.910185 L 67.774674 83.212492 L 68.589095 83.514282 C 68.089237 84.211992 67.671279 84.985534 67.358679 85.828353 C 67.046118 86.671182 66.858966 87.52936 66.783004 88.384269 L 65.968583 88.082479 L 65.154163 87.780688 C 65.654016 87.082989 66.071986 86.309437 66.384578 85.466618 C 66.697142 84.623789 66.884289 83.765094 66.960254 82.910185 z M 44.250012 83.351501 L 45.40343 83.779382 L 49.786625 85.404606 L 48.160885 89.787801 L 46.535661 94.171513 L 44.250012 93.324019 L 44.250012 92.216077 L 45.435986 92.655843 A 0.51949316 0.51949316 0 0 0 46.103646 92.349402 L 47.187301 89.427616 L 48.270955 86.505314 A 0.51949316 0.51949316 0 0 0 47.964514 85.837655 L 45.042212 84.754 L 44.250012 84.459961 L 44.250012 83.351501 z M 69.60092 83.889453 L 70.62773 84.270308 C 70.07486 84.932038 69.623463 85.696703 69.306881 86.550273 C 69.013999 87.340048 68.859757 88.147729 68.828357 88.947026 L 68.465072 88.947026 A 0.250025 0.250025 0 0 0 68.386007 88.979065 L 67.794828 88.759957 C 67.844128 87.902448 68.017739 87.037184 68.332263 86.189054 C 68.646832 85.340925 69.079155 84.571742 69.60092 83.889453 z M 101.52714 84.582951 C 101.60133 84.600147 101.67556 84.616597 101.74986 84.631527 L 101.74986 85.687276 C 101.67558 85.673706 101.60137 85.658893 101.52714 85.643351 L 101.52714 84.582951 z M 76.529696 84.583468 C 77.095706 84.573468 77.673551 84.66777 78.237602 84.87699 C 79.140087 85.211699 79.876285 85.793624 80.399744 86.516683 L 80.131026 87.241187 A 0.51949316 0.51949316 0 0 0 80.437467 87.908329 L 81.161971 88.177047 C 81.368811 89.045316 81.330202 89.982999 80.995573 90.885409 C 80.660853 91.787798 80.078863 92.524121 79.35588 93.04755 L 78.631376 92.778833 A 0.51949316 0.51949316 0 0 0 77.963717 93.085274 L 77.694999 93.809778 C 76.941162 93.989367 76.135678 93.978554 75.345789 93.754484 L 75.345789 92.668762 C 75.346517 92.669034 75.347127 92.669525 75.347856 92.669796 C 77.224854 93.365915 79.324739 92.401635 80.020955 90.524707 C 80.716965 88.647689 79.753374 86.54721 77.876383 85.85109 C 77.407138 85.677061 76.923904 85.606525 76.452181 85.628365 L 76.452181 85.627332 C 75.037005 85.692831 73.725442 86.587457 73.203284 87.995146 C 73.086954 88.308869 73.022813 88.628535 72.997095 88.947026 L 71.953748 88.947026 C 71.982521 88.508983 72.067902 88.067975 72.228666 87.634444 C 72.563379 86.732055 73.145379 85.995732 73.868359 85.472302 L 74.592863 85.74102 A 0.51949316 0.51949316 0 0 0 75.260522 85.434578 L 75.52924 84.710075 C 75.854866 84.632475 76.190092 84.589278 76.529696 84.583468 z M 71.667977 84.656331 L 72.744914 85.055273 C 72.098796 85.647283 71.579546 86.39654 71.254565 87.272709 C 71.049966 87.824448 70.944735 88.38792 70.915568 88.947026 L 69.873254 88.947026 C 69.903799 88.268501 70.031819 87.583908 70.280981 86.912008 C 70.601241 86.048549 71.07844 85.290041 71.667977 84.656331 z M 44.250012 85.567387 L 44.68151 85.727584 L 47.116504 86.630888 L 46.2132 89.065881 L 45.309896 91.501392 L 44.250012 91.108134 L 44.250012 89.988306 A 0.51949119 0.51949119 0 0 0 44.877881 89.678764 L 45.239099 88.704146 L 45.600317 87.730046 A 0.51949119 0.51949119 0 0 0 45.293876 87.062386 L 44.319775 86.701168 L 44.250012 86.67533 L 44.250012 85.567387 z M 52.926485 85.901217 C 53.518508 86.547466 54.268146 87.066575 55.144438 87.391565 C 56.020736 87.716565 56.927254 87.811725 57.797506 87.707825 L 57.398047 88.784762 C 56.533096 88.818662 55.646303 88.686462 54.782703 88.366182 C 53.919116 88.045903 53.160721 87.56834 52.527026 86.97867 L 52.926485 85.901217 z M 76.494556 86.663444 C 76.83169 86.648789 77.177522 86.699969 77.515165 86.825191 C 78.865747 87.326081 79.54815 88.81289 79.047371 90.163489 C 78.546389 91.514017 77.059652 92.196584 75.709074 91.695695 C 75.581138 91.648231 75.460721 91.590499 75.345789 91.52568 L 75.345789 90.161938 C 75.52069 90.409195 75.767641 90.607801 76.070292 90.720044 C 76.871381 91.017154 77.776069 90.602266 78.073271 89.801237 C 78.370256 89.000118 77.955042 88.095358 77.153947 87.798258 C 76.953674 87.723959 76.746781 87.694557 76.544682 87.704207 C 75.938376 87.733107 75.373867 88.116813 75.150968 88.717582 C 75.082258 88.902926 75.053426 89.093785 75.056917 89.281372 C 74.941583 89.174857 74.81382 89.09354 74.679679 89.041077 C 74.468325 88.958411 74.251039 88.935609 74.037858 88.931523 C 74.061916 88.739652 74.106494 88.547179 74.176868 88.357397 C 74.552604 87.344501 75.483154 86.70741 76.494556 86.663444 z M 101.52714 86.703752 C 101.60137 86.717236 101.6756 86.730263 101.74986 86.741992 L 101.74986 88.399255 C 101.67624 88.347807 101.60244 88.296887 101.52714 88.247327 L 101.52714 86.703752 z M 59.275452 86.708403 L 65.607365 89.05658 L 67.683724 89.826558 L 67.683724 90.933984 L 65.246147 90.030164 L 60.375643 88.223556 A 0.51949316 0.51949316 0 0 0 60.107959 88.198751 A 0.51949316 0.51949316 0 0 0 59.707983 88.530514 L 57.901892 93.4005 L 56.095801 98.270487 A 0.51949316 0.51949316 0 0 0 56.401725 98.938664 L 61.272229 100.74476 L 66.142733 102.55136 A 0.51949316 0.51949316 0 0 0 66.810392 102.24441 L 67.683724 99.88951 L 67.683724 102.87744 L 67.242407 104.06703 L 60.911011 101.71886 L 54.579614 99.370679 L 56.927791 93.039799 L 59.275452 86.708403 z M 44.250012 87.783789 L 44.445866 87.856136 L 44.265515 88.342928 L 44.250012 88.384786 L 44.250012 87.783789 z M 52.14152 88.0184 C 52.803282 88.57134 53.568345 89.023167 54.422001 89.339766 C 55.275659 89.656366 56.149748 89.812718 57.012024 89.825008 L 56.631169 90.851302 C 55.773556 90.802002 54.908493 90.628447 54.060266 90.313867 C 53.21204 89.999288 52.443012 89.56706 51.760665 89.045211 L 52.14152 88.0184 z M 96.422021 88.128471 L 96.422021 88.705697 C 96.352064 88.70152 96.281954 88.694771 96.212215 88.693811 L 96.422021 88.128471 z M 82.285933 88.593559 L 83.362354 88.993018 C 83.396153 89.857887 83.263457 90.743899 82.943258 91.607328 C 82.622998 92.470797 82.145796 93.229305 81.556262 93.863005 L 80.479842 93.463546 C 81.12596 92.871536 81.644678 92.122279 81.969674 91.24611 C 82.294583 90.369921 82.389773 89.463698 82.285933 88.593559 z M 76.587056 88.738253 C 76.654546 88.735253 76.724057 88.747259 76.792729 88.772359 C 77.0674 88.874229 77.200919 89.165359 77.09917 89.440019 C 76.997208 89.714618 76.706185 89.84833 76.43151 89.74646 C 76.15683 89.64458 76.023322 89.35348 76.125069 89.0788 C 76.201539 88.872841 76.384585 88.745813 76.587056 88.738253 z M 60.501733 89.378524 L 64.884928 91.004264 L 67.683724 92.041927 L 67.683724 93.244438 A 0.51949316 0.51949316 0 0 0 67.445496 93.06202 L 64.523193 91.978365 L 61.601408 90.89471 A 0.51949316 0.51949316 0 0 0 61.333724 90.869906 L 61.333724 90.869389 A 0.51949316 0.51949316 0 0 0 60.933748 91.200635 L 59.849577 94.122937 L 58.765922 97.045239 A 0.51949316 0.51949316 0 0 0 59.07288 97.712899 L 61.994666 98.796554 L 64.916968 99.880208 A 0.51949316 0.51949316 0 0 0 65.584627 99.573767 L 66.668282 96.651982 L 67.683724 93.914681 L 67.683724 96.901579 L 67.642383 97.0132 L 66.016642 101.39639 L 61.633447 99.770654 L 57.250252 98.144914 L 58.875993 93.761719 L 60.501733 89.378524 z M 84.4026 89.378524 L 85.429411 89.759379 C 85.380111 90.616858 85.206496 91.482152 84.891976 92.330282 C 84.577406 93.178401 84.145079 93.947077 83.623319 94.629366 L 82.596509 94.249028 C 83.149388 93.587308 83.600769 92.822116 83.917358 91.968547 C 84.233898 91.114957 84.39029 90.240733 84.4026 89.378524 z M 73.937606 89.429683 C 74.15531 89.428283 74.3465 89.446278 74.498295 89.505648 C 74.637739 89.560188 74.744977 89.658785 74.845561 89.820357 L 74.845561 109.97468 A 0.250025 0.250025 0 0 0 74.845561 109.98605 C 74.859251 110.30617 74.878895 110.60851 74.832125 110.84388 C 74.788205 111.06493 74.688118 111.21633 74.466772 111.35341 L 69.564746 111.35341 A 0.250025 0.250025 0 0 0 69.552861 111.35548 C 69.232722 111.36918 68.930922 111.38884 68.695549 111.34204 C 68.473541 111.29794 68.320922 111.19818 68.183435 110.97462 L 68.183435 89.830176 C 68.311016 89.702683 68.438599 89.574922 68.566357 89.447253 L 73.464766 89.447253 A 0.250025 0.250025 0 0 0 73.476652 89.447253 C 73.636048 89.440153 73.792153 89.430723 73.937606 89.429683 z M 95.826709 89.733541 C 96.024128 89.725778 96.22291 89.732503 96.422021 89.744393 L 96.422021 90.784123 C 96.087691 90.764215 95.75488 90.771498 95.42725 90.810994 L 95.826709 89.733541 z M 51.384977 90.058069 C 52.082709 90.557998 52.85611 90.975348 53.699048 91.287968 C 54.541987 91.600598 55.40101 91.78823 56.255998 91.86416 L 55.953691 92.678064 L 55.6519 93.491968 C 54.954165 92.992028 54.180773 92.574172 53.33783 92.261552 C 52.494893 91.948932 51.636378 91.761806 50.781396 91.685876 L 51.083187 90.871973 L 51.384977 90.058069 z M 86.441752 90.13455 L 87.255656 90.436857 L 88.070076 90.738647 C 87.570227 91.436347 87.15227 92.209929 86.839661 93.052718 C 86.527111 93.895557 86.339945 94.754242 86.263985 95.609151 L 85.449565 95.306844 L 84.635144 95.005054 C 85.135004 94.307354 85.55295 93.533802 85.86556 92.690983 C 86.178111 91.848154 86.365793 90.989459 86.441752 90.13455 z M 89.081901 91.113818 L 90.108712 91.494674 C 89.555852 92.156393 89.104442 92.921585 88.787862 93.775155 C 88.471312 94.628744 88.31493 95.502988 88.30262 96.365177 L 87.27581 95.984322 C 87.32511 95.126813 87.499232 94.261529 87.813761 93.41342 C 88.128291 92.5653 88.560152 91.796108 89.081901 91.113818 z M 101.74986 91.686393 L 101.74986 94.70378 L 100.76594 94.338944 L 101.74986 91.686393 z M 96.249422 91.810933 C 96.306855 91.812944 96.364452 91.820737 96.422021 91.824886 L 96.422021 92.025391 A 0.250025 0.250025 0 0 0 96.453027 92.146313 C 96.663905 92.523061 97.000269 92.715055 97.334111 92.781417 C 97.667953 92.847777 98.003641 92.817791 98.310795 92.804671 A 0.250025 0.250025 0 0 0 98.314412 92.802604 C 98.524428 92.790196 98.744365 92.792 98.969153 92.797953 C 99.319601 93.070587 99.625394 93.388585 99.880208 93.740531 L 99.611491 94.465035 A 0.51949316 0.51949316 0 0 0 99.917932 95.132178 L 100.64244 95.400895 C 100.84929 96.269164 100.81067 97.206848 100.47604 98.109257 C 100.25725 98.699125 99.93028 99.215535 99.529325 99.649731 C 99.016625 99.669106 98.454976 99.620436 97.895317 99.635779 C 98.611662 99.22806 99.194684 98.578783 99.502454 97.749072 C 100.19845 95.872054 99.23484 93.771545 97.357882 93.075456 C 96.888632 92.901426 96.405409 92.831407 95.933679 92.853247 L 95.933679 92.85273 C 94.518501 92.91823 93.206421 93.812359 92.684265 95.220028 C 91.988266 97.097036 92.951839 99.197515 94.828837 99.893644 C 95.440813 100.12061 96.075135 100.16581 96.67782 100.06469 C 96.616635 100.12588 96.555476 100.18704 96.494368 100.24814 A 0.250025 0.250025 0 0 0 96.422021 100.42591 L 96.422021 101.14576 C 95.777958 101.19166 95.114105 101.10647 94.467619 100.86671 C 93.56513 100.53199 92.828932 99.950088 92.305477 99.227018 L 92.574194 98.502515 A 0.51949316 0.51949316 0 0 0 92.267753 97.835372 L 91.54325 97.566654 C 91.3364 96.698385 91.375534 95.760692 91.710164 94.858293 C 92.044874 93.955904 92.626396 93.21957 93.349341 92.696151 L 94.074361 92.964868 A 0.51949316 0.51949316 0 0 0 94.741504 92.658427 L 95.010221 91.933923 C 95.411711 91.838268 95.828517 91.796196 96.249422 91.810933 z M 91.148958 91.880697 L 92.225895 92.280155 C 91.579775 92.872165 91.060527 93.621422 90.735547 94.497591 C 90.410617 95.37377 90.315457 96.279993 90.419287 97.150142 L 89.342867 96.750684 C 89.309167 95.885814 89.441763 94.999852 89.761963 94.136373 C 90.082223 93.272914 90.559429 92.514406 91.148958 91.880697 z M 61.726982 92.049162 L 64.162492 92.951949 L 66.597485 93.855253 L 65.694181 96.290763 L 64.790877 98.725757 L 62.355884 97.82297 L 59.92089 96.919666 L 60.824194 94.484155 L 61.726982 92.049162 z M 50.405709 92.698735 C 51.263316 92.748034 52.128386 92.92159 52.976611 93.236169 C 53.824839 93.550749 54.593855 93.982986 55.276213 94.504826 L 54.895874 95.531637 C 54.234107 94.978697 53.469057 94.52686 52.615393 94.21027 C 51.761737 93.89367 50.887125 93.737318 50.024854 93.725028 L 50.405709 92.698735 z M 62.559489 93.540027 A 0.51949119 0.51949119 0 0 0 62.159513 93.871273 L 61.798295 94.845374 L 61.437077 95.819991 A 0.51949119 0.51949119 0 0 0 61.743001 96.487134 L 62.717102 96.848352 L 63.691203 97.20957 A 0.51949119 0.51949119 0 0 0 64.358862 96.903646 L 64.720081 95.929028 L 65.081299 94.954928 A 0.51949119 0.51949119 0 0 0 64.774858 94.287785 L 63.800757 93.926567 L 62.827173 93.565348 A 0.51949119 0.51949119 0 0 0 62.559489 93.540027 z M 95.975537 93.887292 C 96.312687 93.872692 96.658507 93.92379 96.996147 94.04904 C 98.346725 94.549919 99.029132 96.036749 98.528353 97.387337 C 98.027373 98.737856 96.540624 99.420433 95.190055 98.919543 C 93.839467 98.418654 93.15707 96.931845 93.657849 95.581246 C 94.033599 94.568357 94.964098 93.931182 95.975537 93.887292 z M 78.75695 93.933285 L 85.088346 96.281978 L 91.419743 98.630155 L 89.071566 104.96104 L 86.723905 111.29243 L 80.391992 108.94425 L 75.345789 107.07253 L 75.345789 103.13117 L 76.408773 100.26468 L 78.75695 93.933285 z M 62.95223 94.7198 L 63.439539 94.900667 L 63.926847 95.081535 L 63.746497 95.568327 L 63.565629 96.055119 L 63.078837 95.874251 L 62.591528 95.693384 L 62.771879 95.206592 L 62.95223 94.7198 z M 49.964392 94.760107 C 50.725286 94.767107 51.49853 94.903594 52.254175 95.183854 C 53.117772 95.504144 53.876158 95.981697 54.509851 96.571366 L 54.110392 97.648303 C 53.51837 97.002044 52.769254 96.482945 51.892957 96.157955 C 51.016663 95.832965 50.110139 95.738302 49.239889 95.842212 L 49.639347 94.764758 C 49.747466 94.760758 49.855692 94.759107 49.964392 94.760107 z M 75.345789 94.82832 C 75.992156 94.976058 76.644862 95.008879 77.278487 94.933223 L 76.879028 96.010677 C 76.372261 96.030532 75.858316 95.984287 75.345789 95.88407 L 75.345789 94.82832 z M 96.025663 94.929089 C 95.419354 94.958089 94.85485 95.341695 94.63195 95.942464 C 94.33496 96.743573 94.750184 97.647826 95.551274 97.944926 C 96.352373 98.242036 97.257052 97.827128 97.554252 97.026119 C 97.851242 96.22501 97.436038 95.320757 96.634928 95.023657 C 96.434659 94.949357 96.227763 94.919519 96.025663 94.929089 z M 79.58894 95.423633 A 0.51949316 0.51949316 0 0 0 79.188965 95.755396 L 79.010164 96.237537 C 78.696505 96.276219 78.366357 96.416504 78.156986 96.74965 L 78.099626 96.808561 A 0.250025 0.250025 0 0 0 78.097559 96.808561 L 78.062419 96.843701 A 0.250025 0.250025 0 0 0 77.994206 97.048857 C 78.027506 97.31996 77.963619 97.68711 77.974569 98.064299 C 77.980231 98.259358 78.018758 98.468867 78.112028 98.660128 L 77.382874 100.6259 L 75.576782 105.49589 A 0.51949316 0.51949316 0 0 0 75.882707 106.16406 L 80.75321 107.97015 L 85.623714 109.77676 A 0.51949316 0.51949316 0 0 0 86.291374 109.4698 L 88.097465 104.59982 L 89.903556 99.72983 A 0.51949316 0.51949316 0 0 0 89.597632 99.061654 L 84.727128 97.255562 L 79.856624 95.448954 A 0.51949316 0.51949316 0 0 0 79.58894 95.42415 L 79.58894 95.423633 z M 96.068038 95.963652 C 96.135538 95.960652 96.20504 95.972158 96.27371 95.997758 C 96.54839 96.099628 96.681901 96.390748 96.580151 96.665417 C 96.478191 96.940037 96.187182 97.073759 95.912492 96.971859 C 95.637812 96.869999 95.504817 96.578869 95.606567 96.304199 C 95.683067 96.098239 95.865568 95.971728 96.068038 95.964168 L 96.068038 95.963652 z M 81.230701 96.715027 C 81.518896 96.713227 81.697617 96.749384 81.843583 96.953255 A 0.250025 0.250025 0 0 0 81.873039 96.986328 C 82.008596 97.118411 82.045577 97.324128 82.035303 97.607479 C 82.026303 97.855256 81.985393 98.135894 81.982593 98.410014 C 81.846674 98.638725 81.695506 98.720892 81.461178 98.755729 C 81.216301 98.792139 80.89996 98.759463 80.570276 98.759863 L 80.597664 98.76193 C 80.248928 98.72294 79.899381 98.760736 79.580155 98.773299 C 79.268585 98.785559 78.99764 98.766198 78.787439 98.677698 C 78.533431 98.525208 78.483426 98.345966 78.474797 98.048796 C 78.467197 97.78607 78.505672 97.455689 78.488232 97.124821 L 78.523372 97.089681 A 0.250025 0.250025 0 0 0 78.564714 97.036971 C 78.708814 96.782977 78.875576 96.739282 79.156409 96.726396 C 79.426098 96.714027 79.764843 96.76957 80.113456 96.740348 C 80.514782 96.806258 80.912222 96.717213 81.230701 96.715027 z M 49.823832 96.83905 C 50.389839 96.82905 50.96769 96.923353 51.531738 97.132572 C 52.434216 97.467272 53.170422 98.049216 53.69388 98.772266 L 53.425163 99.496769 A 0.51949316 0.51949316 0 0 0 53.731604 100.16391 L 54.456108 100.43315 C 54.662951 101.3014 54.623824 102.2391 54.289193 103.14151 C 53.954486 104.04389 53.372999 104.77971 52.650016 105.30313 L 51.924996 105.03442 A 0.51949316 0.51949316 0 0 0 51.257853 105.34086 L 50.989136 106.06588 C 50.120798 106.27275 49.183258 106.23366 48.280774 105.89896 C 47.378297 105.56425 46.642089 104.98231 46.118632 104.25927 L 46.387349 103.53477 A 0.51949316 0.51949316 0 0 0 46.080908 102.86762 L 45.356405 102.59891 C 45.149557 101.73066 45.188172 100.79293 45.522803 99.890544 C 45.85751 98.988145 46.439507 98.251841 47.162496 97.728402 L 47.887 97.997119 A 0.51949316 0.51949316 0 0 0 48.554659 97.690678 L 48.823376 96.966174 C 49.149004 96.888574 49.484228 96.845377 49.823832 96.839567 L 49.823832 96.83905 z M 44.962113 96.911397 L 46.038534 97.310339 C 45.392418 97.902369 44.873676 98.652133 44.548702 99.528292 C 44.403119 99.920875 44.306115 100.3197 44.250012 100.7184 L 44.250012 97.838472 C 44.462598 97.506083 44.698935 97.194302 44.962113 96.911397 z M 75.345789 96.942403 C 75.7287 97.006507 76.111873 97.044975 76.493005 97.050407 L 76.112667 98.076701 C 75.857498 98.062007 75.601683 98.029699 75.345789 97.990918 L 75.345789 96.942403 z M 101.74986 97.273132 L 101.74986 100.15771 C 101.67844 100.26819 101.6043 100.37645 101.52714 100.48172 L 101.52714 100.42591 A 0.250025 0.250025 0 0 0 101.49613 100.30292 C 101.33797 100.02033 101.10884 99.836281 100.86309 99.740165 C 100.83829 99.730465 100.81313 99.725058 100.78816 99.716911 C 101.05312 99.336933 101.28177 98.924414 101.45014 98.470475 C 101.5966 98.075511 101.69395 97.674246 101.74986 97.273132 z M 82.533464 97.550118 L 84.36591 98.229663 L 88.749105 99.855404 L 87.123364 104.2386 L 85.497624 108.62179 L 81.114429 106.99605 L 76.73175 105.37083 L 78.356974 100.98712 L 79.001379 99.249756 C 79.202463 99.277749 79.405248 99.279196 79.60186 99.27146 C 79.776692 99.264582 79.947479 99.253595 80.109839 99.248206 L 79.331075 101.34834 L 78.246903 104.27064 A 0.51949316 0.51949316 0 0 0 78.553861 104.9383 L 81.476164 106.02195 L 84.397949 107.10561 A 0.51949316 0.51949316 0 0 0 85.065609 106.79968 L 86.14978 103.87738 L 87.233435 100.95508 A 0.51949316 0.51949316 0 0 0 86.926477 100.28742 L 84.004692 99.203764 L 82.448197 98.626021 A 0.250025 0.250025 0 0 0 82.474552 98.501998 C 82.464652 98.286329 82.522824 97.961104 82.535014 97.625049 C 82.5359 97.600619 82.533354 97.574952 82.533464 97.550118 z M 49.746318 97.883431 C 48.331145 97.948931 47.019069 98.843548 46.496903 100.25125 C 45.800905 102.12825 46.764483 104.22874 48.641475 104.92486 C 50.518464 105.62098 52.618877 104.6567 53.315092 102.77977 C 54.011095 100.90276 53.04751 98.802286 51.17052 98.106156 C 50.70127 97.932137 50.218044 97.861591 49.746318 97.883431 z M 49.788175 98.91851 C 50.125324 98.90391 50.471656 98.955017 50.809302 99.080257 C 52.159882 99.581167 52.842287 101.06796 52.341508 102.41855 C 51.84053 103.76907 50.353794 104.45218 49.00321 103.95128 C 47.652635 103.45039 46.970225 101.96305 47.471004 100.61246 C 47.846734 99.599575 48.776734 98.9624 49.788175 98.91851 z M 75.345789 99.045634 C 75.476304 99.062398 75.606627 99.077981 75.736979 99.089559 L 75.435189 99.903463 L 75.345789 100.14479 L 75.345789 99.045634 z M 81.20848 99.274044 L 83.643473 100.17735 L 86.078467 101.08014 L 85.175163 103.51565 L 84.272375 105.95116 L 81.836865 105.04837 L 79.401872 104.14455 L 80.305176 101.70904 L 81.20848 99.274044 z M 49.838818 99.960307 C 49.232514 99.989307 48.668004 100.37291 48.445105 100.97368 C 48.148119 101.7748 48.563337 102.67904 49.364429 102.97614 C 50.165526 103.27324 51.070213 102.85837 51.367407 102.05734 C 51.664399 101.25623 51.24918 100.35148 50.448083 100.05436 C 50.247814 99.980058 50.040921 99.950668 49.838818 99.960307 z M 91.888965 100.35098 C 92.480994 100.99724 93.230131 101.51633 94.106401 101.84133 C 94.870195 102.1246 95.656438 102.22775 96.422021 102.18136 L 96.422021 103.06709 L 96.36001 103.23453 C 95.495051 103.26843 94.608771 103.13572 93.745182 102.81543 C 92.881583 102.49515 92.123206 102.0176 91.489506 101.42792 L 91.888965 100.35098 z M 82.04047 100.76543 A 0.51949119 0.51949119 0 0 0 81.640495 101.09615 L 81.279277 102.07077 L 80.918058 103.04487 A 0.51949119 0.51949119 0 0 0 81.2245 103.71202 L 82.1986 104.07323 L 83.172184 104.43445 A 0.51949119 0.51949119 0 0 0 83.839844 104.12853 L 84.201062 103.15443 L 84.56228 102.18033 A 0.51949119 0.51949119 0 0 0 84.256356 101.51267 L 83.282255 101.15197 L 82.308154 100.79075 A 0.51949119 0.51949119 0 0 0 82.04047 100.76543 z M 55.58007 100.84966 L 56.65649 101.24912 C 56.69024 102.114 56.5576 102.99997 56.237394 103.86343 C 55.917132 104.7269 55.439931 105.4854 54.850399 106.1191 L 53.773462 105.71965 C 54.419582 105.12763 54.938832 104.37835 55.26381 103.50221 C 55.588726 102.62602 55.683913 101.71982 55.58007 100.84966 z M 49.881193 100.99435 C 49.948683 100.99135 50.018194 101.00336 50.086865 101.02846 C 50.361543 101.13033 50.494537 101.42144 50.39279 101.69612 C 50.290832 101.97073 50.000327 102.10443 49.725647 102.00256 C 49.450967 101.90069 49.317455 101.60957 49.419206 101.3349 C 49.495676 101.12893 49.678721 101.00191 49.881193 100.99435 z M 57.696737 101.63462 L 58.723547 102.01548 C 58.674237 102.87301 58.500122 103.73824 58.185596 104.58638 C 57.871038 105.43449 57.439227 106.20368 56.917456 106.88598 L 55.890645 106.50513 C 56.443517 105.84341 56.894909 105.07822 57.211495 104.22465 C 57.52804 103.37106 57.684433 102.49683 57.696737 101.63462 z M 82.433728 101.94468 L 82.92052 102.12555 L 83.407829 102.30642 L 83.227478 102.79321 L 83.047127 103.28 L 82.559819 103.09913 L 82.07251 102.91827 L 82.252861 102.43147 L 82.433728 101.94468 z M 101.52714 102.37825 L 101.74986 102.46093 L 101.74986 103.56836 L 101.52714 103.48567 L 101.52714 102.37825 z M 59.735372 102.39065 L 60.549792 102.69296 L 61.364213 102.99475 C 60.864352 103.69246 60.446391 104.46601 60.133797 105.30882 C 59.821234 106.15165 59.633571 107.01034 59.557605 107.86525 L 58.743701 107.56294 L 57.929281 107.26115 C 58.429132 106.56344 58.847102 105.7899 59.159696 104.94708 C 59.472254 104.10425 59.659403 103.24555 59.735372 102.39065 z M 91.103483 102.46816 C 91.765253 103.0211 92.530319 103.47293 93.383964 103.78953 C 94.237623 104.10613 95.112234 104.26249 95.974504 104.27477 L 95.593648 105.30107 C 94.736029 105.25177 93.870975 105.07821 93.022746 104.76363 C 92.174532 104.44905 91.405504 104.01682 90.723145 103.49497 L 91.103483 102.46816 z M 44.250012 103.2955 L 45.232898 103.65982 L 44.250012 106.30979 L 44.250012 103.2955 z M 62.376038 103.36992 L 63.402848 103.75077 C 62.849979 104.4125 62.398585 105.17768 62.081999 106.03125 C 61.765455 106.88484 61.609064 107.75907 61.596757 108.62128 L 60.569946 108.2399 C 60.619256 107.38239 60.792855 106.51711 61.107381 105.669 C 61.42189 104.82103 61.854375 104.05216 62.376038 103.36992 z M 64.443095 104.1368 L 65.519515 104.53625 C 64.873392 105.12827 64.354668 105.87752 64.029683 106.75369 C 63.704772 107.62988 63.60958 108.53609 63.713424 109.40624 L 62.637004 109.00678 C 62.603254 108.14192 62.735904 107.25595 63.056099 106.39247 C 63.376359 105.52902 63.853561 104.77052 64.443095 104.1368 z M 90.347457 104.50783 C 91.045196 105.00776 91.818588 105.42564 92.661528 105.73825 C 93.504463 106.05086 94.363001 106.23799 95.217961 106.31392 L 94.91617 107.12783 L 94.61438 107.94173 C 93.916651 107.4418 93.143244 107.02445 92.300309 106.71183 C 91.457359 106.3992 90.598349 106.21158 89.743359 106.13564 L 90.045667 105.32174 L 90.347457 104.50783 z M 101.52714 104.59362 L 101.74986 104.6763 L 101.74986 105.78476 L 101.52714 105.70208 L 101.52714 104.59362 z M 66.643477 104.95328 L 67.367981 105.222 A 0.51949316 0.51949316 0 0 0 67.683724 105.20081 L 67.683724 105.53826 C 66.923263 105.94172 66.299976 106.60919 65.978402 107.47613 C 65.282391 109.35314 66.245985 111.45362 68.122974 112.14974 C 69.19519 112.5474 70.337927 112.40081 71.251982 111.85364 L 72.876689 111.85364 C 72.651541 112.10657 72.401318 112.33282 72.130998 112.52853 L 71.406494 112.25981 A 0.51949316 0.51949316 0 0 0 70.738835 112.56626 L 70.470117 113.29076 C 69.601785 113.49763 68.664231 113.45854 67.761755 113.12384 C 66.859273 112.78912 66.123076 112.2072 65.599613 111.48415 L 65.868331 110.75965 A 0.51949316 0.51949316 0 0 0 65.56189 110.0925 L 64.837386 109.82379 C 64.630542 108.95552 64.669149 108.01783 65.003784 107.11543 C 65.338497 106.21307 65.920491 105.47672 66.643477 104.95328 z M 45.701603 105.38271 C 46.293625 106.02896 47.042746 106.54756 47.919039 106.87255 C 48.795333 107.19755 49.701858 107.29272 50.572107 107.18881 L 50.172648 108.26626 C 49.3077 108.30016 48.421421 108.16746 47.557821 107.84716 C 46.694228 107.52688 45.935843 107.04932 45.302144 106.45965 L 45.701603 105.38271 z M 96.422021 106.05347 L 96.422021 109.04141 L 95.547139 111.40044 L 94.439197 111.40044 L 95.889754 107.48853 L 96.422021 106.05347 z M 52.05057 106.18887 L 58.382483 108.53704 L 64.713879 110.88522 L 62.365702 117.2161 L 60.313631 122.75013 L 57.867786 122.75013 L 53.686129 121.19932 L 47.354732 118.85114 L 49.702909 112.51975 L 52.05057 106.18887 z M 67.683724 106.78108 L 67.683724 110.69712 C 66.889664 110.00949 66.563811 108.88372 66.951986 107.83683 C 67.10941 107.41245 67.366104 107.05699 67.683724 106.78108 z M 101.52714 106.81002 L 101.74986 106.89218 L 101.74986 108.01563 A 0.51949119 0.51949119 0 0 0 101.52714 108.0146 L 101.52714 106.81002 z M 89.368188 107.1485 C 90.225808 107.1978 91.090881 107.37135 91.939091 107.68593 C 92.787306 108.00052 93.556333 108.43274 94.238692 108.95459 L 93.857837 109.9814 C 93.196068 109.42846 92.431016 108.97664 91.577356 108.66003 C 90.723697 108.34343 89.849622 108.18708 88.987333 108.17479 L 89.368188 107.1485 z M 44.916638 107.49938 C 45.578409 108.0523 46.342947 108.50414 47.196602 108.82075 C 48.050267 109.13734 48.924872 109.29369 49.787142 109.30599 L 49.406287 110.33228 C 48.548679 110.28298 47.683605 110.10942 46.835384 109.79485 C 45.987158 109.48029 45.218139 109.04803 44.535783 108.52619 L 44.916638 107.49938 z M 52.883077 107.67973 A 0.51949316 0.51949316 0 0 0 52.483101 108.01149 L 50.67701 112.88148 L 48.870919 117.75147 A 0.51949316 0.51949316 0 0 0 49.176843 118.41965 L 54.047347 120.22574 L 58.917851 122.03234 A 0.51949316 0.51949316 0 0 0 59.58551 121.72539 L 61.391602 116.8554 L 63.197693 111.98541 A 0.51949316 0.51949316 0 0 0 62.891768 111.31724 L 58.021265 109.51115 L 53.150761 107.70454 A 0.51949316 0.51949316 0 0 0 52.883077 107.67973 z M 75.345789 108.18048 L 76.137472 108.47452 C 76.171211 109.33936 76.038571 110.22536 75.718376 111.08883 C 75.39811 111.95229 74.920903 112.71079 74.33138 113.3445 L 73.254443 112.94556 C 73.602255 112.62688 73.909773 112.25903 74.17325 111.85364 L 74.566508 111.85364 A 0.250025 0.250025 0 0 0 74.687431 111.82212 C 75.064226 111.61121 75.256177 111.2755 75.322534 110.94155 C 75.388894 110.60759 75.356862 110.27202 75.343722 109.96486 L 75.345789 109.97468 L 75.345789 108.18048 z M 53.276851 108.85951 L 57.660046 110.48525 L 62.042725 112.11099 L 60.417501 116.49418 L 58.79176 120.87738 L 54.408565 119.25164 L 50.02537 117.62641 L 51.651111 113.2427 L 53.276851 108.85951 z M 77.177718 108.85951 L 78.204529 109.24036 C 78.155219 110.09789 77.981608 110.96312 77.667094 111.81126 C 77.352522 112.65937 76.920215 113.42857 76.398437 114.11086 L 75.371627 113.73001 C 75.924486 113.06829 76.375891 112.3031 76.692476 111.44953 C 77.009025 110.59595 77.1654 109.7217 77.177718 108.85951 z M 88.926872 109.20987 C 89.687866 109.21683 90.461005 109.35277 91.216654 109.6331 C 92.080255 109.95338 92.838671 110.43093 93.472331 111.02061 L 93.300248 111.48518 C 93.16082 111.62461 93.021316 111.76412 92.881669 111.90376 C 92.322083 111.34853 91.640532 110.89908 90.854919 110.60772 C 89.97862 110.28273 89.072091 110.18755 88.201851 110.29146 L 88.60131 109.21452 C 88.709429 109.21028 88.818158 109.20888 88.926872 109.20987 z M 44.250012 109.60055 C 44.924321 110.07257 45.666929 110.46905 46.474166 110.76843 C 47.317106 111.08106 48.175614 111.26869 49.030599 111.34462 L 48.728809 112.15853 L 48.427018 112.97243 C 47.729286 112.4725 46.955897 112.05515 46.112948 111.74253 C 45.497753 111.51438 44.874354 111.35977 44.250012 111.26039 L 44.250012 109.60055 z M 101.74986 109.61501 L 101.74986 110.21653 L 101.55401 110.14418 L 101.73436 109.65687 L 101.74986 109.61501 z M 79.21687 109.61553 L 80.030774 109.91784 L 80.845194 110.21963 C 80.345336 110.91731 79.92737 111.69089 79.614779 112.5337 C 79.302218 113.37652 79.115061 114.23521 79.039103 115.09013 L 78.224683 114.78783 L 77.410262 114.48604 C 77.910118 113.78834 78.328071 113.01477 78.640678 112.17196 C 78.953229 111.32914 79.140912 110.47045 79.21687 109.61553 z M 54.108842 110.35037 A 0.51949316 0.51949316 0 0 0 53.70835 110.68213 L 52.624695 113.60392 L 51.54104 116.52622 A 0.51949316 0.51949316 0 0 0 51.847998 117.19388 L 54.769784 118.27753 L 57.692086 119.36119 A 0.51949316 0.51949316 0 0 0 58.359745 119.05527 L 59.4434 116.13296 L 60.527572 113.21066 A 0.51949316 0.51949316 0 0 0 60.220614 112.543 L 57.298311 111.45935 L 54.376526 110.37569 A 0.51949316 0.51949316 0 0 0 54.108842 110.35089 L 54.108842 110.35037 z M 81.857019 110.59532 L 82.88383 110.97566 C 82.33096 111.63738 81.879571 112.40257 81.56298 113.25614 C 81.24643 114.10973 81.090048 114.98397 81.077738 115.84616 L 80.050928 115.4653 C 80.100228 114.60778 80.274361 113.74305 80.588879 112.89492 C 80.903449 112.04682 81.335244 111.27764 81.857019 110.59532 z M 101.47908 111.22422 L 101.6801 111.29915 L 101.74986 111.32499 L 101.74986 111.39268 C 101.65346 111.39468 101.55789 111.39337 101.46461 111.39837 C 101.47168 111.33997 101.47371 111.28286 101.47908 111.22422 z M 88.785795 111.28881 C 89.351805 111.27881 89.929642 111.37261 90.493701 111.58182 C 91.39615 111.91652 92.132394 112.49846 92.655843 113.22151 L 92.387126 113.94602 A 0.51949316 0.51949316 0 0 0 92.693567 114.61368 L 92.70907 114.61936 L 92.70907 118.631 C 92.404854 119.07048 92.032604 119.44786 91.611979 119.75238 L 90.887476 119.48366 A 0.51949316 0.51949316 0 0 0 90.219816 119.7901 L 89.951099 120.51461 C 89.08276 120.72147 88.145216 120.68239 87.242737 120.34769 C 86.340248 120.01299 85.604063 119.43157 85.080595 118.70852 L 85.349312 117.9835 A 0.51949316 0.51949316 0 0 0 85.042871 117.31635 L 84.318368 117.04764 C 84.111518 116.17937 84.150642 115.24168 84.485282 114.33927 C 84.819992 113.43689 85.401469 112.70054 86.124459 112.17713 L 86.849479 112.44585 A 0.51949316 0.51949316 0 0 0 87.516622 112.13993 L 87.785339 111.4149 C 88.110969 111.3373 88.446185 111.29462 88.785795 111.28881 z M 83.924076 111.36168 L 85.001013 111.76114 C 84.354884 112.35316 83.835655 113.1024 83.510665 113.97857 C 83.185755 114.85476 83.090555 115.76096 83.194405 116.63112 L 82.117985 116.23218 C 82.084185 115.36731 82.216891 114.48082 82.537081 113.61735 C 82.857321 112.7539 83.334537 111.99539 83.924076 111.36168 z M 54.5021 111.53014 L 56.93761 112.43293 L 59.372603 113.33623 L 58.469299 115.77174 L 57.565995 118.20674 L 55.131002 117.30395 L 52.696008 116.40065 L 53.599312 113.96514 L 54.5021 111.53014 z M 44.250012 112.31304 C 44.75309 112.40293 45.255313 112.53253 45.751729 112.71663 C 46.599957 113.03121 47.368983 113.46344 48.051331 113.98529 L 47.670992 115.0121 C 47.009234 114.45915 46.244169 114.00733 45.390511 113.69073 C 45.013487 113.5509 44.632304 113.44657 44.250012 113.36879 L 44.250012 112.31304 z M 88.708797 112.33371 C 87.293619 112.39921 85.981543 113.2933 85.459383 114.70101 C 84.763394 116.57799 85.726957 118.67851 87.603955 119.37463 C 89.480943 120.07074 91.580825 119.10647 92.277055 117.22954 C 92.97306 115.35253 92.009452 113.25205 90.132483 112.55592 C 89.663233 112.38189 89.180537 112.31187 88.708797 112.33371 z M 65.182585 112.6076 C 65.774668 113.25381 66.52424 113.77295 67.400537 114.09795 C 68.276833 114.42293 69.183356 114.51759 70.053605 114.41369 L 69.654146 115.49114 C 68.7892 115.52504 67.902396 115.39235 67.038802 115.07205 C 66.175204 114.75177 65.416822 114.2742 64.783126 113.68453 L 65.182585 112.6076 z M 55.334607 113.02153 A 0.51949119 0.51949119 0 0 0 54.934631 113.35225 L 54.573413 114.32687 L 54.212195 115.30097 A 0.51949119 0.51949119 0 0 0 54.518119 115.96812 L 55.49222 116.32933 L 56.466321 116.69107 A 0.51949119 0.51949119 0 0 0 57.13398 116.38463 L 57.495199 115.41053 L 57.856417 114.43591 A 0.51949119 0.51949119 0 0 0 57.549976 113.76928 L 56.575875 113.40806 L 55.601774 113.04685 A 0.51949119 0.51949119 0 0 0 55.334607 113.02204 L 55.334607 113.02153 z M 88.750655 113.36827 C 89.087805 113.35367 89.433605 113.40477 89.771265 113.53002 C 91.121833 114.03091 91.804241 115.51775 91.303471 116.86832 C 90.802521 118.21884 89.315742 118.90141 87.965173 118.40052 C 86.614595 117.89964 85.932208 116.41282 86.432967 115.06223 C 86.808707 114.04935 87.739216 113.41217 88.750655 113.36827 z M 71.531551 113.41375 L 77.863464 115.76193 L 84.194861 118.1101 L 82.474036 122.75013 L 81.365576 122.75013 L 82.678674 119.21029 A 0.51949316 0.51949316 0 0 0 82.37275 118.54212 L 77.502246 116.73603 L 72.631742 114.92942 A 0.51949316 0.51949316 0 0 0 72.364058 114.90461 A 0.51949316 0.51949316 0 0 0 71.964083 115.23638 L 70.157992 120.10636 L 69.17769 122.75013 L 68.06923 122.75013 L 69.183891 119.74463 L 71.531551 113.41375 z M 55.727348 114.20078 L 56.214657 114.38165 L 56.701965 114.56252 L 56.521615 115.04931 L 56.340747 115.5361 L 55.853438 115.35523 L 55.366646 115.17488 L 55.546997 114.68757 L 55.727348 114.20078 z M 88.800781 114.41007 C 88.194472 114.43897 87.629958 114.82268 87.407068 115.42345 C 87.110068 116.22455 87.525302 117.12931 88.326392 117.42642 C 89.127461 117.72351 90.03218 117.30812 90.32937 116.5071 C 90.62637 115.70599 90.211136 114.80173 89.410046 114.50464 C 89.209777 114.43034 89.002861 114.40049 88.800781 114.41007 z M 44.250012 114.43849 C 44.510929 114.49891 44.771309 114.56864 45.029293 114.66432 C 45.892891 114.9846 46.651278 115.46215 47.284969 116.05183 L 46.88551 117.12928 C 46.293433 116.48308 45.544367 115.96394 44.668075 115.63894 C 44.529444 115.58752 44.389949 115.54409 44.250012 115.50406 L 44.250012 114.43849 z M 64.39762 114.72426 C 65.059385 115.27718 65.824439 115.72903 66.678101 116.04563 C 67.53176 116.36224 68.405848 116.51859 69.268123 116.53087 L 68.887785 117.55717 C 68.030171 117.50787 67.164594 117.3343 66.316366 117.01973 C 65.468135 116.70514 64.69912 116.27292 64.016764 115.75107 L 64.39762 114.72426 z M 88.843156 115.44463 C 88.910656 115.44163 88.980158 115.45262 89.048828 115.47822 C 89.323508 115.5801 89.457029 115.8712 89.355269 116.14588 C 89.253319 116.42049 88.96229 116.55473 88.68761 116.45284 C 88.41293 116.35097 88.279935 116.05934 88.381685 115.78466 C 88.458185 115.5787 88.640686 115.45219 88.843156 115.44463 z M 72.757833 116.0849 L 77.141028 117.71013 L 81.523706 119.33587 L 80.257633 122.75013 L 79.150208 122.75013 L 80.008553 120.43554 A 0.51949316 0.51949316 0 0 0 79.701595 119.76788 L 76.77981 118.68423 L 73.857507 117.60057 A 0.51949316 0.51949316 0 0 0 73.589823 117.57577 A 0.51949316 0.51949316 0 0 0 73.189848 117.90701 L 72.105676 120.8288 L 71.393058 122.75013 L 70.285632 122.75013 L 71.132092 120.4681 L 72.757833 116.0849 z M 44.250012 116.59443 C 44.268909 116.6011 44.288003 116.60604 44.306856 116.61304 C 45.209335 116.94774 45.945542 117.52968 46.468998 118.25273 L 46.200281 118.97723 A 0.51949316 0.51949316 0 0 0 46.506722 119.64489 L 47.231226 119.91361 C 47.438078 120.78187 47.398944 121.71906 47.064311 122.62146 C 47.047925 122.66563 47.027587 122.70708 47.009534 122.75013 L 45.999776 122.75013 C 45.953326 122.75013 45.907834 122.74641 45.862317 122.7429 C 45.947985 122.5892 46.027185 122.43067 46.09021 122.26075 C 46.747075 120.4893 45.922384 118.52405 44.250012 117.72305 L 44.250012 116.59443 z M 63.641077 116.76393 C 64.338809 117.26386 65.112211 117.68173 65.955147 117.99435 C 66.798094 118.30698 67.657111 118.49461 68.512097 118.57054 L 68.210307 119.38393 L 67.908 120.19783 C 67.210263 119.6979 66.43687 119.28055 65.593929 118.96793 C 64.750994 118.65531 63.892487 118.46767 63.037496 118.39174 L 63.339286 117.57784 L 63.641077 116.76393 z M 73.983081 118.75503 L 76.418591 119.65833 L 78.853585 120.56112 L 78.041748 122.75013 L 76.933805 122.75013 L 76.97618 122.63541 L 77.337398 121.66079 A 0.51949119 0.51949119 0 0 0 77.030957 120.99365 L 76.057373 120.63243 L 75.083272 120.27121 A 0.51949119 0.51949119 0 0 0 74.815588 120.24641 A 0.51949119 0.51949119 0 0 0 74.415613 120.57765 L 74.054395 121.55175 L 73.693176 122.52585 A 0.51949119 0.51949119 0 0 0 73.684391 122.75013 L 72.501518 122.75013 L 73.080294 121.19054 L 73.983081 118.75503 z M 44.250012 118.93073 C 45.141576 119.6034 45.526138 120.79509 45.116626 121.89954 C 45.056275 122.06224 44.980321 122.21429 44.892867 122.35636 C 44.500281 122.03595 44.250012 121.54837 44.250012 120.99985 L 44.250012 118.93073 z M 62.661808 119.4046 C 63.519417 119.4539 64.384489 119.62745 65.232711 119.94203 C 66.080937 120.25661 66.850471 120.68885 67.532829 121.21069 L 67.151973 122.2375 C 66.490207 121.68456 65.725155 121.23273 64.871493 120.91613 C 64.017836 120.59954 63.143746 120.44317 62.28147 120.43089 L 62.661808 119.4046 z M 84.664083 119.83248 C 85.256172 120.47868 86.005219 120.99783 86.881519 121.32283 C 87.757808 121.64782 88.664337 121.74247 89.534587 121.63857 L 89.135128 122.71602 C 88.270179 122.74992 87.383889 122.61723 86.5203 122.29693 C 85.656701 121.97664 84.897817 121.49909 84.264107 120.90942 L 84.664083 119.83248 z M 48.354671 120.33012 L 49.431608 120.72958 C 49.45768 121.39753 49.375694 122.07723 49.191829 122.75013 L 48.116443 122.75013 C 48.375911 121.94689 48.449347 121.12342 48.354671 120.33012 z M 91.013049 120.63863 L 92.70907 121.26753 L 92.70907 122.37599 L 92.112724 122.15482 A 0.51949316 0.51949316 0 0 0 91.84504 122.13001 A 0.51949316 0.51949316 0 0 0 91.445064 122.46126 L 91.338094 122.75013 L 90.230151 122.75013 L 91.013049 120.63863 z M 50.471855 121.11509 L 51.498665 121.49594 C 51.47467 121.91331 51.414976 122.3321 51.32865 122.75013 L 50.266182 122.75013 C 50.392914 122.20572 50.464104 121.6581 50.471855 121.11509 z M 75.208846 121.42566 L 75.695638 121.60653 L 76.182947 121.7874 L 76.002596 122.27419 L 75.825863 122.75013 L 75.792273 122.75013 L 75.334937 122.58011 L 74.847628 122.39976 L 75.027979 121.91297 L 75.208846 121.42566 z M 62.221008 121.46597 C 62.981904 121.47294 63.754626 121.60896 64.510274 121.8892 C 65.095993 122.10643 65.628729 122.40094 66.110177 122.75013 L 63.810059 122.75013 C 63.040562 122.51794 62.254409 122.457 61.495988 122.54756 L 61.895447 121.47062 C 62.003566 121.46638 62.112309 121.46497 62.221008 121.46597 z M 52.51049 121.87163 L 53.32491 122.17342 L 54.139331 122.47521 C 54.075313 122.56457 54.015952 122.65813 53.954846 122.75013 L 52.385433 122.75013 C 52.439298 122.45737 52.48448 122.16436 52.51049 121.87163 z M 83.878601 121.94915 C 84.237044 122.24863 84.627651 122.51622 85.044938 122.75013 L 83.581462 122.75013 L 83.878601 121.94915 z " />
  </g>
</svg>
